# Blender v2.92.0 OBJ File: ''
# www.blender.org
mtllib Mesh1 Group1 Model.159.mtl
o Mesh1_Group1_Model.159
v -0.500000 0.500000 -0.125000
v -0.500000 0.000000 -0.125000
v -0.400000 0.000000 -0.125000
v -0.400000 0.500000 -0.125000
v -0.500000 0.000000 0.125000
v -0.500000 0.000000 0.250000
v -0.500000 0.625000 0.250000
v -0.500000 0.625000 -0.250000
v -0.500000 0.000000 -0.250000
v -0.500000 0.500000 0.125000
v 0.500000 0.000000 0.500000
v -0.250000 0.000000 0.500000
v -0.400000 0.000000 0.125000
v -0.250000 0.000000 -0.500000
v 0.500000 0.000000 -0.500000
v -0.250000 0.625000 0.500000
v 0.500000 0.625000 0.500000
v 0.500000 0.625000 -0.500000
v -0.250000 0.625000 -0.500000
v -0.400000 0.500000 0.125000
vt -9.842520 24.606300
vt -29.527599 24.606300
vt -14.763800 19.684999
vt -0.000000 29.527599
vt -9.842520 39.370098
vt -3.937010 24.606300
vt 0.000000 19.684999
vt 0.000000 0.000000
vt 3.937010 0.000000
vt -39.370098 39.370098
vt -39.370098 0.000000
vt 9.842520 39.370098
vt 0.000000 29.527599
vt 9.842520 0.000000
vt -0.000000 14.763800
vt -0.000000 24.606300
vt -3.937010 24.606300
vt -0.000000 0.000000
vt -0.000000 19.684999
vt -3.937010 19.684999
vt -20.879101 24.606300
vt -34.798599 24.606300
vt -34.798599 0.000000
vt -39.370098 0.000000
vt -9.842520 0.000000
vt -9.842520 24.606300
vt 39.370098 0.000000
vt 39.370098 24.606300
vt 0.000000 24.606300
vt 39.370098 0.000000
vt 9.842520 24.606300
vt 39.370098 0.000000
vt 39.370098 24.606300
vt -14.763800 0.000000
vt -9.842520 0.000000
vt -29.527599 0.000000
vt -24.606300 19.684999
vt -24.606300 0.000000
vt 9.842520 0.000000
vt -9.842520 0.000000
vt -3.937010 14.763800
vt 0.000000 9.842520
vt -0.000000 14.763800
vt 6.959710 24.606300
vt -6.959710 24.606300
vt -6.959710 0.000000
vt -0.000000 24.606300
vt 6.959710 0.000000
vt 39.370098 39.370098
vt 0.000000 9.842520
vt 0.000000 0.000000
vt -39.370098 24.606300
vt -20.879101 0.000000
vt -3.937010 0.000000
vt -3.937010 14.763800
vt 3.937010 19.684999
vt -14.763800 19.684999
vt -24.606300 19.684999
vt -24.606300 0.000000
vt -14.763800 0.000000
vn -1.0000 0.0000 0.0000
vn 0.0000 -1.0000 -0.0000
vn 0.0000 -0.0000 1.0000
vn 0.0000 1.0000 0.0000
vn 0.0000 0.0000 -1.0000
vn -0.7071 0.0000 -0.7071
vn 1.0000 0.0000 0.0000
vn -0.7071 0.0000 0.7071
usemtl Brick.121
s 1
f 7/1/1 8/2/1 10/3/1
f 9/4/2 14/5/2 3/6/2
f 1/7/3 2/8/3 3/9/3
f 15/10/2 11/11/2 3/6/2
f 19/12/4 8/13/4 16/14/4
f 10/15/2 1/16/2 4/17/2
f 5/18/5 10/19/5 20/20/5
f 8/21/6 19/22/6 14/23/6
f 15/24/5 14/25/5 19/26/5
f 15/27/7 18/28/7 17/29/7
f 19/12/4 16/14/4 17/30/4
f 16/31/3 11/32/3 17/33/3
f 10/3/1 5/34/1 6/35/1
f 8/2/1 9/36/1 1/37/1
f 9/36/1 2/38/1 1/37/1
f 10/3/1 6/35/1 7/1/1
f 8/2/1 1/37/1 10/3/1
f 16/31/3 12/39/3 11/32/3
f 11/11/2 12/40/2 13/41/2
f 3/6/2 11/11/2 13/41/2
f 12/40/2 6/42/2 13/41/2
f 6/42/2 5/43/2 13/41/2
f 16/44/8 7/45/8 6/46/8
f 2/47/2 9/4/2 3/6/2
f 16/44/8 6/46/8 12/48/8
f 19/12/4 17/30/4 18/49/4
f 8/13/4 7/50/4 16/14/4
f 15/27/7 17/29/7 11/51/7
f 15/24/5 19/26/5 18/52/5
f 8/21/6 14/23/6 9/53/6
f 5/18/5 20/20/5 13/54/5
f 10/15/2 4/17/2 20/55/2
f 15/10/2 3/6/2 14/5/2
f 1/7/3 3/9/3 4/56/3
usemtl Glass.072
f 20/57/1 4/58/1 3/59/1
f 20/57/1 3/59/1 13/60/1
