# Blender v2.92.0 OBJ File: ''
# www.blender.org
mtllib Mesh1 Group1 Model.167.mtl
o Mesh1_Group1_Model.167
v -0.500000 0.500000 0.218750
v -0.500000 0.078125 0.218750
v -0.400000 0.078125 0.218750
v -0.400000 0.500000 0.218750
v -0.500000 0.500000 0.125000
v -0.500000 0.625000 -0.500000
v -0.500000 0.500000 0.406250
v -0.500000 0.625000 0.500000
v -0.500000 0.000000 0.500000
v -0.500000 0.078125 0.406250
v -0.500000 0.000000 0.125000
v -0.400000 0.078125 0.406250
v -0.400000 0.500000 0.406250
v -0.400000 0.500000 0.125000
v -0.400000 0.000000 0.125000
v -0.500000 0.500000 -0.125000
v -0.400000 0.500000 -0.125000
v -0.500000 0.000000 -0.125000
v -0.500000 0.000000 -0.500000
v 0.500000 0.625000 -0.500000
v 0.500000 0.000000 -0.500000
v 0.500000 0.625000 0.500000
v 0.500000 0.000000 0.500000
v -0.400000 0.000000 -0.125000
vt -3.937010 24.606300
vt -39.370098 0.000000
vt -3.937010 14.763800
vt -11.072800 19.684999
vt -39.370098 24.606300
vt -14.763800 19.684999
vt -3.690940 19.684999
vt 0.000000 24.606300
vt 0.000000 0.000000
vt -3.690940 3.075790
vt -14.763800 0.000000
vt -11.072800 3.075790
vt 0.000000 19.684999
vt 0.000000 3.075790
vt 3.937010 3.075790
vt -39.370098 0.000000
vt -24.606300 0.000000
vt -24.606300 19.684999
vt 0.000000 19.684999
vt 0.000000 0.000000
vt 3.937010 0.000000
vt 0.000000 11.072800
vt 0.000000 3.690940
vt 3.937010 3.690940
vt 39.370098 0.000000
vt 39.370098 24.606300
vt 0.000000 24.606300
vt 39.370098 0.000000
vt 39.370098 24.606300
vt 0.000000 3.075790
vt 0.000000 19.684999
vt -3.937010 19.684999
vt -0.000000 39.370098
vt -0.000000 0.000000
vt 39.370098 0.000000
vt 0.000000 0.000000
vt 0.000000 24.606300
vt -39.370098 24.606300
vt 0.000000 14.763800
vt 0.000000 24.606300
vt -3.937010 24.606300
vt 0.000000 0.000000
vt 0.000000 19.684999
vt -3.937010 19.684999
vt 0.000000 3.690940
vt 0.000000 11.072800
vt -3.937010 11.072800
vt 3.937010 11.072800
vt -3.937010 3.075790
vt -3.937010 3.690940
vt -3.937010 0.000000
vt -3.937010 14.763800
vt -39.370098 0.000000
vt 39.370098 39.370098
vt 0.000000 0.000000
vt -39.370098 39.370098
vt 0.000000 14.763800
vt 0.000000 24.606300
vt 0.000000 39.370098
vt 3.937010 19.684999
vt 3.937010 19.684999
vt -14.763800 19.684999
vt -24.606300 19.684999
vt -24.606300 0.000000
vt -3.690940 19.684999
vt -11.072800 19.684999
vt -11.072800 3.075790
vt -3.690940 3.075790
vt -14.763800 0.000000
vn 0.0000 -1.0000 -0.0000
vn -1.0000 0.0000 0.0000
vn 0.0000 -0.0000 1.0000
vn 0.0000 1.0000 0.0000
vn 1.0000 0.0000 0.0000
vn 0.0000 0.0000 -1.0000
usemtl Brick.130
s 1
f 24/1/1 23/2/1 15/3/1
f 1/4/2 6/5/2 5/6/2
f 7/7/2 6/5/2 1/4/2
f 7/7/2 8/8/2 6/5/2
f 8/8/2 7/7/2 9/9/2
f 10/10/2 9/9/2 7/7/2
f 9/9/2 10/10/2 11/11/2
f 11/11/2 10/10/2 2/12/2
f 1/13/3 2/14/3 3/15/3
f 19/16/2 18/17/2 16/18/2
f 16/19/3 18/20/3 24/21/3
f 2/22/4 10/23/4 12/24/4
f 21/25/5 20/26/5 22/27/5
f 23/28/3 22/29/3 8/8/3
f 5/6/2 6/5/2 16/18/2
f 2/12/2 5/6/2 11/11/2
f 10/30/6 7/31/6 13/32/6
f 6/33/4 8/34/4 22/35/4
f 19/36/6 6/37/6 20/38/6
f 5/39/1 16/40/1 17/41/1
f 11/42/6 5/43/6 14/44/6
f 2/12/2 1/4/2 5/6/2
f 7/45/1 1/46/1 4/47/1
f 2/22/4 12/24/4 3/48/4
f 10/30/6 13/32/6 12/49/6
f 7/45/1 4/47/1 13/50/1
f 11/42/6 14/44/6 15/51/6
f 5/39/1 17/41/1 14/52/1
f 19/36/6 20/38/6 21/53/6
f 6/33/4 22/35/4 20/54/4
f 23/28/3 8/8/3 9/9/3
f 21/25/5 22/27/5 23/55/5
f 24/1/1 21/56/1 23/2/1
f 23/2/1 9/9/1 15/3/1
f 9/9/1 11/57/1 15/3/1
f 24/1/1 18/58/1 19/59/1
f 24/1/1 19/59/1 21/56/1
f 16/19/3 24/21/3 17/60/3
f 19/16/2 16/18/2 6/5/2
f 1/13/3 3/15/3 4/61/3
usemtl Glass.078
f 14/62/2 17/63/2 24/64/2
f 13/65/2 4/66/2 3/67/2
f 13/65/2 3/67/2 12/68/2
f 14/62/2 24/64/2 15/69/2
