# Blender v2.92.0 OBJ File: ''
# www.blender.org
mtllib Mesh1 Group1 Model.059.mtl
o Mesh1_Group1_Model.059
v -0.500000 0.500000 -0.125000
v -0.500000 0.000000 -0.125000
v -0.400000 0.000000 -0.125000
v -0.400000 0.500000 -0.125000
v -0.500000 0.000000 0.125000
v -0.500000 0.000000 0.250000
v -0.500000 0.625000 0.250000
v -0.500000 0.625000 -0.250000
v -0.500000 0.000000 -0.250000
v -0.500000 0.500000 0.125000
v 0.500000 0.000000 0.500000
v -0.250000 0.000000 0.500000
v -0.400000 0.000000 0.125000
v -0.250000 0.000000 -0.500000
v 0.500000 0.000000 -0.500000
v -0.250000 0.625000 0.500000
v 0.500000 0.625000 0.500000
v 0.500000 0.625000 -0.500000
v -0.250000 0.625000 -0.500000
v -0.400000 0.500000 0.125000
vt 0.000000 0.000000
vt 3.937010 19.684999
vt 0.000000 19.684999
vt -9.842520 24.606300
vt -29.527599 24.606300
vt -14.763800 19.684999
vt -0.000000 29.527599
vt -9.842520 39.370098
vt -3.937010 24.606300
vt 9.842520 0.000000
vt 39.370098 24.606300
vt 9.842520 24.606300
vt -6.959710 24.606300
vt 6.959710 0.000000
vt 6.959710 24.606300
vt 9.842520 39.370098
vt 0.000000 29.527599
vt 9.842520 0.000000
vt 39.370098 24.606300
vt 0.000000 0.000000
vt 39.370098 0.000000
vt -9.842520 0.000000
vt -39.370098 24.606300
vt -39.370098 0.000000
vt -34.798599 24.606300
vt -20.879101 0.000000
vt -20.879101 24.606300
vt -0.000000 19.684999
vt -3.937010 0.000000
vt -0.000000 0.000000
vt -0.000000 24.606300
vt -3.937010 14.763800
vt -0.000000 14.763800
vt 3.937010 0.000000
vt -14.763800 0.000000
vt -9.842520 0.000000
vt -29.527599 0.000000
vt -24.606300 19.684999
vt -24.606300 0.000000
vt -39.370098 39.370098
vt -39.370098 0.000000
vt -9.842520 0.000000
vt -3.937010 14.763800
vt 0.000000 9.842520
vt -0.000000 14.763800
vt -0.000000 24.606300
vt 39.370098 0.000000
vt -6.959710 0.000000
vt 0.000000 9.842520
vt 39.370098 0.000000
vt 39.370098 39.370098
vt 0.000000 24.606300
vt -9.842520 24.606300
vt -34.798599 0.000000
vt -3.937010 19.684999
vt -3.937010 24.606300
vt -24.606300 19.684999
vt -14.763800 0.000000
vt -14.763800 19.684999
vt -24.606300 0.000000
vn 0.0000 -0.0000 1.0000
vn -1.0000 0.0000 0.0000
vn 0.0000 -1.0000 -0.0000
vn -0.7071 0.0000 0.7071
vn 0.0000 1.0000 0.0000
vn 1.0000 0.0000 0.0000
vn 0.0000 0.0000 -1.0000
vn -0.7071 0.0000 -0.7071
usemtl Brick.056
s 1
f 2/1/1 4/2/1 1/3/1
f 7/4/2 8/5/2 10/6/2
f 9/7/3 14/8/3 3/9/3
f 12/10/1 17/11/1 16/12/1
f 7/13/4 12/14/4 16/15/4
f 19/16/5 8/17/5 16/18/5
f 18/19/6 11/20/6 15/21/6
f 14/22/7 18/23/7 15/24/7
f 19/25/8 9/26/8 8/27/8
f 10/28/7 13/29/7 5/30/7
f 1/31/3 20/32/3 10/33/3
f 2/1/1 3/34/1 4/2/1
f 10/6/2 5/35/2 6/36/2
f 8/5/2 9/37/2 1/38/2
f 9/37/2 2/39/2 1/38/2
f 10/6/2 6/36/2 7/4/2
f 8/5/2 1/38/2 10/6/2
f 15/40/3 11/41/3 3/9/3
f 11/41/3 12/42/3 13/43/3
f 3/9/3 11/41/3 13/43/3
f 12/42/3 6/44/3 13/43/3
f 6/44/3 5/45/3 13/43/3
f 14/8/3 15/40/3 3/9/3
f 2/46/3 9/7/3 3/9/3
f 12/10/1 11/47/1 17/11/1
f 7/13/4 6/48/4 12/14/4
f 8/17/5 7/49/5 16/18/5
f 16/18/5 17/50/5 18/51/5
f 18/51/5 19/16/5 16/18/5
f 18/19/6 17/52/6 11/20/6
f 14/22/7 19/53/7 18/23/7
f 19/25/8 14/54/8 9/26/8
f 10/28/7 20/55/7 13/29/7
f 1/31/3 4/56/3 20/32/3
usemtl Glass.030
f 4/57/2 13/58/2 20/59/2
f 4/57/2 3/60/2 13/58/2
