# Blender v2.92.0 OBJ File: ''
# www.blender.org
mtllib Mesh1 Group1 Model.149.mtl
o Mesh1_Group1_Model.149
v -0.500000 0.000000 -0.500000
v -0.500000 0.000000 0.000000
v -0.500000 0.625000 0.000000
v -0.500000 0.625000 -0.500000
v 0.500000 0.000000 0.500000
v 0.000000 0.000000 0.500000
v 0.500000 0.000000 -0.500000
v 0.000000 0.625000 0.500000
v 0.500000 0.625000 0.500000
v -0.139515 0.502500 0.360485
v 0.500000 0.625000 -0.500000
v -0.360485 0.502500 0.139515
v -0.360485 0.122500 0.139515
v -0.139515 0.122500 0.360485
v -0.068804 0.502500 0.289775
v -0.068804 0.122500 0.289775
v -0.289775 0.502500 0.068804
v -0.289775 0.122500 0.068804
vt 0.000000 19.684999
vt -0.000000 39.370098
vt -39.370098 39.370098
vt -39.370098 -0.000000
vt -19.684999 0.000000
vt -19.684999 24.606300
vt 13.919400 0.000000
vt 13.919400 24.606300
vt 6.151570 19.783501
vt -13.919400 24.606300
vt 19.684999 0.000000
vt 39.370098 0.000000
vt 39.370098 39.370098
vt -16.976200 8.276580
vt -14.192300 5.492700
vt -5.492700 14.192300
vt -6.151570 4.822830
vt -6.151570 19.783501
vt 6.151570 4.822830
vt 39.370098 0.000000
vt 39.370098 24.606300
vt 0.000000 24.606300
vt -13.919400 0.000000
vt 19.684999 24.606300
vt 19.684999 0.000000
vt 39.370098 0.000000
vt -13.919400 4.822830
vt -13.919400 19.783501
vt -17.856400 19.783501
vt 8.276580 16.976200
vt 5.492700 14.192300
vt 14.192300 5.492700
vt -0.000000 0.000000
vt -0.000000 24.606300
vt -39.370098 24.606300
vt 13.919400 19.783501
vt 13.919400 4.822830
vt 17.856400 4.822830
vt 39.370098 24.606300
vt -39.370098 0.000000
vt -19.684999 0.000000
vt 0.000000 0.000000
vt 0.000000 39.370098
vt 0.000000 19.684999
vt -39.370098 0.000000
vt -17.856400 4.822830
vt 17.856400 19.783501
vt 16.976200 8.276580
vt -8.276580 16.976200
vt -39.370098 24.606300
vt 6.151570 19.783501
vt -6.151570 19.783501
vt -6.151570 4.822830
vt 6.151570 4.822830
vn 0.0000 -1.0000 -0.0000
vn -1.0000 0.0000 0.0000
vn -0.7071 -0.0000 0.7071
vn 0.0000 1.0000 0.0000
vn 1.0000 0.0000 0.0000
vn 0.0000 0.0000 1.0000
vn -0.7071 0.0000 -0.7071
vn 0.0000 0.0000 -1.0000
vn 0.7071 -0.0000 0.7071
usemtl Brick.111
s 1
f 2/1/1 1/2/1 7/3/1
f 1/4/2 2/5/2 3/6/2
f 6/7/3 8/8/3 10/9/3
f 10/9/3 8/8/3 3/10/3
f 8/11/4 9/12/4 11/13/4
f 15/14/1 10/15/1 12/16/1
f 13/17/3 12/18/3 3/10/3
f 10/9/3 3/10/3 12/18/3
f 6/7/3 10/9/3 14/19/3
f 7/20/5 11/21/5 9/22/5
f 2/23/3 14/19/3 13/17/3
f 6/7/3 14/19/3 2/23/3
f 8/24/6 6/25/6 5/26/6
f 14/27/7 10/28/7 15/29/7
f 18/30/4 13/31/4 14/32/4
f 1/33/8 4/34/8 11/35/8
f 12/36/9 13/37/9 18/38/9
f 8/24/6 5/26/6 9/39/6
f 7/3/1 5/40/1 6/41/1
f 6/41/1 2/1/1 7/3/1
f 7/20/5 9/22/5 5/42/5
f 11/13/4 4/43/4 3/44/4
f 3/44/4 8/11/4 11/13/4
f 1/33/8 11/35/8 7/45/8
f 14/27/7 15/29/7 16/46/7
f 12/36/9 18/38/9 17/47/9
f 18/30/4 14/32/4 16/48/4
f 13/17/3 3/10/3 2/23/3
f 15/14/1 12/16/1 17/49/1
f 1/4/2 3/6/2 4/50/2
usemtl Glass.065
f 15/51/3 17/52/3 18/53/3
f 15/51/3 18/53/3 16/54/3
