# Blender v2.92.0 OBJ File: ''
# www.blender.org
mtllib Mesh1 Group1 Model.136.mtl
o Mesh1_Group1_Model.136
v 0.500000 0.000000 -0.500000
v 0.500000 0.625000 -0.500000
v 0.500000 0.625000 0.500000
v 0.500000 0.000000 0.500000
v -0.500000 0.000000 -0.500000
v -0.500000 0.625000 -0.500000
v -0.500000 0.000000 0.500000
v -0.500000 0.625000 0.000000
v 0.000000 0.625000 0.500000
vt 39.370098 0.000000
vt 39.370098 24.606300
vt 0.000000 24.606300
vt -39.370098 39.370098
vt -39.370098 -0.000000
vt 0.000000 -0.000000
vt -19.684999 24.606300
vt -39.370098 24.606300
vt -39.370098 -0.000000
vt 39.370098 0.000000
vt 39.370098 24.606300
vt 19.684999 24.606300
vt 19.684999 0.000000
vt 39.370098 0.000000
vt 39.370098 39.370098
vt 13.919400 28.270500
vt -13.919400 28.270500
vt 0.000000 0.000000
vt -39.370098 24.606300
vt -39.370098 0.000000
vt 0.000000 39.370098
vt 0.000000 24.606300
vt -0.000000 39.370098
vt -0.000000 19.684999
vt 0.000000 0.000000
vn 1.0000 0.0000 0.0000
vn -0.0000 -1.0000 -0.0000
vn -1.0000 -0.0000 0.0000
vn 0.0000 0.0000 1.0000
vn 0.0000 1.0000 0.0000
vn -0.6155 0.4924 0.6155
vn 0.0000 0.0000 -1.0000
usemtl Brick.098
s 1
f 1/1/1 2/2/1 3/3/1
f 1/4/2 4/5/2 7/6/2
f 8/7/3 6/8/3 5/9/3
f 4/10/4 3/11/4 9/12/4
f 9/13/5 3/14/5 2/15/5
f 9/16/6 8/17/6 7/6/6
f 5/18/7 2/19/7 1/20/7
f 1/4/2 7/6/2 5/21/2
f 5/18/7 6/22/7 2/19/7
f 4/10/4 9/12/4 7/6/4
f 8/7/3 5/9/3 7/6/3
f 2/15/5 6/23/5 8/24/5
f 8/24/5 9/13/5 2/15/5
f 1/1/1 3/3/1 4/25/1
