# Blender v2.92.0 OBJ File: ''
# www.blender.org
mtllib Mesh1 Group1 Model.012.mtl
o Mesh1_Group1_Model.012
v 0.500000 0.000000 0.500000
v 0.500000 0.212500 0.500000
v -0.500000 0.212500 0.500000
v -0.500000 0.000000 0.500000
v 0.500000 0.000000 -0.500000
v 0.500000 0.212500 -0.500000
v 0.500000 0.212500 -0.375000
v 0.500000 0.106250 -0.375000
v 0.500000 0.106250 0.375000
v 0.500000 0.212500 0.375000
v -0.500000 0.000000 -0.500000
v -0.500000 0.212500 0.375000
v -0.500000 0.106250 0.375000
v -0.500000 0.106250 -0.375000
v -0.500000 0.212500 -0.375000
v -0.500000 0.212500 -0.500000
vt 39.370098 8.366140
vt 0.000000 0.000000
vt 39.370098 0.000000
vt -0.000000 0.000000
vt 39.370098 0.000000
vt 4.921260 4.183070
vt -39.370098 39.370098
vt -39.370098 0.000000
vt -34.448799 4.183070
vt -39.370098 0.000000
vt 0.000000 4.921260
vt 39.370098 0.000000
vt 39.370098 4.921260
vt -39.370098 8.366140
vt 0.000000 4.183070
vt 0.000000 8.366140
vt 39.370098 34.448799
vt 0.000000 4.921260
vt 39.370098 4.921260
vt 0.000000 8.366140
vt 39.370098 4.183070
vt 39.370098 8.366140
vt 0.000000 34.448799
vt 39.370098 39.370098
vt 0.000000 39.370098
vt 0.000000 8.366140
vt -39.370098 0.000000
vt 0.000000 0.000000
vt 0.000000 8.366140
vt 39.370098 8.366140
vt 34.448799 4.183070
vt 34.448799 8.366140
vt 4.921260 8.366140
vt -0.000000 8.366140
vt 0.000000 39.370098
vt -4.921260 4.183070
vt -4.921260 8.366140
vt -34.448799 8.366140
vt -39.370098 8.366140
vt 0.000000 0.000000
vt -39.370098 4.183070
vt 0.000000 34.448799
vt 0.000000 4.183070
vt 39.370098 34.448799
vt -39.370098 8.366140
vn 0.0000 0.0000 1.0000
vn 1.0000 0.0000 0.0000
vn 0.0000 -1.0000 -0.0000
vn -1.0000 0.0000 0.0000
vn 0.0000 1.0000 0.0000
vn 0.0000 0.0000 -1.0000
usemtl Brick.012
s 1
f 2/1/1 4/2/1 1/3/1
f 1/4/2 5/5/2 9/6/2
f 4/2/3 5/7/3 1/8/3
f 4/2/4 14/9/4 11/10/4
f 12/11/5 2/12/5 10/13/5
f 10/14/6 13/15/6 12/16/6
f 8/17/5 13/18/5 9/19/5
f 15/20/1 8/21/1 7/22/1
f 15/23/5 6/24/5 16/25/5
f 16/26/6 5/27/6 11/28/6
f 2/1/1 3/29/1 4/2/1
f 5/5/2 6/30/2 8/31/2
f 6/30/2 7/32/2 8/31/2
f 10/33/2 2/34/2 9/6/2
f 2/34/2 1/4/2 9/6/2
f 5/5/2 8/31/2 9/6/2
f 4/2/3 11/35/3 5/7/3
f 4/2/4 3/29/4 13/36/4
f 3/29/4 12/37/4 13/36/4
f 15/38/4 16/39/4 14/9/4
f 16/39/4 11/10/4 14/9/4
f 4/2/4 13/36/4 14/9/4
f 12/11/5 3/40/5 2/12/5
f 10/14/6 9/41/6 13/15/6
f 8/17/5 14/42/5 13/18/5
f 15/20/1 14/43/1 8/21/1
f 15/23/5 7/44/5 6/24/5
f 16/26/6 6/45/6 5/27/6
