# Blender v2.92.0 OBJ File: ''
# www.blender.org
mtllib Mesh1 Group1 Model.155.mtl
o Mesh1_Group1_Model.155
v -0.500000 0.000000 -0.500000
v -0.500000 0.000000 0.000000
v -0.500000 0.625000 0.000000
v -0.500000 0.625000 -0.500000
v 0.500000 0.000000 0.500000
v 0.000000 0.000000 0.500000
v 0.500000 0.000000 -0.500000
v 0.000000 0.625000 0.500000
v 0.500000 0.625000 0.500000
v 0.500000 0.625000 -0.500000
vt 0.000000 19.684999
vt -0.000000 39.370098
vt -39.370098 39.370098
vt -39.370098 -0.000000
vt -19.684999 0.000000
vt -19.684999 24.606300
vt -0.000000 0.000000
vt -0.000000 24.606300
vt -39.370098 24.606300
vt 19.684999 0.000000
vt 39.370098 0.000000
vt 39.370098 39.370098
vt 39.370098 0.000000
vt 39.370098 24.606300
vt 0.000000 24.606300
vt 13.919400 24.606300
vt -13.919400 24.606300
vt -13.919400 0.000000
vt 19.684999 24.606300
vt 39.370098 0.000000
vt 39.370098 24.606300
vt -39.370098 0.000000
vt -19.684999 0.000000
vt 13.919400 0.000000
vt 0.000000 0.000000
vt 0.000000 39.370098
vt 0.000000 19.684999
vt -39.370098 0.000000
vt 19.684999 0.000000
vt -39.370098 24.606300
vn 0.0000 -1.0000 -0.0000
vn -1.0000 0.0000 0.0000
vn 0.0000 0.0000 -1.0000
vn 0.0000 1.0000 0.0000
vn 1.0000 0.0000 0.0000
vn -0.7071 -0.0000 0.7071
vn 0.0000 0.0000 1.0000
usemtl Brick.117
s 1
f 2/1/1 1/2/1 7/3/1
f 1/4/2 2/5/2 3/6/2
f 1/7/3 4/8/3 10/9/3
f 8/10/4 9/11/4 10/12/4
f 7/13/5 10/14/5 9/15/5
f 8/16/6 3/17/6 2/18/6
f 8/19/7 5/20/7 9/21/7
f 7/3/1 5/22/1 6/23/1
f 6/23/1 2/1/1 7/3/1
f 8/16/6 2/18/6 6/24/6
f 7/13/5 9/15/5 5/25/5
f 10/12/4 4/26/4 3/27/4
f 3/27/4 8/10/4 10/12/4
f 1/7/3 10/9/3 7/28/3
f 8/19/7 6/29/7 5/20/7
f 1/4/2 3/6/2 4/30/2
