# Blender v2.92.0 OBJ File: ''
# www.blender.org
mtllib Mesh1 Group1 Model.053.mtl
o Mesh1_Group1_Model.053
v -0.500000 0.500000 0.406250
v -0.500000 0.500000 0.218750
v -0.400000 0.500000 0.218750
v -0.400000 0.500000 0.406250
v -0.500000 0.625000 -0.500000
v -0.500000 0.625000 0.500000
v -0.500000 0.000000 0.500000
v -0.500000 0.078125 0.406250
v -0.500000 0.000000 0.125000
v -0.500000 0.078125 0.218750
v -0.400000 0.078125 0.406250
v -0.400000 0.078125 0.218750
v -0.500000 0.500000 0.125000
v -0.500000 0.500000 -0.125000
v -0.500000 0.500000 -0.218750
v -0.500000 0.500000 -0.406250
v -0.500000 0.078125 -0.406250
v -0.500000 0.000000 -0.500000
v -0.500000 0.078125 -0.218750
v -0.500000 0.000000 -0.125000
v -0.400000 0.000000 -0.125000
v -0.400000 0.500000 -0.125000
v 0.500000 0.000000 0.500000
v -0.400000 0.000000 0.125000
v 0.500000 0.000000 -0.500000
v 0.500000 0.625000 0.500000
v 0.500000 0.625000 -0.500000
v -0.400000 0.500000 0.125000
v -0.400000 0.500000 -0.218750
v -0.400000 0.078125 -0.218750
v -0.400000 0.500000 -0.406250
v -0.400000 0.078125 -0.406250
vt 0.000000 11.072800
vt -3.937010 3.690940
vt 0.000000 3.690940
vt -3.690940 19.684999
vt -39.370098 24.606300
vt -11.072800 19.684999
vt 0.000000 24.606300
vt 0.000000 0.000000
vt -3.690940 3.075790
vt -14.763800 0.000000
vt -11.072800 3.075790
vt 0.000000 3.690940
vt 3.937010 11.072800
vt 0.000000 11.072800
vt 0.000000 19.684999
vt -3.937010 3.075790
vt 0.000000 3.075790
vt 0.000000 3.075790
vt 3.937010 19.684999
vt 0.000000 19.684999
vt -14.763800 19.684999
vt -24.606300 19.684999
vt -28.297199 19.684999
vt -35.679100 19.684999
vt -35.679100 3.075790
vt -39.370098 0.000000
vt -28.297199 3.075790
vt -24.606300 0.000000
vt 0.000000 0.000000
vt 3.937010 19.684999
vt 0.000000 19.684999
vt -3.937010 14.763800
vt -3.937010 24.606300
vt -39.370098 39.370098
vt 39.370098 24.606300
vt 39.370098 0.000000
vt 39.370098 24.606300
vt 0.000000 0.000000
vt 39.370098 0.000000
vt 0.000000 24.606300
vt -39.370098 0.000000
vt 0.000000 0.000000
vt -0.000000 39.370098
vt 39.370098 0.000000
vt 39.370098 39.370098
vt 0.000000 19.684999
vt -3.937010 0.000000
vt 0.000000 0.000000
vt 0.000000 24.606300
vt -3.937010 14.763800
vt 0.000000 14.763800
vt 0.000000 19.684999
vt -3.937010 3.075790
vt 0.000000 3.075790
vt 0.000000 35.679100
vt -3.937010 28.297199
vt 0.000000 28.297199
vt 0.000000 3.075790
vt 3.937010 19.684999
vt 0.000000 19.684999
vt 0.000000 28.297199
vt 3.937010 35.679100
vt 0.000000 35.679100
vt -3.937010 11.072800
vt 3.937010 3.690940
vt -3.937010 19.684999
vt 3.937010 3.075790
vt 3.937010 0.000000
vt -39.370098 0.000000
vt 0.000000 14.763800
vt 0.000000 24.606300
vt 0.000000 39.370098
vt 0.000000 24.606300
vt -39.370098 24.606300
vt -0.000000 0.000000
vt -3.937010 19.684999
vt -3.937010 24.606300
vt -3.937010 19.684999
vt -3.937010 35.679100
vt 3.937010 3.075790
vt 3.937010 28.297199
vt -11.072800 3.075790
vt -3.690940 19.684999
vt -11.072800 19.684999
vt -24.606300 19.684999
vt -14.763800 0.000000
vt -14.763800 19.684999
vt -35.679100 19.684999
vt -28.297199 3.075790
vt -28.297199 19.684999
vt -3.690940 3.075790
vt -24.606300 0.000000
vt -35.679100 3.075790
vn 0.0000 -1.0000 -0.0000
vn -1.0000 0.0000 0.0000
vn 0.0000 1.0000 0.0000
vn 0.0000 0.0000 -1.0000
vn 0.0000 -0.0000 1.0000
vn 1.0000 0.0000 0.0000
usemtl Brick.050
s 1
f 2/1/1 4/2/1 1/3/1
f 1/4/2 5/5/2 2/6/2
f 1/4/2 6/7/2 5/5/2
f 6/7/2 1/4/2 7/8/2
f 8/9/2 7/8/2 1/4/2
f 7/8/2 8/9/2 9/10/2
f 9/10/2 8/9/2 10/11/2
f 8/12/3 12/13/3 10/14/3
f 1/15/4 11/16/4 8/17/4
f 10/18/5 3/19/5 2/20/5
f 2/6/2 13/21/2 10/11/2
f 2/6/2 5/5/2 13/21/2
f 13/21/2 5/5/2 14/22/2
f 14/22/2 5/5/2 15/23/2
f 15/23/2 5/5/2 16/24/2
f 16/24/2 5/5/2 17/25/2
f 18/26/2 17/25/2 5/5/2
f 18/26/2 19/27/2 17/25/2
f 20/28/2 19/27/2 18/26/2
f 19/27/2 20/28/2 15/23/2
f 14/22/2 15/23/2 20/28/2
f 20/29/5 22/30/5 14/31/5
f 24/32/1 21/33/1 25/34/1
f 26/35/5 7/8/5 23/36/5
f 27/37/6 23/38/6 25/39/6
f 5/40/4 25/41/4 18/42/4
f 5/43/3 26/44/3 27/45/3
f 13/46/4 24/47/4 9/48/4
f 9/10/2 10/11/2 13/21/2
f 14/49/1 28/50/1 13/51/1
f 15/52/4 30/53/4 19/54/4
f 16/55/1 29/56/1 15/57/1
f 17/58/5 31/59/5 16/60/5
f 19/61/3 32/62/3 17/63/3
f 2/1/1 3/64/1 4/2/1
f 8/12/3 11/65/3 12/13/3
f 1/15/4 4/66/4 11/16/4
f 10/18/5 12/67/5 3/19/5
f 20/29/5 21/68/5 22/30/5
f 25/34/1 23/69/1 24/32/1
f 23/69/1 7/8/1 24/32/1
f 7/8/1 9/70/1 24/32/1
f 21/33/1 20/71/1 18/72/1
f 21/33/1 18/72/1 25/34/1
f 26/35/5 6/7/5 7/8/5
f 27/37/6 26/73/6 23/38/6
f 5/40/4 27/74/4 25/41/4
f 5/43/3 6/75/3 26/44/3
f 13/46/4 28/76/4 24/47/4
f 14/49/1 22/77/1 28/50/1
f 15/52/4 29/78/4 30/53/4
f 16/55/1 31/79/1 29/56/1
f 17/58/5 32/80/5 31/59/5
f 19/61/3 30/81/3 32/62/3
usemtl Glass.025
f 12/82/2 4/83/2 3/84/2
f 22/85/2 24/86/2 28/87/2
f 31/88/2 30/89/2 29/90/2
f 12/82/2 11/91/2 4/83/2
f 22/85/2 21/92/2 24/86/2
f 31/88/2 32/93/2 30/89/2
