# Blender v2.92.0 OBJ File: ''
# www.blender.org
mtllib Mesh1 Group1 Model.058.mtl
o Mesh1_Group1_Model.058
v -0.161612 0.000000 0.338388
v -0.161612 0.500000 0.338388
v -0.090901 0.500000 0.267678
v -0.090901 0.000000 0.267678
v 0.000000 0.625000 0.500000
v -0.500000 0.625000 0.000000
v -0.500000 0.000000 0.000000
v -0.338388 0.000000 0.161612
v -0.338388 0.500000 0.161612
v 0.000000 0.000000 0.500000
v -0.500000 0.625000 -0.500000
v 0.500000 0.625000 0.500000
v 0.500000 0.625000 -0.500000
v -0.500000 0.000000 -0.500000
v 0.500000 0.000000 0.500000
v -0.267678 0.000000 0.090901
v 0.500000 0.000000 -0.500000
v -0.267678 0.500000 0.090901
vt -13.919400 19.684999
vt -17.856400 0.000000
vt -13.919400 0.000000
vt 13.919400 24.606300
vt -13.919400 24.606300
vt 4.921260 19.684999
vt 19.684999 0.000000
vt 39.370098 0.000000
vt 39.370098 39.370098
vt -19.684999 0.000000
vt -39.370098 24.606300
vt -39.370098 -0.000000
vt -9.146550 16.106300
vt -0.000000 39.370098
vt -39.370098 39.370098
vt 19.684999 0.000000
vt 39.370098 24.606300
vt 19.684999 24.606300
vt 39.370098 24.606300
vt 0.000000 0.000000
vt 39.370098 0.000000
vt -0.000000 24.606300
vt -39.370098 0.000000
vt -0.000000 0.000000
vt -6.362660 13.322400
vt -16.106300 9.146550
vt -13.322400 6.362660
vt 13.919400 0.000000
vt 17.856400 19.684999
vt 13.919400 19.684999
vt -17.856400 19.684999
vt -13.919400 0.000000
vt -4.921260 19.684999
vt -4.921260 -0.000000
vt 4.921260 -0.000000
vt 13.919400 -0.000000
vt 0.000000 39.370098
vt 0.000000 19.684999
vt -19.684999 24.606300
vt -39.370098 -0.000000
vt -16.106300 9.146550
vt -19.684999 -0.000000
vt -13.322400 6.362660
vt -6.362660 13.322400
vt 0.000000 19.684999
vt 39.370098 0.000000
vt 0.000000 24.606300
vt -39.370098 24.606300
vt -9.146550 16.106300
vt 17.856400 0.000000
vt -4.921260 19.684999
vt 4.921260 0.000000
vt 4.921260 19.684999
vt -4.921260 0.000000
vn -0.7071 0.0000 -0.7071
vn -0.7071 0.0000 0.7071
vn 0.0000 1.0000 0.0000
vn -1.0000 0.0000 0.0000
vn 0.0000 -1.0000 -0.0000
vn 0.0000 0.0000 1.0000
vn 1.0000 0.0000 0.0000
vn 0.0000 0.0000 -1.0000
vn 0.7071 -0.0000 0.7071
usemtl Brick.055
s 1
f 2/1/1 4/2/1 1/3/1
f 5/4/2 6/5/2 2/6/2
f 5/7/3 12/8/3 13/9/3
f 7/10/4 11/11/4 14/12/4
f 16/13/5 14/14/5 17/15/5
f 10/16/6 12/17/6 5/18/6
f 13/19/7 15/20/7 17/21/7
f 11/22/8 17/23/8 14/24/8
f 9/25/5 3/26/5 2/27/5
f 8/28/9 18/29/9 9/30/9
f 2/1/1 3/31/1 4/2/1
f 6/5/2 7/32/2 9/33/2
f 7/32/2 8/34/2 9/33/2
f 1/35/2 10/36/2 2/6/2
f 10/36/2 5/4/2 2/6/2
f 6/5/2 9/33/2 2/6/2
f 13/9/3 11/37/3 6/38/3
f 6/38/3 5/7/3 13/9/3
f 7/10/4 6/39/4 11/11/4
f 17/15/5 15/40/5 4/41/5
f 15/40/5 10/42/5 4/41/5
f 10/42/5 1/43/5 4/41/5
f 16/13/5 8/44/5 7/45/5
f 16/13/5 7/45/5 14/14/5
f 17/15/5 4/41/5 16/13/5
f 10/16/6 15/46/6 12/17/6
f 13/19/7 12/47/7 15/20/7
f 11/22/8 13/48/8 17/23/8
f 9/25/5 18/49/5 3/26/5
f 8/28/9 16/50/9 18/29/9
usemtl Glass.029
f 18/51/2 4/52/2 3/53/2
f 18/51/2 16/54/2 4/52/2
