# Blender v2.92.0 OBJ File: ''
# www.blender.org
mtllib Mesh1 Group1 Model.179.mtl
o Mesh1_Group1_Model.179
v -0.450000 0.213871 0.452258
v -0.450000 0.166129 0.452258
v -0.450000 0.047742 0.452258
v -0.500000 0.047742 0.452258
v -0.500000 0.332258 0.452258
v -0.450000 0.332258 0.452258
v -0.450000 0.380000 0.500000
v -0.450000 0.380000 0.187500
v -0.450000 0.332258 0.235242
v -0.500000 0.332258 0.235242
v -0.500000 0.380000 0.187500
v -0.500000 0.380000 0.500000
v -0.500000 0.000000 0.500000
v -0.500000 0.000000 0.187500
v -0.500000 0.047742 0.235242
v -0.450000 0.047742 0.235242
v -0.450000 0.000000 0.187500
v -0.450000 0.000000 0.500000
v -0.450000 0.213871 0.235242
v -0.450000 0.166129 0.235242
vt 0.000000 1.879590
vt 0.000000 13.081000
vt -1.968500 8.420110
vt 1.879590 13.081000
vt 1.879590 6.540520
vt 1.879590 8.420110
vt 1.879590 1.879590
vt 0.000000 14.960600
vt 12.303100 14.960600
vt 10.423600 13.081000
vt -1.879590 13.081000
vt -12.303100 14.960600
vt -10.423600 13.081000
vt 0.000000 14.960600
vt 0.000000 0.000000
vt -1.879590 1.879590
vt -12.303100 0.000000
vt -10.423600 1.879590
vt 0.000000 1.879590
vt 0.000000 10.423600
vt -1.968500 10.423600
vt 12.303100 0.000000
vt 10.423600 1.879590
vt 0.000000 0.000000
vt -1.968500 12.303100
vt -1.968500 0.000000
vt -1.968500 14.960600
vt -1.968500 0.000000
vt 0.000000 0.000000
vt 1.968500 0.000000
vt 1.968500 12.303100
vt 0.000000 12.303100
vt 10.423600 8.420110
vt 10.423600 6.540520
vt 0.000000 13.081000
vt 0.000000 1.879590
vt 1.968500 6.540520
vt 1.968500 0.000000
vt 1.968500 14.960600
vt -1.968500 13.081000
vt -1.968500 6.540520
vt -1.968500 1.879590
vt 0.000000 10.423600
vt 1.968500 1.879590
vt 1.968500 10.423600
vt 0.000000 0.000000
vt 0.000000 14.960600
vt 0.000000 12.303100
vt 1.968500 1.879590
vt 1.968500 8.420110
vt 1.968500 13.081000
vt -1.968500 1.879590
vn 0.0000 0.0000 -1.0000
vn 1.0000 0.0000 0.0000
vn 0.0000 -1.0000 0.0000
vn -1.0000 -0.0000 0.0000
vn 0.0000 1.0000 0.0000
vn -0.0000 -0.0000 1.0000
usemtl Metal.019
s 1
f 4/1/1 5/2/1 1/3/1
f 6/4/2 2/5/2 1/6/3
f 6/4/2 3/7/2 2/5/2
f 6/4/2 7/8/2 3/7/2
f 7/8/2 6/4/2 8/9/2
f 8/9/2 6/4/2 9/10/2
f 5/11/4 11/12/4 10/13/4
f 5/11/4 12/14/4 11/12/4
f 12/14/4 5/11/4 13/15/4
f 4/16/4 13/15/4 5/11/4
f 13/15/4 4/16/4 14/17/4
f 14/17/4 4/16/4 15/18/4
f 5/19/3 10/20/3 9/21/3
f 3/7/2 17/22/2 16/23/2
f 3/7/2 18/24/2 17/22/2
f 18/24/2 3/7/2 7/8/2
f 17/25/3 18/26/3 13/15/3
f 8/27/1 17/28/1 14/29/1
f 7/30/5 8/31/5 11/32/5
f 8/9/2 9/10/2 17/22/2
f 19/33/2 17/22/2 9/10/2
f 20/34/2 17/22/2 19/33/2
f 16/23/2 17/22/2 20/34/2
f 10/35/6 15/36/6 20/37/6
f 10/13/4 11/12/4 15/18/4
f 14/17/4 15/18/4 11/12/4
f 18/38/6 7/39/6 12/14/6
f 6/40/1 1/3/1 5/2/1
f 1/3/1 2/41/1 4/1/1
f 2/41/1 3/42/1 4/1/1
f 15/43/5 3/44/5 16/45/5
f 18/38/6 12/14/6 13/15/6
f 7/30/5 11/32/5 12/46/5
f 8/27/1 14/29/1 11/47/1
f 17/25/3 13/15/3 14/48/3
f 16/49/6 20/37/6 15/36/6
f 20/37/6 19/50/6 10/35/6
f 19/50/6 9/51/6 10/35/6
f 15/43/5 4/1/5 3/44/5
f 5/19/3 9/21/3 6/52/3
