# Blender v2.92.0 OBJ File: ''
# www.blender.org
mtllib Mesh1 Group1 Model.026.mtl
o Mesh1_Group1_Model.026
v -0.600000 0.106250 0.125000
v -0.600000 0.106250 -0.125000
v -0.700000 0.106250 -0.125000
v -0.700000 0.106250 0.125000
v -0.600000 0.212500 -0.125000
v -0.600000 0.212500 0.125000
v -0.500000 0.212500 -0.125000
v -0.500000 0.000000 -0.125000
v -0.700000 0.000000 -0.125000
v -0.500000 0.000000 -0.500000
v -0.500000 0.212500 -0.500000
v 0.500000 0.000000 0.500000
v -0.500000 0.000000 0.500000
v -0.500000 0.000000 0.125000
v -0.700000 0.000000 0.125000
v 0.500000 0.000000 -0.500000
v 0.500000 0.212500 0.500000
v -0.500000 0.212500 0.500000
v 0.500000 0.212500 -0.500000
v -0.500000 0.837500 -0.500000
v 0.500000 0.837500 -0.500000
v -0.500000 0.837500 0.500000
v -0.500000 0.712500 -0.125000
v -0.500000 0.712500 0.125000
v -0.500000 0.212500 0.125000
v 0.500000 0.837500 0.500000
v -0.400000 0.212500 -0.125000
v -0.400000 0.712500 -0.125000
v -0.400000 0.212500 0.125000
v -0.400000 0.712500 0.125000
vt -3.937010 24.606300
vt -7.874020 14.763800
vt -3.937010 14.763800
vt -24.606300 4.183070
vt -14.763800 8.366140
vt -24.606300 8.366140
vt 7.874020 0.000000
vt 7.874020 4.183070
vt 3.937010 4.183070
vt -24.606300 0.000000
vt -39.370098 8.366140
vt -39.370098 0.000000
vt 0.000000 14.763800
vt 0.000000 24.606300
vt -39.370098 39.370098
vt 39.370098 8.366140
vt 0.000000 0.000000
vt 39.370098 0.000000
vt 39.370098 8.366140
vt 0.000000 0.000000
vt 39.370098 0.000000
vt 0.000000 8.366140
vt -39.370098 0.000000
vt 0.000000 0.000000
vt 0.000000 24.606300
vt -3.937010 14.763800
vt 0.000000 14.763800
vt -3.937010 4.183070
vt -7.874020 0.000000
vt 0.000000 0.000000
vt -14.763800 4.183070
vt -24.606300 0.000000
vt -14.763800 0.000000
vt -14.763800 8.366140
vt 0.000000 8.366140
vt -7.874020 24.606300
vt -14.763800 4.183070
vt 3.937010 8.366140
vt 0.000000 8.366140
vt 0.000000 0.000000
vt -24.606300 8.366140
vt -39.370098 0.000000
vt 7.874020 14.763800
vt 7.874020 24.606300
vt 0.000000 39.370098
vt 0.000000 8.366140
vt -39.370098 8.366140
vt 3.937010 14.763800
vt 3.937010 24.606300
vt -3.937010 24.606300
vt 0.000000 8.366140
vt -3.937010 8.366140
vt -7.874020 4.183070
vt -24.606300 4.183070
vt -14.763800 0.000000
vt 0.000000 32.972401
vt 0.000000 32.972401
vt -39.370098 32.972401
vt -14.763800 28.051201
vt 39.370098 32.972401
vt 39.370098 32.972401
vt -0.000000 0.000000
vt 39.370098 39.370098
vt -0.000000 39.370098
vt 3.937010 28.051201
vt 0.000000 28.051201
vt 0.000000 28.051201
vt -3.937010 8.366140
vt 0.000000 24.606300
vt -3.937010 14.763800
vt 0.000000 14.763800
vt -39.370098 32.972401
vt -24.606300 28.051201
vt 0.000000 32.972401
vt 39.370098 0.000000
vt 3.937010 8.366140
vt -3.937010 28.051201
vt -3.937010 24.606300
vt -24.606300 28.051201
vt -14.763800 8.366140
vt -14.763800 28.051201
vt -24.606300 8.366140
vn 0.0000 1.0000 0.0000
vn -1.0000 0.0000 0.0000
vn 0.0000 0.0000 -1.0000
vn -0.0000 -1.0000 -0.0000
vn 0.0000 -0.0000 1.0000
vn 1.0000 0.0000 0.0000
usemtl Dark_brick.012
s 1
f 2/1/1 4/2/1 1/3/1
f 2/4/2 6/5/2 5/6/2
f 9/7/3 3/8/3 2/9/3
f 8/10/2 11/11/2 10/12/2
f 14/13/4 8/14/4 16/15/4
f 17/16/5 13/17/5 12/18/5
f 19/19/6 12/20/6 16/21/6
f 11/22/3 16/23/3 10/24/3
f 7/25/1 6/26/1 25/27/1
f 1/28/5 15/29/5 14/30/5
f 4/31/2 9/32/2 15/33/2
f 25/34/2 13/17/2 18/35/2
f 2/1/1 3/36/1 4/2/1
f 2/4/2 1/37/2 6/5/2
f 5/38/3 7/39/3 2/9/3
f 7/39/3 8/40/3 2/9/3
f 8/40/3 9/7/3 2/9/3
f 8/10/2 7/41/2 11/11/2
f 16/15/4 12/42/4 14/13/4
f 12/42/4 13/17/4 14/13/4
f 14/13/4 15/43/4 9/44/4
f 8/14/4 10/45/4 16/15/4
f 14/13/4 9/44/4 8/14/4
f 17/16/5 18/35/5 13/17/5
f 19/19/6 17/46/6 12/20/6
f 11/22/3 19/47/3 16/23/3
f 29/48/1 27/49/1 7/25/1
f 7/25/1 5/50/1 6/26/1
f 25/27/1 29/48/1 7/25/1
f 25/51/5 6/52/5 1/28/5
f 1/28/5 4/53/5 15/29/5
f 14/30/5 25/51/5 1/28/5
f 4/31/2 3/54/2 9/32/2
f 25/34/2 14/55/2 13/17/2
usemtl Brick.024
f 20/56/3 19/47/3 11/22/3
f 22/57/2 20/58/2 24/59/2
f 26/60/5 18/35/5 17/16/5
f 21/61/6 17/46/6 19/19/6
f 22/62/1 21/63/1 20/64/1
f 7/39/5 28/65/5 23/66/5
f 24/67/3 29/68/3 25/51/3
f 23/69/4 30/70/4 24/71/4
f 20/56/3 21/72/3 19/47/3
f 25/34/2 18/35/2 24/59/2
f 18/35/2 22/57/2 24/59/2
f 20/58/2 11/11/2 23/73/2
f 11/11/2 7/41/2 23/73/2
f 20/58/2 23/73/2 24/59/2
f 26/60/5 22/57/5 18/35/5
f 21/61/6 26/74/6 17/46/6
f 22/62/1 26/75/1 21/63/1
f 7/39/5 27/76/5 28/65/5
f 24/67/3 30/77/3 29/68/3
f 23/69/4 28/78/4 30/70/4
usemtl Glass.007
f 28/79/2 29/80/2 30/81/2
f 28/79/2 27/82/2 29/80/2
