# Blender v2.92.0 OBJ File: ''
# www.blender.org
mtllib Mesh2 Group1 Model.003.mtl
o Mesh2_Group1_Model.003
v -0.500000 0.625000 0.187500
v -0.500000 0.625000 0.227347
v -0.450000 0.625000 0.227347
v -0.450000 0.625000 0.187500
v -0.500000 0.000000 0.187500
v -0.500000 0.000000 0.227347
v -0.450000 0.000000 0.187500
v -0.450000 0.000000 0.227347
vt 0.000000 12.303100
vt 0.000000 10.734400
vt 1.968500 10.734400
vt 0.000000 10.734400
vt 0.000000 12.303100
vt -1.968500 12.303100
vt 1.968500 24.606300
vt -0.000000 24.606300
vt -0.000000 0.000000
vt 12.303100 24.606300
vt 10.734400 24.606300
vt 10.734400 0.000000
vt 0.000000 24.606300
vt -1.968500 24.606300
vt -1.968500 0.000000
vt -10.734400 24.606300
vt -12.303100 0.000000
vt -10.734400 0.000000
vt 0.000000 0.000000
vt 12.303100 -0.000000
vt 1.968500 0.000000
vt -1.968500 10.734400
vt -12.303100 24.606300
vt 1.968500 12.303100
vn 0.0000 1.0000 0.0000
vn 0.0000 -1.0000 -0.0000
vn 0.0000 -0.0000 1.0000
vn 1.0000 -0.0000 0.0000
vn 0.0000 0.0000 -1.0000
vn -1.0000 0.0000 0.0000
usemtl Metal.029
s 1
f 1/1/1 2/2/1 3/3/1
f 6/4/2 5/5/2 7/6/2
f 3/7/3 2/8/3 6/9/3
f 4/10/4 3/11/4 8/12/4
f 1/13/5 4/14/5 7/15/5
f 2/16/6 5/17/6 6/18/6
f 1/13/5 7/15/5 5/19/5
f 4/10/4 8/12/4 7/20/4
f 3/7/3 6/9/3 8/21/3
f 6/4/2 7/6/2 8/22/2
f 2/16/6 1/23/6 5/17/6
f 1/1/1 3/3/1 4/24/1
