# Blender v2.92.0 OBJ File: ''
# www.blender.org
mtllib Mesh1 Group1 Model.077.mtl
o Mesh1_Group1_Model.077
v 0.000000 0.000000 0.000000
v 0.050000 0.000000 0.000000
v 0.050000 0.500000 0.000000
v 0.000000 0.500000 0.000000
v 0.000000 0.000000 -0.250000
v 0.050000 0.000000 -0.250000
v 0.000000 0.500000 -0.250000
v 0.050000 0.500000 -0.250000
v 0.000000 0.054236 -0.195764
v 0.000000 0.054236 -0.054236
v 0.000000 0.445764 -0.054236
v 0.000000 0.445764 -0.195764
v 0.025000 0.054236 -0.195764
v 0.025000 0.445764 -0.195764
v 0.025000 0.054236 -0.054236
v 0.025000 0.445764 -0.054236
vt 1.968500 0.000000
vt 0.000000 19.684999
vt 0.000000 0.000000
vt -1.968500 9.842520
vt 0.000000 9.842520
vt 0.000000 0.000000
vt -1.968500 19.684999
vt -1.968500 0.000000
vt -9.842520 0.000000
vt -7.707250 2.135270
vt -9.842520 19.684999
vt -2.135270 2.135270
vt -2.135270 17.549801
vt 0.000000 9.842520
vt 1.968500 0.000000
vt 1.968500 9.842520
vt 9.842520 0.000000
vt 0.000000 19.684999
vt 0.000000 0.000000
vt -7.707250 17.549801
vt 0.000000 2.135270
vt 0.984252 17.549801
vt 0.000000 17.549801
vt 0.000000 2.135270
vt 0.984252 7.707250
vt 0.000000 7.707250
vt 0.000000 17.549801
vt -0.984252 2.135270
vt 0.000000 7.707250
vt -0.984252 2.135270
vt 0.000000 2.135270
vt -7.707250 17.549801
vt -2.135270 2.135270
vt -2.135270 17.549801
vt 1.968500 19.684999
vt -1.968500 0.000000
vt 0.000000 19.684999
vt 0.000000 0.000000
vt 9.842520 19.684999
vt 0.984252 2.135270
vt 0.984252 2.135270
vt -0.984252 17.549801
vt -0.984252 7.707250
vt -7.707250 2.135270
vn 0.0000 -0.0000 1.0000
vn 0.0000 -1.0000 -0.0000
vn 0.0000 0.0000 -1.0000
vn -1.0000 0.0000 0.0000
vn 0.0000 1.0000 0.0000
vn 1.0000 -0.0000 0.0000
usemtl Wood.003
s 1
f 2/1/1 4/2/1 1/3/1
f 6/4/2 1/3/2 5/5/2
f 5/6/3 8/7/3 6/8/3
f 5/9/4 9/10/4 7/11/4
f 5/9/4 10/12/4 9/10/4
f 1/3/4 10/12/4 5/9/4
f 10/12/4 1/3/4 11/13/4
f 4/2/4 11/13/4 1/3/4
f 11/13/4 4/2/4 7/11/4
f 7/14/5 3/15/5 8/16/5
f 6/17/6 3/18/6 2/19/6
f 11/13/4 7/11/4 12/20/4
f 12/20/4 7/11/4 9/10/4
f 9/21/1 14/22/1 12/23/1
f 10/24/5 13/25/5 9/26/5
f 11/27/3 15/28/3 10/24/3
f 12/29/2 16/30/2 11/31/2
f 14/32/4 15/33/4 16/34/4
f 2/1/1 3/35/1 4/2/1
f 6/4/2 2/36/2 1/3/2
f 5/6/3 7/37/3 8/7/3
f 7/14/5 4/38/5 3/15/5
f 6/17/6 8/39/6 3/18/6
f 9/21/1 13/40/1 14/22/1
f 10/24/5 15/41/5 13/25/5
f 11/27/3 16/42/3 15/28/3
f 12/29/2 14/43/2 16/30/2
f 14/32/4 13/44/4 15/33/4
