# Blender v2.92.0 OBJ File: ''
# www.blender.org
mtllib Mesh1 Group1 Model.088.mtl
o Mesh1_Group1_Model.088
v -0.500000 0.047742 -0.202258
v -0.500000 0.047742 0.452258
v -0.450000 0.047742 0.452258
v -0.450000 0.047742 -0.202258
v -0.500000 0.000000 -0.250000
v -0.500000 0.000000 0.500000
v -0.500000 0.332258 0.452258
v -0.500000 0.380000 0.500000
v -0.500000 0.380000 -0.250000
v -0.450000 0.380000 0.500000
v -0.450000 0.380000 -0.250000
v -0.450000 0.332258 0.452258
v -0.450000 0.000000 0.500000
v -0.450000 0.000000 -0.250000
v -0.450000 0.332258 -0.202258
v -0.500000 0.332258 -0.202258
v -0.450000 0.166129 -0.202258
v -0.450000 0.213871 -0.202258
v -0.450000 0.213871 0.452258
v -0.450000 0.166129 0.452258
vt 0.000000 1.879590
vt 1.968500 27.648001
vt 0.000000 27.648001
vt -29.527599 0.000000
vt -1.879590 1.879590
vt -27.648001 1.879590
vt 0.000000 0.000000
vt -1.879590 13.081000
vt 0.000000 14.960600
vt -29.527599 14.960600
vt 1.968500 29.527599
vt 0.000000 0.000000
vt 1.968500 0.000000
vt -0.000000 14.960600
vt 1.879590 13.081000
vt 29.527599 14.960600
vt 1.879590 1.879590
vt -0.000000 0.000000
vt 29.527599 0.000000
vt -1.968500 0.000000
vt 0.000000 29.527599
vt -1.968500 29.527599
vt 1.968500 14.960600
vt 1.968500 0.000000
vt -1.968500 0.000000
vt 0.000000 14.960600
vt -1.968500 14.960600
vt 27.648001 13.081000
vt 0.000000 27.648001
vt -1.968500 1.879590
vt 0.000000 1.879590
vt -27.648001 13.081000
vt 0.000000 13.081000
vt 0.000000 1.879590
vt 1.968500 6.540520
vt 27.648001 6.540520
vt 27.648001 8.420110
vt 27.648001 1.879590
vt 0.000000 13.081000
vt -1.968500 8.420110
vt 1.879590 6.540520
vt 1.879590 8.420110
vt 1.968500 1.879590
vt 0.000000 29.527599
vt 0.000000 0.000000
vt -1.968500 27.648001
vt 1.968500 1.879590
vt 1.968500 8.420110
vt 1.968500 13.081000
vt -1.968500 13.081000
vt -1.968500 6.540520
vt -1.968500 1.879590
vn 0.0000 1.0000 0.0000
vn -1.0000 0.0000 0.0000
vn 1.0000 -0.0000 0.0000
vn 0.0000 -1.0000 -0.0000
vn 0.0000 0.0000 1.0000
vn 0.0000 0.0000 -1.0000
usemtl Wood.009
s 1
f 2/1/1 4/2/1 1/3/1
f 5/4/2 2/5/2 1/6/2
f 6/7/2 2/5/2 5/4/2
f 2/5/2 6/7/2 7/8/2
f 8/9/2 7/8/2 6/7/2
f 7/8/2 8/9/2 9/10/2
f 11/11/1 8/12/1 10/13/1
f 10/14/3 12/15/3 11/16/3
f 12/15/3 10/14/3 3/17/3
f 13/18/3 3/17/3 10/14/3
f 3/17/3 13/18/3 14/19/3
f 13/20/4 5/21/4 14/22/4
f 10/23/5 6/7/5 13/24/5
f 14/25/6 9/26/6 11/27/6
f 11/16/3 15/28/3 14/19/3
f 11/16/3 12/15/3 15/28/3
f 16/29/4 12/30/4 7/31/4
f 7/8/2 9/10/2 16/32/2
f 16/32/2 9/10/2 1/6/2
f 5/4/2 1/6/2 9/10/2
f 16/33/5 1/34/5 17/35/5
f 17/36/3 14/19/3 18/37/3
f 4/38/3 14/19/3 17/36/3
f 3/17/3 14/19/3 4/38/3
f 18/37/3 14/19/3 15/28/3
f 2/1/6 7/39/6 19/40/6
f 12/15/3 20/41/3 19/42/4
f 12/15/3 3/17/3 20/41/3
f 2/1/1 3/43/1 4/2/1
f 11/11/1 9/44/1 8/12/1
f 13/20/4 6/7/4 5/21/4
f 10/23/5 8/9/5 6/7/5
f 14/25/6 5/45/6 9/26/6
f 16/29/4 15/46/4 12/30/4
f 4/47/5 17/35/5 1/34/5
f 17/35/5 18/48/5 16/33/5
f 18/48/5 15/49/5 16/33/5
f 12/50/6 19/40/6 7/39/6
f 19/40/6 20/51/6 2/1/6
f 20/51/6 3/52/6 2/1/6
