# Blender v2.92.0 OBJ File: ''
# www.blender.org
mtllib Mesh1 Group1 Model.138.mtl
o Mesh1_Group1_Model.138
v -0.139515 0.060000 0.360485
v -0.139515 0.122500 0.360485
v -0.174870 0.122500 0.395841
v -0.174870 0.060000 0.395841
v -0.139515 0.502500 0.360485
v 0.000000 0.000000 0.500000
v -0.500000 0.000000 0.000000
v -0.360485 0.060000 0.139515
v -0.395841 0.060000 0.174870
v -0.289775 0.060000 0.068804
v -0.068804 0.060000 0.289775
v -0.360485 0.122500 0.139515
v -0.289775 0.122500 0.068804
v -0.360485 0.502500 0.139515
v -0.289775 0.502500 0.068804
v -0.500000 0.625000 0.000000
v 0.000000 0.625000 0.500000
v 0.500000 0.000000 0.500000
v 0.500000 0.625000 0.500000
v -0.500000 0.000000 -0.500000
v 0.500000 0.000000 -0.500000
v -0.500000 0.625000 -0.500000
v -0.395841 0.122500 0.174870
v -0.068804 0.122500 0.289775
v -0.068804 0.502500 0.289775
v 0.500000 0.625000 -0.500000
vt 6.151570 2.362200
vt 6.151570 19.783501
vt 6.151570 4.822830
vt 13.919400 0.000000
vt -13.919400 0.000000
vt -6.151570 2.362200
vt 13.919400 19.783501
vt 13.919400 4.822830
vt 17.856400 4.822830
vt -13.919400 4.822830
vt -13.919400 2.362200
vt -11.950900 2.362200
vt 13.919400 2.362200
vt 13.919400 4.822830
vt 11.950900 4.822830
vt -6.151570 19.783501
vt -13.919400 24.606300
vt -6.151570 4.822830
vt 13.919400 24.606300
vt 5.492700 14.192300
vt 4.100760 12.800400
vt 12.800400 4.100760
vt -0.000000 0.000000
vt -0.000000 24.606300
vt -39.370098 24.606300
vt 0.000000 19.684999
vt -0.000000 39.370098
vt -39.370098 39.370098
vt 39.370098 0.000000
vt 39.370098 24.606300
vt 0.000000 24.606300
vt 8.276580 16.976200
vt 14.192300 5.492700
vt -16.976200 8.276580
vt -14.192300 5.492700
vt -5.492700 14.192300
vt -13.919400 4.822830
vt -13.919400 19.783501
vt -17.856400 19.783501
vt -39.370098 0.000000
vt -19.684999 0.000000
vt -19.684999 24.606300
vt -5.492700 14.192300
vt -14.192300 5.492700
vt -12.800400 4.100760
vt 19.684999 0.000000
vt 39.370098 0.000000
vt 39.370098 39.370098
vt 6.151570 4.822830
vt -6.151570 4.822830
vt -6.151570 2.362200
vt -8.276580 16.976200
vt 17.856400 19.783501
vt 19.684999 24.606300
vt 39.370098 0.000000
vt 39.370098 24.606300
vt -39.370098 24.606300
vt -39.370098 0.000000
vt -19.684999 0.000000
vt -11.950900 4.822830
vt 6.151570 2.362200
vt -4.100760 12.800400
vt 19.684999 0.000000
vt -17.856400 4.822830
vt 16.976200 8.276580
vt 0.000000 0.000000
vt 0.000000 39.370098
vt 0.000000 19.684999
vt -39.370098 0.000000
vt 11.950900 2.362200
vt -17.856400 4.822830
vt -17.856400 2.362200
vt -16.976200 8.276580
vt 6.151570 4.822830
vt -6.151570 4.822830
vt -6.151570 2.362200
vt 17.856400 4.822830
vt 17.856400 2.362200
vt 6.151570 2.362200
vt -8.276580 16.976200
vt 6.151570 19.783501
vt -6.151570 19.783501
vt -6.151570 4.822830
vt 6.151570 4.822830
vn -0.7071 -0.0000 0.7071
vn -0.0000 1.0000 0.0000
vn 0.7071 -0.0000 0.7071
vn -0.7071 0.0000 -0.7071
vn 0.0000 0.0000 -1.0000
vn 0.0000 -1.0000 -0.0000
vn 1.0000 0.0000 0.0000
vn -1.0000 0.0000 0.0000
vn 0.0000 0.0000 1.0000
vn 0.7071 0.0000 -0.7071
usemtl Brick.100
s 1
f 1/1/1 5/2/1 2/3/2
f 6/4/1 1/1/1 7/5/1
f 7/5/1 1/1/1 8/6/1
f 14/7/3 12/8/3 13/9/3
f 12/10/4 8/11/4 9/12/4
f 1/13/3 2/14/3 3/15/3
f 14/16/1 16/17/1 12/18/1
f 5/2/1 16/17/1 14/16/1
f 5/2/1 17/19/1 16/17/1
f 12/20/2 23/21/2 3/22/2
f 20/23/5 22/24/5 26/25/5
f 7/26/6 20/27/6 21/28/6
f 21/29/7 26/30/7 19/31/7
f 7/5/1 8/6/1 16/17/1
f 12/18/1 16/17/1 8/6/1
f 13/32/2 12/20/2 2/33/2
f 25/34/6 5/35/6 14/36/6
f 2/37/4 5/38/4 25/39/4
f 20/40/8 7/41/8 16/42/8
f 5/2/1 1/1/1 6/4/1
f 8/43/6 1/44/6 4/45/6
f 17/46/2 19/47/2 26/48/2
f 3/49/1 23/50/1 9/51/1
f 12/20/2 3/22/2 2/33/2
f 25/34/6 14/36/6 15/52/6
f 14/7/3 13/9/3 15/53/3
f 17/54/9 18/55/9 19/56/9
f 20/40/8 16/42/8 22/57/8
f 21/28/6 18/58/6 6/59/6
f 6/59/6 7/26/6 21/28/6
f 12/10/4 9/12/4 23/60/4
f 3/49/1 9/51/1 4/61/1
f 8/43/6 4/45/6 9/62/6
f 5/2/1 6/4/1 17/19/1
f 17/54/9 6/63/9 18/55/9
f 2/37/4 25/39/4 24/64/4
f 13/32/2 2/33/2 24/65/2
f 21/29/7 19/31/7 18/66/7
f 26/48/2 22/67/2 16/68/2
f 16/68/2 17/46/2 26/48/2
f 20/23/5 26/25/5 21/69/5
f 1/13/3 3/15/3 4/70/3
usemtl FrontColor.009
f 12/10/4 13/71/4 10/72/4
f 11/73/6 1/44/6 8/43/6
f 13/74/10 24/75/10 11/76/10
f 24/77/3 2/14/3 1/13/3
f 12/10/4 10/72/4 8/11/4
f 24/77/3 1/13/3 11/78/3
f 13/74/10 11/76/10 10/79/10
f 11/73/6 8/43/6 10/80/6
usemtl Glass.057
f 25/81/1 15/82/1 13/83/1
f 25/81/1 13/83/1 24/84/1
