# Blender v2.92.0 OBJ File: ''
# www.blender.org
mtllib Mesh1 Group1 Model.034.mtl
o Mesh1_Group1_Model.034
v -0.500000 0.625000 -0.500000
v -0.500000 0.625000 0.500000
v 0.500000 0.625000 0.500000
v 0.500000 0.625000 -0.500000
v -0.500000 0.500000 0.375000
v -0.500000 0.000000 0.500000
v -0.500000 0.120000 0.375000
v -0.500000 0.000000 -0.500000
v -0.500000 0.120000 0.062500
v -0.400000 0.120000 0.375000
v -0.400000 0.120000 0.062500
v -0.400000 0.500000 0.375000
v -0.400000 0.500000 0.062500
v -0.500000 0.500000 0.062500
v -0.500000 0.500000 -0.062500
v -0.500000 0.500000 -0.375000
v -0.500000 0.120000 -0.375000
v -0.500000 0.120000 -0.062500
v -0.400000 0.500000 -0.062500
v -0.400000 0.120000 -0.062500
v -0.400000 0.500000 -0.375000
v -0.400000 0.120000 -0.375000
v 0.500000 0.000000 -0.500000
v 0.500000 0.000000 0.500000
vt 0.000000 0.000000
vt 39.370098 39.370098
vt 0.000000 39.370098
vt -4.921260 19.684999
vt 0.000000 24.606300
vt -39.370098 24.606300
vt 0.000000 0.000000
vt -4.921260 4.724410
vt -39.370098 0.000000
vt -17.224400 4.724410
vt 3.937010 17.224400
vt 0.000000 4.921260
vt 3.937010 4.921260
vt 0.000000 17.224400
vt -3.937010 4.921260
vt 0.000000 4.921260
vt -17.224400 19.684999
vt -22.145700 19.684999
vt -34.448799 19.684999
vt -34.448799 4.724410
vt -22.145700 4.724410
vt 0.000000 4.724410
vt 3.937010 19.684999
vt 0.000000 19.684999
vt -3.937010 4.724410
vt 0.000000 19.684999
vt -3.937010 19.684999
vt 0.000000 4.724410
vt 3.937010 19.684999
vt 0.000000 19.684999
vt 3.937010 34.448799
vt 0.000000 22.145700
vt 3.937010 22.145700
vt 0.000000 34.448799
vt -3.937010 22.145700
vt 0.000000 22.145700
vt 0.000000 24.606300
vt -39.370098 0.000000
vt 0.000000 0.000000
vt 39.370098 24.606300
vt 0.000000 0.000000
vt 39.370098 0.000000
vt 39.370098 24.606300
vt 39.370098 0.000000
vt 0.000000 39.370098
vt -39.370098 0.000000
vt -3.937010 4.724410
vt 0.000000 19.684999
vt -3.937010 19.684999
vt 39.370098 0.000000
vt 0.000000 17.224400
vt -3.937010 17.224400
vt 3.937010 4.724410
vt 0.000000 4.724410
vt 3.937010 4.724410
vt 0.000000 34.448799
vt -3.937010 34.448799
vt -39.370098 24.606300
vt 0.000000 24.606300
vt -39.370098 39.370098
vt 0.000000 4.724410
vt -17.224400 19.684999
vt -4.921260 4.724410
vt -4.921260 19.684999
vt -34.448799 4.724410
vt -22.145700 19.684999
vt -34.448799 19.684999
vt -17.224400 4.724410
vt -22.145700 4.724410
vn 0.0000 1.0000 0.0000
vn -1.0000 0.0000 0.0000
vn 0.0000 -1.0000 -0.0000
vn 0.0000 -0.0000 1.0000
vn 0.0000 0.0000 -1.0000
vn 1.0000 0.0000 0.0000
usemtl Brick.031
s 1
f 2/1/1 4/2/1 1/3/1
f 5/4/2 2/5/2 1/6/2
f 2/5/2 5/4/2 6/7/2
f 7/8/2 6/7/2 5/4/2
f 6/7/2 7/8/2 8/9/2
f 8/9/2 7/8/2 9/10/2
f 11/11/1 7/12/1 10/13/1
f 14/14/3 12/15/3 5/16/3
f 5/4/2 1/6/2 14/17/2
f 14/17/2 1/6/2 15/18/2
f 15/18/2 1/6/2 16/19/2
f 16/19/2 1/6/2 17/20/2
f 8/9/2 17/20/2 1/6/2
f 8/9/2 18/21/2 17/20/2
f 8/9/2 9/10/2 18/21/2
f 18/21/2 9/10/2 15/18/2
f 14/17/2 15/18/2 9/10/2
f 9/22/4 13/23/4 14/24/4
f 20/25/5 15/26/5 19/27/5
f 17/28/4 21/29/4 16/30/4
f 22/31/1 18/32/1 20/33/1
f 16/34/3 19/35/3 15/36/3
f 1/37/5 23/38/5 8/39/5
f 4/40/6 24/41/6 23/42/6
f 3/43/4 6/7/4 24/44/4
f 8/45/3 24/46/3 6/7/3
f 10/47/5 5/48/5 12/49/5
f 2/1/1 3/50/1 4/2/1
f 11/11/1 9/51/1 7/12/1
f 14/14/3 13/52/3 12/15/3
f 9/22/4 11/53/4 13/23/4
f 20/25/5 18/54/5 15/26/5
f 17/28/4 22/55/4 21/29/4
f 22/31/1 17/56/1 18/32/1
f 16/34/3 21/57/3 19/35/3
f 1/37/5 4/58/5 23/38/5
f 4/40/6 3/59/6 24/41/6
f 3/43/4 2/5/4 6/7/4
f 8/45/3 23/60/3 24/46/3
f 10/47/5 7/61/5 5/48/5
usemtl Glass.013
f 13/62/2 10/63/2 12/64/2
f 22/65/2 19/66/2 21/67/2
f 13/62/2 11/68/2 10/63/2
f 22/65/2 20/69/2 19/66/2
