# Blender v2.92.0 OBJ File: ''
# www.blender.org
mtllib Mesh1 Group1 Model.030.mtl
o Mesh1_Group1_Model.030
v -0.500000 0.000000 -0.500000
v -0.500000 0.106250 -0.500000
v 0.500000 0.106250 -0.500000
v 0.500000 0.000000 -0.500000
v -0.500000 0.000000 0.500000
v -0.500000 0.106250 0.500000
v 0.500000 0.000000 0.500000
v 0.500000 0.106250 0.500000
vt 0.000000 4.183070
vt -39.370098 0.000000
vt 0.000000 0.000000
vt 0.000000 4.183070
vt -39.370098 0.000000
vt 0.000000 0.000000
vt 39.370098 4.183070
vt 39.370098 0.000000
vt 39.370098 0.000000
vt 0.000000 4.183070
vt 0.000000 0.000000
vt -39.370098 39.370098
vt -39.370098 0.000000
vt 39.370098 39.370098
vt 0.000000 0.000000
vt 39.370098 0.000000
vt -39.370098 4.183070
vt -39.370098 4.183070
vt 39.370098 4.183070
vt 0.000000 39.370098
vt 0.000000 39.370098
vn 0.0000 0.0000 -1.0000
vn -1.0000 0.0000 0.0000
vn 0.0000 0.0000 1.0000
vn 1.0000 0.0000 0.0000
vn 0.0000 -1.0000 -0.0000
vn 0.0000 1.0000 0.0000
usemtl Roof.003
s 1
f 2/1/1 4/2/1 1/3/1
f 6/4/2 1/5/2 5/6/2
f 8/7/3 5/6/3 7/8/3
f 4/9/4 8/10/4 7/11/4
f 5/6/5 4/12/5 7/13/5
f 3/14/6 6/15/6 8/16/6
f 2/1/1 3/17/1 4/2/1
f 6/4/2 2/18/2 1/5/2
f 8/7/3 6/4/3 5/6/3
f 4/9/4 3/19/4 8/10/4
f 5/6/5 1/20/5 4/12/5
f 3/14/6 2/21/6 6/15/6
