# Blender v2.92.0 OBJ File: ''
# www.blender.org
mtllib Mesh1 Group1 Model.061.mtl
o Mesh1_Group1_Model.061
v 0.500000 0.625000 -0.500000
v 0.500000 0.000000 -0.500000
v -0.500000 0.000000 -0.500000
v -0.500000 0.625000 -0.500000
v 0.500000 0.625000 0.500000
v 0.500000 0.000000 0.500000
v -0.500000 0.625000 0.500000
v -0.500000 0.000000 0.500000
v -0.500000 0.500000 -0.062500
v -0.500000 0.500000 -0.375000
v -0.500000 0.120000 -0.375000
v -0.500000 0.060000 -0.375000
v -0.500000 0.060000 -0.062500
v -0.500000 0.120000 -0.062500
v -0.400000 0.500000 -0.062500
v -0.400000 0.120000 -0.062500
v -0.400000 0.500000 -0.375000
v -0.400000 0.120000 -0.375000
v -0.400000 0.060000 -0.062500
v -0.400000 0.060000 -0.375000
v -0.550000 0.120000 -0.375000
v -0.550000 0.120000 -0.062500
v -0.550000 0.060000 -0.062500
v -0.550000 0.060000 -0.375000
vt -39.370098 0.000000
vt 0.000000 24.606300
vt -39.370098 24.606300
vt 0.000000 0.000000
vt 39.370098 24.606300
vt 0.000000 24.606300
vt 0.000000 0.000000
vt 39.370098 24.606300
vt 0.000000 24.606300
vt -22.145700 19.684999
vt -39.370098 24.606300
vt 0.000000 -0.000000
vt 39.370098 39.370098
vt 0.000000 39.370098
vt -34.448799 19.684999
vt -34.448799 4.724410
vt -34.448799 2.362200
vt -39.370098 0.000000
vt -22.145700 2.362200
vt -22.145700 4.724410
vt 0.000000 19.684999
vt -3.937010 4.724410
vt 0.000000 4.724410
vt 0.000000 34.448799
vt -3.937010 22.145700
vt 0.000000 22.145700
vt 3.937010 19.684999
vt 0.000000 4.724410
vt 3.937010 4.724410
vt 0.000000 34.448799
vt -1.968500 22.145700
vt 0.000000 22.145700
vt -1.968500 2.362200
vt 0.000000 2.362200
vt -34.448799 4.724410
vt -22.145700 2.362200
vt -22.145700 4.724410
vt 0.000000 2.362200
vt 1.968500 4.724410
vt 0.000000 22.145700
vt 1.968500 34.448799
vt 0.000000 34.448799
vt 0.000000 39.370098
vt -39.370098 0.000000
vt 0.000000 0.000000
vt 39.370098 0.000000
vt 39.370098 0.000000
vt 39.370098 -0.000000
vt -3.937010 19.684999
vt -3.937010 34.448799
vt 0.000000 19.684999
vt 3.937010 22.145700
vt 3.937010 34.448799
vt -1.968500 34.448799
vt -1.968500 4.724410
vt -34.448799 2.362200
vt 1.968500 2.362200
vt 1.968500 22.145700
vt -39.370098 39.370098
vt -34.448799 19.684999
vt -22.145700 4.724410
vt -22.145700 19.684999
vt -34.448799 4.724410
vt 22.145700 4.724410
vt 34.448799 2.362200
vt 34.448799 4.724410
vt -3.937010 4.724410
vt -3.937010 2.362200
vt -3.937010 22.145700
vt -3.937010 34.448799
vt 3.937010 2.362200
vt 3.937010 4.724410
vt 22.145700 2.362200
vn 0.0000 0.0000 -1.0000
vn 1.0000 -0.0000 0.0000
vn 0.0000 0.0000 1.0000
vn -1.0000 0.0000 0.0000
vn 0.0000 1.0000 0.0000
vn 0.0000 -1.0000 0.0000
usemtl Brick.058
s 1
f 2/1/1 4/2/1 1/3/1
f 6/4/2 1/5/2 5/6/2
f 8/7/3 5/8/3 7/9/3
f 7/9/4 9/10/4 8/7/4
f 9/10/4 7/9/4 4/11/4
f 7/12/5 1/13/5 4/14/5
f 9/10/4 4/11/4 10/15/4
f 10/15/4 4/11/4 11/16/4
f 11/16/4 4/11/4 12/17/4
f 3/18/4 12/17/4 4/11/4
f 3/18/4 13/19/4 12/17/4
f 8/7/4 13/19/4 3/18/4
f 13/19/4 8/7/4 9/10/4
f 13/19/4 9/10/4 14/20/5
f 9/21/1 16/22/1 14/23/1
f 10/24/6 15/25/6 9/26/6
f 17/27/3 11/28/3 18/29/3
f 11/30/5 22/31/5 14/32/5
f 14/23/3 23/33/3 13/34/3
f 21/35/4 23/36/4 22/37/4
f 12/38/1 21/39/1 11/28/1
f 13/40/6 24/41/6 12/42/6
f 3/43/6 6/44/6 8/7/6
f 2/1/1 3/45/1 4/2/1
f 6/4/2 2/46/2 1/5/2
f 8/7/3 6/47/3 5/8/3
f 7/12/5 5/48/5 1/13/5
f 9/21/1 15/49/1 16/22/1
f 10/24/6 17/50/6 15/25/6
f 17/27/3 10/51/3 11/28/3
f 14/32/5 16/52/5 18/53/5
f 11/30/5 21/54/5 22/31/5
f 14/32/5 18/53/5 11/30/5
f 14/23/3 22/55/3 23/33/3
f 21/35/4 24/56/4 23/36/4
f 12/38/1 24/57/1 21/39/1
f 13/40/6 23/58/6 24/41/6
f 3/43/6 2/59/6 6/44/6
usemtl Glass.032
f 17/60/4 16/61/4 15/62/4
f 17/60/4 18/63/4 16/61/4
usemtl FrontColor.004
f 16/64/2 20/65/2 18/66/2
f 12/38/1 18/67/1 20/68/1
f 19/69/6 12/42/6 20/70/6
f 14/23/3 19/71/3 16/72/3
f 16/64/2 19/73/2 20/65/2
f 12/38/1 11/28/1 18/67/1
f 19/69/6 13/40/6 12/42/6
f 14/23/3 13/34/3 19/71/3
