# Blender v2.92.0 OBJ File: ''
# www.blender.org
mtllib Mesh1 Group1 Model.194.mtl
o Mesh1_Group1_Model.194
v -0.450000 0.230440 0.192824
v -0.450000 0.190000 0.187500
v -0.500000 0.190000 0.187500
v -0.500000 0.230440 0.192824
v -0.450000 0.000000 0.187500
v -0.450000 0.268125 0.208434
v -0.450000 0.187388 0.227347
v -0.450000 0.039847 0.227347
v -0.450000 0.039847 0.460153
v -0.450000 0.000000 0.500000
v -0.450000 0.190000 0.500000
v -0.450000 0.230440 0.494676
v -0.450000 0.268125 0.479066
v -0.450000 0.187388 0.460153
v -0.450000 0.300485 0.454235
v -0.450000 0.220038 0.455855
v -0.500000 0.187388 0.460153
v -0.500000 0.220038 0.455855
v -0.500000 0.300485 0.454235
v -0.500000 0.268125 0.479066
v -0.500000 0.039847 0.460153
v -0.500000 0.230440 0.494676
v -0.500000 0.000000 0.500000
v -0.500000 0.190000 0.500000
v -0.450000 0.325316 0.421875
v -0.500000 0.325316 0.421875
v -0.450000 0.248030 0.444261
v -0.500000 0.248030 0.444261
v -0.500000 0.272066 0.425817
v -0.500000 0.290511 0.401780
v -0.500000 0.340926 0.384190
v -0.450000 0.340926 0.384190
v -0.450000 0.290511 0.401780
v -0.450000 0.272066 0.425817
v -0.500000 0.302105 0.373788
v -0.450000 0.302105 0.373788
v -0.500000 0.346250 0.343750
v -0.450000 0.346250 0.343750
v -0.450000 0.306060 0.343750
v -0.500000 0.306060 0.343750
v -0.500000 0.302105 0.313712
v -0.500000 0.340926 0.303310
v -0.450000 0.340926 0.303310
v -0.450000 0.302105 0.313712
v -0.500000 0.290511 0.285720
v -0.450000 0.290511 0.285720
v -0.500000 0.325316 0.265625
v -0.450000 0.325316 0.265625
v -0.450000 0.272066 0.261684
v -0.500000 0.272066 0.261684
v -0.500000 0.300485 0.233265
v -0.450000 0.300485 0.233265
v -0.450000 0.248030 0.243239
v -0.500000 0.248030 0.243239
v -0.500000 0.220038 0.231645
v -0.500000 0.268125 0.208434
v -0.450000 0.220038 0.231645
v -0.500000 0.187388 0.227347
v -0.500000 0.039847 0.227347
v -0.500000 0.000000 0.187500
vt 12.093500 9.072460
vt 12.303100 0.000000
vt 12.303100 7.480310
vt 11.479000 10.556100
vt 10.734400 7.377490
vt 10.734400 1.568760
vt 1.568760 1.568760
vt 0.000000 0.000000
vt 0.000000 7.480310
vt 0.209610 9.072460
vt 0.824155 10.556100
vt 1.568760 7.377490
vt 1.801750 11.830100
vt 1.738000 8.662930
vt -1.968500 7.416320
vt -1.968500 5.810440
vt 0.000000 5.810440
vt -1.568760 7.377490
vt -1.801750 11.830100
vt -1.738000 8.662930
vt -0.824155 10.556100
vt -1.568760 1.568760
vt -0.209610 9.072460
vt 0.000000 0.000000
vt 0.000000 7.480310
vt -0.000000 -2.224310
vt -0.000000 -3.417130
vt 1.968500 -3.417130
vt 0.000000 7.377490
vt 0.000000 1.568760
vt 1.968500 1.568760
vt 0.000000 1.568760
vt 0.000000 7.377490
vt -1.968500 7.377490
vt 0.000000 10.734400
vt 1.968500 1.568760
vt -1.968500 5.359750
vt -1.968500 3.753860
vt 0.000000 3.753860
vt 2.194470 9.764950
vt 3.075790 12.807700
vt -1.968500 7.480310
vt -1.968500 0.000000
vt 0.000000 0.000000
vt -2.194470 9.764950
vt -3.075790 12.807700
vt -2.920610 10.711300
vt -3.866940 11.437400
vt 3.866940 11.437400
vt 4.559430 13.422300
vt -1.968500 12.303100
vt -1.968500 0.000000
vt 4.968960 11.893900
vt 2.920610 10.711300
vt -0.000000 7.209790
vt -0.000000 5.913260
vt 1.968500 5.913260
vt 0.000000 5.153210
vt 0.000000 3.960390
vt 1.968500 3.960390
vt -1.968500 2.992630
vt -1.968500 1.386750
vt 0.000000 1.386750
vt 6.151570 12.049600
vt 7.334190 11.893900
vt 7.743720 13.422300
vt -7.743720 13.422300
vt -6.151570 12.049600
vt -6.151570 13.631900
vt -0.000000 2.786100
vt -0.000000 1.593280
vt 1.968500 1.593280
vt 6.151570 13.631900
vt -7.334190 11.893900
vt -4.559430 13.422300
vt -4.968960 11.893900
vt -1.968500 0.476296
vt -1.968500 -1.129590
vt 0.000000 -1.129590
vt 10.501400 11.830100
vt 9.227360 12.807700
vt 8.436210 11.437400
vt 0.000000 0.269765
vt 0.000000 -0.923055
vt 1.968500 -0.923055
vt -8.436210 11.437400
vt -10.501400 11.830100
vt -9.382540 10.711300
vt 1.968500 7.416320
vt 1.968500 9.022200
vt 0.000000 9.022200
vt -9.227360 12.807700
vt -1.968500 -2.017780
vt -1.968500 -3.623660
vt 0.000000 -3.623660
vt -0.000000 -4.526160
vt -0.000000 -5.718980
vt 1.968500 -5.718980
vt 9.382540 10.711300
vt 1.968500 0.000000
vt 1.968500 7.480310
vt -1.968500 -4.319630
vt -1.968500 -5.925510
vt 0.000000 -5.925510
vt 0.000000 7.519140
vt 0.000000 8.815670
vt -1.968500 8.815670
vt 10.108700 9.764950
vt 0.000000 6.478910
vt 0.000000 7.671730
vt -1.968500 7.671730
vt -10.108700 9.764950
vt -10.565200 8.662930
vt -11.479000 10.556100
vt 1.968500 6.272380
vt 1.968500 7.878270
vt 0.000000 7.878270
vt 10.565200 8.662930
vt -0.000000 7.949500
vt -0.000000 9.142320
vt -1.968500 9.142320
vt -0.000000 8.837690
vt -0.000000 10.030500
vt -1.968500 10.030500
vt -10.734400 7.377490
vt -10.734400 1.568760
vt -12.303100 0.000000
vt -0.000000 9.082960
vt -0.000000 10.275800
vt -1.968500 10.275800
vt 1.968500 7.742960
vt 1.968500 9.348850
vt 0.000000 9.348850
vt -12.093500 9.072460
vt -12.303100 7.480310
vt 0.000000 8.668610
vt 0.000000 9.861430
vt -1.968500 9.861430
vt 1.968500 8.631160
vt 1.968500 10.237000
vt 0.000000 10.237000
vt 1.968500 8.876430
vt 1.968500 10.482300
vt 0.000000 10.482300
vt 1.968500 8.462070
vt 1.968500 10.068000
vt 0.000000 10.068000
vt -1.968500 7.519140
vt 0.000000 7.416320
vt 0.000000 8.462070
vt 0.000000 8.876430
vt 0.000000 8.631160
vt -1.968500 8.668610
vt 0.000000 7.742960
vt -1.968500 9.082960
vt -1.968500 8.837690
vt -1.968500 7.949500
vt 0.000000 6.272380
vt -1.968500 6.478910
vt 0.000000 -4.319630
vt 1.968500 -4.526160
vt 0.000000 -2.017780
vt 1.968500 0.269765
vt 0.000000 0.476296
vt 1.968500 2.786100
vt 0.000000 2.992630
vt 1.968500 5.153210
vt 1.968500 7.209790
vt 0.000000 12.303100
vt 0.000000 7.480310
vt 0.000000 5.359750
vt 1.968500 10.734400
vt -1.968500 1.568760
vt 1.968500 7.377490
vt 1.968500 -2.224310
vt 0.000000 7.416320
vn 1.0000 0.0000 0.0000
vn 0.0000 0.2588 -0.9659
vn 0.0000 0.1305 -0.9914
vn -1.0000 0.0000 0.0000
vn 0.0000 -0.9659 0.2588
vn 0.0000 -0.8660 0.5000
vn 0.0000 -0.0000 1.0000
vn 0.0000 0.0000 -1.0000
vn 0.0000 1.0000 0.0000
vn 0.0000 0.5000 -0.8660
vn 0.0000 -1.0000 -0.0000
vn 0.0000 -0.2588 0.9659
vn 0.0000 -0.1305 0.9914
vn 0.0000 -0.5000 0.8660
vn 0.0000 0.7071 -0.7071
vn 0.0000 -0.7071 0.7071
vn 0.0000 0.8660 -0.5000
vn 0.0000 0.1305 0.9914
vn 0.0000 0.2588 0.9659
vn 0.0000 0.9659 -0.2588
vn 0.0000 -0.1305 -0.9914
vn 0.0000 -0.2588 -0.9659
vn 0.0000 -0.9659 -0.2588
vn 0.0000 0.9659 0.2588
vn 0.0000 -0.8660 -0.5000
vn 0.0000 -0.7071 -0.7071
vn 0.0000 -0.5000 -0.8660
vn 0.0000 0.8660 0.5000
vn 0.0000 0.7071 0.7071
vn 0.0000 0.5000 0.8660
usemtl Metal.027
s 1
f 1/1/1 5/2/1 2/3/1
f 6/4/1 5/2/1 1/1/1
f 7/5/1 5/2/1 6/4/1
f 8/6/1 5/2/1 7/5/1
f 9/7/1 5/2/1 8/6/1
f 9/7/1 10/8/1 5/2/1
f 10/8/1 9/7/1 11/9/1
f 11/9/1 9/7/1 12/10/1
f 12/10/1 9/7/1 13/11/1
f 14/12/1 13/11/1 9/7/1
f 13/11/1 14/12/1 15/13/1
f 15/13/1 14/12/1 16/14/1
f 1/15/2 2/16/3 3/17/3
f 17/18/4 19/19/4 18/20/4
f 19/19/4 17/18/4 20/21/4
f 21/22/4 20/21/4 17/18/4
f 21/22/4 22/23/4 20/21/4
f 23/24/4 22/23/4 21/22/4
f 22/23/4 23/24/4 24/25/4
f 41/26/5 45/27/6 46/28/6
f 58/29/7 59/30/7 8/31/7
f 21/32/8 17/33/8 14/34/8
f 59/35/9 21/32/9 9/36/9
f 6/37/10 1/38/2 4/39/2
f 15/13/1 27/40/1 25/41/1
f 15/13/1 16/14/1 27/40/1
f 2/42/8 5/43/8 60/44/8
f 18/20/4 19/19/4 28/45/4
f 28/45/4 19/19/4 26/46/4
f 28/45/4 26/46/4 29/47/4
f 29/47/4 26/46/4 30/48/4
f 33/49/1 32/50/1 25/41/1
f 5/51/11 10/52/11 23/24/11
f 33/49/1 36/53/1 32/50/1
f 25/41/1 34/54/1 33/49/1
f 25/41/1 27/40/1 34/54/1
f 55/55/12 58/56/13 7/57/13
f 54/58/14 55/59/12 57/60/12
f 52/61/15 6/62/10 56/63/10
f 39/64/1 44/65/1 43/66/1
f 42/67/4 40/68/4 37/69/4
f 50/70/16 54/71/14 53/72/14
f 39/64/1 43/66/1 38/73/1
f 42/67/4 41/74/4 40/68/4
f 31/75/4 35/76/4 30/48/4
f 48/77/17 52/78/15 51/79/15
f 52/80/1 48/81/1 46/82/1
f 39/64/1 32/50/1 36/53/1
f 40/68/4 35/76/4 31/75/4
f 45/83/6 50/84/16 49/85/16
f 42/67/4 45/86/4 41/74/4
f 43/66/1 44/65/1 46/82/1
f 51/87/4 50/88/4 45/86/4
f 11/89/18 12/90/19 22/91/19
f 43/66/1 46/82/1 48/81/1
f 42/67/4 47/92/4 45/86/4
f 43/93/20 48/94/17 47/95/17
f 31/75/4 30/48/4 26/46/4
f 39/64/1 38/73/1 32/50/1
f 40/68/4 31/75/4 37/69/4
f 40/96/11 41/97/5 44/98/5
f 52/80/1 46/82/1 49/99/1
f 10/100/7 11/101/7 24/25/7
f 38/102/9 43/103/20 42/104/20
f 17/105/21 18/106/22 16/107/22
f 52/80/1 49/99/1 53/108/1
f 35/109/23 40/110/11 39/111/11
f 50/88/4 51/87/4 54/112/4
f 54/112/4 51/87/4 55/113/4
f 55/113/4 51/87/4 56/114/4
f 32/115/24 38/116/9 37/117/9
f 52/80/1 57/118/1 6/4/1
f 52/80/1 53/108/1 57/118/1
f 30/119/25 35/120/23 36/121/23
f 29/122/26 30/123/25 33/124/25
f 55/113/4 56/114/4 58/125/4
f 58/125/4 56/114/4 59/126/4
f 60/127/4 59/126/4 56/114/4
f 60/127/4 21/22/4 59/126/4
f 23/24/4 21/22/4 60/127/4
f 28/128/27 29/129/26 34/130/26
f 25/131/28 32/132/24 31/133/24
f 60/127/4 4/134/4 3/135/4
f 60/127/4 56/114/4 4/134/4
f 18/136/22 28/137/27 27/138/27
f 15/139/29 25/140/28 26/141/28
f 13/142/30 15/143/29 19/144/29
f 12/145/19 13/146/30 20/147/30
f 6/4/1 57/118/1 7/5/1
f 17/105/21 16/107/22 14/148/21
f 10/100/7 24/25/7 23/24/7
f 11/89/18 22/91/19 24/149/18
f 12/145/19 20/147/30 22/150/19
f 13/142/30 19/144/29 20/151/30
f 15/139/29 26/141/28 19/152/29
f 18/136/22 27/138/27 16/153/22
f 25/131/28 31/133/24 26/154/28
f 28/128/27 34/130/26 27/155/27
f 29/122/26 33/124/25 34/156/26
f 30/119/25 36/121/23 33/157/25
f 32/115/24 37/117/9 31/158/24
f 35/109/23 39/111/11 36/159/23
f 38/102/9 42/104/20 37/160/9
f 40/96/11 44/98/5 39/161/11
f 43/93/20 47/95/17 42/162/20
f 51/87/4 45/86/4 47/92/4
f 45/83/6 49/85/16 46/163/6
f 48/77/17 51/79/15 47/164/17
f 50/70/16 53/72/14 49/165/16
f 52/61/15 56/63/10 51/166/15
f 54/58/14 57/60/12 53/167/14
f 55/55/12 7/57/13 57/168/12
f 5/51/11 23/24/11 60/169/11
f 2/42/8 60/44/8 3/170/8
f 6/37/10 4/39/2 56/171/10
f 59/35/9 9/36/9 8/172/9
f 21/32/8 14/34/8 9/173/8
f 58/29/7 8/31/7 7/174/7
f 41/26/5 46/28/6 44/175/5
f 1/15/2 3/17/3 4/176/2
