# Blender v2.92.0 OBJ File: ''
# www.blender.org
mtllib Mesh2 Group1 Model.001.mtl
o Mesh2_Group1_Model.001
v 0.000000 0.625000 -0.312500
v 0.000000 0.625000 -0.272653
v 0.050000 0.625000 -0.272653
v 0.050000 0.625000 -0.312500
v 0.000000 0.000000 -0.312500
v 0.000000 0.000000 -0.272653
v 0.050000 0.000000 -0.312500
v 0.050000 0.000000 -0.272653
vt 0.000000 10.734400
vt 1.968500 12.303100
vt 0.000000 12.303100
vt -12.303100 24.606300
vt -10.734400 0.000000
vt -10.734400 24.606300
vt -1.968500 24.606300
vt 0.000000 0.000000
vt 0.000000 24.606300
vt 10.734400 24.606300
vt 12.303100 -0.000000
vt 12.303100 24.606300
vt -0.000000 24.606300
vt 1.968500 0.000000
vt 1.968500 24.606300
vt 0.000000 12.303100
vt -1.968500 10.734400
vt 0.000000 10.734400
vt 1.968500 10.734400
vt -12.303100 0.000000
vt -1.968500 0.000000
vt 10.734400 0.000000
vt -0.000000 0.000000
vt -1.968500 12.303100
vn 0.0000 1.0000 0.0000
vn -1.0000 0.0000 0.0000
vn 0.0000 0.0000 -1.0000
vn 1.0000 0.0000 0.0000
vn 0.0000 -0.0000 1.0000
vn 0.0000 -1.0000 -0.0000
usemtl Metal.014
s 1
f 2/1/1 4/2/1 1/3/1
f 1/4/2 6/5/2 2/6/2
f 4/7/3 5/8/3 1/9/3
f 3/10/4 7/11/4 4/12/4
f 2/13/5 8/14/5 3/15/5
f 5/16/6 8/17/6 6/18/6
f 2/1/1 3/19/1 4/2/1
f 1/4/2 5/20/2 6/5/2
f 4/7/3 7/21/3 5/8/3
f 3/10/4 8/22/4 7/11/4
f 2/13/5 6/23/5 8/14/5
f 5/16/6 7/24/6 8/17/6
