# Blender v2.92.0 OBJ File: ''
# www.blender.org
mtllib Mesh1 Group1 Model.113.mtl
o Mesh1_Group1_Model.113
v 0.500000 0.000000 0.500000
v 0.000000 0.000000 0.500000
v -0.500000 0.000000 0.000000
v -0.500000 0.000000 -0.500000
v 0.500000 0.000000 -0.500000
v 0.000000 0.212500 0.500000
v 0.500000 0.212500 0.500000
v -0.500000 0.212500 0.000000
v -0.500000 0.212500 -0.500000
v 0.500000 0.212500 -0.500000
vt 0.000000 19.684999
vt -0.000000 39.370098
vt -39.370098 39.370098
vt 19.684999 8.366140
vt 19.684999 0.000000
vt 39.370098 0.000000
vt 19.684999 0.000000
vt 39.370098 0.000000
vt 39.370098 39.370098
vt 39.370098 0.000000
vt 39.370098 8.366140
vt 0.000000 8.366140
vt -0.000000 0.000000
vt -0.000000 8.366140
vt -39.370098 8.366140
vt -39.370098 -0.000000
vt -19.684999 0.000000
vt -19.684999 8.366140
vt -39.370098 0.000000
vt -19.684999 0.000000
vt 13.919400 8.366140
vt -13.919400 0.000000
vt 13.919400 0.000000
vt -39.370098 8.366140
vt 0.000000 39.370098
vt 0.000000 19.684999
vt -39.370098 0.000000
vt 0.000000 0.000000
vt -13.919400 8.366140
vt 39.370098 8.366140
vn 0.0000 -1.0000 -0.0000
vn 0.0000 0.0000 1.0000
vn 0.0000 1.0000 0.0000
vn 1.0000 0.0000 0.0000
vn 0.0000 0.0000 -1.0000
vn -1.0000 0.0000 0.0000
vn -0.7071 -0.0000 0.7071
usemtl Dark_brick.019
s 1
f 3/1/1 4/2/1 5/3/1
f 6/4/2 2/5/2 1/6/2
f 6/7/3 7/8/3 10/9/3
f 5/10/4 10/11/4 7/12/4
f 4/13/5 9/14/5 10/15/5
f 4/16/6 3/17/6 8/18/6
f 5/3/1 1/19/1 2/20/1
f 2/20/1 3/1/1 5/3/1
f 6/21/7 3/22/7 2/23/7
f 4/16/6 8/18/6 9/24/6
f 10/9/3 9/25/3 8/26/3
f 8/26/3 6/7/3 10/9/3
f 4/13/5 10/15/5 5/27/5
f 5/10/4 7/12/4 1/28/4
f 6/21/7 8/29/7 3/22/7
f 6/4/2 1/6/2 7/30/2
