# Blender v2.92.0 OBJ File: ''
# www.blender.org
mtllib Mesh1 Group1 Model.139.mtl
o Mesh1_Group1_Model.139
v -0.400000 0.120000 0.375000
v -0.500000 0.120000 0.375000
v -0.500000 0.500000 0.375000
v -0.400000 0.500000 0.375000
v -0.400000 0.120000 -0.375000
v -0.500000 0.120000 -0.375000
v -0.400000 0.500000 -0.375000
v -0.500000 0.500000 -0.375000
v -0.500000 0.625000 -0.500000
v -0.500000 0.625000 0.500000
v -0.500000 0.000000 0.500000
v -0.500000 0.000000 -0.500000
v 0.500000 0.625000 -0.500000
v 0.500000 0.000000 -0.500000
v 0.500000 0.625000 0.500000
v 0.500000 0.000000 0.500000
vt -3.937010 4.724410
vt -0.000000 4.724410
vt 0.000000 19.684999
vt 0.000000 34.448799
vt -3.937010 34.448799
vt -3.937010 4.921260
vt -39.370098 0.000000
vt 0.000000 0.000000
vt 0.000000 39.370098
vt -34.448799 19.684999
vt -39.370098 24.606300
vt -34.448799 4.724410
vt -4.921260 19.684999
vt 0.000000 24.606300
vt -4.921260 4.724410
vt -39.370098 0.000000
vt 39.370098 0.000000
vt 39.370098 24.606300
vt 0.000000 24.606300
vt 39.370098 0.000000
vt 39.370098 24.606300
vt 0.000000 39.370098
vt 0.000000 0.000000
vt 39.370098 0.000000
vt 0.000000 0.000000
vt 0.000000 24.606300
vt -39.370098 24.606300
vt 0.000000 19.684999
vt 0.000000 4.724410
vt 3.937010 4.724410
vt 3.937010 4.921260
vt 0.000000 34.448799
vt 0.000000 4.921260
vt 3.937010 19.684999
vt -39.370098 0.000000
vt 39.370098 39.370098
vt 0.000000 0.000000
vt -39.370098 39.370098
vt 0.000000 4.921260
vt 3.937010 34.448799
vt -3.937010 19.684999
vt -34.448799 19.684999
vt -34.448799 4.724410
vt -4.921260 4.724410
vt -4.921260 19.684999
vn 0.0000 0.0000 -1.0000
vn 0.0000 -1.0000 -0.0000
vn -1.0000 0.0000 0.0000
vn 1.0000 0.0000 0.0000
vn 0.0000 0.0000 1.0000
vn 0.0000 1.0000 0.0000
usemtl Brick.101
s 1
f 1/1/1 2/2/1 3/3/1
f 8/4/2 7/5/2 4/6/2
f 16/7/2 11/8/2 12/9/2
f 8/10/3 9/11/3 6/12/3
f 3/13/3 9/11/3 8/10/3
f 3/13/3 10/14/3 9/11/3
f 10/14/3 3/13/3 11/8/3
f 2/15/3 11/8/3 3/13/3
f 11/8/3 2/15/3 12/16/3
f 12/16/3 2/15/3 6/12/3
f 12/16/3 6/12/3 9/11/3
f 14/17/4 13/18/4 15/19/4
f 16/20/5 15/21/5 10/14/5
f 9/22/6 10/23/6 15/24/6
f 12/25/1 9/26/1 13/27/1
f 8/28/5 6/29/5 5/30/5
f 1/31/6 6/32/6 2/33/6
f 8/28/5 5/30/5 7/34/5
f 12/25/1 13/27/1 14/35/1
f 9/22/6 15/24/6 13/36/6
f 16/20/5 10/14/5 11/8/5
f 14/17/4 15/19/4 16/37/4
f 16/7/2 12/9/2 14/38/2
f 8/4/2 4/6/2 3/39/2
f 1/31/6 5/40/6 6/32/6
f 1/1/1 3/3/1 4/41/1
usemtl Glass.058
f 7/42/3 5/43/3 1/44/3
f 7/42/3 1/44/3 4/45/3
