# Blender v2.92.0 OBJ File: ''
# www.blender.org
mtllib Mesh1 Group1 Model.158.mtl
o Mesh1_Group1_Model.158
v -0.161612 0.000000 0.338388
v -0.161612 0.500000 0.338388
v -0.090901 0.500000 0.267678
v -0.090901 0.000000 0.267678
v 0.000000 0.625000 0.500000
v -0.500000 0.625000 0.000000
v -0.500000 0.000000 0.000000
v -0.338388 0.000000 0.161612
v -0.338388 0.500000 0.161612
v 0.000000 0.000000 0.500000
v -0.500000 0.625000 -0.500000
v 0.500000 0.625000 0.500000
v 0.500000 0.625000 -0.500000
v -0.500000 0.000000 -0.500000
v 0.500000 0.000000 0.500000
v -0.267678 0.000000 0.090901
v 0.500000 0.000000 -0.500000
v -0.267678 0.500000 0.090901
vt 13.919400 24.606300
vt -13.919400 24.606300
vt 4.921260 19.684999
vt 19.684999 0.000000
vt 39.370098 0.000000
vt 39.370098 39.370098
vt -13.919400 0.000000
vt -13.919400 19.684999
vt -17.856400 19.684999
vt -9.146550 16.106300
vt -0.000000 39.370098
vt -39.370098 39.370098
vt -16.106300 9.146550
vt -13.322400 6.362660
vt -6.362660 13.322400
vt -13.919400 0.000000
vt -4.921260 -0.000000
vt -4.921260 19.684999
vt 13.919400 19.684999
vt 13.919400 0.000000
vt 17.856400 0.000000
vt 39.370098 0.000000
vt 39.370098 24.606300
vt 0.000000 24.606300
vt -0.000000 0.000000
vt -0.000000 24.606300
vt -39.370098 24.606300
vt -39.370098 -0.000000
vt -19.684999 24.606300
vt -39.370098 24.606300
vt 13.919400 -0.000000
vt 4.921260 -0.000000
vt 19.684999 24.606300
vt 19.684999 0.000000
vt 39.370098 0.000000
vt -19.684999 0.000000
vt 0.000000 39.370098
vt 0.000000 19.684999
vt 39.370098 24.606300
vt -39.370098 -0.000000
vt -16.106300 9.146550
vt -19.684999 -0.000000
vt -13.322400 6.362660
vt -6.362660 13.322400
vt 0.000000 19.684999
vt 0.000000 0.000000
vt -39.370098 0.000000
vt 17.856400 19.684999
vt -9.146550 16.106300
vt -17.856400 0.000000
vt 4.921260 19.684999
vt -4.921260 19.684999
vt -4.921260 0.000000
vt 4.921260 0.000000
vn -0.7071 0.0000 0.7071
vn 0.0000 1.0000 0.0000
vn -0.7071 0.0000 -0.7071
vn 0.0000 -1.0000 -0.0000
vn 0.7071 0.0000 0.7071
vn 1.0000 0.0000 0.0000
vn 0.0000 0.0000 -1.0000
vn -1.0000 0.0000 0.0000
vn 0.0000 0.0000 1.0000
usemtl Brick.120
s 1
f 5/1/1 6/2/1 2/3/1
f 5/4/2 12/5/2 13/6/2
f 1/7/3 2/8/3 3/9/3
f 16/10/4 14/11/4 17/12/4
f 3/13/4 2/14/4 9/15/4
f 7/16/1 8/17/1 9/18/1
f 9/19/5 8/20/5 16/21/5
f 17/22/6 13/23/6 12/24/6
f 14/25/7 11/26/7 13/27/7
f 14/28/8 6/29/8 11/30/8
f 10/31/1 2/3/1 1/32/1
f 5/33/9 10/34/9 15/35/9
f 14/28/8 7/36/8 6/29/8
f 10/31/1 5/1/1 2/3/1
f 6/2/1 9/18/1 2/3/1
f 13/6/2 11/37/2 6/38/2
f 6/38/2 5/4/2 13/6/2
f 5/33/9 15/35/9 12/39/9
f 17/12/4 15/40/4 4/41/4
f 15/40/4 10/42/4 4/41/4
f 10/42/4 1/43/4 4/41/4
f 16/10/4 8/44/4 7/45/4
f 16/10/4 7/45/4 14/11/4
f 17/12/4 4/41/4 16/10/4
f 17/22/6 12/24/6 15/46/6
f 14/25/7 13/27/7 17/47/7
f 9/19/5 16/21/5 18/48/5
f 7/16/1 9/18/1 6/2/1
f 3/13/4 9/15/4 18/49/4
f 1/7/3 3/9/3 4/50/3
usemtl Glass.071
f 3/51/1 18/52/1 16/53/1
f 3/51/1 16/53/1 4/54/1
