# Blender v2.92.0 OBJ File: ''
# www.blender.org
mtllib Mesh1 Group1 Model.150.mtl
o Mesh1_Group1_Model.150
v -0.545640 0.052710 -0.545640
v -0.500000 0.000000 -0.500000
v -0.500000 0.000000 0.500000
v -0.545640 0.052710 0.500000
v 0.500000 0.052710 -0.545640
v 0.500000 0.000000 -0.500000
v 0.000000 0.518750 0.000000
v 0.500000 0.518750 0.000000
v 0.000000 0.518750 0.500000
v 0.500000 0.000000 0.500000
v 0.500000 0.091694 0.500000
vt 0.000000 28.517200
vt -41.167000 28.517200
vt -39.370098 25.772100
vt 0.000000 -29.955400
vt -0.000000 -1.704270
vt -19.684999 -1.704270
vt 0.000000 -29.955400
vt 41.167000 -29.955400
vt 19.684999 -1.704270
vt -19.684999 28.232500
vt 0.000000 2.344550
vt 0.000000 28.232500
vt 19.684999 28.232500
vt 0.000000 28.232500
vt 0.000000 28.517200
vt 39.370098 25.772100
vt 41.167000 28.517200
vt -41.167000 -29.955400
vt 0.000000 25.772100
vt -0.000000 -1.704270
vt -0.000000 25.772100
vt 39.370098 -0.000001
vt 39.370098 39.370098
vt 0.000001 39.370098
vt -19.684999 20.423201
vt -41.167000 2.075180
vt -39.370098 0.000000
vt 39.370098 0.000000
vt 41.167000 2.075180
vt 19.684999 20.423201
vt 0.000000 0.000000
vt 0.000000 3.609990
vn -0.7560 -0.6546 -0.0000
vn -0.6495 0.7604 0.0000
vn 0.0000 0.7604 -0.6495
vn 0.0000 0.7604 0.6495
vn 0.6495 0.7604 0.0000
vn 0.0000 -0.6546 -0.7560
vn 0.0000 -1.0000 -0.0000
vn -0.0000 0.0000 1.0000
vn 1.0000 0.0000 -0.0000
usemtl Roof.021
s 1
f 4/1/1 1/2/1 2/3/1
f 4/4/2 9/5/2 7/6/2
f 5/7/3 1/8/3 7/9/3
f 7/10/4 11/11/4 8/12/4
f 11/11/5 7/13/5 9/14/5
f 5/15/6 2/16/6 1/17/6
f 4/4/2 7/6/2 1/18/2
f 5/15/6 6/19/6 2/16/6
f 5/7/3 7/9/3 8/20/3
f 4/1/1 2/3/1 3/21/1
usemtl Brick.112
f 3/22/7 2/23/7 6/24/7
f 9/25/8 4/26/8 3/27/8
f 6/28/9 5/29/9 8/30/9
f 3/27/8 10/31/8 9/25/8
f 10/31/8 11/32/8 9/25/8
f 8/30/9 11/32/9 10/31/9
f 10/31/9 6/28/9 8/30/9
f 3/22/7 6/24/7 10/31/7
