# Blender v2.92.0 OBJ File: ''
# www.blender.org
mtllib Mesh1 Group1 Model.069.mtl
o Mesh1_Group1_Model.069
v -0.500000 0.000000 -0.500000
v -0.500000 0.625000 -0.500000
v 0.500000 0.625000 -0.500000
v 0.500000 0.000000 -0.500000
v -0.500000 0.500000 -0.375000
v -0.500000 0.500000 0.500000
v -0.500000 0.625000 0.500000
v -0.500000 0.000000 -0.375000
v -0.400000 0.500000 -0.375000
v -0.400000 0.500000 0.500000
v -0.400000 0.000000 -0.375000
v 0.500000 0.000000 0.500000
v -0.400000 0.000000 0.500000
v 0.500000 0.625000 0.500000
vt 0.000000 24.606300
vt -39.370098 0.000000
vt 0.000000 0.000000
vt -34.448799 19.684999
vt 0.000000 24.606300
vt -39.370098 24.606300
vt -3.937010 34.448799
vt -0.000000 0.000000
vt -0.000000 34.448799
vt 0.000000 0.000000
vt 3.937010 19.684999
vt 0.000000 19.684999
vt -3.937010 34.448799
vt 0.000000 39.370098
vt -39.370098 39.370098
vt -0.000000 19.684999
vt 3.937010 19.684999
vt 39.370098 24.606300
vt 0.000000 0.000000
vt 39.370098 0.000000
vt 0.000000 0.000000
vt 39.370098 39.370098
vt 0.000000 39.370098
vt -39.370098 24.606300
vt -39.370098 0.000000
vt -34.448799 0.000000
vt -3.937010 0.000000
vt 3.937010 0.000000
vt -39.370098 0.000000
vt -3.937010 0.000000
vt 0.000000 34.448799
vt 3.937010 -0.000000
vt 39.370098 -0.000000
vt 39.370098 24.606300
vt 0.000000 24.606300
vt 39.370098 0.000000
vt -34.448799 0.000000
vt -0.000000 19.684999
vt -34.448799 19.684999
vt -0.000000 0.000000
vn 0.0000 0.0000 -1.0000
vn -1.0000 0.0000 0.0000
vn 0.0000 -1.0000 -0.0000
vn 0.0000 -0.0000 1.0000
vn 1.0000 0.0000 0.0000
vn 0.0000 1.0000 0.0000
usemtl Brick.067
s 1
f 2/1/1 4/2/1 1/3/1
f 5/4/2 7/5/2 2/6/2
f 9/7/3 6/8/3 5/9/3
f 8/10/4 9/11/4 5/12/4
f 11/13/3 1/14/3 4/15/3
f 7/5/4 6/16/4 10/17/4
f 3/18/5 12/19/5 4/20/5
f 7/21/6 3/22/6 2/23/6
f 2/1/1 3/24/1 4/2/1
f 5/4/2 6/16/2 7/5/2
f 2/6/2 1/25/2 5/4/2
f 1/25/2 8/26/2 5/4/2
f 9/7/3 10/27/3 6/8/3
f 8/10/4 11/28/4 9/11/4
f 4/15/3 12/29/3 11/13/3
f 12/29/3 13/30/3 11/13/3
f 11/13/3 8/31/3 1/14/3
f 13/32/4 12/33/4 10/17/4
f 12/33/4 14/34/4 10/17/4
f 14/34/4 7/5/4 10/17/4
f 3/18/5 14/35/5 12/19/5
f 7/21/6 14/36/6 3/22/6
usemtl Glass.038
f 11/37/2 10/38/2 9/39/2
f 11/37/2 13/40/2 10/38/2
