# Blender v2.92.0 OBJ File: ''
# www.blender.org
mtllib Mesh1 Group1 Model.162.mtl
o Mesh1_Group1_Model.162
v 0.500000 0.000000 0.500000
v 0.500000 0.000000 -0.500000
v 0.500000 0.427056 0.000000
v -0.500000 0.000000 0.500000
v -0.500000 0.000000 -0.500000
v -0.500000 0.052710 0.545643
v -0.500000 0.052710 -0.545640
v 0.500000 0.052710 0.545643
v 0.500000 0.052710 -0.545640
v 0.500000 0.518750 0.000000
vt 0.000000 0.000000
vt 39.370098 0.000000
vt 19.684999 16.813200
vt 39.370098 -0.000001
vt 39.370098 39.370098
vt 0.000001 39.370098
vt -0.000000 0.000000
vt -41.167000 2.075180
vt -39.370098 0.000000
vt -39.370098 0.000000
vt 0.000000 2.745080
vt 41.167000 2.075180
vt 19.684999 20.423201
vt -0.000000 -29.955400
vt 39.370098 -29.955400
vt -0.000000 -1.704270
vt -19.684999 8.627160
vt -41.167000 -34.808498
vt 1.796960 -34.808498
vt 0.000000 -0.018644
vt 0.000000 28.232500
vt -39.370098 -0.018644
vt -0.000000 25.772100
vt 39.370098 28.517200
vt -0.000000 28.517200
vt 1.796960 2.075180
vt 39.370098 25.772100
vt -1.796960 2.075180
vt -39.370098 2.745080
vn 1.0000 -0.0000 -0.0000
vn 0.0000 -1.0000 -0.0000
vn -1.0000 0.0000 0.0000
vn 0.0000 -0.6546 0.7560
vn 0.0000 0.7604 -0.6495
vn -0.4224 0.9064 0.0000
vn 0.0000 0.7604 0.6495
vn 0.0000 -0.6546 -0.7560
usemtl Brick.125
s 1
f 1/1/1 2/2/1 3/3/1
f 4/4/2 5/5/2 2/6/2
f 4/4/2 2/6/2 1/1/2
usemtl Roof.024
f 4/7/3 7/8/3 5/9/3
f 4/10/4 1/1/4 8/11/4
f 3/3/1 9/12/1 10/13/1
f 9/14/5 7/15/5 10/16/5
f 10/17/6 7/18/6 6/19/6
f 8/20/7 10/21/7 6/22/7
f 2/23/8 7/24/8 9/25/8
f 4/7/3 6/26/3 7/8/3
f 2/23/8 5/27/8 7/24/8
f 8/28/1 1/1/1 3/3/1
f 3/3/1 2/2/1 9/12/1
f 10/13/1 8/28/1 3/3/1
f 4/10/4 8/11/4 6/29/4
