# Blender v2.92.0 OBJ File: ''
# www.blender.org
mtllib Mesh1 Group1 Model.011.mtl
o Mesh1_Group1_Model.011
v -0.558234 0.205259 -0.500000
v -0.586104 0.196324 -0.500000
v -0.586104 0.196324 0.500000
v -0.558234 0.205259 0.500000
v -0.500000 0.212500 -0.500000
v -0.500000 0.000000 -0.500000
v -0.725000 0.000000 -0.500000
v -0.723075 0.027737 -0.500000
v -0.717333 0.054999 -0.500000
v -0.707873 0.081320 -0.500000
v -0.694856 0.106250 -0.500000
v -0.678505 0.129362 -0.500000
v -0.659099 0.150260 -0.500000
v -0.636971 0.168588 -0.500000
v -0.612500 0.184030 -0.500000
v -0.529368 0.210682 -0.500000
v -0.500000 0.212500 0.500000
v -0.500000 0.000000 0.500000
v 0.500000 0.212500 -0.500000
v 0.500000 0.000000 -0.500000
v 0.500000 0.212500 0.500000
v 0.500000 0.000000 0.500000
v -0.529368 0.210682 0.500000
v -0.612500 0.184030 0.500000
v -0.636971 0.168588 0.500000
v -0.659099 0.150260 0.500000
v -0.678505 0.129362 0.500000
v -0.694856 0.106250 0.500000
v -0.707873 0.081320 0.500000
v -0.717333 0.054999 0.500000
v -0.723075 0.027737 0.500000
v -0.725000 0.000000 0.500000
vt -39.370098 -0.868394
vt 0.000000 0.283839
vt -39.370098 0.283839
vt 2.292690 8.081070
vt 1.156240 8.294570
vt 0.000000 0.000000
vt 39.370098 8.366140
vt 0.000000 0.000000
vt 39.370098 0.000000
vt -8.556430 2.165320
vt -8.782480 1.092000
vt -39.370098 -0.641556
vt 0.000000 0.516893
vt -39.370098 0.516893
vt -39.370098 -0.761248
vt 0.000000 0.395084
vt -39.370098 0.395084
vt -39.370098 -0.956043
vt 0.000000 0.190366
vt -39.370098 0.190366
vt -39.370098 -1.018250
vt 0.000000 0.120986
vt -39.370098 0.120986
vt -39.370098 -1.050460
vt 0.000000 0.080722
vt -39.370098 0.080722
vt -39.370098 -1.049890
vt 0.000000 0.072895
vt -39.370098 0.072895
vt -39.370098 -1.015850
vt 0.000000 0.098761
vt -39.370098 0.098761
vt -39.370098 -0.950000
vt 0.000000 0.157231
vt -39.370098 0.157231
vt -39.370098 -0.856416
vt 0.000000 0.244754
vt -39.370098 0.244754
vt -39.370098 -0.741440
vt 0.000000 0.355423
vt -39.370098 0.355423
vt -39.370098 -0.613280
vt 0.000000 0.481348
vt -39.370098 0.481348
vt 0.000000 39.370098
vt 8.858270 -0.000000
vt 8.858270 39.370098
vt 0.000000 -0.868394
vt 0.000000 8.366140
vt 8.858270 0.000000
vt 8.782480 1.092000
vt 8.556430 2.165320
vt 8.183970 3.201580
vt 7.671480 4.183070
vt 7.027740 5.092980
vt 6.263740 5.915760
vt 5.392570 6.637310
vt 4.429130 7.245290
vt 3.389910 7.729310
vt 0.000000 8.366140
vt -8.858270 0.000000
vt -1.156240 8.294570
vt -2.292690 8.081070
vt -3.389910 7.729310
vt -4.429130 7.245290
vt -5.392570 6.637310
vt -6.263740 5.915760
vt -7.027740 5.092980
vt -7.671480 4.183070
vt -8.183970 3.201580
vt 0.000000 -0.641556
vt 0.000000 -0.761248
vt 0.000000 -0.956043
vt 0.000000 -1.018250
vt 0.000000 -1.050460
vt 0.000000 -1.049890
vt 0.000000 -1.015850
vt 0.000000 -0.950000
vt 0.000000 -0.856416
vt 0.000000 -0.741440
vt 0.000000 -0.613280
vt -39.370098 0.000000
vt -39.370098 8.366140
vt 0.000000 0.000000
vt 39.370098 8.366140
vt 0.000000 8.366140
vt 39.370098 8.366140
vt 39.370098 39.370098
vt -0.000000 -0.000000
vt 39.370098 -0.000000
vt -39.370098 39.370098
vt 39.370098 0.000000
vt 39.370098 0.000000
vt -0.000000 39.370098
vt -39.370098 0.000000
vn -0.3645 0.9312 0.0000
vn -0.2454 0.9694 0.0000
vn 0.0000 0.0000 -1.0000
vn 1.0000 0.0000 0.0000
vn 0.0000 0.0000 1.0000
vn -0.1234 0.9924 0.0000
vn -0.0618 0.9981 0.0000
vn -0.4789 0.8779 0.0000
vn -0.5870 0.8096 0.0000
vn -0.6868 0.7269 0.0000
vn -0.7763 0.6304 0.0000
vn -0.6868 0.7268 0.0000
vn -0.8533 0.5214 0.0000
vn -0.9159 0.4015 0.0000
vn -0.9621 0.2728 0.0000
vn -0.9904 0.1380 0.0000
vn -0.9976 0.0692 0.0000
vn 0.0000 -1.0000 -0.0000
vn 0.0000 1.0000 0.0000
usemtl Green.001
s 1
f 2/1/1 4/2/2 1/3/2
f 1/4/3 16/5/3 6/6/3
f 5/7/4 18/8/4 6/9/4
f 30/10/5 31/11/5 18/8/5
f 16/12/6 17/13/7 5/14/7
f 1/15/2 23/16/6 16/17/6
f 15/18/8 3/19/1 2/20/1
f 14/21/9 24/22/8 15/23/8
f 13/24/10 25/25/9 14/26/9
f 12/27/11 26/28/12 13/29/10
f 11/30/13 27/31/11 12/32/11
f 10/33/14 28/34/13 11/35/13
f 9/36/15 29/37/14 10/38/14
f 8/39/16 30/40/15 9/41/15
f 7/42/17 31/43/16 8/44/16
f 6/45/18 32/46/18 7/47/18
f 2/1/1 3/48/1 4/2/2
f 16/5/3 5/49/3 6/6/3
f 6/6/3 7/50/3 8/51/3
f 8/51/3 9/52/3 6/6/3
f 9/52/3 10/53/3 6/6/3
f 10/53/3 11/54/3 6/6/3
f 11/54/3 12/55/3 6/6/3
f 12/55/3 13/56/3 6/6/3
f 13/56/3 14/57/3 6/6/3
f 14/57/3 15/58/3 6/6/3
f 15/58/3 2/59/3 6/6/3
f 2/59/3 1/4/3 6/6/3
f 5/7/4 17/60/4 18/8/4
f 32/61/5 18/8/5 31/11/5
f 18/8/5 17/60/5 23/62/5
f 4/63/5 18/8/5 23/62/5
f 4/63/5 3/64/5 18/8/5
f 3/64/5 24/65/5 18/8/5
f 24/65/5 25/66/5 18/8/5
f 25/66/5 26/67/5 18/8/5
f 26/67/5 27/68/5 18/8/5
f 27/68/5 28/69/5 18/8/5
f 28/69/5 29/70/5 18/8/5
f 29/70/5 30/10/5 18/8/5
f 16/12/6 23/71/6 17/13/7
f 1/15/2 4/72/2 23/16/6
f 15/18/8 24/73/8 3/19/1
f 14/21/9 25/74/9 24/22/8
f 13/24/10 26/75/12 25/25/9
f 12/27/11 27/76/11 26/28/12
f 11/30/13 28/77/13 27/31/11
f 10/33/14 29/78/14 28/34/13
f 9/36/15 30/79/15 29/37/14
f 8/39/16 31/80/16 30/40/15
f 7/42/17 32/81/17 31/43/16
f 6/45/18 18/8/18 32/46/18
usemtl Dark_brick.005
f 20/82/3 5/49/3 19/83/3
f 22/84/4 19/85/4 21/86/4
f 18/8/5 21/87/5 17/60/5
f 19/88/19 17/89/19 21/90/19
f 20/91/18 18/8/18 6/45/18
f 20/82/3 6/6/3 5/49/3
f 22/84/4 20/92/4 19/85/4
f 18/8/5 22/93/5 21/87/5
f 19/88/19 5/94/19 17/89/19
f 20/91/18 22/95/18 18/8/18
