# Blender v2.92.0 OBJ File: ''
# www.blender.org
mtllib Mesh1 Group1 Model.093.mtl
o Mesh1_Group1_Model.093
v 0.000000 0.392066 -0.074183
v 0.000000 0.410511 -0.098220
v 0.050000 0.410511 -0.098220
v 0.050000 0.392066 -0.074183
v 0.000000 0.445316 -0.078125
v 0.000000 0.368030 -0.055739
v 0.000000 0.420485 -0.045765
v 0.000000 0.340038 -0.044145
v 0.000000 0.307388 -0.039847
v 0.000000 0.388125 -0.020933
v 0.000000 0.039847 -0.039847
v 0.000000 0.350440 -0.005324
v 0.000000 0.000000 0.000000
v 0.000000 0.310000 0.000000
v 0.050000 0.000000 0.000000
v 0.050000 0.310000 0.000000
v 0.050000 0.039847 -0.039847
v 0.050000 0.000000 -0.312500
v 0.000000 0.000000 -0.312500
v 0.000000 0.039847 -0.272653
v 0.050000 0.039847 -0.272653
v 0.050000 0.307388 -0.039847
v 0.050000 0.340038 -0.044145
v 0.050000 0.368030 -0.055739
v 0.050000 0.445316 -0.078125
v 0.050000 0.420485 -0.045765
v 0.050000 0.388125 -0.020933
v 0.050000 0.350440 -0.005324
v 0.050000 0.460926 -0.115810
v 0.000000 0.460926 -0.115810
v 0.050000 0.422105 -0.126212
v 0.000000 0.422105 -0.126212
v 0.000000 0.466250 -0.156250
v 0.050000 0.466250 -0.156250
v 0.050000 0.426060 -0.156250
v 0.000000 0.426060 -0.156250
v 0.000000 0.422105 -0.186288
v 0.000000 0.460926 -0.196690
v 0.050000 0.460926 -0.196690
v 0.050000 0.422105 -0.186288
v 0.000000 0.410511 -0.214280
v 0.050000 0.410511 -0.214280
v 0.000000 0.445316 -0.234375
v 0.050000 0.445316 -0.234375
v 0.050000 0.392066 -0.238316
v 0.000000 0.392066 -0.238316
v 0.000000 0.420485 -0.266735
v 0.050000 0.420485 -0.266735
v 0.050000 0.368030 -0.256761
v 0.000000 0.368030 -0.256761
v 0.000000 0.340038 -0.268355
v 0.000000 0.388125 -0.291566
v 0.050000 0.388125 -0.291566
v 0.050000 0.340038 -0.268355
v 0.000000 0.307388 -0.272653
v 0.050000 0.307388 -0.272653
v 0.000000 0.350440 -0.307176
v 0.050000 0.350440 -0.307176
v 0.050000 0.310000 -0.312500
v 0.000000 0.310000 -0.312500
vt 0.000000 12.906500
vt -1.968500 11.713700
vt 0.000000 11.713700
vt -2.920610 15.435700
vt -3.075790 17.532101
vt -3.866940 16.161800
vt -2.194470 14.489400
vt -1.801750 16.554501
vt -1.738000 13.387300
vt -1.568760 12.101900
vt -0.824155 15.280500
vt -1.568760 1.568760
vt -0.209610 13.796900
vt 0.000000 0.000000
vt 0.000000 12.204700
vt 1.968500 12.204700
vt 1.968500 0.000000
vt 0.000000 0.000000
vt 1.568760 1.568760
vt 0.000000 12.204700
vt 12.303100 0.000000
vt -1.968500 0.000000
vt 0.000000 12.303100
vt -1.968500 12.303100
vt -12.303100 0.000000
vt -10.734400 1.568760
vt 0.000000 1.568760
vt 1.968500 10.734400
vt 0.000000 10.734400
vt -0.000000 12.101900
vt -1.968500 1.568760
vt 0.000000 13.499700
vt -1.968500 12.203100
vt 0.000000 12.203100
vt 0.000000 14.226200
vt -1.968500 13.033400
vt 0.000000 13.033400
vt 0.000000 14.023900
vt -1.968500 12.831100
vt 0.000000 12.831100
vt 3.075790 17.532101
vt 2.194470 14.489400
vt 2.920610 15.435700
vt 1.801750 16.554501
vt 1.738000 13.387300
vt 1.568760 12.101900
vt 0.824155 15.280500
vt 0.209610 13.796900
vt 1.968500 13.706200
vt 0.000000 12.100300
vt 1.968500 12.100300
vt 1.968500 14.432700
vt 0.000000 12.826900
vt 1.968500 12.826900
vt 1.968500 14.230400
vt 0.000000 12.624600
vt 1.968500 12.624600
vt 1.968500 13.113100
vt 0.000000 11.507200
vt 1.968500 11.507200
vt 1.968500 11.156800
vt 0.000000 9.550920
vt 1.968500 9.550920
vt 3.866940 16.161800
vt 4.559430 18.146700
vt 4.968960 16.618299
vt 0.000000 10.950300
vt -1.968500 9.757450
vt 0.000000 9.757450
vt -4.559430 18.146700
vt -4.968960 16.618299
vt -6.151570 18.356300
vt 1.968500 8.494920
vt 0.000000 6.889040
vt 1.968500 6.889040
vt 6.151570 18.356300
vt 6.151570 16.774000
vt 0.000000 8.288390
vt -1.968500 7.095570
vt 0.000000 7.095570
vt -6.151570 16.774000
vt -7.334190 16.618299
vt -7.743720 18.146700
vt -1.968500 -5.308850
vt 0.000000 -3.702970
vt -1.968500 -3.702970
vt 7.334190 16.618299
vt 7.743720 18.146700
vt 0.000000 -5.102320
vt 1.968500 -3.909500
vt 0.000000 -3.909500
vt 0.000000 -1.609180
vt 1.968500 -0.416358
vt 0.000000 -0.416358
vt -8.436210 16.161800
vt -9.227360 17.532101
vt -1.968500 -1.815710
vt 0.000000 -0.209827
vt -1.968500 -0.209827
vt 8.436210 16.161800
vt 9.227360 17.532101
vt 9.382540 15.435700
vt 0.000000 1.952980
vt 1.968500 3.145800
vt 0.000000 3.145800
vt -9.382540 15.435700
vt -10.501400 16.554501
vt -1.968500 1.746450
vt 0.000000 3.352330
vt -1.968500 3.352330
vt 10.501400 16.554501
vt 10.108700 14.489400
vt 0.000000 5.341410
vt 1.968500 6.534230
vt 0.000000 6.534230
vt -10.108700 14.489400
vt -10.565200 13.387300
vt -11.479000 15.280500
vt -1.968500 5.134880
vt 0.000000 6.740760
vt -1.968500 6.740760
vt 10.565200 13.387300
vt 11.479000 15.280500
vt 0.000000 8.325180
vt 1.968500 9.518000
vt 0.000000 9.518000
vt 0.000000 10.597300
vt 1.968500 11.893800
vt 0.000000 11.893800
vt -10.734400 12.101900
vt -12.093500 13.796900
vt -1.968500 8.118650
vt 0.000000 9.724530
vt -1.968500 9.724530
vt 12.093500 13.796900
vt 10.734400 12.101900
vt 10.734400 1.568760
vt 0.000000 1.568760
vt 1.968500 12.101900
vt 0.000000 12.101900
vt 12.303100 12.204700
vt -1.968500 0.000000
vt 0.000000 12.204700
vt -1.968500 12.204700
vt -12.303100 12.204700
vt -1.968500 10.494400
vt 0.000000 12.100300
vt -1.968500 12.100300
vt -1.968500 12.906500
vt 1.968500 1.568760
vt -1.968500 12.101900
vt -1.968500 13.499700
vt -1.968500 14.226200
vt -1.968500 14.023900
vt 0.000000 13.706200
vt 0.000000 14.432700
vt 0.000000 14.230400
vt 0.000000 13.113100
vt 0.000000 11.156800
vt -1.968500 10.950300
vt 0.000000 8.494920
vt -1.968500 8.288390
vt 0.000000 -5.308850
vt 1.968500 -5.102320
vt 1.968500 -1.609180
vt 0.000000 -1.815710
vt 1.968500 1.952980
vt 0.000000 1.746450
vt 1.968500 5.341410
vt 0.000000 5.134880
vt 1.968500 8.325180
vt 1.968500 10.597300
vt 0.000000 8.118650
vt 1.968500 1.568760
vt 0.000000 0.000000
vt 0.000000 10.494400
vn 0.0000 -0.8660 -0.5000
vn 0.0000 -0.7071 -0.7071
vn -1.0000 0.0000 0.0000
vn 0.0000 -0.0000 1.0000
vn 1.0000 0.0000 0.0000
vn 0.0000 -1.0000 -0.0000
vn 0.0000 1.0000 0.0000
vn 0.0000 0.0000 -1.0000
vn 0.0000 -0.2588 -0.9659
vn 0.0000 -0.1305 -0.9914
vn 0.0000 -0.5000 -0.8660
vn 0.0000 0.2588 0.9659
vn 0.0000 0.1305 0.9914
vn 0.0000 0.5000 0.8660
vn 0.0000 0.7071 0.7071
vn 0.0000 0.8660 0.5000
vn 0.0000 0.9659 0.2588
vn 0.0000 -0.9659 -0.2588
vn 0.0000 0.9659 -0.2588
vn 0.0000 -0.9659 0.2588
vn 0.0000 -0.8660 0.5000
vn 0.0000 0.8660 -0.5000
vn 0.0000 -0.7071 0.7071
vn 0.0000 0.7071 -0.7071
vn 0.0000 -0.5000 0.8660
vn 0.0000 0.5000 -0.8660
vn 0.0000 -0.2588 0.9659
vn 0.0000 -0.1305 0.9914
vn 0.0000 0.2588 -0.9659
vn 0.0000 0.1305 -0.9914
usemtl Metal.011
s 1
f 2/1/1 4/2/2 1/3/2
f 1/4/3 5/5/3 2/6/3
f 6/7/3 5/5/3 1/4/3
f 6/7/3 7/8/3 5/5/3
f 8/9/3 7/8/3 6/7/3
f 9/10/3 7/8/3 8/9/3
f 7/8/3 9/10/3 10/11/3
f 11/12/3 10/11/3 9/10/3
f 11/12/3 12/13/3 10/11/3
f 13/14/3 12/13/3 11/12/3
f 12/13/3 13/14/3 14/15/3
f 16/16/4 13/14/4 15/17/4
f 15/18/5 17/19/5 16/20/5
f 17/19/5 15/18/5 18/21/5
f 15/22/6 19/23/6 18/24/6
f 13/14/3 11/12/3 19/25/3
f 19/25/3 11/12/3 20/26/3
f 11/27/7 21/28/7 20/29/7
f 9/30/8 17/31/8 11/27/8
f 8/32/9 22/33/10 9/34/10
f 6/35/11 23/36/9 8/37/9
f 1/38/2 24/39/11 6/40/11
f 25/41/5 24/42/5 4/43/5
f 26/44/5 24/42/5 25/41/5
f 26/44/5 23/45/5 24/42/5
f 26/44/5 22/46/5 23/45/5
f 27/47/5 22/46/5 26/44/5
f 22/46/5 27/47/5 17/19/5
f 28/48/5 17/19/5 27/47/5
f 16/20/5 17/19/5 28/48/5
f 28/49/12 14/50/13 16/51/13
f 27/52/14 12/53/12 28/54/12
f 26/55/15 10/56/14 27/57/14
f 25/58/16 7/59/15 26/60/15
f 29/61/17 5/62/16 25/63/16
f 25/41/5 3/64/5 29/65/5
f 25/41/5 4/43/5 3/64/5
f 29/65/5 3/64/5 31/66/5
f 32/67/18 3/68/1 2/69/1
f 2/6/3 30/70/3 32/71/3
f 2/6/3 5/5/3 30/70/3
f 32/71/3 30/70/3 33/72/3
f 34/73/7 30/74/17 29/75/17
f 29/65/5 31/66/5 34/76/5
f 34/76/5 31/66/5 35/77/5
f 36/78/6 31/79/18 32/80/18
f 32/71/3 33/72/3 36/81/3
f 36/81/3 33/72/3 37/82/3
f 37/82/3 33/72/3 38/83/3
f 39/84/19 33/85/7 34/86/7
f 34/76/5 40/87/5 39/88/5
f 34/76/5 35/77/5 40/87/5
f 37/89/20 35/90/6 36/91/6
f 41/92/21 40/93/20 37/94/20
f 37/82/3 38/83/3 41/95/3
f 41/95/3 38/83/3 43/96/3
f 44/97/22 38/98/19 39/99/19
f 39/88/5 42/100/5 44/101/5
f 39/88/5 40/87/5 42/100/5
f 44/101/5 42/100/5 45/102/5
f 46/103/23 42/104/21 41/105/21
f 41/95/3 43/96/3 46/106/3
f 46/106/3 43/96/3 47/107/3
f 48/108/24 43/109/22 44/110/22
f 44/101/5 45/102/5 48/111/5
f 48/111/5 45/102/5 49/112/5
f 50/113/25 45/114/23 46/115/23
f 46/106/3 47/107/3 50/116/3
f 50/116/3 47/107/3 51/117/3
f 51/117/3 47/107/3 52/118/3
f 53/119/26 47/120/24 48/121/24
f 48/111/5 54/122/5 53/123/5
f 48/111/5 49/112/5 54/122/5
f 51/124/27 49/125/25 50/126/25
f 55/127/28 54/128/27 51/129/27
f 51/117/3 52/118/3 55/130/3
f 55/130/3 52/118/3 20/26/3
f 19/25/3 20/26/3 52/118/3
f 19/25/3 52/118/3 57/131/3
f 58/132/29 52/133/26 53/134/26
f 53/123/5 18/21/5 58/135/5
f 56/136/5 18/21/5 53/123/5
f 21/137/5 18/21/5 56/136/5
f 17/19/5 18/21/5 21/137/5
f 20/138/4 56/139/4 55/140/4
f 53/123/5 54/122/5 56/136/5
f 58/135/5 18/21/5 59/141/5
f 18/142/8 60/143/8 59/144/8
f 19/25/3 57/131/3 60/145/3
f 59/146/30 57/147/29 58/148/29
f 2/1/1 3/149/1 4/2/2
f 16/16/4 14/15/4 13/14/4
f 15/22/6 13/14/6 19/23/6
f 11/27/7 17/150/7 21/28/7
f 9/30/8 22/151/8 17/31/8
f 8/32/9 23/152/9 22/33/10
f 6/35/11 24/153/11 23/36/9
f 1/38/2 4/154/2 24/39/11
f 28/49/12 12/155/12 14/50/13
f 27/52/14 10/156/14 12/53/12
f 26/55/15 7/157/15 10/56/14
f 25/58/16 5/158/16 7/59/15
f 29/61/17 30/159/17 5/62/16
f 32/67/18 31/160/18 3/68/1
f 34/73/7 33/161/7 30/74/17
f 36/78/6 35/162/6 31/79/18
f 39/84/19 38/163/19 33/85/7
f 37/89/20 40/164/20 35/90/6
f 41/92/21 42/165/21 40/93/20
f 44/97/22 43/166/22 38/98/19
f 46/103/23 45/167/23 42/104/21
f 48/108/24 47/168/24 43/109/22
f 50/113/25 49/169/25 45/114/23
f 53/119/26 52/170/26 47/120/24
f 51/124/27 54/171/27 49/125/25
f 55/127/28 56/172/28 54/128/27
f 58/132/29 57/173/29 52/133/26
f 20/138/4 21/174/4 56/139/4
f 18/142/8 19/175/8 60/143/8
f 59/146/30 60/176/30 57/147/29
