# Blender v2.92.0 OBJ File: ''
# www.blender.org
mtllib Mesh1 Group1 Model.183.mtl
o Mesh1_Group1_Model.183
v -0.450000 0.000000 0.500000
v -0.450000 0.500000 0.500000
v -0.500000 0.500000 0.500000
v -0.500000 0.000000 0.500000
v -0.450000 0.047742 0.452258
v -0.450000 0.000000 0.187500
v -0.500000 0.000000 0.187500
v -0.500000 0.047742 0.452258
v -0.500000 0.452258 0.452258
v -0.500000 0.500000 0.187500
v -0.450000 0.500000 0.187500
v -0.450000 0.452258 0.452258
v -0.450000 0.166129 0.452258
v -0.450000 0.213871 0.452258
v -0.500000 0.047742 0.235242
v -0.450000 0.047742 0.235242
v -0.500000 0.452258 0.235242
v -0.450000 0.452258 0.235242
v -0.450000 0.166129 0.235242
v -0.450000 0.213871 0.235242
vt 0.000000 -0.000000
vt 1.879590 1.879590
vt 0.000000 19.684999
vt 12.303100 -0.000000
vt 1.968500 0.000000
vt 1.968500 19.684999
vt 0.000000 19.684999
vt 0.000000 0.000000
vt -1.879590 1.879590
vt -12.303100 0.000000
vt -1.879590 17.805401
vt -12.303100 19.684999
vt -1.968500 19.684999
vt -1.968500 0.000000
vt 0.000000 0.000000
vt 1.879590 17.805401
vt 12.303100 19.684999
vt 1.879590 6.540520
vt 0.000000 1.879590
vt 0.000000 17.805401
vt -1.968500 8.420110
vt 1.879590 8.420110
vt 0.000000 1.879590
vt 0.000000 10.423600
vt -1.968500 10.423600
vt -10.423600 1.879590
vt -10.423600 17.805401
vt 0.000000 10.423600
vt 1.968500 1.879590
vt 1.968500 8.420110
vt 1.968500 17.805401
vt 0.000000 17.805401
vt 10.423600 6.540520
vt 10.423600 8.420110
vt 10.423600 1.879590
vt 10.423600 17.805401
vt 1.968500 0.000000
vt 1.968500 12.303100
vt 0.000000 12.303100
vt -1.968500 12.303100
vt 0.000000 12.303100
vt 0.000000 0.000000
vt 1.968500 10.423600
vt -1.968500 17.805401
vt -1.968500 6.540520
vt -1.968500 1.879590
vt -1.968500 1.879590
vt 0.000000 19.684999
vt 1.968500 1.879590
vt 1.968500 6.540520
vt 0.000000 1.879590
vt -1.968500 0.000000
vn 1.0000 0.0000 0.0000
vn 0.0000 0.0000 1.0000
vn -1.0000 0.0000 0.0000
vn 0.0000 0.0000 -1.0000
vn 0.0000 -1.0000 -0.0000
vn 0.0000 1.0000 0.0000
usemtl Wood.020
s 1
f 1/1/1 5/2/1 2/3/1
f 5/2/1 1/1/1 6/4/1
f 1/5/2 2/6/2 3/7/2
f 4/8/3 8/9/3 7/10/3
f 8/9/3 4/8/3 9/11/3
f 3/7/3 9/11/3 4/8/3
f 9/11/3 3/7/3 10/12/3
f 11/13/4 6/14/4 7/15/4
f 2/3/1 12/16/1 11/17/1
f 12/16/1 2/3/1 5/2/1
f 12/16/1 5/2/1 13/18/3
f 8/19/4 9/20/4 14/21/4
f 12/16/1 13/18/3 14/22/1
f 9/23/5 17/24/5 18/25/5
f 7/10/3 8/9/3 15/26/3
f 7/10/3 15/26/3 10/12/3
f 17/27/3 10/12/3 15/26/3
f 9/11/3 10/12/3 17/27/3
f 15/28/6 8/19/6 5/29/6
f 20/30/2 18/31/2 17/32/2
f 19/33/1 6/4/1 20/34/1
f 16/35/1 6/4/1 19/33/1
f 5/2/1 6/4/1 16/35/1
f 20/34/1 6/4/1 18/36/1
f 11/17/1 18/36/1 6/4/1
f 11/17/1 12/16/1 18/36/1
f 2/37/6 11/38/6 10/39/6
f 6/40/5 4/8/5 7/41/5
f 2/37/6 10/39/6 3/42/6
f 15/28/6 5/29/6 16/43/6
f 12/44/4 14/21/4 9/20/4
f 14/21/4 13/45/4 8/19/4
f 13/45/4 5/46/4 8/19/4
f 9/23/5 18/25/5 12/47/5
f 11/13/4 7/15/4 10/48/4
f 16/49/2 19/50/2 15/51/2
f 19/50/2 20/30/2 15/51/2
f 15/51/2 20/30/2 17/32/2
f 6/40/5 1/52/5 4/8/5
f 1/5/2 3/7/2 4/8/2
