# Blender v2.92.0 OBJ File: ''
# www.blender.org
mtllib Mesh1 Group1 Model.134.mtl
o Mesh1_Group1_Model.134
v -0.500000 0.625000 -0.500000
v -0.500000 0.625000 0.500000
v 0.500000 0.625000 0.500000
v 0.500000 0.625000 -0.500000
v -0.500000 0.500000 0.375000
v -0.500000 0.000000 0.500000
v -0.500000 0.120000 0.375000
v -0.500000 0.000000 -0.500000
v -0.500000 0.120000 0.062500
v -0.400000 0.120000 0.375000
v -0.400000 0.120000 0.062500
v -0.400000 0.500000 0.375000
v -0.400000 0.500000 0.062500
v -0.500000 0.500000 0.062500
v -0.500000 0.500000 -0.062500
v -0.500000 0.500000 -0.375000
v -0.500000 0.120000 -0.375000
v -0.500000 0.120000 -0.062500
v -0.400000 0.500000 -0.062500
v -0.400000 0.120000 -0.062500
v -0.400000 0.500000 -0.375000
v -0.400000 0.120000 -0.375000
v 0.500000 0.000000 -0.500000
v 0.500000 0.000000 0.500000
vt -22.145700 19.684999
vt -22.145700 4.724410
vt -17.224400 4.724410
vt -4.921260 19.684999
vt 0.000000 24.606300
vt -39.370098 24.606300
vt 0.000000 0.000000
vt -4.921260 4.724410
vt -39.370098 0.000000
vt -3.937010 19.684999
vt -3.937010 4.724410
vt 0.000000 4.724410
vt 0.000000 39.370098
vt -39.370098 39.370098
vt 39.370098 0.000000
vt 39.370098 24.606300
vt -17.224400 19.684999
vt -34.448799 19.684999
vt -34.448799 4.724410
vt 0.000000 39.370098
vt 39.370098 0.000000
vt 39.370098 39.370098
vt 39.370098 0.000000
vt 39.370098 24.606300
vt 0.000000 24.606300
vt 0.000000 0.000000
vt 0.000000 24.606300
vt -39.370098 24.606300
vt 0.000000 22.145700
vt 0.000000 34.448799
vt -3.937010 34.448799
vt 3.937010 22.145700
vt 3.937010 34.448799
vt 0.000000 34.448799
vt 0.000000 19.684999
vt 0.000000 4.724410
vt 3.937010 4.724410
vt -3.937010 19.684999
vt -3.937010 4.724410
vt 0.000000 4.724410
vt 0.000000 19.684999
vt 0.000000 4.724410
vt 3.937010 4.724410
vt 0.000000 4.921260
vt 0.000000 17.224400
vt -3.937010 17.224400
vt 3.937010 4.921260
vt 3.937010 17.224400
vt 0.000000 17.224400
vt 0.000000 4.921260
vt -3.937010 4.921260
vt 3.937010 19.684999
vt 0.000000 19.684999
vt 3.937010 19.684999
vt 0.000000 22.145700
vt -3.937010 22.145700
vt -39.370098 0.000000
vt 0.000000 0.000000
vt -39.370098 0.000000
vt 0.000000 19.684999
vt 0.000000 0.000000
vt -34.448799 19.684999
vt -34.448799 4.724410
vt -22.145700 4.724410
vt -4.921260 19.684999
vt -17.224400 19.684999
vt -17.224400 4.724410
vt -4.921260 4.724410
vt -22.145700 19.684999
vn -1.0000 0.0000 0.0000
vn 0.0000 0.0000 -1.0000
vn 0.0000 -1.0000 -0.0000
vn 0.0000 0.0000 1.0000
vn 0.0000 1.0000 0.0000
vn 1.0000 0.0000 0.0000
usemtl Brick.096
s 1
f 15/1/1 18/2/1 9/3/1
f 5/4/1 2/5/1 1/6/1
f 2/5/1 5/4/1 6/7/1
f 7/8/1 6/7/1 5/4/1
f 6/7/1 7/8/1 8/9/1
f 8/9/1 7/8/1 9/3/1
f 12/10/2 10/11/2 7/12/2
f 6/7/3 8/13/3 23/14/3
f 24/15/4 3/16/4 2/5/4
f 5/4/1 1/6/1 14/17/1
f 14/17/1 1/6/1 15/1/1
f 15/1/1 1/6/1 16/18/1
f 16/18/1 1/6/1 17/19/1
f 8/9/1 17/19/1 1/6/1
f 8/9/1 18/2/1 17/19/1
f 8/9/1 9/3/1 18/2/1
f 1/20/5 3/21/5 4/22/5
f 23/23/6 4/24/6 3/25/6
f 8/26/2 1/27/2 4/28/2
f 15/29/3 16/30/3 21/31/3
f 20/32/5 22/33/5 17/34/5
f 16/35/4 17/36/4 22/37/4
f 19/38/2 20/39/2 18/40/2
f 14/41/4 9/42/4 11/43/4
f 5/44/3 14/45/3 13/46/3
f 10/47/5 11/48/5 9/49/5
f 10/47/5 9/49/5 7/50/5
f 5/44/3 13/46/3 12/51/3
f 14/41/4 11/43/4 13/52/4
f 19/38/2 18/40/2 15/53/2
f 16/35/4 22/37/4 21/54/4
f 20/32/5 17/34/5 18/55/5
f 15/29/3 21/31/3 19/56/3
f 8/26/2 4/28/2 23/57/2
f 23/23/6 3/25/6 24/58/6
f 24/15/4 2/5/4 6/7/4
f 6/7/3 23/14/3 24/59/3
f 12/10/2 7/12/2 5/60/2
f 1/20/5 2/61/5 3/21/5
f 15/1/1 9/3/1 14/17/1
usemtl Glass.055
f 21/62/1 22/63/1 20/64/1
f 12/65/1 13/66/1 11/67/1
f 12/65/1 11/67/1 10/68/1
f 21/62/1 20/64/1 19/69/1
