# Blender v2.92.0 OBJ File: ''
# www.blender.org
mtllib Mesh1 Group1 Model.145.mtl
o Mesh1_Group1_Model.145
v -0.500000 0.000000 0.375000
v -0.500000 0.500000 0.375000
v -0.400000 0.500000 0.375000
v -0.400000 0.000000 0.375000
v -0.500000 0.000000 -0.375000
v -0.500000 0.500000 -0.375000
v -0.500000 0.000000 0.500000
v -0.500000 0.625000 0.500000
v -0.500000 0.625000 -0.500000
v -0.500000 0.000000 -0.500000
v -0.400000 0.000000 -0.375000
v -0.400000 0.500000 -0.375000
v 0.500000 0.000000 0.500000
v 0.500000 0.000000 -0.500000
v 0.500000 0.625000 0.500000
v 0.500000 0.625000 -0.500000
vt -4.921260 19.684999
vt 0.000000 24.606300
vt -39.370098 24.606300
vt 0.000000 0.000000
vt 0.000000 19.684999
vt -3.937010 19.684999
vt 39.370098 0.000000
vt 39.370098 24.606300
vt -3.937010 34.448799
vt -39.370098 39.370098
vt -39.370098 0.000000
vt 0.000000 34.448799
vt -3.937010 34.448799
vt -3.937010 4.921260
vt 0.000000 39.370098
vt 0.000000 0.000000
vt 39.370098 0.000000
vt 0.000000 0.000000
vt 0.000000 24.606300
vt -39.370098 24.606300
vt 39.370098 0.000000
vt 39.370098 24.606300
vt 0.000000 24.606300
vt 0.000000 19.684999
vt 3.937010 0.000000
vt 3.937010 19.684999
vt -39.370098 0.000000
vt -34.448799 0.000000
vt -34.448799 19.684999
vt -4.921260 0.000000
vt 0.000000 0.000000
vt 0.000000 0.000000
vt -3.937010 4.921260
vt 0.000000 4.921260
vt 0.000000 34.448799
vt 0.000000 39.370098
vt 0.000000 0.000000
vt -39.370098 0.000000
vt 39.370098 39.370098
vt 0.000000 4.921260
vt -3.937010 0.000000
vt -34.448799 19.684999
vt -34.448799 0.000000
vt -4.921260 0.000000
vt -4.921260 19.684999
vn -1.0000 0.0000 0.0000
vn 0.0000 0.0000 -1.0000
vn 0.0000 0.0000 1.0000
vn -0.0000 -1.0000 -0.0000
vn 0.0000 1.0000 0.0000
vn 1.0000 0.0000 0.0000
usemtl Brick.107
s 1
f 2/1/1 8/2/1 9/3/1
f 1/4/2 2/5/2 3/6/2
f 13/7/3 15/8/3 8/2/3
f 11/9/4 14/10/4 13/11/4
f 6/12/4 12/13/4 3/14/4
f 9/15/5 8/16/5 15/17/5
f 10/18/2 9/19/2 16/20/2
f 14/21/6 16/22/6 15/23/6
f 6/24/3 11/25/3 12/26/3
f 10/27/1 5/28/1 6/29/1
f 2/1/1 1/30/1 7/31/1
f 9/3/1 10/27/1 6/29/1
f 2/1/1 7/31/1 8/2/1
f 9/3/1 6/29/1 2/1/1
f 13/7/3 8/2/3 7/31/3
f 6/24/3 5/32/3 11/25/3
f 13/11/4 7/31/4 4/33/4
f 7/31/4 1/34/4 4/33/4
f 11/9/4 5/35/4 10/36/4
f 11/9/4 10/36/4 14/10/4
f 14/21/6 15/23/6 13/37/6
f 10/18/2 16/20/2 14/38/2
f 9/15/5 15/17/5 16/39/5
f 6/12/4 3/14/4 2/40/4
f 11/9/4 13/11/4 4/33/4
f 1/4/2 3/6/2 4/41/2
usemtl Glass.061
f 12/42/1 11/43/1 4/44/1
f 12/42/1 4/44/1 3/45/1
