# Blender v2.92.0 OBJ File: ''
# www.blender.org
mtllib Mesh1 Group1 Model.043.mtl
o Mesh1_Group1_Model.043
v 0.500000 0.000000 0.500000
v 0.500000 0.468750 0.500000
v -0.500000 0.000000 0.500000
v 0.500000 0.000000 -0.500000
v 0.500000 0.468750 -0.500000
v 0.500000 0.518750 -0.500000
v 0.500000 0.518750 0.500000
v -0.500000 0.000000 -0.500000
v -0.500000 0.073437 0.500000
v -0.500000 0.073438 -0.500000
v -0.500000 0.073438 -0.521370
v -0.500000 0.073437 0.521374
v -0.500000 0.518750 0.000000
v -0.461053 0.091694 -0.500000
v 0.450000 0.518750 0.000000
v -0.461053 0.091694 0.500000
v 0.450000 0.518750 0.500000
v 0.450000 0.518750 -0.500000
vt 39.370098 0.000000
vt 39.370098 18.454700
vt 0.000000 0.000000
vt 39.370098 18.454700
vt -0.000000 20.423201
vt -0.000000 18.454700
vt -39.370098 0.000000
vt 0.000000 0.000000
vt -39.370098 18.454700
vt -39.370098 39.370098
vt -39.370098 0.000000
vt -39.370098 2.891240
vt -0.000000 2.891240
vt -19.684999 20.423201
vt -0.000000 0.000000
vt 39.370098 0.000000
vt 39.370098 20.423201
vt 0.000000 39.370098
vt -40.211601 2.891240
vt 0.841513 2.891240
vt 40.211601 1.227140
vt 39.370098 2.920570
vt 39.370098 1.227140
vt -1.533330 -27.592199
vt 0.000001 -1.704270
vt -37.401600 -1.704270
vt 1.533330 2.344550
vt -0.000001 28.232500
vt 0.000000 1.237870
vt 0.000000 42.533901
vt -19.684999 42.533901
vt 0.000000 2.920570
vt 37.401600 19.684999
vt 39.370098 0.000000
vt 39.370098 39.370098
vt -39.370098 42.533901
vt -39.370098 2.920570
vt -1.533330 3.609990
vt -37.401600 20.423201
vt 1.533330 3.609990
vt -0.841513 1.227140
vt 0.000000 1.227140
vt -39.370098 -0.000000
vt 0.000001 -28.698900
vt 37.401600 28.232500
vt 37.401600 39.370098
vt 37.401600 0.000000
vt -39.370098 20.423201
vt 0.000001 2.891240
vt 39.370098 20.423201
vt 37.401600 20.423201
vt -39.370098 1.227140
vn 0.0000 0.0000 1.0000
vn 1.0000 -0.0000 0.0000
vn 0.0000 0.0000 -1.0000
vn 0.0000 -1.0000 -0.0000
vn -1.0000 0.0000 0.0000
vn 0.4244 -0.9055 0.0000
vn -0.0000 0.7604 -0.6495
vn -0.0000 0.7604 0.6495
vn -0.4244 0.9055 0.0000
vn 0.0000 1.0000 0.0000
vn -0.0001 0.7604 -0.6495
usemtl Brick.040
s 1
f 1/1/1 2/2/1 3/3/1
f 5/4/2 7/5/2 2/6/2
f 4/7/3 8/8/3 5/9/3
f 3/3/4 4/10/4 1/11/4
f 10/12/5 9/13/5 13/14/5
f 1/15/2 4/16/2 5/4/2
f 5/4/2 6/17/2 7/5/2
f 2/6/2 1/15/2 5/4/2
f 3/3/4 8/18/4 4/10/4
f 13/14/5 11/19/5 10/12/5
f 9/13/5 12/20/5 13/14/5
usemtl Roof.006
f 10/12/5 3/3/5 9/13/5
f 11/21/6 14/22/6 10/23/6
f 14/24/7 13/25/7 15/26/7
f 16/27/8 13/28/8 12/29/8
f 17/30/9 15/31/9 16/32/9
f 15/33/10 7/34/10 6/35/10
f 18/36/9 14/37/9 15/31/9
f 14/38/3 18/39/3 5/9/3
f 3/3/1 2/2/1 16/40/1
f 12/41/6 9/42/6 16/32/6
f 10/12/5 8/43/5 3/3/5
f 14/24/7 11/44/11 13/25/7
f 16/27/8 15/45/8 13/28/8
f 6/35/10 18/46/10 15/33/10
f 15/33/10 17/47/10 7/34/10
f 6/48/3 5/9/3 18/39/3
f 5/9/3 8/8/3 14/38/3
f 8/8/3 10/49/3 14/38/3
f 7/50/1 17/51/1 2/2/1
f 17/51/1 16/40/1 2/2/1
f 16/40/1 9/13/1 3/3/1
usemtl FrontColor.003
f 16/32/9 14/37/9 10/52/9
f 10/52/9 9/42/9 16/32/9
f 16/32/9 15/31/9 14/37/9
