# Blender v2.92.0 OBJ File: ''
# www.blender.org
mtllib Mesh1 Group1 Model.073.mtl
o Mesh1_Group1_Model.073
v 0.000000 0.445764 -0.054236
v 0.000000 0.445764 -0.195764
v 0.025000 0.445764 -0.195764
v 0.025000 0.445764 -0.054236
v 0.000000 0.500000 -0.250000
v 0.000000 0.500000 0.000000
v 0.000000 0.000000 0.000000
v 0.000000 0.250000 -0.054236
v 0.000000 0.000000 -0.250000
v 0.000000 0.250000 -0.195764
v 0.025000 0.250000 -0.054236
v 0.025000 0.250000 -0.195764
v 0.050000 0.000000 -0.250000
v 0.050000 0.500000 -0.250000
v 0.050000 0.000000 0.000000
v 0.050000 0.500000 0.000000
vt 0.000000 7.707250
vt -0.984252 2.135270
vt 0.000000 2.135270
vt -2.135270 17.549801
vt -9.842520 19.684999
vt -7.707250 17.549801
vt 0.000000 19.684999
vt 0.000000 0.000000
vt -2.135270 9.842520
vt -9.842520 0.000000
vt -7.707250 9.842520
vt 0.000000 2.135270
vt 0.984252 7.707250
vt 0.000000 7.707250
vt 0.000000 17.549801
vt -0.984252 9.842520
vt 0.000000 9.842520
vt 0.000000 9.842520
vt 0.984252 17.549801
vt 0.000000 17.549801
vt 0.000000 0.000000
vt -1.968500 19.684999
vt -1.968500 0.000000
vt -1.968500 9.842520
vt 0.000000 9.842520
vt 9.842520 0.000000
vt 0.000000 19.684999
vt 0.000000 0.000000
vt 0.000000 9.842520
vt 1.968500 0.000000
vt 1.968500 9.842520
vt 1.968500 0.000000
vt -0.984252 7.707250
vt 0.984252 2.135270
vt -0.984252 17.549801
vt 0.984252 9.842520
vt 0.000000 19.684999
vt -1.968500 0.000000
vt 9.842520 19.684999
vt 0.000000 0.000000
vt 1.968500 19.684999
vt -7.707250 17.549801
vt -2.135270 9.842520
vt -2.135270 17.549801
vt -7.707250 9.842520
vn 0.0000 -1.0000 0.0000
vn -1.0000 0.0000 0.0000
vn 0.0000 1.0000 0.0000
vn 0.0000 0.0000 -1.0000
vn 0.0000 0.0000 1.0000
vn 1.0000 -0.0000 0.0000
usemtl Wood.001
s 1
f 2/1/1 4/2/1 1/3/1
f 1/4/2 5/5/2 2/6/2
f 1/4/2 6/7/2 5/5/2
f 6/7/2 1/4/2 7/8/2
f 8/9/2 7/8/2 1/4/2
f 7/8/2 8/9/2 9/10/2
f 9/10/2 8/9/2 10/11/2
f 8/12/3 12/13/3 10/14/3
f 1/15/4 11/16/4 8/17/4
f 10/18/5 3/19/5 2/20/5
f 2/6/2 5/5/2 10/11/2
f 9/10/2 10/11/2 5/5/2
f 9/21/4 14/22/4 13/23/4
f 13/24/1 7/8/1 9/25/1
f 13/26/6 16/27/6 15/28/6
f 5/29/3 16/30/3 14/31/3
f 15/32/5 6/7/5 7/8/5
f 2/1/1 3/33/1 4/2/1
f 8/12/3 11/34/3 12/13/3
f 1/15/4 4/35/4 11/16/4
f 10/18/5 12/36/5 3/19/5
f 9/21/4 5/37/4 14/22/4
f 13/24/1 15/38/1 7/8/1
f 13/26/6 14/39/6 16/27/6
f 5/29/3 6/40/3 16/30/3
f 15/32/5 16/41/5 6/7/5
usemtl Glass.040
f 3/42/2 11/43/2 4/44/2
f 3/42/2 12/45/2 11/43/2
