# Blender v2.92.0 OBJ File: ''
# www.blender.org
mtllib Mesh1 Group1 Model.031.mtl
o Mesh1_Group1_Model.031
v -0.500000 0.518750 0.500000
v -0.500000 0.518750 0.450000
v -0.500000 0.017765 -0.618770
v -0.500000 -0.042443 -0.590550
v -0.500000 0.000000 -0.500000
v -0.500000 0.000000 0.500000
v -0.450000 0.518750 0.450000
v -0.450000 0.518750 0.500000
v 0.618770 0.017765 -0.618770
v 0.618770 0.017765 0.500000
v 0.590550 -0.042443 0.500000
v 0.500000 0.000000 0.500000
v 0.590550 -0.042443 -0.590550
v 0.500000 0.000000 -0.500000
vt -39.370098 -0.000000
vt 0.000000 0.000000
vt -1.968500 20.423201
vt 39.370098 -0.000000
vt 1.968500 20.423201
vt -39.370098 0.000000
vt 0.000000 39.370098
vt -39.370098 39.370098
vt 0.000000 20.423201
vt -44.046001 0.699401
vt -42.934898 -1.671000
vt 42.934898 -1.671000
vt 44.046001 0.699401
vt -0.000000 1.968500
vt 1.968500 0.000000
vt 1.968500 1.968500
vt -1.968500 6.885910
vt -0.000000 -39.584999
vt 0.000000 6.885910
vt 1.968500 6.885910
vt -0.000000 -39.584999
vt 44.046001 -39.584999
vt 42.934898 16.709999
vt -0.000000 19.327900
vt -0.000000 16.709999
vt -42.934898 16.709999
vt -0.000000 19.327900
vt -44.046001 19.327900
vt 39.370098 -35.647999
vt -0.000000 -39.584999
vt 42.934898 -39.584999
vt -39.370098 -35.647999
vt 0.000000 -39.584999
vt 0.000000 -35.647999
vt -0.000000 -0.000000
vt -44.046001 -39.584999
vt -0.000000 6.885910
vt 44.046001 19.327900
vt 0.000000 16.709999
vt -0.000000 -35.647999
vt -42.934898 -39.584999
vn -1.0000 -0.0000 0.0000
vn 0.0000 0.0000 1.0000
vn 0.0000 -1.0000 -0.0000
vn 0.0000 1.0000 0.0000
vn 0.0000 0.9055 -0.4244
vn 0.4244 0.9055 0.0000
vn 0.9055 -0.4244 -0.0000
vn 0.0000 -0.4244 -0.9055
vn 0.0000 -0.9055 0.4244
vn -0.4244 -0.9055 -0.0000
usemtl Brick.028
s 1
f 5/1/1 6/2/1 2/3/1
f 12/4/2 8/5/2 6/2/2
f 12/6/3 5/7/3 14/8/3
f 6/2/1 1/9/1 2/3/1
f 2/3/1 3/10/1 5/1/1
f 3/10/1 4/11/1 5/1/1
f 12/4/2 11/12/2 10/13/2
f 10/13/2 8/5/2 12/4/2
f 8/5/2 1/9/2 6/2/2
f 12/6/3 6/2/3 5/7/3
usemtl Roof.004
f 2/14/4 8/15/4 7/16/4
f 7/17/5 3/18/5 2/19/5
f 7/20/6 10/21/6 9/22/6
f 13/23/7 10/24/7 11/25/7
f 13/26/8 3/27/8 9/28/8
f 14/29/9 4/30/9 13/31/9
f 14/32/10 11/33/10 12/34/10
f 2/14/4 1/35/4 8/15/4
f 7/17/5 9/36/5 3/18/5
f 7/20/6 8/37/6 10/21/6
f 13/23/7 9/38/7 10/24/7
f 13/26/8 4/39/8 3/27/8
f 14/29/9 5/40/9 4/30/9
f 14/32/10 13/41/10 11/33/10
