# Blender v2.92.0 OBJ File: ''
# www.blender.org
mtllib Mesh1 Group1 Model.057.mtl
o Mesh1_Group1_Model.057
v -0.400000 0.500000 -0.500000
v -0.400000 0.000000 -0.500000
v -0.400000 0.000000 0.375000
v -0.400000 0.500000 0.375000
v 0.500000 0.000000 -0.500000
v -0.500000 0.500000 -0.500000
v -0.500000 0.625000 -0.500000
v 0.500000 0.625000 -0.500000
v 0.500000 0.000000 0.500000
v -0.500000 0.000000 0.500000
v -0.500000 0.000000 0.375000
v 0.500000 0.625000 0.500000
v -0.500000 0.625000 0.500000
v -0.500000 0.500000 0.375000
vt -39.370098 0.000000
vt -4.921260 19.684999
vt -39.370098 19.684999
vt -4.921260 0.000000
vt -3.937010 19.684999
vt 0.000000 24.606300
vt -39.370098 24.606300
vt 0.000000 0.000000
vt 0.000000 4.921260
vt -3.937010 4.921260
vt 39.370098 24.606300
vt 0.000000 0.000000
vt 39.370098 0.000000
vt 0.000000 0.000000
vt 39.370098 39.370098
vt 0.000000 39.370098
vt -4.921260 19.684999
vt 0.000000 24.606300
vt -3.937010 39.370098
vt 0.000000 4.921260
vt 0.000000 39.370098
vt 0.000000 19.684999
vt -3.937010 0.000000
vt 0.000000 0.000000
vt 39.370098 24.606300
vt 39.370098 0.000000
vt -39.370098 0.000000
vt -3.937010 0.000000
vt 0.000000 19.684999
vt -3.937010 39.370098
vt -39.370098 39.370098
vt -39.370098 0.000000
vt 0.000000 24.606300
vt 39.370098 0.000000
vt -39.370098 24.606300
vt -39.370098 19.684999
vt -4.921260 0.000000
vt -3.937010 4.921260
vt -3.937010 19.684999
vn -1.0000 0.0000 0.0000
vn 0.0000 0.0000 -1.0000
vn 0.0000 -1.0000 -0.0000
vn 1.0000 0.0000 0.0000
vn 0.0000 1.0000 0.0000
vn 0.0000 0.0000 1.0000
usemtl Glass.028
s 1
f 2/1/1 4/2/1 1/3/1
f 2/1/1 3/4/1 4/2/1
usemtl Brick.054
f 1/5/2 7/6/2 8/7/2
f 10/8/3 11/9/3 3/10/3
f 8/11/4 9/12/4 5/13/4
f 13/14/5 8/15/5 7/16/5
f 14/17/1 10/8/1 13/18/1
f 1/19/3 14/20/3 6/21/3
f 14/22/2 3/23/2 11/24/2
f 12/25/6 10/8/6 9/26/6
f 8/7/2 5/27/2 1/5/2
f 5/27/2 2/28/2 1/5/2
f 1/5/2 6/29/2 7/6/2
f 3/10/3 2/30/3 5/31/3
f 5/31/3 9/32/3 3/10/3
f 9/32/3 10/8/3 3/10/3
f 8/11/4 12/33/4 9/12/4
f 13/14/5 12/34/5 8/15/5
f 13/18/1 7/35/1 14/17/1
f 7/35/1 6/36/1 14/17/1
f 14/17/1 11/37/1 10/8/1
f 1/19/3 4/38/3 14/20/3
f 14/22/2 4/39/2 3/23/2
f 12/25/6 13/18/6 10/8/6
