# Blender v2.92.0 OBJ File: ''
# www.blender.org
mtllib Mesh1 Group1 Model.067.mtl
o Mesh1_Group1_Model.067
v -0.500000 0.500000 0.218750
v -0.500000 0.078125 0.218750
v -0.400000 0.078125 0.218750
v -0.400000 0.500000 0.218750
v -0.500000 0.500000 0.125000
v -0.500000 0.625000 -0.500000
v -0.500000 0.500000 0.406250
v -0.500000 0.625000 0.500000
v -0.500000 0.000000 0.500000
v -0.500000 0.078125 0.406250
v -0.500000 0.000000 0.125000
v -0.400000 0.078125 0.406250
v -0.400000 0.500000 0.406250
v -0.400000 0.500000 0.125000
v -0.400000 0.000000 0.125000
v -0.500000 0.500000 -0.125000
v -0.400000 0.500000 -0.125000
v -0.500000 0.000000 -0.125000
v -0.500000 0.000000 -0.500000
v 0.500000 0.625000 -0.500000
v 0.500000 0.000000 -0.500000
v 0.500000 0.625000 0.500000
v 0.500000 0.000000 0.500000
v -0.400000 0.000000 -0.125000
vt 0.000000 3.075790
vt 3.937010 19.684999
vt 0.000000 19.684999
vt -11.072800 19.684999
vt -14.763800 19.684999
vt -11.072800 3.075790
vt -39.370098 24.606300
vt -3.690940 19.684999
vt 0.000000 24.606300
vt 0.000000 0.000000
vt -3.690940 3.075790
vt -14.763800 0.000000
vt 0.000000 3.690940
vt 3.937010 11.072800
vt 0.000000 11.072800
vt 0.000000 19.684999
vt -3.937010 3.075790
vt 0.000000 3.075790
vt 0.000000 11.072800
vt -3.937010 3.690940
vt 0.000000 3.690940
vt 0.000000 19.684999
vt -3.937010 0.000000
vt 0.000000 0.000000
vt 0.000000 24.606300
vt -3.937010 14.763800
vt 0.000000 14.763800
vt -24.606300 19.684999
vt -24.606300 0.000000
vt -39.370098 0.000000
vt 0.000000 24.606300
vt -39.370098 0.000000
vt 0.000000 0.000000
vt -0.000000 0.000000
vt 39.370098 39.370098
vt -0.000000 39.370098
vt 39.370098 24.606300
vt 39.370098 0.000000
vt 39.370098 24.606300
vt 0.000000 0.000000
vt 39.370098 0.000000
vt -3.937010 14.763800
vt -3.937010 24.606300
vt -39.370098 39.370098
vt 0.000000 0.000000
vt 3.937010 19.684999
vt 0.000000 19.684999
vt 3.937010 3.075790
vt 3.937010 3.690940
vt -3.937010 19.684999
vt -3.937010 11.072800
vt -3.937010 19.684999
vt -3.937010 24.606300
vt -39.370098 24.606300
vt 39.370098 0.000000
vt 0.000000 24.606300
vt -39.370098 0.000000
vt 0.000000 14.763800
vt 0.000000 24.606300
vt 0.000000 39.370098
vt 3.937010 0.000000
vt -11.072800 19.684999
vt -3.690940 3.075790
vt -3.690940 19.684999
vt -24.606300 19.684999
vt -14.763800 0.000000
vt -14.763800 19.684999
vt -11.072800 3.075790
vt -24.606300 0.000000
vn 0.0000 -0.0000 1.0000
vn -1.0000 0.0000 0.0000
vn 0.0000 1.0000 0.0000
vn 0.0000 0.0000 -1.0000
vn 0.0000 -1.0000 -0.0000
vn 1.0000 0.0000 0.0000
usemtl Brick.065
s 1
f 2/1/1 4/2/1 1/3/1
f 1/4/2 5/5/2 2/6/2
f 1/4/2 6/7/2 5/5/2
f 7/8/2 6/7/2 1/4/2
f 7/8/2 8/9/2 6/7/2
f 8/9/2 7/8/2 9/10/2
f 10/11/2 9/10/2 7/8/2
f 9/10/2 10/11/2 11/12/2
f 11/12/2 10/11/2 2/6/2
f 10/13/3 3/14/3 2/15/3
f 7/16/4 12/17/4 10/18/4
f 1/19/5 13/20/5 7/21/5
f 11/12/2 2/6/2 5/5/2
f 5/22/4 15/23/4 11/24/4
f 16/25/5 14/26/5 5/27/5
f 5/5/2 6/7/2 16/28/2
f 16/28/2 6/7/2 18/29/2
f 18/29/2 6/7/2 19/30/2
f 6/31/4 21/32/4 19/33/4
f 8/34/3 20/35/3 6/36/3
f 22/37/1 9/10/1 23/38/1
f 20/39/6 23/40/6 21/41/6
f 15/42/5 24/43/5 21/44/5
f 18/45/1 17/46/1 16/47/1
f 2/1/1 3/48/1 4/2/1
f 10/13/3 12/49/3 3/14/3
f 7/16/4 13/50/4 12/17/4
f 1/19/5 4/51/5 13/20/5
f 5/22/4 14/52/4 15/23/4
f 16/25/5 17/53/5 14/26/5
f 6/31/4 20/54/4 21/32/4
f 8/34/3 22/55/3 20/35/3
f 22/37/1 8/9/1 9/10/1
f 20/39/6 22/56/6 23/40/6
f 21/44/5 23/57/5 15/42/5
f 23/57/5 9/10/5 15/42/5
f 9/10/5 11/58/5 15/42/5
f 24/43/5 18/59/5 19/60/5
f 24/43/5 19/60/5 21/44/5
f 18/45/1 24/61/1 17/46/1
usemtl Glass.036
f 4/62/2 12/63/2 13/64/2
f 17/65/2 15/66/2 14/67/2
f 4/62/2 3/68/2 12/63/2
f 17/65/2 24/69/2 15/66/2
