# Blender v2.92.0 OBJ File: ''
# www.blender.org
mtllib Mesh1 Group1 Model.189.mtl
o Mesh1_Group1_Model.189
v -0.450000 0.380000 0.500000
v -0.450000 0.380000 -0.250000
v -0.500000 0.380000 -0.250000
v -0.500000 0.380000 0.500000
v -0.450000 0.332258 0.452258
v -0.450000 0.047742 0.452258
v -0.450000 0.000000 0.500000
v -0.450000 0.000000 -0.250000
v -0.500000 0.000000 0.500000
v -0.500000 0.000000 -0.250000
v -0.500000 0.332258 0.452258
v -0.500000 0.332258 -0.202258
v -0.500000 0.047742 -0.202258
v -0.500000 0.047742 0.452258
v -0.450000 0.213871 0.452258
v -0.450000 0.166129 0.452258
v -0.450000 0.047742 -0.202258
v -0.450000 0.166129 -0.202258
v -0.450000 0.213871 -0.202258
v -0.450000 0.332258 -0.202258
vt -0.000000 14.960600
vt 1.879590 13.081000
vt 29.527599 14.960600
vt 1.879590 1.879590
vt -0.000000 0.000000
vt 29.527599 0.000000
vt 1.968500 0.000000
vt 1.968500 29.527599
vt 0.000000 29.527599
vt -1.968500 14.960600
vt -1.968500 0.000000
vt 0.000000 0.000000
vt 0.000000 14.960600
vt -1.879590 13.081000
vt 0.000000 0.000000
vt -29.527599 14.960600
vt -27.648001 13.081000
vt -27.648001 1.879590
vt -29.527599 0.000000
vt -1.879590 1.879590
vt 0.000000 1.879590
vt 0.000000 13.081000
vt -1.968500 8.420110
vt 1.879590 6.540520
vt 1.879590 8.420110
vt 0.000000 1.879590
vt 0.000000 27.648001
vt -1.968500 27.648001
vt 27.648001 1.879590
vt 27.648001 6.540520
vt 27.648001 8.420110
vt 27.648001 13.081000
vt 0.000000 27.648001
vt 1.968500 1.879590
vt 0.000000 13.081000
vt 0.000000 1.879590
vt 1.968500 6.540520
vt 1.968500 0.000000
vt 1.968500 14.960600
vt -1.968500 29.527599
vt 0.000000 29.527599
vt 1.968500 27.648001
vt -1.968500 13.081000
vt -1.968500 6.540520
vt -1.968500 1.879590
vt -1.968500 1.879590
vt 0.000000 14.960600
vt 1.968500 1.879590
vt 1.968500 8.420110
vt 1.968500 13.081000
vt -1.968500 0.000000
vt 0.000000 0.000000
vn 1.0000 -0.0000 0.0000
vn 0.0000 1.0000 0.0000
vn 0.0000 0.0000 -1.0000
vn -1.0000 0.0000 0.0000
vn 0.0000 -1.0000 0.0000
vn -0.0000 -0.0000 1.0000
usemtl Metal.024
s 1
f 1/1/1 5/2/1 2/3/1
f 5/2/1 1/1/1 6/4/1
f 7/5/1 6/4/1 1/1/1
f 6/4/1 7/5/1 8/6/1
f 1/7/2 2/8/2 3/9/2
f 2/10/3 8/11/3 10/12/3
f 4/13/4 11/14/4 9/15/4
f 11/14/4 4/13/4 3/16/4
f 11/14/4 3/16/4 12/17/4
f 12/17/4 3/16/4 13/18/4
f 10/19/4 13/18/4 3/16/4
f 10/19/4 14/20/4 13/18/4
f 9/15/4 14/20/4 10/19/4
f 14/20/4 9/15/4 11/14/4
f 14/21/3 11/22/3 15/23/3
f 5/2/1 16/24/1 15/25/5
f 5/2/1 6/4/1 16/24/1
f 11/26/5 12/27/5 20/28/5
f 6/4/1 8/6/1 17/29/1
f 17/29/1 8/6/1 18/30/1
f 18/30/1 8/6/1 19/31/1
f 19/31/1 8/6/1 20/32/1
f 2/3/1 20/32/1 8/6/1
f 2/3/1 5/2/1 20/32/1
f 13/33/2 14/21/2 6/34/2
f 12/35/6 13/36/6 18/37/6
f 7/38/6 1/39/6 4/13/6
f 8/40/5 9/15/5 10/41/5
f 7/38/6 4/13/6 9/15/6
f 13/33/2 6/34/2 17/42/2
f 5/43/3 15/23/3 11/22/3
f 15/23/3 16/44/3 14/21/3
f 16/44/3 6/45/3 14/21/3
f 11/26/5 20/28/5 5/46/5
f 2/10/3 10/12/3 3/47/3
f 17/48/6 18/37/6 13/36/6
f 18/37/6 19/49/6 12/35/6
f 19/49/6 20/50/6 12/35/6
f 8/40/5 7/51/5 9/15/5
f 1/7/2 3/9/2 4/52/2
