# Blender v2.92.0 OBJ File: ''
# www.blender.org
mtllib Mesh1 Group1 Model.100.mtl
o Mesh1_Group1_Model.100
v 0.500000 0.212500 0.500000
v 0.500000 0.212500 0.375000
v -0.375000 0.212500 0.375000
v -0.375000 0.212500 -0.375000
v 0.500000 0.212500 -0.375000
v 0.500000 0.212500 -0.500000
v -0.500000 0.212500 -0.500000
v -0.500000 0.212500 0.500000
v 0.500000 0.000000 0.500000
v 0.500000 0.000000 -0.500000
v 0.500000 0.106250 -0.375000
v 0.500000 0.106250 0.375000
v -0.500000 0.000000 0.500000
v -0.500000 0.000000 -0.500000
v -0.375000 0.106250 -0.375000
v -0.375000 0.106250 0.375000
vt 4.921260 34.448799
vt 0.000000 39.370098
vt 0.000000 0.000000
vt 0.000000 -0.000000
vt 39.370098 -0.000000
vt 4.921260 4.183070
vt -39.370098 0.000000
vt 0.000000 0.000000
vt 0.000000 39.370098
vt 39.370098 4.921260
vt 39.370098 34.448799
vt 4.921260 34.448799
vt -4.921260 8.366140
vt -39.370098 8.366140
vt -39.370098 4.183070
vt 34.448799 8.366140
vt 4.921260 8.366140
vt 4.921260 4.183070
vt 39.370098 8.366140
vt 4.921260 8.366140
vt 4.921260 4.183070
vt 0.000000 0.000000
vt 0.000000 8.366140
vt -39.370098 8.366140
vt 0.000000 8.366140
vt -39.370098 8.366140
vt 39.370098 0.000000
vt 4.921260 4.921260
vt 39.370098 4.921260
vt 39.370098 34.448799
vt 39.370098 39.370098
vt 39.370098 8.366140
vt 34.448799 4.183070
vt 34.448799 8.366140
vt 4.921260 8.366140
vt 0.000000 8.366140
vt 39.370098 0.000000
vt -39.370098 0.000000
vt -39.370098 0.000000
vt 39.370098 4.183070
vt 34.448799 4.183070
vt -4.921260 4.183070
vt 4.921260 4.921260
vt 39.370098 8.366140
vt -39.370098 39.370098
vn -0.0000 1.0000 0.0000
vn 1.0000 0.0000 0.0000
vn 0.0000 -1.0000 -0.0000
vn 0.0000 0.0000 -1.0000
vn 0.0000 0.0000 1.0000
vn -1.0000 0.0000 0.0000
usemtl Brick.068
s 1
f 4/1/1 7/2/1 8/3/1
f 9/4/2 10/5/2 12/6/2
f 9/7/3 13/8/3 14/9/3
f 12/10/1 11/11/1 15/12/1
f 3/13/4 2/14/4 12/15/4
f 4/16/2 3/17/2 16/18/2
f 5/19/5 4/20/5 15/21/5
f 14/22/4 7/23/4 6/24/4
f 13/8/6 8/25/6 7/26/6
f 8/3/1 1/27/1 3/28/1
f 1/27/1 2/29/1 3/28/1
f 5/30/1 6/31/1 4/1/1
f 6/31/1 7/2/1 4/1/1
f 8/3/1 3/28/1 4/1/1
f 10/5/2 6/32/2 11/33/2
f 6/32/2 5/34/2 11/33/2
f 2/35/2 1/36/2 12/6/2
f 1/36/2 9/4/2 12/6/2
f 10/5/2 11/33/2 12/6/2
f 9/37/5 8/25/5 13/8/5
f 13/8/6 7/26/6 14/38/6
f 14/22/4 6/24/4 10/39/4
f 5/19/5 15/21/5 11/40/5
f 4/16/2 16/18/2 15/41/2
f 3/13/4 12/15/4 16/42/4
f 12/10/1 15/12/1 16/43/1
f 9/37/5 1/44/5 8/25/5
f 9/7/3 14/9/3 10/45/3
