# Blender v2.92.0 OBJ File: ''
# www.blender.org
mtllib Mesh1 Group1 Model.171.mtl
o Mesh1_Group1_Model.171
v -0.500000 0.000000 0.500000
v -0.500000 0.200000 0.500000
v -0.600000 0.200000 0.500000
v -0.600000 0.000000 0.500000
v -0.500000 0.000000 0.190000
v -0.500000 0.200000 0.190000
v -0.600000 0.000000 0.190000
v -0.600000 0.027556 0.306911
v -0.600000 0.035048 0.325000
v -0.600000 0.046967 0.340533
v -0.600000 0.062500 0.352452
v -0.600000 0.080589 0.359944
v -0.600000 0.100000 0.362500
v -0.600000 0.119411 0.359944
v -0.600000 0.137500 0.352452
v -0.600000 0.153033 0.340533
v -0.600000 0.164952 0.325000
v -0.600000 0.172444 0.306911
v -0.600000 0.200000 0.190000
v -0.600000 0.100000 0.212500
v -0.600000 0.080589 0.215056
v -0.600000 0.062500 0.222548
v -0.600000 0.046967 0.234467
v -0.600000 0.035048 0.250000
v -0.600000 0.027556 0.268089
v -0.600000 0.025000 0.287500
v -0.600000 0.175000 0.287500
v -0.600000 0.172444 0.268089
v -0.600000 0.164952 0.250000
v -0.600000 0.153033 0.234467
v -0.600000 0.137500 0.222548
v -0.600000 0.119411 0.215056
vt 0.000000 0.000000
vt 0.000000 7.874020
vt -3.937010 7.874020
vt -0.000000 0.000000
vt -7.601910 1.084860
vt -12.204700 0.000000
vt -6.889760 1.379850
vt -6.278230 1.849090
vt -5.808980 2.460630
vt -5.514000 3.172780
vt -5.413390 3.937010
vt -5.514000 4.701240
vt -5.808980 5.413390
vt -6.278230 6.024920
vt -0.000000 7.874020
vt -6.889760 6.494170
vt -7.601910 6.789150
vt -12.204700 7.874020
vt 0.000000 7.874020
vt 0.000000 0.000000
vt 3.937010 0.000000
vt 0.000000 0.000000
vt 0.000000 12.204700
vt -3.937010 12.204700
vt -11.318900 3.937010
vt -11.218300 3.172780
vt -10.923300 2.460630
vt -10.454100 1.849090
vt -9.842520 1.379850
vt -9.130370 1.084860
vt -8.366140 0.984252
vt -8.366140 6.889760
vt -9.130370 6.789150
vt -9.842520 6.494170
vt -10.454100 6.024920
vt -10.923300 5.413390
vt -11.218300 4.701240
vt 12.204700 7.874020
vt -0.000000 12.204700
vt 3.937010 0.000000
vt 3.937010 12.204700
vt -3.937010 0.000000
vt 3.937010 7.874020
vt 12.204700 0.000000
vt -3.937010 0.000000
vn 0.0000 0.0000 1.0000
vn -1.0000 -0.0000 0.0000
vn 0.0000 0.0000 -1.0000
vn 0.0000 1.0000 0.0000
vn 1.0000 0.0000 0.0000
vn 0.0000 -1.0000 -0.0000
usemtl Metal.015
s 1
f 1/1/1 2/2/1 3/3/1
f 4/4/2 8/5/2 7/6/2
f 8/5/2 4/4/2 9/7/2
f 9/7/2 4/4/2 10/8/2
f 10/8/2 4/4/2 11/9/2
f 11/9/2 4/4/2 12/10/2
f 12/10/2 4/4/2 13/11/2
f 4/4/2 14/12/2 13/11/2
f 4/4/2 15/13/2 14/12/2
f 4/4/2 16/14/2 15/13/2
f 3/15/2 16/14/2 4/4/2
f 16/14/2 3/15/2 17/16/2
f 17/16/2 3/15/2 18/17/2
f 18/17/2 3/15/2 19/18/2
f 6/19/3 5/20/3 7/21/3
f 2/22/4 6/23/4 19/24/4
f 7/6/2 20/25/2 19/18/2
f 7/6/2 21/26/2 20/25/2
f 7/6/2 22/27/2 21/26/2
f 7/6/2 23/28/2 22/27/2
f 7/6/2 24/29/2 23/28/2
f 7/6/2 25/30/2 24/29/2
f 7/6/2 26/31/2 25/30/2
f 7/6/2 8/5/2 26/31/2
f 18/17/2 19/18/2 27/32/2
f 27/32/2 19/18/2 28/33/2
f 28/33/2 19/18/2 29/34/2
f 29/34/2 19/18/2 30/35/2
f 30/35/2 19/18/2 31/36/2
f 31/36/2 19/18/2 32/37/2
f 32/37/2 19/18/2 20/25/2
f 1/1/5 6/38/5 2/2/5
f 5/39/6 4/40/6 7/41/6
f 2/22/4 19/24/4 3/42/4
f 6/19/3 7/21/3 19/43/3
f 1/1/5 5/44/5 6/38/5
f 5/39/6 1/1/6 4/40/6
f 1/1/1 3/3/1 4/45/1
usemtl Roof.028
f 27/32/2 31/36/2 26/31/2
f 31/36/2 22/27/2 26/31/2
f 27/32/2 26/31/2 15/13/2
f 26/31/2 8/5/2 11/9/2
f 8/5/2 9/7/2 11/9/2
f 9/7/2 10/8/2 11/9/2
f 11/9/2 12/10/2 13/11/2
f 13/11/2 14/12/2 11/9/2
f 14/12/2 15/13/2 11/9/2
f 15/13/2 16/14/2 17/16/2
f 17/16/2 18/17/2 15/13/2
f 18/17/2 27/32/2 15/13/2
f 27/32/2 28/33/2 31/36/2
f 28/33/2 29/34/2 31/36/2
f 29/34/2 30/35/2 31/36/2
f 31/36/2 32/37/2 22/27/2
f 32/37/2 20/25/2 22/27/2
f 20/25/2 21/26/2 22/27/2
f 22/27/2 23/28/2 24/29/2
f 24/29/2 25/30/2 22/27/2
f 25/30/2 26/31/2 22/27/2
f 26/31/2 11/9/2 15/13/2
