# Blender v2.92.0 OBJ File: ''
# www.blender.org
mtllib Mesh1 Group1 Model.109.mtl
o Mesh1_Group1_Model.109
v -0.723075 0.027737 -0.500000
v -0.725000 0.000000 -0.500000
v -0.725000 0.000000 -0.300000
v -0.723075 0.027737 -0.300000
v -0.500000 0.212500 -0.500000
v -0.500000 0.000000 -0.500000
v -0.717333 0.054999 -0.500000
v -0.707873 0.081320 -0.500000
v -0.694856 0.106250 -0.500000
v -0.678505 0.129362 -0.500000
v -0.659099 0.150260 -0.500000
v -0.636971 0.168588 -0.500000
v -0.612500 0.184030 -0.500000
v -0.586104 0.196324 -0.500000
v -0.558234 0.205259 -0.500000
v -0.529368 0.210682 -0.500000
v 0.500000 0.212500 -0.500000
v 0.500000 0.000000 -0.500000
v 0.500000 0.212500 0.500000
v 0.500000 0.000000 0.500000
v -0.500000 0.212500 0.500000
v -0.500000 0.000000 0.500000
v -0.500000 0.212500 -0.100000
v -0.500000 0.212500 0.100000
v -0.500000 0.212500 0.300000
v -0.500000 0.000000 0.300000
v -0.500000 0.000000 0.100000
v -0.500000 0.000000 -0.100000
v -0.500000 0.000000 -0.300000
v -0.500000 0.212500 -0.300000
v -0.529368 0.210682 -0.300000
v -0.558234 0.205259 -0.300000
v -0.586104 0.196324 -0.300000
v -0.612500 0.184030 -0.300000
v -0.636971 0.168588 -0.300000
v -0.659099 0.150260 -0.300000
v -0.678505 0.129362 -0.300000
v -0.694856 0.106250 -0.300000
v -0.707873 0.081320 -0.300000
v -0.717333 0.054999 -0.300000
v -0.717333 0.054999 -0.100000
v -0.723075 0.027737 -0.100000
v -0.707873 0.081320 -0.100000
v -0.694856 0.106250 -0.100000
v -0.678505 0.129362 -0.100000
v -0.659099 0.150260 -0.100000
v -0.636971 0.168588 -0.100000
v -0.612500 0.184030 -0.100000
v -0.586104 0.196324 -0.100000
v -0.558234 0.205259 -0.100000
v -0.529368 0.210682 -0.100000
v -0.529368 0.210682 0.100000
v -0.558234 0.205259 0.100000
v -0.586104 0.196324 0.100000
v -0.612500 0.184030 0.100000
v -0.636971 0.168588 0.100000
v -0.659099 0.150260 0.100000
v -0.678505 0.129362 0.100000
v -0.694856 0.106250 0.100000
v -0.707873 0.081320 0.100000
v -0.717333 0.054999 0.100000
v -0.723075 0.027737 0.100000
v -0.725000 0.000000 -0.100000
v -0.725000 0.000000 0.100000
v -0.725000 0.000000 0.300000
v -0.725000 0.000000 0.500000
v -0.723075 0.027737 0.300000
v -0.723075 0.027737 0.500000
v -0.529368 0.210682 0.500000
v -0.558234 0.205259 0.500000
v -0.586104 0.196324 0.500000
v -0.612500 0.184030 0.500000
v -0.636971 0.168588 0.500000
v -0.659099 0.150260 0.500000
v -0.678505 0.129362 0.500000
v -0.694856 0.106250 0.500000
v -0.707873 0.081320 0.500000
v -0.717333 0.054999 0.500000
v -0.529368 0.210682 0.300000
v -0.558234 0.205259 0.300000
v -0.586104 0.196324 0.300000
v -0.612500 0.184030 0.300000
v -0.636971 0.168588 0.300000
v -0.659099 0.150260 0.300000
v -0.678505 0.129362 0.300000
v -0.694856 0.106250 0.300000
v -0.707873 0.081320 0.300000
v -0.717333 0.054999 0.300000
vt -39.370098 0.481348
vt -39.370098 -0.613280
vt -31.496099 -0.613280
vt 8.858270 39.370098
vt 0.000000 39.370098
vt -0.000000 31.496099
vt -7.874020 0.157231
vt -7.874020 -0.950000
vt 0.000000 -0.950000
vt -7.874020 0.098761
vt -7.874020 -1.015850
vt 0.000000 -1.015850
vt -7.874020 0.072895
vt -7.874020 -1.049890
vt 0.000000 -1.049890
vt -7.874020 0.080722
vt -7.874020 -1.050460
vt 0.000000 -1.050460
vt -7.874020 0.120986
vt -7.874020 -1.018250
vt 0.000000 -1.018250
vt -7.874020 0.190366
vt -7.874020 -0.956043
vt 0.000000 -0.956043
vt -7.874020 0.283839
vt -7.874020 -0.868394
vt 0.000000 -0.868394
vt -7.874020 0.395084
vt -7.874020 -0.761248
vt 0.000000 -0.761248
vt -7.874020 0.516893
vt -7.874020 -0.641556
vt 0.000000 -0.641556
vt -7.874020 0.481348
vt -7.874020 -0.613280
vt 0.000000 -0.613280
vt 8.858270 7.874020
vt -0.000000 7.874020
vt 0.000000 0.000000
vt -0.000000 23.622000
vt -0.000000 15.748000
vt 8.858270 15.748000
vt -23.622000 -0.613280
vt -15.748000 -0.613280
vt -15.748000 0.481348
vt -23.622000 -0.741440
vt -15.748000 -0.741440
vt -15.748000 0.355423
vt -23.622000 -0.856416
vt -15.748000 -0.856416
vt -15.748000 0.244754
vt -23.622000 -0.950000
vt -15.748000 -0.950000
vt -15.748000 0.157231
vt -23.622000 -1.015850
vt -15.748000 -1.015850
vt -15.748000 0.098761
vt -23.622000 -1.049890
vt -15.748000 -1.049890
vt -15.748000 0.072895
vt -23.622000 -1.050460
vt -15.748000 -1.050460
vt -15.748000 0.080722
vt -23.622000 -1.018250
vt -15.748000 -1.018250
vt -15.748000 0.120986
vt -23.622000 -0.956043
vt -15.748000 -0.956043
vt -15.748000 0.190366
vt -23.622000 -0.868394
vt -15.748000 -0.868394
vt -15.748000 0.283839
vt -23.622000 -0.761248
vt -15.748000 -0.761248
vt -15.748000 0.395084
vt -23.622000 -0.641556
vt -15.748000 -0.641556
vt -15.748000 0.516893
vt -8.556430 2.165320
vt -8.782480 1.092000
vt -39.370098 0.355423
vt -39.370098 -0.741440
vt -31.496099 -0.741440
vt -39.370098 0.244754
vt -39.370098 -0.856416
vt -31.496099 -0.856416
vt -39.370098 0.157231
vt -39.370098 -0.950000
vt -31.496099 -0.950000
vt -39.370098 0.098761
vt -39.370098 -1.015850
vt -31.496099 -1.015850
vt -39.370098 0.072895
vt -39.370098 -1.049890
vt -31.496099 -1.049890
vt -39.370098 0.080722
vt -39.370098 -1.050460
vt -31.496099 -1.050460
vt -39.370098 0.120986
vt -39.370098 -1.018250
vt -31.496099 -1.018250
vt -39.370098 0.190366
vt -39.370098 -0.956043
vt -31.496099 -0.956043
vt -39.370098 0.283839
vt -39.370098 -0.868394
vt -31.496099 -0.868394
vt -39.370098 0.395084
vt -39.370098 -0.761248
vt -31.496099 -0.761248
vt -39.370098 0.516893
vt -39.370098 -0.641556
vt -31.496099 -0.641556
vt -31.496099 0.516893
vt -7.874020 0.355423
vt -7.874020 -0.741440
vt 0.000000 -0.741440
vt -7.874020 0.244754
vt -7.874020 -0.856416
vt 0.000000 -0.856416
vt -31.496099 0.395084
vt -31.496099 0.283839
vt -31.496099 0.190366
vt -31.496099 0.120986
vt -31.496099 0.080722
vt -31.496099 0.072895
vt -31.496099 0.098761
vt -31.496099 0.157231
vt -31.496099 0.244754
vt -31.496099 0.355423
vt -23.622000 0.516893
vt -23.622000 0.395084
vt -23.622000 0.283839
vt -23.622000 0.190366
vt -23.622000 0.120986
vt -23.622000 0.080722
vt -23.622000 0.072895
vt -23.622000 0.098761
vt -23.622000 0.157231
vt -23.622000 0.244754
vt -23.622000 0.355423
vt -23.622000 0.481348
vt 8.858270 23.622000
vt 8.858270 -0.000000
vt 0.000000 0.481348
vt -0.000000 0.516893
vt -8.858270 0.000000
vt 0.000000 8.366140
vt -1.156240 8.294570
vt -2.292690 8.081070
vt -3.389910 7.729310
vt -4.429130 7.245290
vt -5.392570 6.637310
vt -6.263740 5.915760
vt -7.027740 5.092980
vt -7.671480 4.183070
vt -8.183970 3.201580
vt 0.000000 0.395084
vt 0.000000 0.283839
vt 0.000000 0.190366
vt 0.000000 0.120986
vt 0.000000 0.080722
vt 0.000000 0.072895
vt 0.000000 0.098761
vt 0.000000 0.157231
vt 0.000000 0.244754
vt 0.000000 0.355423
vt 8.858270 31.496099
vt -31.496099 0.481348
vt 2.292690 8.081070
vt 1.156240 8.294570
vt 0.000000 0.000000
vt 15.748000 -0.000000
vt 7.874020 8.366140
vt 15.748000 8.366140
vt 7.874020 -0.000000
vt 31.496099 8.366140
vt 39.370098 0.000000
vt 31.496099 -0.000000
vt 23.622000 -0.000000
vt 23.622000 8.366140
vt 0.000000 8.366140
vt 8.858270 0.000000
vt 8.782480 1.092000
vt 8.556430 2.165320
vt 8.183970 3.201580
vt 7.671480 4.183070
vt 7.027740 5.092980
vt 6.263740 5.915760
vt 5.392570 6.637310
vt 4.429130 7.245290
vt 3.389910 7.729310
vt 39.370098 8.366140
vt 39.370098 -0.000000
vt 39.370098 39.370098
vt -0.000000 15.748000
vt -0.000000 31.496099
vt -0.000000 23.622000
vt -39.370098 39.370098
vt -39.370098 -0.000000
vt -39.370098 8.366140
vt 0.000000 8.366140
vt 39.370098 0.000000
vt 39.370098 8.366140
vt 39.370098 0.000000
vt 39.370098 8.366140
vt -0.000000 -0.000000
vt -0.000000 7.874020
vt -0.000000 39.370098
vt -39.370098 0.000000
vt 0.000000 0.000000
vn -0.9904 0.1380 0.0000
vn -0.9976 0.0692 0.0000
vn 0.0000 -1.0000 -0.0000
vn -0.8533 0.5214 0.0000
vn -0.9159 0.4015 0.0000
vn -0.7763 0.6304 0.0000
vn -0.6868 0.7268 0.0000
vn -0.5870 0.8096 0.0000
vn -0.6868 0.7269 0.0000
vn -0.4789 0.8779 0.0000
vn -0.3645 0.9312 0.0000
vn -0.2454 0.9694 0.0000
vn -0.1234 0.9924 0.0000
vn -0.0618 0.9981 0.0000
vn -0.9621 0.2728 0.0000
vn 0.0000 0.0000 1.0000
vn 0.0000 0.0000 -1.0000
vn -1.0000 0.0000 0.0000
vn 0.0000 1.0000 0.0000
vn 1.0000 0.0000 0.0000
usemtl Wood.015
s 1
f 1/1/1 2/2/2 3/3/2
f 2/4/3 6/5/3 29/6/3
f 86/7/4 87/8/5 77/9/5
f 85/10/6 86/11/4 76/12/4
f 84/13/7 85/14/6 75/15/6
f 83/16/8 84/17/7 74/18/9
f 82/19/10 83/20/8 73/21/8
f 81/22/11 82/23/10 72/24/10
f 80/25/12 81/26/11 71/27/11
f 79/28/13 80/29/12 70/30/12
f 25/31/14 79/32/13 69/33/13
f 67/34/1 65/35/2 66/36/2
f 65/37/3 26/38/3 22/39/3
f 28/40/3 27/41/3 64/42/3
f 63/43/2 64/44/2 62/45/1
f 42/46/1 62/47/1 61/48/15
f 41/49/15 61/50/15 60/51/5
f 43/52/5 60/53/5 59/54/4
f 44/55/4 59/56/4 58/57/6
f 45/58/6 58/59/6 57/60/9
f 46/61/7 57/62/9 56/63/8
f 47/64/8 56/65/8 55/66/10
f 48/67/10 55/68/10 54/69/11
f 49/70/11 54/71/11 53/72/12
f 50/73/12 53/74/12 52/75/13
f 51/76/13 52/77/13 24/78/14
f 78/79/16 68/80/16 22/39/16
f 7/81/15 1/82/1 4/83/1
f 8/84/5 7/85/15 40/86/15
f 9/87/4 8/88/5 39/89/5
f 10/90/6 9/91/4 38/92/4
f 11/93/7 10/94/6 37/95/6
f 12/96/8 11/97/7 36/98/9
f 13/99/10 12/100/8 35/101/8
f 14/102/11 13/103/10 34/104/10
f 15/105/12 14/106/11 33/107/11
f 16/108/13 15/109/12 32/110/12
f 5/111/14 16/112/13 31/113/13
f 5/111/14 31/113/13 30/114/14
f 88/115/15 67/116/1 68/117/1
f 87/118/5 88/119/15 78/120/15
f 16/108/13 32/110/12 31/121/13
f 15/105/12 33/107/11 32/122/12
f 14/102/11 34/104/10 33/123/11
f 13/99/10 35/101/8 34/124/10
f 12/96/8 36/98/9 35/125/8
f 11/93/7 37/95/6 36/126/9
f 10/90/6 38/92/4 37/127/6
f 9/87/4 39/89/5 38/128/4
f 8/84/5 40/86/15 39/129/5
f 7/81/15 4/83/1 40/130/15
f 51/76/13 24/78/14 23/131/14
f 50/73/12 52/75/13 51/132/13
f 49/70/11 53/72/12 50/133/12
f 48/67/10 54/69/11 49/134/11
f 47/64/8 55/66/10 48/135/10
f 46/61/7 56/63/8 47/136/8
f 45/58/6 57/60/9 46/137/7
f 44/55/4 58/57/6 45/138/6
f 43/52/5 59/54/4 44/139/4
f 41/49/15 60/51/5 43/140/5
f 42/46/1 61/48/15 41/141/15
f 63/43/2 62/45/1 42/142/1
f 28/40/3 64/42/3 63/143/3
f 65/37/3 22/39/3 66/144/3
f 67/34/1 66/36/2 68/145/1
f 25/31/14 69/33/13 21/146/14
f 66/147/16 22/39/16 68/80/16
f 22/39/16 21/148/16 69/149/16
f 70/150/16 22/39/16 69/149/16
f 70/150/16 71/151/16 22/39/16
f 71/151/16 72/152/16 22/39/16
f 72/152/16 73/153/16 22/39/16
f 73/153/16 74/154/16 22/39/16
f 74/154/16 75/155/16 22/39/16
f 75/155/16 76/156/16 22/39/16
f 76/156/16 77/157/16 22/39/16
f 77/157/16 78/79/16 22/39/16
f 79/28/13 70/30/12 69/158/13
f 80/25/12 71/27/11 70/159/12
f 81/22/11 72/24/10 71/160/11
f 82/19/10 73/21/8 72/161/10
f 83/16/8 74/18/9 73/162/8
f 84/13/7 75/15/6 74/163/9
f 85/10/6 76/12/4 75/164/6
f 86/7/4 77/9/5 76/165/4
f 87/118/5 78/120/15 77/166/5
f 88/115/15 68/117/1 78/167/15
f 2/4/3 29/6/3 3/168/3
f 1/1/1 3/3/2 4/169/1
usemtl Green.004
f 15/170/17 16/171/17 6/172/17
f 42/142/1 4/169/1 3/3/2
f 88/119/15 87/118/5 60/51/5
f 87/8/5 86/7/4 59/54/4
f 86/11/4 85/10/6 58/57/6
f 85/14/6 84/13/7 57/60/9
f 84/17/7 83/16/8 56/63/8
f 83/20/8 82/19/10 55/66/10
f 82/23/10 81/22/11 54/69/11
f 81/26/11 80/25/12 53/72/12
f 80/29/12 79/28/13 52/75/13
f 79/32/13 25/31/14 24/78/14
f 65/35/2 67/34/1 62/45/1
f 26/38/3 65/37/3 64/42/3
f 23/131/14 30/114/14 31/113/13
f 51/132/13 31/121/13 32/110/12
f 50/133/12 32/122/12 33/107/11
f 49/134/11 33/123/11 34/104/10
f 48/135/10 34/124/10 35/101/8
f 47/136/8 35/125/8 36/98/9
f 46/137/7 36/126/9 37/95/6
f 45/138/6 37/127/6 38/92/4
f 44/139/4 38/128/4 39/89/5
f 43/140/5 39/129/5 40/86/15
f 41/141/15 40/130/15 4/83/1
f 27/173/18 25/174/18 24/175/18
f 26/176/18 21/148/18 25/174/18
f 30/177/18 6/178/18 29/179/18
f 28/180/18 24/175/18 23/181/18
f 28/180/18 30/177/18 29/179/18
f 16/171/17 5/182/17 6/172/17
f 6/172/17 2/183/17 1/184/17
f 1/184/17 7/185/17 6/172/17
f 7/185/17 8/186/17 6/172/17
f 8/186/17 9/187/17 6/172/17
f 9/187/17 10/188/17 6/172/17
f 10/188/17 11/189/17 6/172/17
f 11/189/17 12/190/17 6/172/17
f 12/190/17 13/191/17 6/172/17
f 13/191/17 14/192/17 6/172/17
f 14/192/17 15/170/17 6/172/17
f 28/180/18 23/181/18 30/177/18
f 28/180/18 27/173/18 24/175/18
f 30/177/18 5/193/18 6/178/18
f 26/176/18 22/39/18 21/148/18
f 27/173/18 26/176/18 25/174/18
f 67/116/1 88/115/15 61/48/15
f 63/143/3 3/168/3 29/6/3
f 41/141/15 4/83/1 42/46/1
f 43/140/5 40/86/15 41/49/15
f 44/139/4 39/89/5 43/52/5
f 45/138/6 38/92/4 44/55/4
f 46/137/7 37/95/6 45/58/6
f 47/136/8 36/98/9 46/61/7
f 48/135/10 35/101/8 47/64/8
f 49/134/11 34/104/10 48/67/10
f 50/133/12 33/107/11 49/70/11
f 51/132/13 32/110/12 50/73/12
f 23/131/14 31/113/13 51/76/13
f 26/38/3 64/42/3 27/41/3
f 65/35/2 62/45/1 64/44/2
f 79/32/13 24/78/14 52/77/13
f 80/29/12 52/75/13 53/74/12
f 81/26/11 53/72/12 54/71/11
f 82/23/10 54/69/11 55/68/10
f 83/20/8 55/66/10 56/65/8
f 84/17/7 56/63/8 57/62/9
f 85/14/6 57/60/9 58/59/6
f 86/11/4 58/57/6 59/56/4
f 87/8/5 59/54/4 60/53/5
f 88/119/15 60/51/5 61/50/15
f 67/116/1 61/48/15 62/47/1
f 63/143/3 29/6/3 28/40/3
f 42/142/1 3/3/2 63/43/2
usemtl Dark_brick.017
f 19/194/19 17/195/19 24/196/19
f 17/195/19 30/197/19 23/198/19
f 28/40/3 29/6/3 18/199/3
f 27/41/3 18/199/3 20/200/3
f 17/201/17 6/172/17 5/182/17
f 19/202/20 18/203/20 17/204/20
f 21/148/16 20/205/16 19/206/16
f 21/207/19 19/194/19 25/208/19
f 27/41/3 20/200/3 26/38/3
f 21/148/16 22/39/16 20/205/16
f 17/195/19 5/209/19 30/197/19
f 23/198/19 24/196/19 17/195/19
f 29/6/3 6/5/3 18/199/3
f 17/201/17 18/210/17 6/172/17
f 20/200/3 22/39/3 26/38/3
f 19/202/20 20/211/20 18/203/20
f 27/41/3 28/40/3 18/199/3
f 19/194/19 24/196/19 25/208/19
