# Blender v2.92.0 OBJ File: ''
# www.blender.org
mtllib Mesh1 Group1 Model.017.mtl
o Mesh1_Group1_Model.017
v 0.500000 0.000000 0.500000
v -0.500000 0.000000 0.500000
v -0.500000 0.000000 -0.500000
v 0.500000 0.000000 -0.500000
v 0.500000 0.625000 0.500000
v -0.500000 0.625000 0.500000
v 0.500000 0.625000 -0.500000
v -0.500000 0.625000 -0.500000
vt 0.000000 0.000000
vt -39.370098 39.370098
vt -39.370098 0.000000
vt 39.370098 24.606300
vt 39.370098 0.000000
vt 39.370098 24.606300
vt 0.000000 0.000000
vt 39.370098 0.000000
vt 0.000000 24.606300
vt -39.370098 0.000000
vt 0.000000 0.000000
vt 0.000000 24.606300
vt -39.370098 0.000000
vt -0.000000 0.000000
vt 39.370098 39.370098
vt -0.000000 39.370098
vt 0.000000 39.370098
vt 0.000000 24.606300
vt -39.370098 24.606300
vt -39.370098 24.606300
vt 39.370098 0.000000
vn 0.0000 -1.0000 -0.0000
vn 0.0000 0.0000 1.0000
vn 1.0000 0.0000 0.0000
vn 0.0000 0.0000 -1.0000
vn -1.0000 -0.0000 0.0000
vn 0.0000 1.0000 0.0000
usemtl Brick.016
s 1
f 2/1/1 4/2/1 1/3/1
f 5/4/2 2/1/2 1/5/2
f 7/6/3 1/7/3 4/8/3
f 8/9/4 4/10/4 3/11/4
f 6/12/5 3/13/5 2/1/5
f 6/14/6 7/15/6 8/16/6
f 2/1/1 3/17/1 4/2/1
f 5/4/2 6/12/2 2/1/2
f 7/6/3 5/18/3 1/7/3
f 8/9/4 7/19/4 4/10/4
f 6/12/5 8/20/5 3/13/5
f 6/14/6 5/21/6 7/15/6
