# Blender v2.92.0 OBJ File: ''
# www.blender.org
mtllib Mesh1 Group1 Model.137.mtl
o Mesh1_Group1_Model.137
v -0.139515 0.502500 0.360485
v -0.360485 0.502500 0.139515
v -0.289775 0.502500 0.068804
v -0.068804 0.502500 0.289775
v -0.500000 0.000000 0.000000
v -0.360485 0.000000 0.139515
v -0.139515 0.000000 0.360485
v 0.000000 0.000000 0.500000
v 0.000000 0.625000 0.500000
v -0.500000 0.625000 0.000000
v 0.500000 0.000000 0.500000
v -0.068804 0.000000 0.289775
v -0.289775 0.000000 0.068804
v -0.500000 0.000000 -0.500000
v 0.500000 0.000000 -0.500000
v 0.500000 0.625000 0.500000
v 0.500000 0.625000 -0.500000
v -0.500000 0.625000 -0.500000
vt 0.000000 0.000000
vt 0.000000 24.606300
vt -39.370098 24.606300
vt -6.151570 19.783501
vt 6.151570 19.783501
vt 13.919400 24.606300
vt -8.276580 16.976200
vt 0.000000 39.370098
vt -39.370098 39.370098
vt 19.684999 24.606300
vt 19.684999 0.000000
vt 39.370098 0.000000
vt -16.976200 8.276580
vt -14.192300 5.492700
vt -5.492700 14.192300
vt 13.919400 19.783501
vt 13.919400 0.000000
vt 17.856400 0.000000
vt 19.684999 0.000000
vt 39.370098 0.000000
vt 39.370098 39.370098
vt -13.919400 0.000000
vt -13.919400 19.783501
vt -17.856400 19.783501
vt -39.370098 -0.000000
vt -19.684999 0.000000
vt -19.684999 24.606300
vt -13.919400 0.000000
vt -13.919400 24.606300
vt 13.919400 -0.000000
vt 6.151570 0.000000
vt 39.370098 0.000000
vt 39.370098 24.606300
vt 0.000000 24.606300
vt -6.151570 0.000000
vt -39.370098 -0.000000
vt -16.976200 8.276580
vt -19.684999 -0.000000
vt -14.192300 5.492700
vt -5.492700 14.192300
vt 0.000000 19.684999
vt 0.000000 0.000000
vt -39.370098 0.000000
vt -39.370098 24.606300
vt -17.856400 0.000000
vt -0.000000 39.370098
vt -0.000000 19.684999
vt 17.856400 19.783501
vt -8.276580 16.976200
vt 39.370098 24.606300
vt 6.151570 19.783501
vt -6.151570 19.783501
vt -6.151570 0.000000
vt 6.151570 0.000000
vn 0.0000 0.0000 -1.0000
vn -0.7071 0.0000 0.7071
vn -0.0000 -1.0000 -0.0000
vn 0.0000 0.0000 1.0000
vn 0.7071 -0.0000 0.7071
vn 0.0000 1.0000 0.0000
vn -0.7071 0.0000 -0.7071
vn -1.0000 0.0000 0.0000
vn 1.0000 0.0000 0.0000
usemtl Brick.099
s 1
f 14/1/1 18/2/1 17/3/1
f 2/4/2 1/5/2 9/6/2
f 13/7/3 14/8/3 15/9/3
f 9/10/4 8/11/4 11/12/4
f 4/13/3 1/14/3 2/15/3
f 2/16/5 6/17/5 13/18/5
f 9/19/6 16/20/6 17/21/6
f 7/22/7 1/23/7 4/24/7
f 14/25/8 5/26/8 10/27/8
f 5/28/2 2/4/2 10/29/2
f 8/30/2 1/5/2 7/31/2
f 15/32/9 17/33/9 16/34/9
f 5/28/2 6/35/2 2/4/2
f 8/30/2 9/6/2 1/5/2
f 10/29/2 2/4/2 9/6/2
f 15/9/3 11/36/3 12/37/3
f 11/36/3 8/38/3 12/37/3
f 8/38/3 7/39/3 12/37/3
f 13/7/3 6/40/3 5/41/3
f 13/7/3 5/41/3 14/8/3
f 15/9/3 12/37/3 13/7/3
f 15/32/9 16/34/9 11/42/9
f 14/1/1 17/3/1 15/43/1
f 14/25/8 10/27/8 18/44/8
f 7/22/7 4/24/7 12/45/7
f 17/21/6 18/46/6 10/47/6
f 10/47/6 9/19/6 17/21/6
f 2/16/5 13/18/5 3/48/5
f 4/13/3 2/15/3 3/49/3
f 9/10/4 11/12/4 16/50/4
usemtl Glass.056
f 4/51/2 3/52/2 13/53/2
f 4/51/2 13/53/2 12/54/2
