# Blender v2.92.0 OBJ File: ''
# www.blender.org
mtllib Mesh1 Group1 Model.108.mtl
o Mesh1_Group1_Model.108
v 0.500000 0.000000 0.500000
v -0.500000 0.000000 0.500000
v -0.500000 0.000000 -0.500000
v 0.500000 0.000000 -0.500000
v 0.500000 0.106250 0.500000
v -0.500000 0.106250 0.500000
v 0.500000 0.212500 -0.500000
v 0.500000 0.212500 -0.375000
v 0.500000 0.106250 -0.375000
v -0.500000 0.212500 -0.500000
v -0.500000 0.106250 -0.375000
v -0.500000 0.212500 -0.375000
vt -39.370098 0.000000
vt 0.000000 0.000000
vt 0.000000 39.370098
vt 39.370098 8.366140
vt 34.448799 8.366140
vt 34.448799 4.183070
vt 0.000000 39.370098
vt 0.000000 34.448799
vt 39.370098 34.448799
vt -34.448799 4.183070
vt -39.370098 8.366140
vt -39.370098 0.000000
vt 39.370098 8.366140
vt 0.000000 8.366140
vt 0.000000 4.183070
vt 39.370098 34.448799
vt 0.000000 34.448799
vt 0.000000 -0.000000
vt 0.000000 0.000000
vt 0.000000 8.366140
vt -39.370098 8.366140
vt 39.370098 0.000000
vt 0.000000 4.183070
vt -39.370098 0.000000
vt 0.000000 4.183070
vt 0.000000 0.000000
vt 39.370098 0.000000
vt 39.370098 -0.000000
vt -34.448799 8.366140
vt 39.370098 4.183070
vt 39.370098 39.370098
vt 39.370098 4.183070
vt -39.370098 39.370098
vn 0.0000 -1.0000 -0.0000
vn 1.0000 0.0000 0.0000
vn 0.0000 1.0000 0.0000
vn -1.0000 0.0000 0.0000
vn 0.0000 0.0000 1.0000
vn 0.0000 0.0000 -1.0000
usemtl Brick.075
s 1
f 1/1/1 2/2/1 3/3/1
f 7/4/2 8/5/2 9/6/2
f 10/7/3 12/8/3 8/9/3
f 11/10/4 10/11/4 3/12/4
f 8/13/5 12/14/5 11/15/5
f 9/16/3 11/17/3 6/18/3
f 3/19/6 10/20/6 7/21/6
f 1/22/5 6/23/5 2/2/5
f 3/19/6 7/21/6 4/24/6
f 5/25/2 1/26/2 9/6/2
f 1/26/2 4/27/2 9/6/2
f 4/27/2 7/4/2 9/6/2
f 9/16/3 6/18/3 5/28/3
f 3/12/4 2/2/4 11/10/4
f 2/2/4 6/23/4 11/10/4
f 11/10/4 12/29/4 10/11/4
f 8/13/5 11/15/5 9/30/5
f 10/7/3 8/9/3 7/31/3
f 1/22/5 5/32/5 6/23/5
f 1/1/1 3/3/1 4/33/1
