# Blender v2.92.0 OBJ File: ''
# www.blender.org
mtllib Mesh1 Group1 Model.126.mtl
o Mesh1_Group1_Model.126
v -0.600000 0.106250 0.125000
v -0.600000 0.106250 -0.125000
v -0.700000 0.106250 -0.125000
v -0.700000 0.106250 0.125000
v -0.600000 0.212500 -0.125000
v -0.600000 0.212500 0.125000
v -0.500000 0.212500 -0.125000
v -0.500000 0.000000 -0.125000
v -0.700000 0.000000 -0.125000
v -0.500000 0.000000 -0.500000
v -0.500000 0.212500 -0.500000
v 0.500000 0.000000 0.500000
v -0.500000 0.000000 0.500000
v -0.500000 0.000000 0.125000
v -0.700000 0.000000 0.125000
v 0.500000 0.000000 -0.500000
v 0.500000 0.212500 0.500000
v -0.500000 0.212500 0.500000
v 0.500000 0.212500 -0.500000
v -0.500000 0.837500 -0.500000
v 0.500000 0.837500 -0.500000
v -0.500000 0.837500 0.500000
v -0.500000 0.712500 -0.125000
v -0.500000 0.712500 0.125000
v -0.500000 0.212500 0.125000
v 0.500000 0.837500 0.500000
v -0.400000 0.212500 -0.125000
v -0.400000 0.712500 -0.125000
v -0.400000 0.212500 0.125000
v -0.400000 0.712500 0.125000
vt -3.937010 14.763800
vt -3.937010 24.606300
vt -7.874020 24.606300
vt 7.874020 0.000000
vt 7.874020 4.183070
vt 3.937010 4.183070
vt 0.000000 14.763800
vt 0.000000 24.606300
vt -39.370098 39.370098
vt 0.000000 8.366140
vt -14.763800 8.366140
vt -14.763800 0.000000
vt -14.763800 0.000000
vt -14.763800 4.183070
vt -24.606300 4.183070
vt 0.000000 14.763800
vt 0.000000 24.606300
vt -3.937010 24.606300
vt 3.937010 14.763800
vt 3.937010 24.606300
vt -39.370098 0.000000
vt 0.000000 0.000000
vt 0.000000 0.000000
vt 0.000000 8.366140
vt -3.937010 4.183070
vt 0.000000 0.000000
vt 0.000000 8.366140
vt -39.370098 8.366140
vt 39.370098 0.000000
vt 39.370098 8.366140
vt 0.000000 8.366140
vt -24.606300 8.366140
vt -14.763800 4.183070
vt -14.763800 8.366140
vt -39.370098 0.000000
vt -24.606300 8.366140
vt -39.370098 8.366140
vt 3.937010 8.366140
vt 0.000000 8.366140
vt 0.000000 0.000000
vt 7.874020 14.763800
vt 7.874020 24.606300
vt -24.606300 4.183070
vt -24.606300 0.000000
vt 39.370098 0.000000
vt 0.000000 39.370098
vt 0.000000 0.000000
vt -39.370098 0.000000
vt 39.370098 8.366140
vt -3.937010 14.763800
vt -24.606300 0.000000
vt -3.937010 8.366140
vt -7.874020 4.183070
vt -7.874020 0.000000
vt -7.874020 14.763800
vt 0.000000 32.972401
vt -14.763800 28.051201
vt 0.000000 14.763800
vt 0.000000 24.606300
vt -3.937010 24.606300
vt 0.000000 28.051201
vt -3.937010 28.051201
vt -39.370098 32.972401
vt 0.000000 28.051201
vt 3.937010 8.366140
vt -0.000000 39.370098
vt -0.000000 0.000000
vt 39.370098 0.000000
vt -24.606300 28.051201
vt 39.370098 32.972401
vt 0.000000 32.972401
vt -39.370098 32.972401
vt 0.000000 32.972401
vt 39.370098 39.370098
vt 3.937010 28.051201
vt 39.370098 32.972401
vt -3.937010 8.366140
vt -3.937010 14.763800
vt -14.763800 28.051201
vt -24.606300 28.051201
vt -24.606300 8.366140
vt -14.763800 8.366140
vn 0.0000 1.0000 0.0000
vn 0.0000 0.0000 -1.0000
vn -0.0000 -1.0000 -0.0000
vn -1.0000 -0.0000 0.0000
vn 0.0000 -0.0000 1.0000
vn 1.0000 0.0000 0.0000
usemtl Dark_brick.025
s 1
f 1/1/1 2/2/1 3/3/1
f 9/4/2 3/5/2 2/6/2
f 14/7/3 8/8/3 16/9/3
f 18/10/4 25/11/4 14/12/4
f 15/13/4 4/14/4 3/15/4
f 25/16/1 7/17/1 5/18/1
f 29/19/1 27/20/1 7/17/1
f 12/21/3 13/22/3 14/7/3
f 14/23/5 25/24/5 1/25/5
f 10/26/2 11/27/2 19/28/2
f 16/29/6 19/30/6 17/31/6
f 5/32/4 1/33/4 6/34/4
f 10/35/4 7/36/4 11/37/4
f 5/38/2 7/39/2 2/6/2
f 7/39/2 8/40/2 2/6/2
f 8/40/2 9/4/2 2/6/2
f 8/8/3 15/41/3 9/42/3
f 5/32/4 2/43/4 1/33/4
f 10/35/4 8/44/4 7/36/4
f 12/45/5 18/10/5 13/22/5
f 8/8/3 10/46/3 16/9/3
f 16/29/6 17/31/6 12/47/6
f 10/26/2 19/28/2 16/48/2
f 12/45/5 17/49/5 18/10/5
f 12/21/3 14/7/3 16/9/3
f 8/8/3 14/7/3 15/41/3
f 29/19/1 7/17/1 25/16/1
f 25/16/1 5/18/1 6/50/1
f 15/13/4 3/15/4 9/51/4
f 25/24/5 6/52/5 1/25/5
f 1/25/5 4/53/5 15/54/5
f 15/54/5 14/23/5 1/25/5
f 18/10/4 14/12/4 13/22/4
f 1/1/1 3/3/1 4/55/1
usemtl Brick.089
f 18/10/4 22/56/4 24/57/4
f 24/58/3 23/59/3 28/60/3
f 25/24/2 24/61/2 30/62/2
f 22/56/4 20/63/4 24/57/4
f 23/64/5 7/39/5 27/65/5
f 20/66/1 22/67/1 26/68/1
f 11/37/4 7/36/4 23/69/4
f 17/49/5 26/70/5 22/56/5
f 11/27/2 20/71/2 21/72/2
f 11/27/2 21/72/2 19/28/2
f 17/49/5 22/56/5 18/10/5
f 11/37/4 23/69/4 20/63/4
f 20/63/4 23/69/4 24/57/4
f 19/30/6 26/73/6 17/31/6
f 20/66/1 26/68/1 21/74/1
f 23/64/5 27/65/5 28/75/5
f 19/30/6 21/76/6 26/73/6
f 25/24/2 30/62/2 29/77/2
f 24/58/3 28/60/3 30/78/3
f 18/10/4 24/57/4 25/11/4
usemtl Glass.049
f 30/79/4 28/80/4 27/81/4
f 30/79/4 27/81/4 29/82/4
