# Blender v2.92.0 OBJ File: ''
# www.blender.org
mtllib Mesh1 Group1 Model.120.mtl
o Mesh1_Group1_Model.120
v -0.500000 0.000000 0.062500
v -0.500000 0.625000 0.062500
v -0.500000 0.625000 -0.062500
v -0.500000 0.000000 -0.062500
v -0.400000 0.000000 0.062500
v -0.400000 0.625000 0.062500
v 0.500000 0.000000 0.500000
v -0.500000 0.000000 0.500000
v -0.500000 0.000000 0.375000
v -0.400000 0.000000 0.375000
v -0.400000 0.000000 -0.062500
v -0.400000 0.000000 -0.375000
v -0.500000 0.000000 -0.375000
v -0.500000 0.000000 -0.500000
v 0.500000 0.000000 -0.500000
v 0.500000 0.625000 0.500000
v -0.500000 0.625000 0.500000
v 0.500000 0.625000 -0.500000
v -0.500000 0.625000 -0.500000
v -0.500000 0.625000 -0.375000
v -0.400000 0.625000 -0.375000
v -0.400000 0.625000 -0.062500
v -0.400000 0.625000 0.375000
v -0.500000 0.625000 0.375000
vt -17.224400 0.000000
vt -17.224400 24.606300
vt -22.145700 24.606300
vt -3.937010 22.145700
vt -3.937010 34.448799
vt -39.370098 39.370098
vt 0.000000 24.606300
vt -4.921260 24.606300
vt -4.921260 0.000000
vt 0.000000 0.000000
vt 0.000000 24.606300
vt -3.937010 24.606300
vt 0.000000 22.145700
vt 0.000000 17.224400
vt 3.937010 17.224400
vt 0.000000 0.000000
vt 0.000000 24.606300
vt -3.937010 24.606300
vt 0.000000 24.606300
vt 0.000000 0.000000
vt 3.937010 0.000000
vt 3.937010 22.145700
vt 39.370098 39.370098
vt 0.000000 0.000000
vt 0.000000 24.606300
vt -39.370098 24.606300
vt 39.370098 0.000000
vt 39.370098 24.606300
vt 0.000000 24.606300
vt 39.370098 0.000000
vt 39.370098 24.606300
vt 0.000000 24.606300
vt 3.937010 0.000000
vt 3.937010 24.606300
vt 0.000000 17.224400
vt 0.000000 22.145700
vt 39.370098 0.000000
vt 3.937010 4.921260
vt -39.370098 0.000000
vt 0.000000 0.000000
vt -3.937010 4.921260
vt 0.000000 4.921260
vt -3.937010 17.224400
vt 0.000000 34.448799
vt 0.000000 39.370098
vt 0.000000 0.000000
vt -39.370098 0.000000
vt -34.448799 0.000000
vt -39.370098 24.606300
vt -39.370098 0.000000
vt 3.937010 24.606300
vt -3.937010 0.000000
vt 0.000000 39.370098
vt 3.937010 34.448799
vt 0.000000 34.448799
vt 0.000000 0.000000
vt 0.000000 0.000000
vt 0.000000 4.921260
vt -34.448799 24.606300
vt -3.937010 0.000000
vt -22.145700 0.000000
vt -4.921260 24.606300
vt -17.224400 24.606300
vt -17.224400 0.000000
vt -22.145700 0.000000
vt -22.145700 24.606300
vt -34.448799 24.606300
vt -34.448799 0.000000
vt -4.921260 0.000000
vn -1.0000 0.0000 0.0000
vn -0.0000 -1.0000 -0.0000
vn 0.0000 0.0000 -1.0000
vn 0.0000 1.0000 0.0000
vn 0.0000 -0.0000 1.0000
vn 1.0000 0.0000 0.0000
usemtl Brick.083
s 1
f 1/1/1 2/2/1 3/3/1
f 11/4/2 12/5/2 15/6/2
f 17/7/1 24/8/1 9/9/1
f 9/10/3 24/11/3 23/12/3
f 3/13/4 2/14/4 6/15/4
f 4/16/3 3/17/3 22/18/3
f 20/19/5 13/20/5 12/21/5
f 22/22/4 6/15/4 18/23/4
f 14/24/3 19/25/3 18/26/3
f 15/27/6 18/28/6 16/29/6
f 7/30/5 16/31/5 17/7/5
f 2/32/5 5/33/5 6/34/5
f 11/4/2 1/35/2 4/36/2
f 16/37/4 6/15/4 23/38/4
f 7/39/2 8/40/2 10/41/2
f 8/40/2 9/42/2 10/41/2
f 7/30/5 17/7/5 8/40/5
f 16/37/4 18/23/4 6/15/4
f 7/39/2 10/41/2 5/43/2
f 13/44/2 14/45/2 12/5/2
f 14/45/2 15/6/2 12/5/2
f 5/43/2 11/4/2 15/6/2
f 15/27/6 16/29/6 7/46/6
f 14/24/3 18/26/3 15/47/3
f 13/48/1 19/49/1 14/50/1
f 20/19/5 12/21/5 21/51/5
f 4/16/3 22/18/3 11/52/3
f 3/13/4 6/15/4 22/22/4
f 18/23/4 19/53/4 21/54/4
f 19/53/4 20/55/4 21/54/4
f 17/56/4 16/37/4 23/38/4
f 2/32/5 1/57/5 5/33/5
f 11/4/2 5/43/2 1/35/2
f 23/38/4 24/58/4 17/56/4
f 13/48/1 20/59/1 19/49/1
f 18/23/4 21/54/4 22/22/4
f 9/10/3 23/12/3 10/60/3
f 17/7/1 9/9/1 8/40/1
f 7/39/2 5/43/2 15/6/2
f 1/1/1 3/3/1 4/61/1
usemtl Glass.043
f 23/62/1 6/63/1 5/64/1
f 11/65/1 22/66/1 21/67/1
f 11/65/1 21/67/1 12/68/1
f 23/62/1 5/64/1 10/69/1
