# Blender v2.92.0 OBJ File: ''
# www.blender.org
mtllib Mesh1 Group1 Model.046.mtl
o Mesh1_Group1_Model.046
v -0.500000 0.500000 -0.156250
v -0.500000 0.120000 -0.156250
v -0.400000 0.120000 -0.156250
v -0.400000 0.500000 -0.156250
v -0.500000 0.625000 -0.500000
v -0.500000 0.500000 0.156250
v -0.500000 0.625000 0.500000
v -0.500000 0.000000 0.500000
v -0.500000 0.060000 0.156250
v -0.500000 0.000000 -0.500000
v -0.500000 0.060000 -0.156250
v -0.550000 0.060000 0.156250
v -0.550000 0.060000 -0.156250
v -0.500000 0.120000 0.156250
v -0.550000 0.120000 0.156250
v -0.400000 0.500000 0.156250
v -0.400000 0.120000 0.156250
v -0.550000 0.120000 -0.156250
v 0.500000 0.625000 -0.500000
v 0.500000 0.000000 -0.500000
v 0.500000 0.625000 0.500000
v 0.500000 0.000000 0.500000
vt 0.000000 4.724410
vt 3.937010 19.684999
vt 0.000000 19.684999
vt -25.836599 19.684999
vt -39.370098 24.606300
vt -25.836599 4.724410
vt -13.533500 19.684999
vt 0.000000 24.606300
vt 0.000000 0.000000
vt -13.533500 2.362200
vt -39.370098 0.000000
vt -25.836599 2.362200
vt 0.000000 13.533500
vt 1.968500 25.836599
vt 0.000000 25.836599
vt 0.000000 4.724410
vt -1.968500 2.362200
vt 0.000000 2.362200
vt -13.533500 4.724410
vt 0.000000 19.684999
vt -3.937010 4.724410
vt 0.000000 25.836599
vt -3.937010 13.533500
vt 0.000000 13.533500
vt 0.000000 25.836599
vt -1.968500 13.533500
vt 0.000000 13.533500
vt 0.000000 2.362200
vt 1.968500 4.724410
vt 0.000000 24.606300
vt -39.370098 0.000000
vt 0.000000 0.000000
vt 39.370098 39.370098
vt -0.000000 0.000000
vt 39.370098 0.000000
vt 39.370098 24.606300
vt 0.000000 0.000000
vt 39.370098 0.000000
vt 39.370098 24.606300
vt 39.370098 0.000000
vt -39.370098 39.370098
vt -39.370098 0.000000
vt -25.836599 2.362200
vt -13.533500 4.724410
vt -25.836599 4.724410
vt 3.937010 4.724410
vt 1.968500 13.533500
vt -1.968500 4.724410
vt -3.937010 19.684999
vt -3.937010 25.836599
vt 3.937010 13.533500
vt 3.937010 25.836599
vt -1.968500 25.836599
vt 1.968500 2.362200
vt -39.370098 24.606300
vt -0.000000 39.370098
vt 0.000000 24.606300
vt 0.000000 39.370098
vt -13.533500 2.362200
vt -13.533500 19.684999
vt -25.836599 4.724410
vt -13.533500 4.724410
vt -25.836599 19.684999
vn 0.0000 -0.0000 1.0000
vn -1.0000 -0.0000 0.0000
vn 0.0000 -1.0000 -0.0000
vn 0.0000 1.0000 -0.0000
vn 0.0000 0.0000 -1.0000
vn 1.0000 0.0000 0.0000
usemtl Brick.043
s 1
f 2/1/1 4/2/1 1/3/1
f 1/4/2 5/5/2 2/6/2
f 6/7/2 5/5/2 1/4/2
f 6/7/2 7/8/2 5/5/2
f 7/8/2 6/7/2 8/9/2
f 9/10/2 8/9/2 6/7/2
f 8/9/2 9/10/2 10/11/2
f 10/11/2 9/10/2 11/12/2
f 9/13/3 13/14/3 11/15/3
f 14/16/1 12/17/1 9/18/1
f 9/10/2 6/7/2 14/19/4
f 6/20/5 17/21/5 14/16/5
f 1/22/3 16/23/3 6/24/3
f 2/25/4 15/26/4 14/27/4
f 11/28/5 18/29/5 2/1/5
f 2/6/2 5/5/2 11/12/2
f 10/11/2 11/12/2 5/5/2
f 5/30/5 20/31/5 10/32/5
f 19/33/4 7/34/4 21/35/4
f 19/36/6 22/37/6 20/38/6
f 21/39/1 8/9/1 22/40/1
f 8/9/3 20/41/3 22/42/3
f 13/43/2 15/44/2 18/45/2
f 2/1/1 3/46/1 4/2/1
f 9/13/3 12/47/3 13/14/3
f 14/16/1 15/48/1 12/17/1
f 6/20/5 16/49/5 17/21/5
f 1/22/3 4/50/3 16/23/3
f 17/51/4 3/52/4 2/25/4
f 2/25/4 18/53/4 15/26/4
f 14/27/4 17/51/4 2/25/4
f 11/28/5 13/54/5 18/29/5
f 5/30/5 19/55/5 20/31/5
f 19/33/4 5/56/4 7/34/4
f 19/36/6 21/57/6 22/37/6
f 21/39/1 7/8/1 8/9/1
f 8/9/3 10/58/3 20/41/3
f 13/43/2 12/59/2 15/44/2
usemtl Glass.020
f 16/60/2 3/61/2 17/62/2
f 16/60/2 4/63/2 3/61/2
