# Blender v2.92.0 OBJ File: ''
# www.blender.org
mtllib Mesh1 Group1 Model.072.mtl
o Mesh1_Group1_Model.072
v 0.050000 0.500000 -0.250000
v 0.000000 0.500000 -0.250000
v 0.000000 0.500000 0.000000
v 0.050000 0.500000 0.000000
v 0.050000 0.000000 -0.250000
v 0.000000 0.000000 -0.250000
v 0.050000 0.000000 0.000000
v 0.000000 0.000000 0.000000
v 0.000000 0.445764 -0.054236
v 0.000000 0.445764 -0.195764
v 0.000000 0.250000 -0.195764
v 0.000000 0.250000 -0.054236
v 0.025000 0.445764 -0.054236
v 0.025000 0.250000 -0.054236
v 0.025000 0.445764 -0.195764
v 0.025000 0.250000 -0.195764
vt 0.000000 9.842520
vt 1.968500 0.000000
vt 1.968500 9.842520
vt 0.000000 0.000000
vt -1.968500 19.684999
vt -1.968500 0.000000
vt -1.968500 9.842520
vt 0.000000 0.000000
vt 0.000000 9.842520
vt 9.842520 0.000000
vt 0.000000 19.684999
vt 0.000000 0.000000
vt 1.968500 0.000000
vt 0.000000 19.684999
vt -2.135270 17.549801
vt -9.842520 19.684999
vt -7.707250 17.549801
vt -7.707250 9.842520
vt -9.842520 0.000000
vt -2.135270 9.842520
vt 0.000000 17.549801
vt -0.984252 9.842520
vt 0.000000 9.842520
vt 0.000000 7.707250
vt -0.984252 2.135270
vt 0.000000 2.135270
vt 0.000000 9.842520
vt 0.984252 17.549801
vt 0.000000 17.549801
vt 0.000000 2.135270
vt 0.984252 7.707250
vt 0.000000 7.707250
vt 0.000000 0.000000
vt 0.000000 19.684999
vt -1.968500 0.000000
vt 9.842520 19.684999
vt 1.968500 19.684999
vt -0.984252 17.549801
vt -0.984252 7.707250
vt 0.984252 9.842520
vt 0.984252 2.135270
vt -7.707250 17.549801
vt -2.135270 9.842520
vt -2.135270 17.549801
vt -7.707250 9.842520
vn 0.0000 1.0000 0.0000
vn 0.0000 0.0000 -1.0000
vn 0.0000 -1.0000 -0.0000
vn 1.0000 -0.0000 0.0000
vn 0.0000 -0.0000 1.0000
vn -1.0000 0.0000 0.0000
usemtl Metal.001
s 1
f 2/1/1 4/2/1 1/3/1
f 6/4/2 1/5/2 5/6/2
f 5/7/3 8/8/3 6/9/3
f 5/10/4 4/11/4 7/12/4
f 7/13/5 3/14/5 8/8/5
f 3/14/6 9/15/6 8/8/6
f 9/15/6 3/14/6 2/16/6
f 9/15/6 2/16/6 10/17/6
f 10/17/6 2/16/6 11/18/6
f 6/19/6 11/18/6 2/16/6
f 6/19/6 12/20/6 11/18/6
f 8/8/6 12/20/6 6/19/6
f 12/20/6 8/8/6 9/15/6
f 9/21/2 14/22/2 12/23/2
f 10/24/3 13/25/3 9/26/3
f 11/27/5 15/28/5 10/29/5
f 12/30/1 16/31/1 11/32/1
f 2/1/1 3/33/1 4/2/1
f 6/4/2 2/34/2 1/5/2
f 5/7/3 7/35/3 8/8/3
f 5/10/4 1/36/4 4/11/4
f 7/13/5 4/37/5 3/14/5
f 9/21/2 13/38/2 14/22/2
f 10/24/3 15/39/3 13/25/3
f 11/27/5 16/40/5 15/28/5
f 12/30/1 14/41/1 16/31/1
usemtl Glass.039
f 15/42/6 14/43/6 13/44/6
f 15/42/6 16/45/6 14/43/6
