# Blender v2.92.0 OBJ File: ''
# www.blender.org
mtllib Mesh1 Group1 Model.094.mtl
o Mesh1_Group1_Model.094
v 0.050000 0.230440 -0.307176
v 0.050000 0.190000 -0.312500
v 0.000000 0.190000 -0.312500
v 0.000000 0.230440 -0.307176
v 0.050000 0.000000 -0.312500
v 0.050000 0.268125 -0.291566
v 0.050000 0.187388 -0.272653
v 0.050000 0.039847 -0.272653
v 0.050000 0.039847 -0.039847
v 0.050000 0.000000 0.000000
v 0.050000 0.190000 0.000000
v 0.050000 0.230440 -0.005324
v 0.050000 0.268125 -0.020933
v 0.050000 0.187388 -0.039847
v 0.050000 0.300485 -0.045765
v 0.050000 0.220038 -0.044145
v 0.000000 0.187388 -0.039847
v 0.000000 0.220038 -0.044145
v 0.000000 0.300485 -0.045765
v 0.000000 0.268125 -0.020933
v 0.000000 0.039847 -0.039847
v 0.000000 0.230440 -0.005324
v 0.000000 0.000000 0.000000
v 0.000000 0.190000 0.000000
v 0.050000 0.325316 -0.078125
v 0.000000 0.325316 -0.078125
v 0.050000 0.248030 -0.055739
v 0.000000 0.248030 -0.055739
v 0.000000 0.272066 -0.074183
v 0.000000 0.290511 -0.098220
v 0.000000 0.340926 -0.115810
v 0.050000 0.340926 -0.115810
v 0.050000 0.290511 -0.098220
v 0.050000 0.272066 -0.074183
v 0.000000 0.302105 -0.126212
v 0.050000 0.302105 -0.126212
v 0.000000 0.346250 -0.156250
v 0.050000 0.346250 -0.156250
v 0.050000 0.306060 -0.156250
v 0.000000 0.306060 -0.156250
v 0.000000 0.302105 -0.186288
v 0.000000 0.340926 -0.196690
v 0.050000 0.340926 -0.196690
v 0.050000 0.302105 -0.186288
v 0.000000 0.290511 -0.214280
v 0.050000 0.290511 -0.214280
v 0.000000 0.325316 -0.234375
v 0.050000 0.325316 -0.234375
v 0.050000 0.272066 -0.238316
v 0.000000 0.272066 -0.238316
v 0.000000 0.300485 -0.266735
v 0.050000 0.300485 -0.266735
v 0.050000 0.248030 -0.256761
v 0.000000 0.248030 -0.256761
v 0.000000 0.220038 -0.268355
v 0.000000 0.268125 -0.291566
v 0.050000 0.220038 -0.268355
v 0.000000 0.187388 -0.272653
v 0.000000 0.039847 -0.272653
v 0.000000 0.000000 -0.312500
vt -1.968500 5.810440
vt 0.000000 7.416320
vt -1.968500 7.416320
vt 12.093500 9.072460
vt 12.303100 0.000000
vt 12.303100 7.480310
vt 11.479000 10.556100
vt 10.734400 7.377490
vt 10.734400 1.568760
vt 1.568760 1.568760
vt 0.000000 0.000000
vt 0.000000 7.480310
vt 0.209610 9.072460
vt 0.824155 10.556100
vt 1.568760 7.377490
vt 1.801750 11.830100
vt 1.738000 8.662930
vt 0.000000 8.815670
vt -1.968500 7.519140
vt 0.000000 7.519140
vt -1.568760 7.377490
vt -1.801750 11.830100
vt -1.738000 8.662930
vt -0.824155 10.556100
vt -1.568760 1.568760
vt -0.209610 9.072460
vt 0.000000 0.000000
vt 0.000000 7.480310
vt 1.968500 7.480310
vt 1.968500 0.000000
vt 1.968500 9.022200
vt 0.000000 7.416320
vt 1.968500 7.416320
vt 1.968500 10.068000
vt 0.000000 8.462070
vt 1.968500 8.462070
vt 1.968500 10.482300
vt 0.000000 8.876430
vt 1.968500 8.876430
vt 1.968500 10.237000
vt 0.000000 8.631160
vt 1.968500 8.631160
vt 2.194470 9.764950
vt 3.075790 12.807700
vt 0.000000 9.861430
vt -1.968500 8.668610
vt 0.000000 8.668610
vt -2.194470 9.764950
vt -3.075790 12.807700
vt -2.920610 10.711300
vt -3.866940 11.437400
vt -4.559430 13.422300
vt 1.968500 9.348850
vt 0.000000 7.742960
vt 1.968500 7.742960
vt 3.866940 11.437400
vt 4.559430 13.422300
vt 2.920610 10.711300
vt -0.000000 10.275800
vt -1.968500 9.082960
vt -0.000000 9.082960
vt -0.000000 10.030500
vt -1.968500 8.837690
vt -0.000000 8.837690
vt -0.000000 9.142320
vt -1.968500 7.949500
vt -0.000000 7.949500
vt -4.968960 11.893900
vt -6.151570 13.631900
vt 1.968500 7.878270
vt 0.000000 6.272380
vt 1.968500 6.272380
vt 4.968960 11.893900
vt 6.151570 13.631900
vt 6.151570 12.049600
vt 0.000000 7.671730
vt -1.968500 6.478910
vt 0.000000 6.478910
vt -6.151570 12.049600
vt -7.334190 11.893900
vt -7.743720 13.422300
vt -1.968500 -5.925510
vt 0.000000 -4.319630
vt -1.968500 -4.319630
vt 7.334190 11.893900
vt 7.743720 13.422300
vt -0.000000 -5.718980
vt 1.968500 -4.526160
vt -0.000000 -4.526160
vt -0.000000 -3.417130
vt 1.968500 -2.224310
vt -0.000000 -2.224310
vt -8.436210 11.437400
vt -9.227360 12.807700
vt -1.968500 -3.623660
vt 0.000000 -2.017780
vt -1.968500 -2.017780
vt 8.436210 11.437400
vt 9.227360 12.807700
vt 9.382540 10.711300
vt 0.000000 -0.923055
vt 1.968500 0.269765
vt 0.000000 0.269765
vt -9.382540 10.711300
vt -10.501400 11.830100
vt -1.968500 -1.129590
vt 0.000000 0.476296
vt -1.968500 0.476296
vt 10.501400 11.830100
vt 10.108700 9.764950
vt -0.000000 1.593280
vt 1.968500 2.786100
vt -0.000000 2.786100
vt -10.108700 9.764950
vt -10.565200 8.662930
vt -11.479000 10.556100
vt -1.968500 1.386750
vt 0.000000 2.992630
vt -1.968500 2.992630
vt 10.565200 8.662930
vt 0.000000 3.960390
vt 1.968500 5.153210
vt 0.000000 5.153210
vt -0.000000 5.913260
vt 1.968500 7.209790
vt -0.000000 7.209790
vt -10.734400 7.377490
vt -10.734400 1.568760
vt -12.303100 0.000000
vt -1.968500 0.000000
vt 0.000000 12.303100
vt -1.968500 12.303100
vt -1.968500 0.000000
vt 0.000000 7.480310
vt -1.968500 7.480310
vt -12.093500 9.072460
vt -12.303100 7.480310
vt -1.968500 3.753860
vt 0.000000 5.359750
vt -1.968500 5.359750
vt 0.000000 1.568760
vt 1.968500 10.734400
vt 0.000000 10.734400
vt 0.000000 7.377490
vt -1.968500 1.568760
vt 0.000000 1.568760
vt 1.968500 7.377490
vt 0.000000 7.377490
vt 0.000000 5.810440
vt -1.968500 8.815670
vt 0.000000 9.022200
vt 0.000000 10.068000
vt 0.000000 10.482300
vt 0.000000 10.237000
vt -1.968500 9.861430
vt 0.000000 9.348850
vt -1.968500 10.275800
vt -1.968500 10.030500
vt -1.968500 9.142320
vt 0.000000 7.878270
vt -1.968500 7.671730
vt 0.000000 -5.925510
vt 1.968500 -5.718980
vt 1.968500 -3.417130
vt 0.000000 -3.623660
vt 1.968500 -0.923055
vt 0.000000 -1.129590
vt 1.968500 1.593280
vt 0.000000 1.386750
vt 1.968500 3.960390
vt 1.968500 5.913260
vt 0.000000 0.000000
vt 0.000000 3.753860
vt 1.968500 1.568760
vt -1.968500 7.377490
vt 1.968500 1.568760
vn 0.0000 0.1305 -0.9914
vn 0.0000 0.2588 -0.9659
vn 1.0000 0.0000 0.0000
vn 0.0000 -0.2588 -0.9659
vn 0.0000 -0.1305 -0.9914
vn -1.0000 0.0000 0.0000
vn 0.0000 -0.0000 1.0000
vn 0.0000 0.2588 0.9659
vn 0.0000 0.1305 0.9914
vn 0.0000 0.5000 0.8660
vn 0.0000 0.7071 0.7071
vn 0.0000 0.8660 0.5000
vn 0.0000 -0.5000 -0.8660
vn 0.0000 0.9659 0.2588
vn 0.0000 -0.7071 -0.7071
vn 0.0000 -0.8660 -0.5000
vn 0.0000 -0.9659 -0.2588
vn 0.0000 1.0000 -0.0000
vn 0.0000 -1.0000 -0.0000
vn 0.0000 0.9659 -0.2588
vn 0.0000 -0.9659 0.2588
vn 0.0000 -0.8660 0.5000
vn 0.0000 0.8660 -0.5000
vn 0.0000 -0.7071 0.7071
vn 0.0000 0.7071 -0.7071
vn 0.0000 -0.5000 0.8660
vn 0.0000 0.5000 -0.8660
vn 0.0000 -0.2588 0.9659
vn 0.0000 -0.1305 0.9914
vn 0.0000 0.0000 -1.0000
usemtl Metal.012
s 1
f 2/1/1 4/2/2 1/3/2
f 1/4/3 5/5/3 2/6/3
f 6/7/3 5/5/3 1/4/3
f 7/8/3 5/5/3 6/7/3
f 8/9/3 5/5/3 7/8/3
f 9/10/3 5/5/3 8/9/3
f 9/10/3 10/11/3 5/5/3
f 10/11/3 9/10/3 11/12/3
f 11/12/3 9/10/3 12/13/3
f 12/13/3 9/10/3 13/14/3
f 14/15/3 13/14/3 9/10/3
f 13/14/3 14/15/3 15/16/3
f 15/16/3 14/15/3 16/17/3
f 18/18/4 14/19/5 17/20/5
f 17/21/6 19/22/6 18/23/6
f 19/22/6 17/21/6 20/24/6
f 21/25/6 20/24/6 17/21/6
f 21/25/6 22/26/6 20/24/6
f 23/27/6 22/26/6 21/25/6
f 22/26/6 23/27/6 24/28/6
f 11/29/7 23/27/7 10/30/7
f 12/31/8 24/32/9 11/33/9
f 13/34/10 22/35/8 12/36/8
f 15/37/11 20/38/10 13/39/10
f 25/40/12 19/41/11 15/42/11
f 15/16/3 27/43/3 25/44/3
f 15/16/3 16/17/3 27/43/3
f 28/45/13 16/46/4 18/47/4
f 18/23/6 19/22/6 28/48/6
f 28/48/6 19/22/6 26/49/6
f 28/48/6 26/49/6 29/50/6
f 29/50/6 26/49/6 30/51/6
f 30/51/6 26/49/6 31/52/6
f 32/53/14 26/54/12 25/55/12
f 25/44/3 33/56/3 32/57/3
f 25/44/3 34/58/3 33/56/3
f 25/44/3 27/43/3 34/58/3
f 29/59/15 27/60/13 28/61/13
f 30/62/16 34/63/15 29/64/15
f 35/65/17 33/66/16 30/67/16
f 30/51/6 31/52/6 35/68/6
f 35/68/6 31/52/6 37/69/6
f 38/70/18 31/71/14 32/72/14
f 32/57/3 36/73/3 38/74/3
f 32/57/3 33/56/3 36/73/3
f 38/74/3 36/73/3 39/75/3
f 40/76/19 36/77/17 35/78/17
f 35/68/6 37/69/6 40/79/6
f 40/79/6 37/69/6 41/80/6
f 41/80/6 37/69/6 42/81/6
f 43/82/20 37/83/18 38/84/18
f 38/74/3 44/85/3 43/86/3
f 38/74/3 39/75/3 44/85/3
f 41/87/21 39/88/19 40/89/19
f 45/90/22 44/91/21 41/92/21
f 41/80/6 42/81/6 45/93/6
f 45/93/6 42/81/6 47/94/6
f 48/95/23 42/96/20 43/97/20
f 43/86/3 46/98/3 48/99/3
f 43/86/3 44/85/3 46/98/3
f 48/99/3 46/98/3 49/100/3
f 50/101/24 46/102/22 45/103/22
f 45/93/6 47/94/6 50/104/6
f 50/104/6 47/94/6 51/105/6
f 52/106/25 47/107/23 48/108/23
f 48/99/3 49/100/3 52/109/3
f 52/109/3 49/100/3 53/110/3
f 54/111/26 49/112/24 50/113/24
f 50/104/6 51/105/6 54/114/6
f 54/114/6 51/105/6 55/115/6
f 55/115/6 51/105/6 56/116/6
f 6/117/27 51/118/25 52/119/25
f 52/109/3 57/120/3 6/7/3
f 52/109/3 53/110/3 57/120/3
f 55/121/28 53/122/26 54/123/26
f 58/124/29 57/125/28 55/126/28
f 55/115/6 56/116/6 58/127/6
f 58/127/6 56/116/6 59/128/6
f 60/129/6 59/128/6 56/116/6
f 60/129/6 21/25/6 59/128/6
f 23/27/6 21/25/6 60/129/6
f 10/130/19 60/131/19 5/132/19
f 5/133/30 3/134/30 2/135/30
f 60/129/6 4/136/6 3/137/6
f 60/129/6 56/116/6 4/136/6
f 1/138/2 56/139/27 6/140/27
f 21/141/18 8/142/18 59/143/18
f 17/144/30 9/145/30 21/141/30
f 59/146/7 7/147/7 58/148/7
f 6/7/3 57/120/3 7/8/3
f 2/1/1 3/149/1 4/2/2
f 18/18/4 16/150/4 14/19/5
f 11/29/7 24/28/7 23/27/7
f 12/31/8 22/151/8 24/32/9
f 13/34/10 20/152/10 22/35/8
f 15/37/11 19/153/11 20/38/10
f 25/40/12 26/154/12 19/41/11
f 28/45/13 27/155/13 16/46/4
f 32/53/14 31/156/14 26/54/12
f 29/59/15 34/157/15 27/60/13
f 30/62/16 33/158/16 34/63/15
f 35/65/17 36/159/17 33/66/16
f 38/70/18 37/160/18 31/71/14
f 40/76/19 39/161/19 36/77/17
f 43/82/20 42/162/20 37/83/18
f 41/87/21 44/163/21 39/88/19
f 45/90/22 46/164/22 44/91/21
f 48/95/23 47/165/23 42/96/20
f 50/101/24 49/166/24 46/102/22
f 52/106/25 51/167/25 47/107/23
f 54/111/26 53/168/26 49/112/24
f 6/117/27 56/169/27 51/118/25
f 55/121/28 57/170/28 53/122/26
f 58/124/29 7/171/29 57/125/28
f 10/130/19 23/27/19 60/131/19
f 5/133/30 60/172/30 3/134/30
f 1/138/2 4/173/2 56/139/27
f 21/141/18 9/174/18 8/142/18
f 17/144/30 14/175/30 9/145/30
f 59/146/7 8/176/7 7/147/7
