# Blender v2.92.0 OBJ File: ''
# www.blender.org
mtllib Mesh1 Group1 Model.152.mtl
o Mesh1_Group1_Model.152
v 0.500000 0.000000 -0.500000
v 0.500000 0.625000 -0.500000
v 0.500000 0.625000 0.500000
v 0.500000 0.000000 0.500000
v -0.500000 0.000000 -0.500000
v -0.500000 0.625000 -0.500000
v -0.500000 0.078125 -0.406250
v -0.500000 0.078125 -0.218750
v -0.500000 0.000000 -0.125000
v -0.500000 0.406250 -0.218750
v -0.500000 0.430514 -0.221944
v -0.500000 0.500000 -0.125000
v -0.500000 0.453125 -0.231310
v -0.500000 0.472541 -0.246209
v -0.500000 0.487440 -0.265625
v -0.500000 0.500000 0.125000
v -0.500000 0.487440 0.265625
v -0.500000 0.496806 0.288236
v -0.500000 0.500000 0.312500
v -0.500000 0.496806 0.336764
v -0.500000 0.625000 0.500000
v -0.500000 0.487440 0.359375
v -0.500000 0.472541 0.378791
v -0.500000 0.453125 0.393690
v -0.500000 0.430514 0.403056
v -0.500000 0.000000 0.500000
v -0.500000 0.406250 0.406250
v -0.400000 0.430514 0.403056
v -0.400000 0.406250 0.406250
v -0.400000 0.453125 0.393690
v -0.400000 0.472541 0.378791
v -0.400000 0.487440 0.359375
v -0.400000 0.496806 0.336764
v -0.400000 0.500000 0.312500
v -0.400000 0.496806 0.288236
v -0.400000 0.487440 0.265625
v -0.500000 0.472541 0.246209
v -0.400000 0.472541 0.246209
v -0.500000 0.453125 0.231310
v -0.500000 0.430514 0.221944
v -0.500000 0.406250 0.218750
v -0.500000 0.078125 0.218750
v -0.500000 0.000000 0.125000
v -0.500000 0.078125 0.406250
v -0.400000 0.078125 0.406250
v -0.400000 0.453125 0.231310
v -0.400000 0.430514 0.221944
v -0.400000 0.406250 0.218750
v -0.400000 0.078125 0.218750
v -0.400000 0.000000 0.125000
v -0.400000 0.000000 -0.125000
v -0.400000 0.500000 0.125000
v -0.400000 0.500000 -0.125000
v -0.500000 0.496806 -0.288236
v -0.500000 0.500000 -0.312500
v -0.500000 0.496806 -0.336764
v -0.500000 0.487440 -0.359375
v -0.500000 0.472541 -0.378791
v -0.500000 0.453125 -0.393690
v -0.500000 0.430514 -0.403056
v -0.500000 0.406250 -0.406250
v -0.400000 0.078125 -0.406250
v -0.400000 0.406250 -0.406250
v -0.400000 0.078125 -0.218750
v -0.400000 0.406250 -0.218750
v -0.400000 0.430514 -0.221944
v -0.400000 0.453125 -0.231310
v -0.400000 0.472541 -0.246209
v -0.400000 0.487440 -0.265625
v -0.400000 0.496806 -0.288236
v -0.400000 0.500000 -0.312500
v -0.400000 0.496806 -0.336764
v -0.400000 0.487440 -0.359375
v -0.400000 0.472541 -0.378791
v -0.400000 0.453125 -0.393690
v -0.400000 0.430514 -0.403056
vt 39.370098 0.000000
vt 39.370098 24.606300
vt 0.000000 24.606300
vt -39.370098 0.000000
vt -35.679100 3.075790
vt -39.370098 24.606300
vt -28.297199 3.075790
vt -24.606300 0.000000
vt -28.297199 15.994100
vt -28.423000 16.949400
vt -24.606300 19.684999
vt -28.791700 17.839600
vt -29.378300 18.604000
vt -30.142700 19.190500
vt -14.763800 19.684999
vt -9.227360 19.190500
vt -8.337180 19.559299
vt -7.381890 19.684999
vt -6.426600 19.559299
vt 0.000000 24.606300
vt -5.536420 19.190500
vt -4.772000 18.604000
vt -4.185440 17.839600
vt -3.816710 16.949400
vt 0.000000 0.000000
vt -3.690940 15.994100
vt -3.937010 24.606300
vt -39.370098 39.370098
vt -39.370098 0.000000
vt 0.000000 12.163700
vt 0.000000 11.200200
vt 3.937010 11.200200
vt 0.000000 3.017030
vt 0.000000 2.053500
vt 3.937010 2.053500
vt 0.000000 -6.302440
vt 0.000000 -7.265970
vt 3.937010 -7.265970
vt 0.000000 -15.159600
vt 0.000000 -16.123100
vt 3.937010 -16.123100
vt 0.000000 -22.950800
vt 0.000000 -23.914301
vt 3.937010 -23.914301
vt 0.000000 -29.145100
vt 0.000000 -30.108601
vt 3.937010 -30.108601
vt 0.000000 33.320400
vt 0.000000 34.283901
vt -3.937010 34.283901
vt -9.991780 18.604000
vt -10.578300 17.839600
vt -10.947100 16.949400
vt -11.072800 15.994100
vt -11.072800 3.075790
vt -14.763800 0.000000
vt -3.690940 3.075790
vt 0.000000 35.192101
vt 0.000000 36.155701
vt -3.937010 36.155701
vt 0.000000 31.680401
vt 0.000000 32.643902
vt -3.937010 32.643902
vt 0.000000 26.536200
vt 0.000000 27.499701
vt -3.937010 27.499701
vt 0.000000 19.550800
vt 0.000000 20.514299
vt -3.937010 20.514299
vt 0.000000 3.075790
vt 0.000000 15.994100
vt -3.937010 15.994100
vt 0.000000 35.679100
vt 0.000000 28.297199
vt 3.937010 28.297199
vt 0.000000 16.339001
vt 0.000000 17.302601
vt -3.937010 17.302601
vt 0.000000 15.994100
vt 0.000000 3.075790
vt 3.937010 3.075790
vt 0.000000 19.684999
vt 0.000000 0.000000
vt 3.937010 0.000000
vt 0.000000 14.763800
vt 0.000000 24.606300
vt -3.937010 24.606300
vt 0.000000 0.000000
vt 0.000000 19.684999
vt -3.937010 19.684999
vt 39.370098 39.370098
vt -0.000000 39.370098
vt -0.000000 0.000000
vt -31.032900 19.559299
vt -31.988199 19.684999
vt -32.943501 19.559299
vt -33.833698 19.190500
vt -34.598099 18.604000
vt -35.184601 17.839600
vt -35.553398 16.949400
vt -35.679100 15.994100
vt 39.370098 0.000000
vt 39.370098 24.606300
vt 0.000000 11.072800
vt 0.000000 3.690940
vt 3.937010 3.690940
vt 0.000000 15.994100
vt 0.000000 3.075790
vt 3.937010 3.075790
vt 0.000000 15.375500
vt 0.000000 14.412000
vt 3.937010 14.412000
vt 0.000000 12.433500
vt 0.000000 11.469900
vt 3.937010 11.469900
vt 0.000000 8.676920
vt 0.000000 7.713390
vt 3.937010 7.713390
vt 0.000000 3.075790
vt 0.000000 15.994100
vt -3.937010 15.994100
vt 0.000000 4.361910
vt 0.000000 3.398380
vt 3.937010 3.398380
vt 0.000000 -0.217537
vt 0.000000 -1.181070
vt 3.937010 -1.181070
vt 0.000000 -4.749320
vt 0.000000 -5.712850
vt 3.937010 -5.712850
vt 0.000000 8.924620
vt 0.000000 9.888150
vt -3.937010 9.888150
vt 0.000000 12.458900
vt 0.000000 13.422400
vt -3.937010 13.422400
vt 0.000000 15.111300
vt 0.000000 16.074800
vt -3.937010 16.074800
vt 0.000000 16.701000
vt 0.000000 17.664499
vt -3.937010 17.664499
vt 0.000000 0.000000
vt -39.370098 24.606300
vt -39.370098 0.000000
vt -3.937010 16.339001
vt 0.000000 17.119801
vt -3.937010 18.083300
vt -3.937010 17.119801
vt -3.937010 16.701000
vt -3.937010 15.111300
vt -3.937010 12.458900
vt -3.937010 8.924620
vt 3.937010 -4.749320
vt 3.937010 -0.217537
vt 3.937010 4.361910
vt -3.937010 3.075790
vt 3.937010 8.676920
vt 0.000000 34.632801
vt 0.000000 35.596298
vt -3.937010 35.596298
vt 3.937010 12.433500
vt 3.937010 15.375500
vt 3.937010 15.994100
vt 3.937010 11.072800
vt 0.000000 24.606300
vt -3.937010 14.763800
vt 0.000000 14.763800
vt 0.000000 24.606300
vt 0.000000 39.370098
vt 39.370098 0.000000
vt -3.937010 0.000000
vt -3.937010 14.763800
vt 3.937010 19.684999
vt 3.937010 15.994100
vt 3.937010 35.679100
vt -3.937010 3.075790
vt -3.937010 19.550800
vt -3.937010 26.536200
vt -3.937010 31.680401
vt -3.937010 34.632801
vt -3.937010 35.192101
vt -3.937010 33.320400
vt 3.937010 -29.145100
vt 3.937010 -22.950800
vt 3.937010 -15.159600
vt 3.937010 -6.302440
vt 3.937010 3.017030
vt 3.937010 12.163700
vt 0.000000 18.083300
vt 0.000000 0.000000
vt -35.679100 3.075790
vt -28.297199 3.075790
vt -28.297199 15.994100
vt -11.072800 15.994100
vt -3.690940 15.994100
vt -5.536420 19.190500
vt -14.763800 19.684999
vt -24.606300 19.684999
vt -24.606300 0.000000
vt -11.072800 3.075790
vt -3.690940 3.075790
vt -35.679100 15.994100
vt -30.142700 19.190500
vt -3.816710 16.949400
vt -4.185440 17.839600
vt -4.772000 18.604000
vt -6.426600 19.559299
vt -7.381890 19.684999
vt -8.337180 19.559299
vt -9.227360 19.190500
vt -9.991780 18.604000
vt -10.578300 17.839600
vt -10.947100 16.949400
vt -14.763800 0.000000
vt -28.423000 16.949400
vt -28.791700 17.839600
vt -29.378300 18.604000
vt -31.032900 19.559299
vt -31.988199 19.684999
vt -32.943501 19.559299
vt -33.833698 19.190500
vt -34.598099 18.604000
vt -35.184601 17.839600
vt -35.553398 16.949400
vn 1.0000 0.0000 0.0000
vn -1.0000 0.0000 0.0000
vn 0.0000 -1.0000 -0.0000
vn 0.0000 -0.2588 0.9659
vn 0.0000 -0.1305 0.9914
vn 0.0000 -0.5000 0.8660
vn 0.0000 -0.7071 0.7071
vn 0.0000 -0.8660 0.5000
vn 0.0000 -0.9659 0.2588
vn 0.0000 -0.9659 -0.2588
vn 0.0000 -0.8660 -0.5000
vn 0.0000 -0.5000 -0.8660
vn 0.0000 -0.7071 -0.7071
vn 0.0000 -0.2588 -0.9659
vn 0.0000 -0.1305 -0.9914
vn 0.0000 0.0000 -1.0000
vn 0.0000 1.0000 0.0000
vn 0.0000 -0.0000 1.0000
usemtl Brick.114
s 1
f 1/1/1 2/2/1 3/3/1
f 5/4/2 7/5/2 6/6/2
f 5/4/2 8/7/2 7/5/2
f 9/8/2 8/7/2 5/4/2
f 8/7/2 9/8/2 10/9/2
f 9/8/2 11/10/2 10/9/2
f 12/11/2 11/10/2 9/8/2
f 12/11/2 13/12/2 11/10/2
f 12/11/2 14/13/2 13/12/2
f 12/11/2 15/14/2 14/13/2
f 12/11/2 6/6/2 15/14/2
f 16/15/2 6/6/2 12/11/2
f 17/16/2 6/6/2 16/15/2
f 18/17/2 6/6/2 17/16/2
f 19/18/2 6/6/2 18/17/2
f 20/19/2 6/6/2 19/18/2
f 20/19/2 21/20/2 6/6/2
f 22/21/2 21/20/2 20/19/2
f 23/22/2 21/20/2 22/21/2
f 24/23/2 21/20/2 23/22/2
f 25/24/2 21/20/2 24/23/2
f 21/20/2 25/24/2 26/25/2
f 26/25/2 25/24/2 27/26/2
f 51/27/3 1/28/3 4/29/3
f 60/30/4 61/31/5 63/32/5
f 59/33/6 60/34/4 76/35/4
f 58/36/7 59/37/6 75/38/6
f 57/39/8 58/40/7 74/41/7
f 56/42/9 57/43/8 73/44/8
f 55/45/3 56/46/9 72/47/9
f 54/48/10 55/49/3 71/50/3
f 17/16/2 16/15/2 37/51/2
f 37/51/2 16/15/2 39/52/2
f 39/52/2 16/15/2 40/53/2
f 40/53/2 16/15/2 41/54/2
f 41/54/2 16/15/2 42/55/2
f 43/56/2 42/55/2 16/15/2
f 43/56/2 44/57/2 42/55/2
f 26/25/2 44/57/2 43/56/2
f 44/57/2 26/25/2 27/26/2
f 15/58/11 54/59/10 70/60/10
f 13/61/12 14/62/13 68/63/13
f 11/64/14 13/65/12 67/66/12
f 10/67/15 11/68/14 66/69/14
f 8/70/16 10/71/16 65/72/16
f 7/73/17 8/74/17 64/75/17
f 27/76/15 25/77/14 28/78/14
f 61/79/18 7/80/18 62/81/18
f 12/82/18 9/83/18 51/84/18
f 16/85/3 12/86/3 53/87/3
f 43/88/16 16/89/16 52/90/16
f 2/91/17 6/92/17 21/93/17
f 15/14/2 6/6/2 54/94/2
f 54/94/2 6/6/2 55/95/2
f 55/95/2 6/6/2 56/96/2
f 56/96/2 6/6/2 57/97/2
f 57/97/2 6/6/2 58/98/2
f 58/98/2 6/6/2 59/99/2
f 59/99/2 6/6/2 60/100/2
f 60/100/2 6/6/2 61/101/2
f 61/101/2 6/6/2 7/5/2
f 4/102/18 3/103/18 21/20/18
f 42/104/17 44/105/17 45/106/17
f 41/107/18 42/108/18 49/109/18
f 40/110/4 41/111/5 48/112/5
f 39/113/6 40/114/4 47/115/4
f 37/116/7 39/117/6 46/118/6
f 44/119/16 27/120/16 29/121/16
f 17/122/8 37/123/7 38/124/7
f 18/125/9 17/126/8 36/127/8
f 19/128/3 18/129/9 35/130/9
f 20/131/10 19/132/3 34/133/3
f 22/134/11 20/135/10 33/136/10
f 23/137/13 22/138/11 32/139/11
f 24/140/12 23/141/13 31/142/13
f 5/143/16 2/144/16 1/145/16
f 27/76/15 28/78/14 29/146/15
f 25/147/14 30/148/12 28/149/14
f 24/140/12 31/142/13 30/150/12
f 23/137/13 32/139/11 31/151/13
f 22/134/11 33/136/10 32/152/11
f 20/131/10 34/133/3 33/153/10
f 19/128/3 35/130/9 34/154/3
f 18/125/9 36/127/8 35/155/9
f 17/122/8 38/124/7 36/156/8
f 44/119/16 29/121/16 45/157/16
f 37/116/7 46/118/6 38/158/7
f 14/159/13 15/160/11 69/161/11
f 39/113/6 47/115/4 46/162/6
f 40/110/4 48/112/5 47/163/4
f 41/107/18 49/109/18 48/164/18
f 42/104/17 45/106/17 49/165/17
f 4/102/18 21/20/18 26/25/18
f 5/143/16 6/166/16 2/144/16
f 4/29/3 26/25/3 50/167/3
f 26/25/3 43/168/3 50/167/3
f 51/27/3 9/169/3 5/170/3
f 51/27/3 5/170/3 1/28/3
f 2/91/17 21/93/17 3/171/17
f 43/88/16 52/90/16 50/172/16
f 16/85/3 53/87/3 52/173/3
f 12/82/18 51/84/18 53/174/18
f 61/79/18 62/81/18 63/175/18
f 7/73/17 64/75/17 62/176/17
f 8/70/16 65/72/16 64/177/16
f 10/67/15 66/69/14 65/178/15
f 11/64/14 67/66/12 66/179/14
f 13/61/12 68/63/13 67/180/12
f 14/159/13 69/161/11 68/181/13
f 15/58/11 70/60/10 69/182/11
f 54/48/10 71/50/3 70/183/10
f 55/45/3 72/47/9 71/184/3
f 56/42/9 73/44/8 72/185/9
f 57/39/8 74/41/7 73/186/8
f 58/36/7 75/38/6 74/187/7
f 59/33/6 76/35/4 75/188/6
f 60/30/4 63/32/5 76/189/4
f 51/27/3 4/29/3 50/167/3
f 25/147/14 24/190/12 30/148/12
f 1/1/1 3/3/1 4/191/1
usemtl Glass.066
f 62/192/2 64/193/2 65/194/2
f 48/195/2 29/196/2 32/197/2
f 52/198/2 53/199/2 51/200/2
f 49/201/2 45/202/2 29/196/2
f 63/203/2 65/194/2 69/204/2
f 49/201/2 29/196/2 48/195/2
f 29/196/2 28/205/2 30/206/2
f 30/206/2 31/207/2 29/196/2
f 31/207/2 32/197/2 29/196/2
f 32/197/2 33/208/2 34/209/2
f 34/209/2 35/210/2 36/211/2
f 36/211/2 38/212/2 48/195/2
f 38/212/2 46/213/2 48/195/2
f 46/213/2 47/214/2 48/195/2
f 32/197/2 34/209/2 48/195/2
f 34/209/2 36/211/2 48/195/2
f 52/198/2 51/200/2 50/215/2
f 62/192/2 65/194/2 63/203/2
f 65/194/2 66/216/2 67/217/2
f 67/217/2 68/218/2 65/194/2
f 68/218/2 69/204/2 65/194/2
f 69/204/2 70/219/2 71/220/2
f 71/220/2 72/221/2 73/222/2
f 73/222/2 74/223/2 63/203/2
f 74/223/2 75/224/2 63/203/2
f 75/224/2 76/225/2 63/203/2
f 69/204/2 71/220/2 63/203/2
f 71/220/2 73/222/2 63/203/2
