# Blender v2.92.0 OBJ File: ''
# www.blender.org
mtllib Mesh1 Group1 Model.156.mtl
o Mesh1_Group1_Model.156
v -0.305243 0.445316 0.194757
v -0.328125 0.420485 0.171875
v -0.257414 0.420485 0.101164
v -0.234532 0.445316 0.124047
v 0.000000 0.625000 0.500000
v -0.500000 0.625000 0.000000
v -0.500000 0.000000 0.000000
v -0.360485 0.000000 0.139515
v -0.360485 0.310000 0.139515
v -0.356721 0.350440 0.143279
v -0.345683 0.388125 0.154317
v -0.278596 0.460926 0.221404
v -0.250000 0.466250 0.250000
v -0.221404 0.460926 0.278596
v -0.194757 0.445316 0.305243
v -0.171875 0.420485 0.328125
v -0.154317 0.388125 0.345683
v -0.143279 0.350440 0.356721
v -0.139515 0.310000 0.360485
v -0.139515 0.000000 0.360485
v 0.000000 0.000000 0.500000
v -0.500000 0.625000 -0.500000
v 0.500000 0.625000 0.500000
v 0.500000 0.625000 -0.500000
v -0.500000 0.000000 -0.500000
v 0.500000 0.000000 0.500000
v -0.068804 0.000000 0.289775
v -0.289775 0.000000 0.068804
v 0.500000 0.000000 -0.500000
v -0.068804 0.310000 0.289775
v -0.072569 0.350440 0.286010
v -0.083606 0.388125 0.274973
v -0.101164 0.420485 0.257414
v -0.124047 0.445316 0.234532
v -0.150694 0.460926 0.207885
v -0.179289 0.466250 0.179289
v -0.207885 0.460926 0.150694
v -0.274973 0.388125 0.083606
v -0.286010 0.350440 0.072569
v -0.289775 0.310000 0.068804
vt 17.856400 8.879720
vt 17.856400 10.485600
vt 13.919400 10.485600
vt 13.919400 24.606300
vt -0.000000 18.356300
vt 1.592140 18.146700
vt 19.684999 0.000000
vt 39.370098 0.000000
vt 39.370098 39.370098
vt -8.276580 16.976200
vt 0.000000 39.370098
vt -39.370098 39.370098
vt -39.370098 -0.000000
vt -19.684999 0.000000
vt -19.684999 24.606300
vt -17.856400 3.867600
vt -13.919400 3.867600
vt -13.919400 5.473490
vt -17.856400 11.297400
vt -13.919400 11.297400
vt -13.919400 12.903300
vt -13.919400 0.000000
vt -13.919400 12.204700
vt -17.856400 12.204700
vt 0.000000 0.000000
vt 0.000000 24.606300
vt -39.370098 24.606300
vt -13.919400 10.472800
vt -13.919400 12.078600
vt -17.856400 12.078600
vt 17.856400 12.903300
vt 13.919400 12.903300
vt 13.919400 11.297400
vt 17.856400 0.790095
vt 17.856400 2.395980
vt 13.919400 2.395980
vt 17.856400 3.867600
vt 17.856400 5.473490
vt 13.919400 5.473490
vt 17.856400 8.232710
vt 13.919400 8.232710
vt 13.919400 6.626820
vt -17.856400 0.790094
vt -13.919400 0.790094
vt -13.919400 2.395980
vt 19.684999 24.606300
vt 19.684999 0.000000
vt 39.370098 0.000000
vt 13.919400 12.078600
vt 13.919400 10.472800
vt 17.856400 10.472800
vt 39.370098 0.000000
vt 39.370098 24.606300
vt 0.000000 24.606300
vt 13.919400 12.204700
vt 13.919400 0.000000
vt 17.856400 0.000000
vt -17.856400 8.232710
vt -13.919400 6.626820
vt -13.919400 8.232710
vt -13.919400 24.606300
vt -13.919400 0.000000
vt -6.151570 12.204700
vt -6.151570 0.000000
vt 6.151570 0.000000
vt 13.919400 0.000000
vt 6.151570 12.204700
vt -5.941960 13.796900
vt -5.327420 15.280500
vt 5.941960 13.796900
vt 5.327420 15.280500
vt -4.349820 16.554501
vt -3.075790 17.532101
vt 4.349820 16.554501
vt 3.075790 17.532101
vt -1.592140 18.146700
vt -0.000000 39.370098
vt -0.000000 19.684999
vt 39.370098 24.606300
vt -39.370098 -0.000000
vt -16.976200 8.276580
vt -19.684999 -0.000000
vt -14.192300 5.492700
vt -5.492700 14.192300
vt 0.000000 19.684999
vt 0.000000 0.000000
vt -39.370098 0.000000
vt -17.856400 0.000000
vt -17.856400 10.472800
vt 17.856400 12.078600
vt 17.856400 11.297400
vt 13.919400 8.879720
vt 13.919400 3.867600
vt 17.856400 6.626820
vt -17.856400 2.395980
vt 13.919400 0.790095
vt 17.856400 12.204700
vt -17.856400 8.879720
vt -13.919400 8.879720
vt -13.919400 10.485600
vt -17.856400 6.626820
vt -17.856400 10.485600
vt -17.856400 12.903300
vt -17.856400 5.473490
vt -39.370098 24.606300
vt -3.075790 17.532101
vt -6.151570 12.204700
vt 6.151570 12.204700
vt -6.151570 0.000000
vt 6.151570 0.000000
vt 5.941960 13.796900
vt 3.075790 17.532101
vt 5.327420 15.280500
vt 4.349820 16.554501
vt 1.592140 18.146700
vt -0.000000 18.356300
vt -1.592140 18.146700
vt -4.349820 16.554501
vt -5.327420 15.280500
vt -5.941960 13.796900
vn 0.6124 -0.5000 0.6124
vn 0.5000 -0.7071 0.5000
vn -0.7071 0.0000 0.7071
vn 0.0000 1.0000 0.0000
vn -0.0000 -1.0000 -0.0000
vn -1.0000 0.0000 0.0000
vn -0.3536 -0.8660 -0.3536
vn -0.1830 -0.9659 -0.1830
vn -0.7011 -0.1305 -0.7011
vn -0.6830 -0.2588 -0.6830
vn -0.7071 0.0000 -0.7071
vn 0.0000 0.0000 -1.0000
vn -0.6124 -0.5000 -0.6124
vn 0.6830 -0.2588 0.6830
vn 0.7011 -0.1305 0.7011
vn 0.1830 -0.9659 0.1830
vn 0.3536 -0.8660 0.3536
vn 0.0000 0.0000 1.0000
vn 1.0000 0.0000 0.0000
vn 0.7071 -0.0000 0.7071
vn -0.5000 -0.7071 -0.5000
vn -0.7070 0.0001 0.7072
vn -0.7071 -0.0001 0.7071
vn -0.7072 0.0001 0.7070
usemtl Brick.118
s 1
f 38/1/1 3/2/2 2/3/2
f 5/4/3 13/5/3 14/6/3
f 5/7/4 23/8/4 24/9/4
f 28/10/5 25/11/5 29/12/5
f 25/13/6 7/14/6 6/15/6
f 34/16/7 15/17/7 14/18/8
f 30/19/9 19/20/9 18/21/10
f 20/22/11 19/23/11 30/24/11
f 25/25/12 22/26/12 24/27/12
f 18/28/10 17/29/13 32/30/13
f 39/31/14 10/32/14 9/33/15
f 37/34/16 36/35/5 13/36/5
f 4/37/17 37/38/16 12/39/16
f 4/40/17 1/41/17 2/42/2
f 35/43/8 14/44/8 13/45/5
f 5/46/18 21/47/18 26/48/18
f 11/49/1 10/50/14 39/51/14
f 29/52/19 24/53/19 23/54/19
f 9/55/20 8/56/20 28/57/20
f 34/58/7 16/59/21 15/60/7
f 6/61/3 7/62/3 9/63/3
f 7/62/3 8/64/3 9/63/3
f 20/65/3 21/66/3 19/67/3
f 21/66/3 5/4/3 19/67/3
f 6/61/3 9/63/3 10/68/3
f 6/61/3 10/68/3 11/69/3
f 18/70/3 19/67/3 5/4/3
f 17/71/3 18/70/3 5/4/3
f 6/61/3 11/69/3 2/72/3
f 6/61/3 2/72/3 1/73/3
f 16/74/3 17/71/3 5/4/3
f 15/75/3 16/74/3 5/4/3
f 5/4/3 6/61/3 13/5/3
f 6/61/3 1/73/3 12/76/3
f 6/61/3 12/76/3 13/5/3
f 14/6/3 15/75/3 5/4/3
f 24/9/4 22/77/4 6/78/4
f 6/78/4 5/7/4 24/9/4
f 5/46/18 26/48/18 23/79/18
f 29/12/5 26/80/5 27/81/5
f 26/80/5 21/82/5 27/81/5
f 21/82/5 20/83/5 27/81/5
f 28/10/5 8/84/5 7/85/5
f 28/10/5 7/85/5 25/11/5
f 29/12/5 27/81/5 28/10/5
f 29/52/19 23/54/19 26/86/19
f 25/25/12 24/27/12 29/87/12
f 20/22/11 30/24/11 27/88/11
f 18/28/10 32/30/13 31/89/10
f 11/49/1 39/51/14 38/90/1
f 39/31/14 9/33/15 40/91/15
f 38/1/1 2/3/2 11/92/1
f 4/37/17 12/39/16 1/93/17
f 4/40/17 2/42/2 3/94/2
f 35/43/8 13/45/5 36/95/5
f 37/34/16 13/36/5 12/96/16
f 9/55/20 28/57/20 40/97/20
f 32/98/13 17/99/13 16/100/21
f 34/58/7 33/101/21 16/59/21
f 32/98/13 16/100/21 33/102/21
f 30/19/9 18/21/10 31/103/10
f 34/16/7 14/18/8 35/104/8
f 25/13/6 6/15/6 22/105/6
usemtl Glass.069
f 4/106/3 40/107/3 30/108/3
f 28/109/3 27/110/3 30/108/3
f 28/109/3 30/108/3 40/107/3
f 30/108/3 31/111/3 34/112/3
f 31/111/3 32/113/3 34/112/3
f 32/113/3 33/114/22 34/112/3
f 34/112/3 35/115/23 36/116/3
f 36/116/3 37/117/23 4/106/3
f 4/106/3 3/118/24 38/119/3
f 38/119/3 39/120/3 4/106/3
f 39/120/3 40/107/3 4/106/3
f 34/112/3 36/116/3 4/106/3
f 4/106/3 30/108/3 34/112/3
