# Blender v2.92.0 OBJ File: ''
# www.blender.org
mtllib Mesh1 Group1 Model.151.mtl
o Mesh1_Group1_Model.151
v 0.500000 0.468750 -0.500000
v -0.500000 0.000000 -0.500000
v -0.590550 -0.042443 -0.500000
v -0.618770 0.017765 -0.500000
v 0.450000 0.518750 -0.500000
v 0.500000 0.518750 -0.500000
v 0.500000 0.000000 -0.500000
v 0.500000 0.000000 0.500000
v -0.500000 0.000000 0.500000
v 0.500000 0.468750 0.500000
v 0.500000 0.518750 0.500000
v 0.450000 0.518750 0.500000
v -0.618770 0.017765 0.500000
v -0.590550 -0.042443 0.500000
vt 44.046001 0.699401
vt 1.968500 20.423201
vt 39.370098 0.000000
vt 39.370098 -35.647999
vt 0.000000 -35.647999
vt -0.000000 -39.584999
vt 0.000000 16.709999
vt -0.000000 19.327900
vt -39.370098 19.327900
vt -39.370098 6.885910
vt -39.370098 -39.584999
vt -0.000000 -39.584999
vt -1.968500 39.370098
vt -1.968500 0.000000
vt 0.000000 0.000000
vt -39.370098 -0.000000
vt 0.000000 18.454700
vt -1.968500 20.423201
vt 0.000000 20.423201
vt 0.000000 18.454700
vt 42.934898 -1.671000
vt -0.000000 39.370098
vt -0.000000 6.885910
vt -39.370098 16.709999
vt 39.370098 -39.584999
vt 0.000000 20.423201
vt -44.046001 0.699401
vt -42.934898 -1.671000
vt 0.000000 0.000000
vt 0.000000 0.000000
vt 39.370098 18.454700
vt 39.370098 20.423201
vt 39.370098 0.000000
vt 39.370098 39.370098
vt 39.370098 0.000000
vt 0.000000 39.370098
vn -0.0000 0.0000 -1.0000
vn 0.4244 -0.9055 -0.0000
vn -0.9055 -0.4244 -0.0000
vn -0.4244 0.9055 0.0000
vn 0.0000 1.0000 0.0000
vn -0.0000 0.0000 1.0000
vn 1.0000 0.0000 0.0000
vn 0.0000 -1.0000 -0.0000
usemtl Roof.022
s 1
f 4/1/1 5/2/1 2/3/1
f 2/4/2 9/5/2 14/6/2
f 14/7/3 13/8/3 4/9/3
f 5/10/4 4/11/4 13/12/4
f 5/13/5 12/14/5 11/15/5
f 9/16/6 10/17/6 12/18/6
f 6/19/1 1/20/1 5/2/1
f 1/20/1 2/3/1 5/2/1
f 2/3/1 3/21/1 4/1/1
f 5/13/5 11/15/5 6/22/5
f 5/10/4 13/12/4 12/23/4
f 14/7/3 4/9/3 3/24/3
f 2/4/2 14/6/2 3/25/2
f 11/26/6 12/18/6 10/17/6
f 12/18/6 13/27/6 9/16/6
f 13/27/6 14/28/6 9/16/6
usemtl Brick.113
f 7/29/1 2/3/1 1/20/1
f 8/30/6 10/17/6 9/16/6
f 10/17/7 1/31/7 6/32/7
f 8/30/7 1/31/7 10/17/7
f 10/17/7 6/32/7 11/26/7
f 8/30/8 9/33/8 2/34/8
f 8/30/7 7/35/7 1/31/7
f 8/30/8 2/34/8 7/36/8
