# Blender v2.92.0 OBJ File: ''
# www.blender.org
mtllib Mesh1 Group1 Model.177.mtl
o Mesh1_Group1_Model.177
v -0.500000 0.000000 0.500000
v -0.450000 0.000000 0.500000
v -0.450000 0.500000 0.500000
v -0.500000 0.500000 0.500000
v -0.500000 0.000000 0.250000
v -0.450000 0.000000 0.250000
v -0.500000 0.500000 0.250000
v -0.450000 0.500000 0.250000
v -0.500000 0.054236 0.304236
v -0.500000 0.054236 0.445764
v -0.500000 0.445764 0.445764
v -0.500000 0.445764 0.304236
v -0.475000 0.054236 0.304236
v -0.475000 0.445764 0.304236
v -0.475000 0.054236 0.445764
v -0.475000 0.445764 0.445764
vt 0.000000 0.000000
vt 1.968500 0.000000
vt 1.968500 19.684999
vt -2.135270 17.549801
vt -7.707250 17.549801
vt -7.707250 2.135270
vt -9.842520 0.000000
vt -7.707250 2.135270
vt -9.842520 19.684999
vt -2.135270 2.135270
vt -2.135270 17.549801
vt 0.000000 19.684999
vt 0.000000 2.135270
vt 0.000000 7.707250
vt -0.984252 7.707250
vt 0.000000 2.135270
vt 0.000000 17.549801
vt -0.984252 17.549801
vt -7.707250 17.549801
vt 0.000000 7.707250
vt 0.984252 2.135270
vt 0.000000 17.549801
vt 0.000000 2.135270
vt 0.984252 2.135270
vt 0.000000 0.000000
vt 9.842520 0.000000
vt 9.842520 19.684999
vt 1.968500 9.842520
vt 0.000000 9.842520
vt 0.000000 0.000000
vt -1.968500 0.000000
vt 0.000000 0.000000
vt 0.000000 19.684999
vt 0.000000 9.842520
vt -1.968500 0.000000
vt -1.968500 19.684999
vt 1.968500 0.000000
vt 0.000000 19.684999
vt 0.984252 17.549801
vt 0.984252 7.707250
vt -0.984252 2.135270
vt -0.984252 2.135270
vt -2.135270 2.135270
vt -1.968500 9.842520
vn 0.0000 0.0000 1.0000
vn -1.0000 0.0000 0.0000
vn 0.0000 -1.0000 -0.0000
vn 0.0000 0.0000 -1.0000
vn 0.0000 1.0000 0.0000
vn 1.0000 -0.0000 0.0000
usemtl Wood.018
s 1
f 1/1/1 2/2/1 3/3/1
f 16/4/2 14/5/2 13/6/2
f 5/7/2 9/8/2 7/9/2
f 5/7/2 10/10/2 9/8/2
f 1/1/2 10/10/2 5/7/2
f 10/10/2 1/1/2 11/11/2
f 4/12/2 11/11/2 1/1/2
f 11/11/2 4/12/2 7/9/2
f 11/13/3 12/14/3 14/15/3
f 10/16/4 11/17/4 16/18/4
f 11/11/2 7/9/2 12/19/2
f 12/19/2 7/9/2 9/8/2
f 9/20/5 10/16/5 15/21/5
f 12/22/1 9/23/1 13/24/1
f 2/25/6 6/26/6 8/27/6
f 8/28/5 7/29/5 4/30/5
f 6/31/4 5/32/4 7/33/4
f 5/34/3 2/35/3 1/1/3
f 6/31/4 7/33/4 8/36/4
f 8/28/5 4/30/5 3/37/5
f 2/25/6 8/27/6 3/38/6
f 12/22/1 13/24/1 14/39/1
f 9/20/5 15/21/5 13/40/5
f 10/16/4 16/18/4 15/41/4
f 11/13/3 14/15/3 16/42/3
f 16/4/2 13/6/2 15/43/2
f 5/34/3 6/44/3 2/35/3
f 1/1/1 3/3/1 4/12/1
