# Blender v2.92.0 OBJ File: ''
# www.blender.org
mtllib Mesh1 Group1 Model.127.mtl
o Mesh1_Group1_Model.127
v 0.500000 0.000000 -0.500000
v 0.500000 0.625000 -0.500000
v 0.500000 0.625000 0.500000
v 0.500000 0.000000 0.500000
v -0.500000 0.000000 -0.500000
v -0.500000 0.625000 -0.500000
v -0.500000 0.000000 -0.375000
v -0.500000 0.500000 -0.375000
v -0.500000 0.500000 -0.062500
v -0.500000 0.000000 -0.062500
v -0.500000 0.000000 0.062500
v -0.500000 0.500000 0.062500
v -0.500000 0.500000 0.375000
v -0.500000 0.000000 0.375000
v -0.500000 0.000000 0.500000
v -0.500000 0.625000 0.500000
v -0.400000 0.000000 -0.375000
v -0.400000 0.500000 -0.375000
v -0.400000 0.000000 0.375000
v -0.400000 0.000000 0.062500
v -0.400000 0.000000 -0.062500
v -0.400000 0.500000 0.375000
v -0.400000 0.500000 0.062500
v -0.400000 0.500000 -0.062500
vt 39.370098 0.000000
vt 39.370098 24.606300
vt 0.000000 24.606300
vt 0.000000 24.606300
vt -39.370098 24.606300
vt -22.145700 19.684999
vt -3.937010 22.145700
vt -3.937010 34.448799
vt -39.370098 39.370098
vt 0.000000 0.000000
vt 0.000000 19.684999
vt -3.937010 19.684999
vt 0.000000 19.684999
vt 0.000000 0.000000
vt 3.937010 0.000000
vt 0.000000 4.921260
vt 0.000000 17.224400
vt -3.937010 17.224400
vt 0.000000 0.000000
vt 0.000000 19.684999
vt -3.937010 19.684999
vt 0.000000 39.370098
vt 0.000000 0.000000
vt 39.370098 0.000000
vt 39.370098 0.000000
vt 39.370098 24.606300
vt -3.937010 17.224400
vt 0.000000 17.224400
vt 0.000000 19.684999
vt 0.000000 0.000000
vt 3.937010 0.000000
vt 0.000000 0.000000
vt -39.370098 24.606300
vt -39.370098 0.000000
vt -17.224400 19.684999
vt -22.145700 0.000000
vt -17.224400 0.000000
vt -39.370098 0.000000
vt -34.448799 0.000000
vt -34.448799 19.684999
vt 3.937010 19.684999
vt -39.370098 0.000000
vt -3.937010 4.921260
vt -4.921260 0.000000
vt 0.000000 0.000000
vt -4.921260 19.684999
vt 0.000000 22.145700
vt 0.000000 24.606300
vt 0.000000 4.921260
vt 0.000000 22.145700
vt 0.000000 34.448799
vt -3.937010 34.448799
vt 0.000000 34.448799
vt 0.000000 39.370098
vt 39.370098 39.370098
vt -3.937010 0.000000
vt -3.937010 4.921260
vt 3.937010 19.684999
vt -3.937010 0.000000
vt -3.937010 22.145700
vt 0.000000 0.000000
vt -22.145700 0.000000
vt -22.145700 19.684999
vt -34.448799 19.684999
vt -4.921260 19.684999
vt -17.224400 19.684999
vt -17.224400 0.000000
vt -4.921260 0.000000
vt -34.448799 0.000000
vn 1.0000 0.0000 0.0000
vn -1.0000 -0.0000 0.0000
vn -0.0000 -1.0000 -0.0000
vn 0.0000 0.0000 -1.0000
vn 0.0000 -0.0000 1.0000
vn 0.0000 1.0000 0.0000
usemtl Brick.090
s 1
f 1/1/1 2/2/1 3/3/1
f 16/4/2 6/5/2 9/6/2
f 21/7/3 17/8/3 1/9/3
f 10/10/4 9/11/4 24/12/4
f 12/13/5 11/14/5 20/15/5
f 13/16/3 12/17/3 23/18/3
f 14/19/4 13/20/4 22/21/4
f 6/22/6 16/23/6 3/24/6
f 4/25/5 3/26/5 16/4/5
f 21/7/3 20/27/3 11/28/3
f 8/29/5 7/30/5 17/31/5
f 5/32/4 2/33/4 1/34/4
f 12/35/2 10/36/2 11/37/2
f 5/38/2 7/39/2 8/40/2
f 8/29/5 17/31/5 18/41/5
f 6/5/2 5/38/2 8/40/2
f 4/42/3 19/43/3 20/27/3
f 6/5/2 8/40/2 9/6/2
f 14/44/2 15/45/2 13/46/2
f 15/45/2 16/4/2 13/46/2
f 9/6/2 12/35/2 16/4/2
f 12/35/2 13/46/2 16/4/2
f 21/7/3 11/28/3 10/47/3
f 5/32/4 6/48/4 2/33/4
f 4/42/3 15/45/3 19/43/3
f 15/45/3 14/49/3 19/43/3
f 4/25/5 16/4/5 15/45/5
f 12/35/2 9/6/2 10/36/2
f 9/50/3 8/51/3 18/52/3
f 7/53/3 5/54/3 17/8/3
f 5/54/3 1/9/3 17/8/3
f 20/27/3 21/7/3 1/9/3
f 6/22/6 3/24/6 2/55/6
f 14/19/4 22/21/4 19/56/4
f 13/16/3 23/18/3 22/57/3
f 12/13/5 20/15/5 23/58/5
f 10/10/4 24/12/4 21/59/4
f 9/50/3 18/52/3 24/60/3
f 4/42/3 20/27/3 1/9/3
f 1/1/1 3/3/1 4/61/1
usemtl Glass.050
f 21/62/2 24/63/2 18/64/2
f 22/65/2 23/66/2 20/67/2
f 22/65/2 20/67/2 19/68/2
f 21/62/2 18/64/2 17/69/2
