# Blender v2.92.0 OBJ File: ''
# www.blender.org
mtllib Mesh1 Group1 Model.111.mtl
o Mesh1_Group1_Model.111
v -0.558234 0.205259 -0.500000
v -0.586104 0.196324 -0.500000
v -0.586104 0.196324 0.500000
v -0.558234 0.205259 0.500000
v -0.500000 0.212500 -0.500000
v -0.500000 0.000000 -0.500000
v -0.725000 0.000000 -0.500000
v -0.723075 0.027737 -0.500000
v -0.717333 0.054999 -0.500000
v -0.707873 0.081320 -0.500000
v -0.694856 0.106250 -0.500000
v -0.678505 0.129362 -0.500000
v -0.659099 0.150260 -0.500000
v -0.636971 0.168588 -0.500000
v -0.612500 0.184030 -0.500000
v -0.529368 0.210682 -0.500000
v -0.500000 0.212500 0.500000
v -0.500000 0.000000 0.500000
v 0.500000 0.212500 -0.500000
v 0.500000 0.000000 -0.500000
v 0.500000 0.212500 0.500000
v 0.500000 0.000000 0.500000
v -0.529368 0.210682 0.500000
v -0.612500 0.184030 0.500000
v -0.636971 0.168588 0.500000
v -0.659099 0.150260 0.500000
v -0.678505 0.129362 0.500000
v -0.694856 0.106250 0.500000
v -0.707873 0.081320 0.500000
v -0.717333 0.054999 0.500000
v -0.723075 0.027737 0.500000
v -0.725000 0.000000 0.500000
vt 2.292690 8.081070
vt 1.156240 8.294570
vt 0.000000 0.000000
vt -39.370098 0.283839
vt -39.370098 -0.868394
vt 0.000000 -0.868394
vt 8.858270 39.370098
vt 0.000000 39.370098
vt 0.000000 0.000000
vt -39.370098 0.481348
vt -39.370098 -0.613280
vt 0.000000 -0.613280
vt -8.556430 2.165320
vt -8.782480 1.092000
vt -39.370098 0.355423
vt -39.370098 -0.741440
vt 0.000000 -0.741440
vt -39.370098 0.244754
vt -39.370098 -0.856416
vt 0.000000 -0.856416
vt -39.370098 0.157231
vt -39.370098 -0.950000
vt 0.000000 -0.950000
vt -39.370098 0.098761
vt -39.370098 -1.015850
vt 0.000000 -1.015850
vt -39.370098 0.072895
vt -39.370098 -1.049890
vt 0.000000 -1.049890
vt -39.370098 0.080722
vt -39.370098 -1.050460
vt 0.000000 -1.050460
vt -39.370098 0.120986
vt -39.370098 -1.018250
vt 0.000000 -1.018250
vt -39.370098 0.190366
vt -39.370098 -0.956043
vt 0.000000 -0.956043
vt -39.370098 0.395084
vt -39.370098 -0.761248
vt 0.000000 -0.761248
vt -39.370098 0.516893
vt -39.370098 -0.641556
vt 0.000000 -0.641556
vt 39.370098 0.000000
vt 0.000000 8.366140
vt 0.000000 8.366140
vt 8.858270 0.000000
vt 8.782480 1.092000
vt 8.556430 2.165320
vt 8.183970 3.201580
vt 7.671480 4.183070
vt 7.027740 5.092980
vt 6.263740 5.915760
vt 5.392570 6.637310
vt 4.429130 7.245290
vt 3.389910 7.729310
vt 0.000000 0.516893
vt -8.858270 0.000000
vt -1.156240 8.294570
vt -2.292690 8.081070
vt -3.389910 7.729310
vt -4.429130 7.245290
vt -5.392570 6.637310
vt -6.263740 5.915760
vt -7.027740 5.092980
vt -7.671480 4.183070
vt -8.183970 3.201580
vt 0.000000 0.395084
vt 0.000000 0.190366
vt 0.000000 0.120986
vt 0.000000 0.080722
vt 0.000000 0.072895
vt 0.000000 0.098761
vt 0.000000 0.157231
vt 0.000000 0.244754
vt 0.000000 0.355423
vt 0.000000 0.481348
vt 8.858270 -0.000000
vt 39.370098 8.366140
vt 0.000000 0.283839
vt -39.370098 39.370098
vt -39.370098 0.000000
vt 39.370098 -0.000000
vt 39.370098 39.370098
vt -0.000000 39.370098
vt 39.370098 0.000000
vt 0.000000 8.366140
vt 0.000000 0.000000
vt 39.370098 0.000000
vt -39.370098 8.366140
vt -39.370098 0.000000
vt 39.370098 8.366140
vt 39.370098 8.366140
vt -0.000000 -0.000000
vn 0.0000 0.0000 -1.0000
vn -0.2454 0.9694 0.0000
vn -0.3645 0.9312 0.0000
vn 0.0000 -1.0000 -0.0000
vn -0.9904 0.1380 0.0000
vn -0.9976 0.0692 0.0000
vn 0.0000 0.0000 1.0000
vn -0.9621 0.2728 0.0000
vn -0.9159 0.4015 0.0000
vn -0.8533 0.5214 0.0000
vn -0.7763 0.6304 0.0000
vn -0.6868 0.7268 0.0000
vn -0.5870 0.8096 0.0000
vn -0.6868 0.7269 0.0000
vn -0.4789 0.8779 0.0000
vn -0.1234 0.9924 0.0000
vn -0.0618 0.9981 0.0000
vn -1.0000 0.0000 0.0000
vn 0.0000 1.0000 0.0000
vn 1.0000 0.0000 0.0000
usemtl Green.005
s 1
f 1/1/1 16/2/1 6/3/1
f 1/4/2 2/5/3 3/6/3
f 7/7/4 6/8/4 18/9/4
f 8/10/5 7/11/6 32/12/6
f 30/13/7 31/14/7 18/9/7
f 9/15/8 8/16/5 31/17/5
f 10/18/9 9/19/8 30/20/8
f 11/21/10 10/22/9 29/23/9
f 12/24/11 11/25/10 28/26/10
f 13/27/12 12/28/11 27/29/11
f 14/30/13 13/31/12 26/32/14
f 15/33/15 14/34/13 25/35/13
f 2/36/3 15/37/15 24/38/15
f 16/39/16 1/40/2 4/41/2
f 5/42/17 16/43/16 23/44/16
f 6/45/18 18/9/18 17/46/18
f 16/2/1 5/47/1 6/3/1
f 6/3/1 7/48/1 8/49/1
f 8/49/1 9/50/1 6/3/1
f 9/50/1 10/51/1 6/3/1
f 10/51/1 11/52/1 6/3/1
f 11/52/1 12/53/1 6/3/1
f 12/53/1 13/54/1 6/3/1
f 13/54/1 14/55/1 6/3/1
f 14/55/1 15/56/1 6/3/1
f 15/56/1 2/57/1 6/3/1
f 2/57/1 1/1/1 6/3/1
f 5/42/17 23/44/16 17/58/17
f 32/59/7 18/9/7 31/14/7
f 18/9/7 17/46/7 23/60/7
f 4/61/7 18/9/7 23/60/7
f 4/61/7 3/62/7 18/9/7
f 3/62/7 24/63/7 18/9/7
f 24/63/7 25/64/7 18/9/7
f 25/64/7 26/65/7 18/9/7
f 26/65/7 27/66/7 18/9/7
f 27/66/7 28/67/7 18/9/7
f 28/67/7 29/68/7 18/9/7
f 29/68/7 30/13/7 18/9/7
f 16/39/16 4/41/2 23/69/16
f 2/36/3 24/38/15 3/70/3
f 15/33/15 25/35/13 24/71/15
f 14/30/13 26/32/14 25/72/13
f 13/27/12 27/29/11 26/73/14
f 12/24/11 28/26/10 27/74/11
f 11/21/10 29/23/9 28/75/10
f 10/18/9 30/20/8 29/76/9
f 9/15/8 31/17/5 30/77/8
f 8/10/5 32/12/6 31/78/5
f 7/7/4 18/9/4 32/79/4
f 6/45/18 17/46/18 5/80/18
f 1/4/2 3/6/3 4/81/2
usemtl Dark_brick.018
f 6/8/4 20/82/4 22/83/4
f 21/84/19 19/85/19 5/86/19
f 17/46/7 18/9/7 22/87/7
f 21/88/20 22/89/20 20/90/20
f 19/91/1 20/92/1 6/3/1
f 19/91/1 6/3/1 5/47/1
f 21/88/20 20/90/20 19/93/20
f 17/46/7 22/87/7 21/94/7
f 21/84/19 5/86/19 17/95/19
f 6/8/4 22/83/4 18/9/4
