# Blender v2.92.0 OBJ File: ''
# www.blender.org
mtllib Mesh1 Group1 Model.190.mtl
o Mesh1_Group1_Model.190
v -0.450000 0.409315 0.359375
v -0.450000 0.394416 0.339959
v -0.500000 0.394416 0.339959
v -0.500000 0.409315 0.359375
v -0.450000 0.000000 0.312500
v -0.450000 0.324996 0.360242
v -0.450000 0.047742 0.360242
v -0.450000 0.047742 0.452258
v -0.450000 0.000000 0.500000
v -0.450000 0.328125 0.500000
v -0.450000 0.352389 0.496806
v -0.450000 0.375000 0.487440
v -0.450000 0.394416 0.472541
v -0.450000 0.409315 0.453125
v -0.450000 0.324996 0.452258
v -0.500000 0.047742 0.452258
v -0.500000 0.324996 0.452258
v -0.500000 0.409315 0.453125
v -0.500000 0.394416 0.472541
v -0.500000 0.375000 0.487440
v -0.500000 0.352389 0.496806
v -0.500000 0.000000 0.500000
v -0.500000 0.328125 0.500000
v -0.450000 0.418681 0.430514
v -0.500000 0.418681 0.430514
v -0.450000 0.339926 0.450293
v -0.500000 0.339926 0.450293
v -0.500000 0.350923 0.445738
v -0.500000 0.360366 0.438492
v -0.500000 0.367613 0.429048
v -0.500000 0.421875 0.406250
v -0.450000 0.421875 0.406250
v -0.450000 0.367613 0.429048
v -0.450000 0.360366 0.438492
v -0.450000 0.350923 0.445738
v -0.500000 0.372168 0.418051
v -0.450000 0.372168 0.418051
v -0.500000 0.373721 0.406250
v -0.500000 0.418681 0.381986
v -0.450000 0.418681 0.381986
v -0.450000 0.372168 0.394449
v -0.450000 0.373721 0.406250
v -0.500000 0.372168 0.394449
v -0.500000 0.367613 0.383452
v -0.500000 0.360366 0.374009
v -0.450000 0.360366 0.374009
v -0.450000 0.367613 0.383452
v -0.500000 0.350923 0.366762
v -0.450000 0.350923 0.366762
v -0.500000 0.339926 0.362207
v -0.500000 0.324996 0.360242
v -0.500000 0.047742 0.360242
v -0.500000 0.000000 0.312500
v -0.450000 0.328125 0.312500
v -0.500000 0.328125 0.312500
v -0.450000 0.352389 0.315694
v -0.450000 0.375000 0.325060
v -0.500000 0.375000 0.325060
v -0.500000 0.352389 0.315694
v -0.450000 0.339926 0.362207
vt 5.536420 16.114799
vt 7.381890 0.000000
vt 6.300840 15.528200
vt 5.502300 12.795100
vt 5.502300 1.879590
vt 1.879590 1.879590
vt 0.000000 0.000000
vt 0.000000 12.918300
vt 0.125766 13.873600
vt 0.494493 14.763800
vt 1.081050 15.528200
vt 1.845470 16.114799
vt 1.879590 12.795100
vt -1.968500 5.417710
vt -1.968500 4.454180
vt 0.000000 4.454180
vt -1.879590 1.879590
vt -1.845470 16.114799
vt -1.879590 12.795100
vt -1.081050 15.528200
vt -0.494493 14.763800
vt -0.125766 13.873600
vt 0.000000 0.000000
vt 0.000000 12.918300
vt -4.155560 14.652300
vt -3.690940 14.713400
vt -3.690940 16.609301
vt 0.000000 10.756800
vt 0.000000 10.288200
vt 1.968500 10.288200
vt 0.000000 12.560300
vt 0.000000 11.967500
vt 1.968500 11.967500
vt 0.000000 12.795100
vt 0.000000 1.879590
vt 1.968500 1.879590
vt 0.000000 5.502300
vt 0.000000 1.879590
vt 1.968500 1.879590
vt -1.968500 12.807800
vt -1.968500 11.844300
vt 0.000000 11.844300
vt 1.956980 13.382900
vt 2.735660 16.483500
vt -1.968500 11.004300
vt -1.968500 10.040700
vt 0.000000 10.040700
vt -1.956980 13.382900
vt -2.735660 16.483500
vt -2.136320 13.815900
vt -2.421600 14.187700
vt -2.793380 14.472900
vt -5.536420 16.114799
vt -4.588510 14.472900
vt -4.646230 16.483500
vt -1.968500 8.483640
vt -1.968500 7.520110
vt 0.000000 7.520110
vt -3.226330 14.652300
vt 2.421600 14.187700
vt 2.793380 14.472900
vt 2.136320 13.815900
vt -1.968500 12.918300
vt -1.968500 0.000000
vt 0.000000 0.000000
vt -1.968500 7.381890
vt -1.968500 0.000000
vt 0.000000 8.236190
vt 0.000000 7.767570
vt 1.968500 7.767570
vt 0.000000 5.170260
vt 0.000000 4.701630
vt 1.968500 4.701630
vt 3.226330 14.652300
vt 3.690940 16.609301
vt 4.155560 14.652300
vt 4.646230 16.483500
vt 0.000000 1.767950
vt 0.000000 1.299320
vt 1.968500 1.299320
vt 0.000000 12.795100
vt -1.968500 12.795100
vt 3.690940 14.713400
vt 4.588510 14.472900
vt 4.960290 14.187700
vt -1.968500 2.015400
vt -1.968500 1.051870
vt 0.000000 1.051870
vt 0.000000 -1.738880
vt 0.000000 -2.207500
vt 1.968500 -2.207500
vt 1.968500 0.000000
vt 1.968500 12.918300
vt 0.000000 5.111230
vt 0.000000 5.579860
vt -1.968500 5.579860
vt -4.960290 14.187700
vt -1.968500 -1.491430
vt -1.968500 -2.454960
vt 0.000000 -2.454960
vt 0.000000 8.119300
vt 0.000000 8.587920
vt -1.968500 8.587920
vt 0.000000 10.558100
vt 0.000000 11.026700
vt -1.968500 11.026700
vt -5.245570 13.815900
vt -5.424910 13.382900
vt -5.502300 12.795100
vt -5.502300 1.879590
vt -7.381890 0.000000
vt 0.000000 12.261400
vt 0.000000 12.730000
vt -1.968500 12.730000
vt 0.000000 13.113100
vt 0.000000 13.581700
vt -1.968500 13.581700
vt 7.256120 13.873600
vt 7.381890 12.918300
vt 6.887400 14.763800
vt 1.968500 4.863780
vt 1.968500 5.827310
vt 0.000000 5.827310
vt 0.000000 12.931000
vt 0.000000 13.523900
vt -1.968500 13.523900
vt 1.968500 7.871850
vt 1.968500 8.835380
vt 0.000000 8.835380
vt -7.256120 13.873600
vt -7.381890 12.918300
vt -6.887400 14.763800
vt -6.300840 15.528200
vt 1.968500 10.310600
vt 1.968500 11.274200
vt 0.000000 11.274200
vt 1.968500 12.013900
vt 1.968500 12.977500
vt 0.000000 12.977500
vt 1.968500 12.865700
vt 1.968500 13.829200
vt 0.000000 13.829200
vt 5.424910 13.382900
vt 5.245570 13.815900
vt 1.968500 12.807800
vt 1.968500 13.771300
vt 0.000000 13.771300
vt -1.968500 1.879590
vt 0.000000 12.807800
vt 0.000000 12.865700
vt 0.000000 12.013900
vt 0.000000 10.310600
vt 0.000000 7.871850
vt -1.968500 12.931000
vt 0.000000 4.863780
vt -1.968500 13.113100
vt -1.968500 12.261400
vt -1.968500 10.558100
vt -1.968500 8.119300
vt 0.000000 -1.491430
vt -1.968500 5.111230
vt 1.968500 -1.738880
vt 0.000000 2.015400
vt 1.968500 1.767950
vt 1.968500 5.170260
vt 1.968500 8.236190
vt 0.000000 7.381890
vt 0.000000 12.918300
vt 0.000000 8.483640
vt 0.000000 11.004300
vt 0.000000 12.807800
vt 1.968500 5.502300
vt 1.968500 12.795100
vt 1.968500 12.560300
vt 1.968500 10.756800
vt 0.000000 5.417710
vn 1.0000 -0.0000 0.0000
vn 0.0000 0.8660 -0.5000
vn 0.0000 0.7071 -0.7071
vn -1.0000 0.0000 0.0000
vn 0.0000 -0.5000 0.8660
vn 0.0000 -0.2588 0.9659
vn 0.0000 -0.1305 0.9914
vn 0.0000 0.0000 1.0000
vn 0.0000 1.0000 0.0000
vn 0.0000 0.2588 -0.9659
vn 0.0000 0.1305 -0.9914
vn 0.0000 0.5000 -0.8660
vn 0.0000 0.0000 -1.0000
vn 0.0000 -1.0000 -0.0000
vn 0.0000 -0.7071 0.7071
vn 0.0000 -0.8660 0.5000
vn 0.0000 -0.9659 0.2588
vn 0.0000 0.9659 -0.2588
vn 0.0000 -0.9659 -0.2588
vn 0.0000 -0.8660 -0.5000
vn 0.0000 -0.7071 -0.7071
vn 0.0000 -0.5000 -0.8660
vn 0.0000 -0.2588 -0.9659
vn 0.0000 0.9659 0.2588
vn 0.0000 -0.1305 -0.9914
vn 0.0000 0.8660 0.5000
vn 0.0000 0.7071 0.7071
vn 0.0000 0.5000 0.8660
vn 0.0000 0.2588 0.9659
vn 0.0000 0.1305 0.9914
usemtl Metal.025
s 1
f 1/1/1 5/2/1 2/3/1
f 6/4/1 5/2/1 1/1/1
f 7/5/1 5/2/1 6/4/1
f 8/6/1 5/2/1 7/5/1
f 8/6/1 9/7/1 5/2/1
f 9/7/1 8/6/1 10/8/1
f 10/8/1 8/6/1 11/9/1
f 11/9/1 8/6/1 12/10/1
f 12/10/1 8/6/1 13/11/1
f 13/11/1 8/6/1 14/12/1
f 14/12/1 8/6/1 15/13/1
f 1/14/2 2/15/3 3/16/3
f 16/17/4 18/18/4 17/19/4
f 16/17/4 19/20/4 18/18/4
f 16/17/4 20/21/4 19/20/4
f 16/17/4 21/22/4 20/21/4
f 22/23/4 21/22/4 16/17/4
f 21/22/4 22/23/4 23/24/4
f 43/25/4 38/26/4 31/27/4
f 48/28/5 50/29/6 60/30/6
f 50/31/6 51/32/7 6/33/7
f 51/34/8 52/35/8 7/36/8
f 52/37/9 16/38/9 8/39/9
f 56/40/10 54/41/11 55/42/11
f 14/12/1 26/43/1 24/44/1
f 26/43/1 14/12/1 15/13/1
f 57/45/12 56/46/10 59/47/10
f 18/18/4 27/48/4 17/19/4
f 27/48/4 18/18/4 25/49/4
f 27/48/4 25/49/4 28/50/4
f 28/50/4 25/49/4 29/51/4
f 29/51/4 25/49/4 30/52/4
f 4/53/4 44/54/4 39/55/4
f 2/56/3 57/57/12 58/58/12
f 36/59/4 25/49/4 31/27/4
f 24/44/1 34/60/1 33/61/1
f 24/44/1 35/62/1 34/60/1
f 24/44/1 26/43/1 35/62/1
f 54/63/13 5/64/13 53/65/13
f 5/66/14 9/67/14 22/23/14
f 45/68/15 48/69/5 49/70/5
f 44/71/16 45/72/15 46/73/15
f 37/74/1 32/75/1 24/44/1
f 36/59/4 31/27/4 38/26/4
f 32/75/1 41/76/1 40/77/1
f 43/78/17 44/79/16 47/80/16
f 37/74/1 24/44/1 33/61/1
f 16/38/13 17/81/13 15/82/13
f 32/75/1 37/74/1 42/83/1
f 47/84/1 46/85/1 1/1/1
f 40/86/18 1/87/2 4/88/2
f 38/89/14 43/90/17 41/91/17
f 9/92/8 10/93/8 23/24/8
f 43/25/4 39/55/4 44/54/4
f 47/84/1 1/1/1 40/77/1
f 32/75/1 42/83/1 41/76/1
f 36/94/19 38/95/14 42/96/14
f 4/53/4 45/97/4 44/54/4
f 36/59/4 30/52/4 25/49/4
f 40/77/1 41/76/1 47/84/1
f 32/98/9 40/99/18 39/100/18
f 30/101/20 36/102/19 37/103/19
f 29/104/21 30/105/20 33/106/20
f 45/97/4 4/53/4 48/107/4
f 48/107/4 4/53/4 50/108/4
f 50/108/4 4/53/4 51/109/4
f 51/109/4 4/53/4 52/110/4
f 53/111/4 52/110/4 4/53/4
f 53/111/4 16/17/4 52/110/4
f 22/23/4 16/17/4 53/111/4
f 28/112/22 29/113/21 34/114/21
f 27/115/23 28/116/22 35/117/22
f 56/118/1 5/2/1 54/119/1
f 57/120/1 5/2/1 56/118/1
f 2/3/1 5/2/1 57/120/1
f 24/121/24 32/122/9 31/123/9
f 17/124/25 27/125/23 26/126/23
f 14/127/26 24/128/24 25/129/24
f 53/111/4 59/130/4 55/131/4
f 53/111/4 58/132/4 59/130/4
f 53/111/4 3/133/4 58/132/4
f 53/111/4 4/53/4 3/133/4
f 13/134/27 14/135/26 18/136/26
f 12/137/28 13/138/27 19/139/27
f 11/140/29 12/141/28 20/142/28
f 1/1/1 60/143/1 6/4/1
f 1/1/1 49/144/1 60/143/1
f 1/1/1 46/85/1 49/144/1
f 10/145/30 11/146/29 21/147/29
f 16/38/13 15/82/13 8/148/13
f 9/92/8 23/24/8 22/23/8
f 10/145/30 21/147/29 23/149/30
f 11/140/29 20/142/28 21/150/29
f 12/137/28 19/139/27 20/151/28
f 13/134/27 18/136/26 19/152/27
f 14/127/26 25/129/24 18/153/26
f 17/124/25 26/126/23 15/154/25
f 24/121/24 31/123/9 25/155/24
f 27/115/23 35/117/22 26/156/23
f 28/112/22 34/114/21 35/157/22
f 29/104/21 33/106/20 34/158/21
f 30/101/20 37/103/19 33/159/20
f 32/98/9 39/100/18 31/160/9
f 36/94/19 42/96/14 37/161/19
f 38/89/14 41/91/17 42/162/14
f 40/86/18 4/88/2 39/163/18
f 43/78/17 47/80/16 41/164/17
f 44/71/16 46/73/15 47/165/16
f 45/68/15 49/70/5 46/166/15
f 5/66/14 22/23/14 53/167/14
f 54/63/13 53/65/13 55/168/13
f 2/56/3 58/58/12 3/169/3
f 57/45/12 59/47/10 58/170/12
f 56/40/10 55/42/11 59/171/10
f 52/37/9 8/39/9 7/172/9
f 51/34/8 7/36/8 6/173/8
f 50/31/6 6/33/7 60/174/6
f 48/28/5 60/30/6 49/175/5
f 43/25/4 31/27/4 39/55/4
f 1/14/2 3/16/3 4/176/2
