# Blender v2.92.0 OBJ File: ''
# www.blender.org
mtllib Mesh1 Group1 Model.123.mtl
o Mesh1_Group1_Model.123
v -0.500000 0.712500 0.125000
v -0.500000 0.712500 -0.125000
v -0.400000 0.712500 -0.125000
v -0.400000 0.712500 0.125000
v -0.500000 0.837500 -0.500000
v -0.500000 0.712500 0.218750
v -0.500000 0.712500 0.406250
v -0.500000 0.837500 0.500000
v -0.500000 0.212500 0.500000
v -0.500000 0.290625 0.406250
v -0.500000 0.212500 0.125000
v -0.500000 0.290625 0.218750
v -0.400000 0.290625 0.406250
v -0.400000 0.290625 0.218750
v -0.400000 0.712500 0.406250
v -0.400000 0.712500 0.218750
v -0.400000 0.212500 0.125000
v -0.400000 0.212500 -0.125000
v -0.500000 0.212500 -0.125000
v -0.500000 0.712500 -0.218750
v -0.500000 0.712500 -0.406250
v -0.500000 0.290625 -0.406250
v -0.500000 0.212500 -0.500000
v -0.500000 0.290625 -0.218750
v -0.400000 0.712500 -0.218750
v -0.400000 0.290625 -0.218750
v -0.400000 0.712500 -0.406250
v -0.400000 0.290625 -0.406250
v -0.500000 0.000000 -0.500000
v -0.500000 0.000000 -0.125000
v 0.500000 0.000000 0.500000
v -0.500000 0.000000 0.500000
v -0.500000 0.000000 0.125000
v -0.700000 0.000000 0.125000
v -0.700000 0.000000 -0.125000
v 0.500000 0.000000 -0.500000
v 0.500000 0.212500 0.500000
v 0.500000 0.212500 -0.500000
v 0.500000 0.837500 -0.500000
v 0.500000 0.837500 0.500000
v -0.600000 0.212500 0.125000
v -0.600000 0.106250 0.125000
v -0.700000 0.106250 0.125000
v -0.600000 0.212500 -0.125000
v -0.600000 0.106250 -0.125000
v -0.700000 0.106250 -0.125000
vt -14.763800 28.051201
vt -39.370098 32.972401
vt -24.606300 28.051201
vt -11.072800 28.051201
vt -3.690940 28.051201
vt 0.000000 32.972401
vt 0.000000 8.366140
vt -3.690940 11.441900
vt -14.763800 8.366140
vt -11.072800 11.441900
vt 0.000000 14.763800
vt 0.000000 24.606300
vt -3.937010 24.606300
vt -28.297199 11.441900
vt -28.297199 28.051201
vt 0.000000 11.441900
vt 0.000000 28.051201
vt -3.937010 28.051201
vt -24.606300 8.366140
vt -35.679100 28.051201
vt -35.679100 11.441900
vt -39.370098 8.366140
vt 0.000000 11.072800
vt 0.000000 3.690940
vt 3.937010 3.690940
vt 39.370098 8.366140
vt 39.370098 32.972401
vt 0.000000 32.972401
vt 39.370098 8.366140
vt 39.370098 32.972401
vt -0.000000 39.370098
vt -0.000000 0.000000
vt 39.370098 0.000000
vt 0.000000 8.366140
vt 0.000000 32.972401
vt -39.370098 32.972401
vt 0.000000 35.679100
vt 0.000000 28.297199
vt 3.937010 28.297199
vt 0.000000 28.051201
vt 0.000000 11.441900
vt 3.937010 11.441900
vt 0.000000 28.297199
vt 0.000000 35.679100
vt -3.937010 35.679100
vt 0.000000 11.441900
vt 0.000000 28.051201
vt -3.937010 28.051201
vt 0.000000 28.051201
vt 0.000000 8.366140
vt 3.937010 8.366140
vt 0.000000 8.366140
vt 0.000000 28.051201
vt -3.937010 28.051201
vt 0.000000 28.051201
vt 0.000000 11.441900
vt 3.937010 11.441900
vt 3.937010 11.072800
vt -3.937010 11.441900
vt 0.000000 3.690940
vt -3.937010 11.072800
vt -3.937010 3.690940
vt 3.937010 28.051201
vt -3.937010 8.366140
vt 3.937010 28.051201
vt -3.937010 11.441900
vt -3.937010 28.297199
vt 3.937010 28.051201
vt 3.937010 35.679100
vt 0.000000 11.072800
vt -39.370098 8.366140
vt 39.370098 39.370098
vt 0.000000 8.366140
vt -3.937010 14.763800
vt -3.690940 28.051201
vt -11.072800 28.051201
vt -11.072800 11.441900
vt -28.297199 28.051201
vt -35.679100 28.051201
vt -35.679100 11.441900
vt -14.763800 28.051201
vt -24.606300 8.366140
vt -14.763800 8.366140
vt -28.297199 11.441900
vt -3.690940 11.441900
vt -24.606300 28.051201
vt -39.370098 0.000000
vt 0.000000 0.000000
vt 0.000000 14.763800
vt 0.000000 14.763800
vt 0.000000 24.606300
vt -3.937010 24.606300
vt 3.937010 14.763800
vt 3.937010 24.606300
vt -3.937010 14.763800
vt -3.937010 24.606300
vt -7.874020 24.606300
vt -14.763800 0.000000
vt -14.763800 4.183070
vt -24.606300 4.183070
vt -24.606300 8.366140
vt -24.606300 4.183070
vt -14.763800 4.183070
vt -14.763800 0.000000
vt 0.000000 24.606300
vt -39.370098 39.370098
vt 39.370098 0.000000
vt 39.370098 0.000000
vt 7.874020 14.763800
vt -39.370098 0.000000
vt -24.606300 0.000000
vt 0.000000 0.000000
vt -3.937010 4.183070
vt 7.874020 0.000000
vt 7.874020 4.183070
vt 3.937010 4.183070
vt 7.874020 24.606300
vt 0.000000 39.370098
vt 0.000000 0.000000
vt 0.000000 0.000000
vt -39.370098 0.000000
vt -14.763800 8.366140
vt -3.937010 8.366140
vt -7.874020 4.183070
vt -7.874020 0.000000
vt -24.606300 0.000000
vt 3.937010 8.366140
vt 0.000000 0.000000
vt -7.874020 14.763800
vt -3.937010 14.763800
vn -1.0000 0.0000 0.0000
vn 0.0000 -1.0000 0.0000
vn 0.0000 0.0000 -1.0000
vn 0.0000 1.0000 0.0000
vn 1.0000 0.0000 0.0000
vn 0.0000 -0.0000 1.0000
usemtl Brick.086
s 1
f 1/1/1 5/2/1 2/3/1
f 6/4/1 5/2/1 1/1/1
f 7/5/1 5/2/1 6/4/1
f 7/5/1 8/6/1 5/2/1
f 8/6/1 7/5/1 9/7/1
f 10/8/1 9/7/1 7/5/1
f 9/7/1 10/8/1 11/9/1
f 11/9/1 10/8/1 12/10/1
f 1/11/2 2/12/2 3/13/2
f 24/14/1 2/3/1 20/15/1
f 10/16/3 7/17/3 15/18/3
f 24/14/1 19/19/1 2/3/1
f 2/3/1 5/2/1 20/15/1
f 20/15/1 5/2/1 21/20/1
f 21/20/1 5/2/1 22/21/1
f 23/22/1 22/21/1 5/2/1
f 23/22/1 24/14/1 22/21/1
f 19/19/1 24/14/1 23/22/1
f 12/23/4 10/24/4 13/25/4
f 38/26/5 39/27/5 40/28/5
f 37/29/6 40/30/6 8/6/6
f 5/31/4 8/32/4 40/33/4
f 23/34/3 5/35/3 39/36/3
f 12/10/1 6/4/1 1/1/1
f 22/37/4 24/38/4 26/39/4
f 21/40/6 22/41/6 28/42/6
f 20/43/2 21/44/2 27/45/2
f 24/46/3 20/47/3 25/48/3
f 2/49/6 19/50/6 18/51/6
f 11/52/3 1/53/3 4/54/3
f 6/55/6 12/56/6 14/57/6
f 12/23/4 13/25/4 14/58/4
f 10/16/3 15/18/3 13/59/3
f 7/60/2 16/61/2 15/62/2
f 6/55/6 14/57/6 16/63/6
f 11/52/3 4/54/3 17/64/3
f 2/49/6 18/51/6 3/65/6
f 24/46/3 25/48/3 26/66/3
f 20/43/2 27/45/2 25/67/2
f 21/40/6 28/42/6 27/68/6
f 22/37/4 26/39/4 28/69/4
f 12/10/1 1/1/1 11/9/1
f 7/60/2 6/70/2 16/61/2
f 23/34/3 39/36/3 38/71/3
f 5/31/4 40/33/4 39/72/4
f 37/29/6 8/6/6 9/7/6
f 38/26/5 40/28/5 37/73/5
f 1/11/2 3/13/2 4/74/2
usemtl Glass.046
f 15/75/1 16/76/1 14/77/1
f 25/78/1 27/79/1 28/80/1
f 4/81/1 18/82/1 17/83/1
f 25/78/1 28/80/1 26/84/1
f 15/75/1 14/77/1 13/85/1
f 4/81/1 3/86/1 18/82/1
usemtl Dark_brick.022
f 31/87/2 32/88/2 33/89/2
f 11/90/4 19/91/4 44/92/4
f 17/93/4 18/94/4 19/91/4
f 42/95/4 45/96/4 46/97/4
f 34/98/1 43/99/1 46/100/1
f 44/101/1 45/102/1 42/103/1
f 9/7/1 11/9/1 33/104/1
f 33/89/2 30/105/2 36/106/2
f 36/107/5 38/26/5 37/73/5
f 31/108/6 37/29/6 9/7/6
f 30/105/2 33/89/2 34/109/2
f 29/110/1 30/111/1 19/19/1
f 33/112/6 11/52/6 42/113/6
f 35/114/3 46/115/3 45/116/3
f 29/110/1 19/19/1 23/22/1
f 30/105/2 34/109/2 35/117/2
f 31/108/6 9/7/6 32/88/6
f 30/105/2 29/118/2 36/106/2
f 29/119/3 23/34/3 38/71/3
f 36/107/5 37/73/5 31/120/5
f 29/119/3 38/71/3 36/121/3
f 9/7/1 33/104/1 32/88/1
f 44/101/1 42/103/1 41/122/1
f 11/52/6 41/123/6 42/113/6
f 42/113/6 43/124/6 34/125/6
f 34/125/6 33/112/6 42/113/6
f 34/98/1 46/100/1 35/126/1
f 44/127/3 19/50/3 45/116/3
f 19/50/3 30/128/3 45/116/3
f 30/128/3 35/114/3 45/116/3
f 42/95/4 46/97/4 43/129/4
f 17/93/4 19/91/4 11/90/4
f 11/90/4 44/92/4 41/130/4
f 31/87/2 33/89/2 36/106/2
