# Blender v2.92.0 OBJ File: ''
# www.blender.org
mtllib Mesh1 Group1 Model.148.mtl
o Mesh1_Group1_Model.148
v -0.500000 0.625000 -0.500000
v -0.500000 0.625000 0.000000
v -0.360485 0.625000 0.139515
v -0.289775 0.625000 0.068804
v -0.068804 0.625000 0.289775
v -0.139515 0.625000 0.360485
v 0.000000 0.625000 0.500000
v 0.500000 0.625000 0.500000
v 0.500000 0.625000 -0.500000
v -0.500000 0.000000 -0.500000
v -0.500000 0.000000 0.000000
v 0.500000 0.000000 0.500000
v 0.000000 0.000000 0.500000
v -0.139515 0.000000 0.360485
v -0.068804 0.000000 0.289775
v -0.289775 0.000000 0.068804
v -0.360485 0.000000 0.139515
v 0.500000 0.000000 -0.500000
vt 16.976200 8.276580
vt 39.370098 0.000000
vt 39.370098 39.370098
vt -8.276580 16.976200
vt 0.000000 39.370098
vt -39.370098 39.370098
vt -39.370098 -0.000000
vt -19.684999 0.000000
vt -19.684999 24.606300
vt 0.000000 0.000000
vt 0.000000 24.606300
vt -39.370098 24.606300
vt 39.370098 0.000000
vt 39.370098 24.606300
vt 0.000000 24.606300
vt -6.151570 0.000000
vt -6.151570 24.606300
vt -13.919400 24.606300
vt 13.919400 24.606300
vt 13.919400 0.000000
vt 17.856400 0.000000
vt -13.919400 0.000000
vt -13.919400 24.606300
vt -17.856400 24.606300
vt 13.919400 24.606300
vt 6.151570 24.606300
vt 6.151570 0.000000
vt -0.000000 39.370098
vt 8.276580 16.976200
vt -0.000000 19.684999
vt 5.492700 14.192300
vt 14.192300 5.492700
vt 19.684999 0.000000
vt 19.684999 24.606300
vt 39.370098 0.000000
vt 39.370098 24.606300
vt -39.370098 -0.000000
vt -16.976200 8.276580
vt -19.684999 -0.000000
vt -14.192300 5.492700
vt -5.492700 14.192300
vt 0.000000 19.684999
vt 13.919400 0.000000
vt -17.856400 0.000000
vt 17.856400 24.606300
vt -13.919400 0.000000
vt 0.000000 0.000000
vt -39.370098 0.000000
vt 19.684999 0.000000
vt -39.370098 24.606300
vt 6.151570 24.606300
vt -6.151570 24.606300
vt -6.151570 0.000000
vt 6.151570 0.000000
vn 0.0000 1.0000 0.0000
vn -0.0000 -1.0000 -0.0000
vn -1.0000 0.0000 0.0000
vn 0.0000 0.0000 -1.0000
vn 1.0000 0.0000 0.0000
vn -0.7071 0.0000 0.7071
vn 0.7071 -0.0000 0.7071
vn -0.7071 0.0000 -0.7071
vn 0.0000 0.0000 1.0000
usemtl Brick.110
s 1
f 5/1/1 8/2/1 9/3/1
f 16/4/2 10/5/2 18/6/2
f 10/7/3 11/8/3 2/9/3
f 10/10/4 1/11/4 9/12/4
f 18/13/5 9/14/5 8/15/5
f 17/16/6 3/17/6 2/18/6
f 3/19/7 17/20/7 16/21/7
f 14/22/8 6/23/8 5/24/8
f 7/25/6 6/26/6 14/27/6
f 9/3/1 1/28/1 4/29/1
f 1/28/1 2/30/1 4/29/1
f 2/30/1 3/31/1 4/29/1
f 5/1/1 6/32/1 7/33/1
f 5/1/1 7/33/1 8/2/1
f 9/3/1 4/29/1 5/1/1
f 7/34/9 12/35/9 8/36/9
f 18/6/2 12/37/2 15/38/2
f 12/37/2 13/39/2 15/38/2
f 13/39/2 14/40/2 15/38/2
f 16/4/2 17/41/2 11/42/2
f 16/4/2 11/42/2 10/5/2
f 18/6/2 15/38/2 16/4/2
f 7/25/6 14/27/6 13/43/6
f 14/22/8 5/24/8 15/44/8
f 3/19/7 16/21/7 4/45/7
f 17/16/6 2/18/6 11/46/6
f 18/13/5 8/15/5 12/47/5
f 10/10/4 9/12/4 18/48/4
f 7/34/9 13/49/9 12/35/9
f 10/7/3 2/9/3 1/50/3
usemtl Glass.064
f 5/51/6 4/52/6 16/53/6
f 5/51/6 16/53/6 15/54/6
