# Blender v2.92.0 OBJ File: ''
# www.blender.org
mtllib Mesh1 Group1 Model.106.mtl
o Mesh1_Group1_Model.106
v -0.375000 0.106250 0.000000
v -0.375000 0.106250 -0.500000
v -0.375000 0.212500 -0.500000
v -0.375000 0.212500 0.000000
v 0.500000 0.106250 0.375000
v 0.500000 0.106250 -0.375000
v 0.375000 0.106250 -0.375000
v 0.375000 0.106250 -0.500000
v 0.000000 0.106250 0.375000
v 0.500000 0.000000 0.500000
v 0.500000 0.000000 -0.500000
v 0.500000 0.212500 -0.500000
v 0.500000 0.212500 -0.375000
v 0.500000 0.212500 0.375000
v 0.500000 0.212500 0.500000
v 0.000000 0.000000 0.500000
v -0.500000 0.000000 0.000000
v -0.500000 0.000000 -0.500000
v 0.000000 0.212500 0.500000
v 0.000000 0.212500 0.375000
v -0.500000 0.212500 -0.500000
v -0.500000 0.212500 0.000000
v 0.375000 0.212500 -0.500000
v 0.375000 0.212500 -0.375000
vt 4.921260 19.684999
vt 19.684999 4.921260
vt 34.448799 34.448799
vt -0.000000 -0.000000
vt 39.370098 -0.000000
vt 4.921260 4.183070
vt 0.000000 19.684999
vt 0.000000 39.370098
vt -39.370098 39.370098
vt 19.684999 4.183070
vt 39.370098 4.183070
vt 39.370098 8.366140
vt 4.921260 19.684999
vt 0.000000 19.684999
vt 19.684999 0.000000
vt -39.370098 -0.000000
vt -19.684999 0.000000
vt -19.684999 8.366140
vt 39.370098 39.370098
vt 34.448799 39.370098
vt 34.448799 34.448799
vt -34.448799 4.183070
vt -39.370098 -0.000000
vt 0.000000 -0.000000
vt 34.448799 4.183070
vt 39.370098 4.183070
vt 39.370098 8.366140
vt -39.370098 4.183070
vt -34.448799 4.183070
vt -34.448799 8.366140
vt -10.439600 4.183070
vt 10.439600 4.183070
vt 10.439600 8.366140
vt -19.684999 4.183070
vt -19.684999 8.366140
vt -39.370098 8.366140
vt 4.921260 39.370098
vt 0.000000 39.370098
vt 39.370098 8.366140
vt 19.684999 0.000000
vt 39.370098 0.000000
vt 4.921260 39.370098
vt 34.448799 39.370098
vt 19.684999 4.921260
vt 39.370098 0.000000
vt 19.684999 8.366140
vt 39.370098 8.366140
vt 34.448799 4.183070
vt 34.448799 8.366140
vt 4.921260 8.366140
vt -0.000000 8.366140
vt -39.370098 -0.000000
vt -19.684999 -0.000000
vt 39.370098 4.921260
vt 39.370098 4.921260
vt 39.370098 34.448799
vt -39.370098 4.183070
vt 13.919400 8.366140
vt -13.919400 8.366140
vt -13.919400 0.000000
vt -10.439600 8.366140
vt -39.370098 8.366140
vt -34.448799 8.366140
vt -39.370098 8.366140
vt 0.000000 8.366140
vt -4.921260 4.183070
vt -4.921260 8.366140
vt 34.448799 8.366140
vt 39.370098 34.448799
vt -39.370098 8.366140
vt 13.919400 0.000000
vt 19.684999 8.366140
vn 0.0000 1.0000 0.0000
vn 1.0000 0.0000 0.0000
vn -0.0000 -1.0000 -0.0000
vn -1.0000 0.0000 0.0000
vn 0.0000 0.0000 -1.0000
vn 0.0000 0.0000 1.0000
vn 0.7071 0.0000 -0.7071
vn -0.7071 -0.0000 0.7071
usemtl Brick.073
s 1
f 1/1/1 9/2/1 7/3/1
f 10/4/2 11/5/2 5/6/2
f 17/7/3 18/8/3 11/9/3
f 1/10/2 2/11/2 3/12/2
f 4/13/1 22/14/1 19/15/1
f 18/16/4 17/17/4 22/18/4
f 12/19/1 23/20/1 24/21/1
f 8/22/5 11/23/5 18/24/5
f 7/25/6 6/26/6 13/27/6
f 8/28/4 7/29/4 24/30/4
f 9/31/7 1/32/7 4/33/7
f 9/34/5 20/35/5 14/36/5
f 3/37/1 21/38/1 22/14/1
f 15/39/6 16/40/6 10/41/6
f 2/42/1 7/3/1 8/43/1
f 20/44/1 19/15/1 15/45/1
f 15/39/6 19/46/6 16/40/6
f 2/42/1 1/1/1 7/3/1
f 11/5/2 12/47/2 6/48/2
f 12/47/2 13/49/2 6/48/2
f 14/50/2 15/51/2 5/6/2
f 15/51/2 10/4/2 5/6/2
f 11/5/2 6/48/2 5/6/2
f 11/9/3 10/52/3 16/53/3
f 16/53/3 17/7/3 11/9/3
f 20/44/1 15/45/1 14/54/1
f 3/37/1 22/14/1 4/13/1
f 5/55/1 6/56/1 7/3/1
f 9/34/5 14/36/5 5/57/5
f 19/15/1 20/44/1 4/13/1
f 19/58/8 22/59/8 17/60/8
f 9/31/7 4/33/7 20/61/7
f 8/28/4 24/30/4 23/62/4
f 8/22/5 23/63/5 12/64/5
f 18/24/5 21/65/5 2/66/5
f 21/65/5 3/67/5 2/66/5
f 8/22/5 12/64/5 11/23/5
f 18/24/5 2/66/5 8/22/5
f 7/25/6 13/27/6 24/68/6
f 12/19/1 24/21/1 13/69/1
f 18/16/4 22/18/4 21/70/4
f 19/58/8 17/60/8 16/71/8
f 5/55/1 7/3/1 9/2/1
f 1/10/2 3/12/2 4/72/2
