# Blender v2.92.0 OBJ File: ''
# www.blender.org
mtllib Mesh1 Group1 Model.154.mtl
o Mesh1_Group1_Model.154
v -0.500000 0.000000 0.500000
v -0.500000 0.625000 0.500000
v -0.500000 0.625000 -0.500000
v -0.500000 0.000000 -0.500000
v -0.500000 0.000000 -0.125000
v -0.500000 0.500000 -0.125000
v -0.500000 0.500000 0.125000
v -0.500000 0.000000 0.125000
v 0.500000 0.000000 0.500000
v 0.500000 0.625000 0.500000
v 0.500000 0.000000 -0.500000
v 0.500000 0.625000 -0.500000
v -0.400000 0.000000 0.125000
v -0.400000 0.000000 -0.125000
v -0.400000 0.500000 0.125000
v -0.400000 0.500000 -0.125000
vt 0.000000 24.606300
vt -39.370098 24.606300
vt -14.763800 19.684999
vt 39.370098 0.000000
vt 39.370098 24.606300
vt 0.000000 0.000000
vt -3.937010 24.606300
vt -39.370098 39.370098
vt -39.370098 0.000000
vt 0.000000 19.684999
vt 0.000000 0.000000
vt 3.937010 0.000000
vt 0.000000 14.763800
vt 0.000000 24.606300
vt -3.937010 24.606300
vt 0.000000 0.000000
vt 0.000000 19.684999
vt -3.937010 19.684999
vt -0.000000 39.370098
vt -0.000000 0.000000
vt 39.370098 0.000000
vt -39.370098 0.000000
vt -24.606300 19.684999
vt 0.000000 0.000000
vt 0.000000 24.606300
vt -39.370098 24.606300
vt -3.937010 14.763800
vt 39.370098 0.000000
vt 39.370098 24.606300
vt 0.000000 24.606300
vt 0.000000 0.000000
vt -39.370098 0.000000
vt 39.370098 39.370098
vt -3.937010 0.000000
vt -24.606300 0.000000
vt 0.000000 14.763800
vt 0.000000 24.606300
vt 0.000000 39.370098
vt -3.937010 14.763800
vt 3.937010 19.684999
vt -14.763800 0.000000
vt -14.763800 19.684999
vt -24.606300 19.684999
vt -24.606300 0.000000
vt -14.763800 0.000000
vn -1.0000 0.0000 0.0000
vn 0.0000 0.0000 1.0000
vn 0.0000 -1.0000 -0.0000
vn 0.0000 0.0000 -1.0000
vn 0.0000 1.0000 0.0000
vn 1.0000 0.0000 0.0000
usemtl Brick.116
s 1
f 2/1/1 3/2/1 7/3/1
f 9/4/2 10/5/2 2/1/2
f 1/6/1 2/1/1 7/3/1
f 14/7/3 11/8/3 9/9/3
f 6/10/2 5/11/2 14/12/2
f 7/13/3 6/14/3 16/15/3
f 8/16/4 7/17/4 15/18/4
f 3/19/5 2/20/5 10/21/5
f 4/22/1 6/23/1 3/2/1
f 4/24/4 3/25/4 12/26/4
f 14/7/3 9/9/3 13/27/3
f 11/28/6 12/29/6 10/30/6
f 3/2/1 6/23/1 7/3/1
f 11/28/6 10/30/6 9/31/6
f 4/24/4 12/26/4 11/32/4
f 3/19/5 10/21/5 12/33/5
f 8/16/4 15/18/4 13/34/4
f 4/22/1 5/35/1 6/23/1
f 9/9/3 1/6/3 13/27/3
f 1/6/3 8/36/3 13/27/3
f 14/7/3 5/37/3 4/38/3
f 14/7/3 4/38/3 11/8/3
f 7/13/3 16/15/3 15/39/3
f 6/10/2 14/12/2 16/40/2
f 1/6/1 7/3/1 8/41/1
f 9/4/2 2/1/2 1/6/2
usemtl Glass.068
f 15/42/1 16/43/1 14/44/1
f 15/42/1 14/44/1 13/45/1
