# Blender v2.92.0 OBJ File: ''
# www.blender.org
mtllib Mesh1 Group1 Model.130.mtl
o Mesh1_Group1_Model.130
v -0.500000 0.000000 -0.500000
v -0.500000 0.106250 -0.500000
v 0.500000 0.106250 -0.500000
v 0.500000 0.000000 -0.500000
v -0.500000 0.000000 0.500000
v -0.500000 0.106250 0.500000
v 0.500000 0.000000 0.500000
v 0.500000 0.106250 0.500000
vt 0.000000 0.000000
vt 0.000000 4.183070
vt -39.370098 4.183070
vt 39.370098 0.000000
vt 39.370098 39.370098
vt 0.000000 39.370098
vt -39.370098 0.000000
vt 0.000000 0.000000
vt 0.000000 39.370098
vt 0.000000 0.000000
vt 39.370098 0.000000
vt 39.370098 4.183070
vt 39.370098 0.000000
vt 39.370098 4.183070
vt 0.000000 4.183070
vt -39.370098 4.183070
vt -39.370098 0.000000
vt 0.000000 4.183070
vt -39.370098 39.370098
vt 0.000000 0.000000
vt -39.370098 0.000000
vn 0.0000 0.0000 -1.0000
vn 0.0000 1.0000 0.0000
vn 0.0000 -1.0000 -0.0000
vn 1.0000 0.0000 0.0000
vn 0.0000 0.0000 1.0000
vn -1.0000 0.0000 0.0000
usemtl Roof.016
s 1
f 1/1/1 2/2/1 3/3/1
f 8/4/2 3/5/2 2/6/2
f 7/7/3 5/8/3 1/9/3
f 7/10/4 4/11/4 3/12/4
f 7/13/5 8/14/5 6/15/5
f 5/8/6 2/16/6 1/17/6
f 7/13/5 6/15/5 5/8/5
f 7/10/4 3/12/4 8/18/4
f 7/7/3 1/9/3 4/19/3
f 8/4/2 2/6/2 6/20/2
f 5/8/6 6/15/6 2/16/6
f 1/1/1 3/3/1 4/21/1
