# Blender v2.92.0 OBJ File: ''
# www.blender.org
mtllib Mesh1 Group1 Model.102.mtl
o Mesh1_Group1_Model.102
v 0.500000 0.212500 0.500000
v 0.500000 0.159375 0.500000
v 0.500000 0.159375 -0.500000
v 0.500000 0.212500 -0.500000
v -0.500000 0.212500 0.500000
v -0.500000 0.159375 0.500000
v -0.500000 0.212500 -0.500000
v -0.500000 0.159375 -0.500000
v -0.480000 0.159375 -0.480000
v -0.480000 0.159375 0.480000
v 0.480000 0.159375 0.480000
v -0.480000 0.053125 0.480000
v 0.480000 0.053125 0.480000
v 0.480000 0.053125 -0.480000
v -0.480000 0.053125 -0.480000
v 0.500000 0.053125 0.500000
v -0.500000 0.053125 0.500000
v -0.500000 0.053125 -0.500000
v 0.500000 0.053125 -0.500000
v 0.480000 0.159375 -0.480000
v 0.500000 0.000000 -0.500000
v 0.500000 0.000000 0.500000
v -0.500000 0.000000 -0.500000
v -0.500000 0.000000 0.500000
vt 0.000000 8.366140
vt 0.000000 6.274610
vt 39.370098 6.274610
vt -0.000000 39.370098
vt -0.000000 0.000000
vt 39.370098 0.000000
vt -39.370098 0.000000
vt 0.000000 0.000000
vt 0.000000 39.370098
vt -0.787402 38.582699
vt 0.000000 39.370098
vt -39.370098 39.370098
vt 0.000000 0.000000
vt -0.787402 0.787402
vt -39.370098 0.000000
vt -38.582699 0.787402
vt 39.370098 0.000000
vt 39.370098 2.091540
vt 0.000000 2.091540
vt -39.370098 2.091540
vt 0.787402 0.787402
vt 39.370098 0.000000
vt 38.582699 0.787402
vt 0.000000 0.000000
vt 0.000000 39.370098
vt 0.787402 38.582699
vt 39.370098 39.370098
vt 38.582699 38.582699
vt 0.000000 0.000000
vt 0.000000 2.091540
vt -39.370098 2.091540
vt -38.582699 38.582699
vt 39.370098 0.000000
vt 39.370098 2.091540
vt 0.000000 2.091540
vt -39.370098 8.366140
vt -39.370098 6.274610
vt 0.000000 6.274610
vt -39.370098 8.366140
vt -39.370098 6.274610
vt 0.000000 6.274610
vt 0.000000 8.366140
vt 39.370098 6.274610
vt 39.370098 8.366140
vt 0.000000 8.366140
vt 0.000000 0.000000
vt -39.370098 0.000000
vt -39.370098 0.000000
vt -39.370098 39.370098
vt 39.370098 39.370098
vt 39.370098 8.366140
vt 0.787402 2.091540
vt 38.582699 2.091540
vt 38.582699 6.274610
vt -0.787402 6.274610
vt -38.582699 6.274610
vt -38.582699 2.091540
vt -0.787402 6.274610
vt -38.582699 6.274610
vt -38.582699 2.091540
vt 0.787402 2.091540
vt 38.582699 2.091540
vt 38.582699 6.274610
vt 0.787402 6.274610
vt -0.787402 2.091540
vt -0.787402 2.091540
vt 0.787402 6.274610
vt 0.787402 38.582699
vt 0.787402 0.787402
vt 38.582699 0.787402
vt 38.582699 38.582699
vn 1.0000 0.0000 0.0000
vn 0.0000 1.0000 0.0000
vn 0.0000 -1.0000 -0.0000
vn 0.0000 0.0000 1.0000
vn -1.0000 0.0000 0.0000
vn 0.0000 0.0000 -1.0000
usemtl Dark_brick.014
s 1
f 1/1/1 2/2/1 3/3/1
f 7/4/2 5/5/2 1/6/2
f 22/7/3 24/8/3 23/9/3
f 9/10/3 8/11/3 3/12/3
f 8/11/3 9/10/3 6/13/3
f 10/14/3 6/13/3 9/10/3
f 6/13/3 10/14/3 2/15/3
f 2/15/3 10/14/3 11/16/3
f 22/17/4 16/18/4 17/19/4
f 24/8/5 17/19/5 18/20/5
f 12/21/2 16/22/2 13/23/2
f 12/21/2 17/24/2 16/22/2
f 17/24/2 12/21/2 18/25/2
f 15/26/2 18/25/2 12/21/2
f 18/25/2 15/26/2 19/27/2
f 19/27/2 15/26/2 14/28/2
f 23/29/6 18/30/6 19/31/6
f 9/10/3 3/12/3 20/32/3
f 20/32/3 3/12/3 11/16/3
f 2/15/3 11/16/3 3/12/3
f 21/33/1 19/34/1 16/35/1
f 13/23/2 16/22/2 14/28/2
f 19/27/2 14/28/2 16/22/2
f 4/36/6 3/37/6 8/38/6
f 7/39/5 8/40/5 6/41/5
f 5/42/4 2/43/4 1/44/4
f 7/39/5 6/41/5 5/42/5
f 4/36/6 8/38/6 7/45/6
f 21/33/1 16/35/1 22/46/1
f 23/29/6 19/31/6 21/47/6
f 24/8/5 18/20/5 23/48/5
f 22/17/4 17/19/4 24/8/4
f 22/7/3 23/9/3 21/49/3
f 7/4/2 1/6/2 4/50/2
f 5/42/4 6/41/4 2/43/4
f 1/1/1 3/3/1 4/51/1
usemtl Brick.070
f 13/52/1 14/53/1 20/54/1
f 10/55/5 9/56/5 15/57/5
f 9/58/6 20/59/6 14/60/6
f 12/61/4 13/62/4 11/63/4
f 12/61/4 11/63/4 10/64/4
f 9/58/6 14/60/6 15/65/6
f 10/55/5 15/57/5 12/66/5
f 13/52/1 20/54/1 11/67/1
usemtl FrontColor.008
f 9/68/2 10/69/2 11/70/2
f 12/21/2 13/23/2 14/28/2
f 12/21/2 14/28/2 15/26/2
f 9/68/2 11/70/2 20/71/2
