# Blender v2.92.0 OBJ File: ''
# www.blender.org
mtllib Mesh1 Group1 Model.001.mtl
o Mesh1_Group1_Model.001
v -0.500000 0.212500 -0.437500
v -0.500000 0.106250 -0.437500
v -0.500000 0.106250 0.437500
v -0.500000 0.212500 0.437500
v -0.437500 0.212500 -0.500000
v -0.437500 0.106250 -0.500000
v -0.437500 0.212500 0.500000
v 0.437500 0.212500 0.500000
v 0.500000 0.212500 0.437500
v 0.500000 0.212500 -0.437500
v 0.437500 0.212500 -0.500000
v -0.437500 0.106250 0.500000
v 0.437500 0.106250 0.500000
v 0.500000 0.106250 0.437500
v 0.500000 0.106250 -0.437500
v 0.437500 0.106250 -0.500000
v 0.500000 0.106250 0.500000
v -0.500000 0.106250 0.500000
v -0.500000 0.000000 0.500000
v 0.500000 0.000000 0.500000
v 0.500000 0.106250 -0.500000
v 0.500000 0.000000 -0.500000
v -0.500000 0.106250 -0.500000
v -0.500000 0.000000 -0.500000
vt -36.909401 4.183070
vt -2.460630 8.366140
vt -36.909401 8.366140
vt -29.578800 8.366140
vt -26.098900 4.183070
vt -26.098900 8.366140
vt 39.370098 2.460630
vt 36.909401 39.370098
vt -0.000000 36.909401
vt -1.739930 8.366140
vt 1.739930 4.183070
vt 1.739930 8.366140
vt -36.909401 4.183070
vt -2.460630 8.366140
vt -36.909401 8.366140
vt -1.739930 8.366140
vt 1.739930 4.183070
vt 1.739930 8.366140
vt 2.460630 4.183070
vt 36.909401 8.366140
vt 2.460630 8.366140
vt 26.098900 8.366140
vt 29.578800 4.183070
vt 29.578800 8.366140
vt 2.460630 4.183070
vt 36.909401 8.366140
vt 2.460630 8.366140
vt -2.460630 4.183070
vt -29.578800 4.183070
vt -0.000000 2.460630
vt 2.460630 0.000000
vt 36.909401 0.000000
vt 39.370098 36.909401
vt 2.460630 39.370098
vt -1.739930 4.183070
vt -2.460630 4.183070
vt -1.739930 4.183070
vt 36.909401 4.183070
vt 26.098900 4.183070
vt 36.909401 4.183070
vt 39.370098 36.909401
vt 2.460630 39.370098
vt 0.000000 2.460630
vt 2.460630 0.000000
vt 36.909401 0.000000
vt 39.370098 2.460630
vt 36.909401 39.370098
vt 0.000000 36.909401
vt 0.000000 -0.000000
vt 39.370098 -0.000000
vt 39.370098 0.000000
vt 0.000000 0.000000
vt 39.370098 0.000000
vt 39.370098 39.370098
vt -39.370098 0.000000
vt -0.000000 0.000000
vt 0.000000 39.370098
vt -39.370098 0.000000
vt -0.000000 -0.000000
vt -39.370098 39.370098
vt -39.370098 0.000000
vt 39.370098 4.183070
vt 0.000000 4.183070
vt 39.370098 4.183070
vt 0.000000 4.183070
vt -0.000000 4.183070
vt -39.370098 4.183070
vt -39.370098 4.183070
vt 0.000000 39.370098
vn -1.0000 0.0000 0.0000
vn -0.7071 0.0000 -0.7071
vn 0.0000 1.0000 -0.0000
vn -0.7071 0.0000 0.7071
vn 0.0000 0.0000 -1.0000
vn 0.7071 0.0000 -0.7071
vn 1.0000 0.0000 0.0000
vn 0.7071 0.0000 0.7071
vn 0.0000 0.0000 1.0000
vn 0.0000 -1.0000 -0.0000
usemtl Brick.004
s 1
f 2/1/1 4/2/1 1/3/1
f 5/4/2 2/5/2 1/6/2
f 9/7/3 11/8/3 1/9/3
f 4/10/4 12/11/4 7/12/4
f 16/13/5 5/14/5 11/15/5
f 10/16/6 16/17/6 11/18/6
f 14/19/7 10/20/7 9/21/7
f 8/22/8 14/23/8 9/24/8
f 12/25/9 8/26/9 7/27/9
f 2/1/1 3/28/1 4/2/1
f 5/4/2 6/29/2 2/5/2
f 1/9/3 4/30/3 7/31/3
f 7/31/3 8/32/3 9/7/3
f 9/7/3 10/33/3 11/8/3
f 11/8/3 5/34/3 1/9/3
f 1/9/3 7/31/3 9/7/3
f 4/10/4 3/35/4 12/11/4
f 16/13/5 6/36/5 5/14/5
f 10/16/6 15/37/6 16/17/6
f 14/19/7 15/38/7 10/20/7
f 8/22/8 13/39/8 14/23/8
f 12/25/9 13/40/9 8/26/9
usemtl FrontColor
f 15/41/3 6/42/3 3/43/3
f 3/43/3 12/44/3 13/45/3
f 13/45/3 14/46/3 15/41/3
f 15/41/3 16/47/3 6/42/3
f 6/42/3 2/48/3 3/43/3
f 3/43/3 13/45/3 15/41/3
usemtl Dark_brick
f 12/25/9 19/49/9 20/50/9
f 17/51/3 14/46/3 13/45/3
f 14/19/7 20/52/7 22/53/7
f 21/54/3 16/47/3 15/41/3
f 16/13/5 22/55/5 24/56/5
f 23/57/3 2/48/3 6/42/3
f 2/1/1 24/58/1 19/49/1
f 18/59/3 12/44/3 3/43/3
f 19/49/10 22/60/10 20/61/10
f 20/50/9 17/62/9 13/40/9
f 12/25/9 18/63/9 19/49/9
f 20/50/9 13/40/9 12/25/9
f 22/53/7 21/64/7 15/38/7
f 14/19/7 17/65/7 20/52/7
f 22/53/7 15/38/7 14/19/7
f 24/56/5 23/66/5 6/36/5
f 16/13/5 21/67/5 22/55/5
f 24/56/5 6/36/5 16/13/5
f 19/49/1 18/63/1 3/28/1
f 2/1/1 23/68/1 24/58/1
f 19/49/1 3/28/1 2/1/1
f 19/49/10 24/69/10 22/60/10
