# Blender v2.92.0 OBJ File: ''
# www.blender.org
mtllib Mesh1 Group1 Model.003.mtl
o Mesh1_Group1_Model.003
v 0.500000 0.000000 0.500000
v -0.500000 0.000000 0.500000
v -0.500000 0.000000 -0.500000
v 0.500000 0.000000 -0.500000
v 0.490000 0.106250 0.490000
v -0.490000 0.106250 0.490000
v 0.490000 0.106250 -0.490000
v -0.490000 0.106250 -0.490000
v -0.500000 0.212500 0.500000
v -0.500000 0.212500 -0.500000
v 0.500000 0.212500 0.500000
v 0.500000 0.212500 -0.500000
vt 0.000000 0.000000
vt -39.370098 39.370098
vt -39.370098 0.000000
vt 38.976398 4.201560
vt 39.370098 -0.000000
vt 39.370098 -3.689120
vt 0.393701 0.512441
vt 0.000000 -3.689120
vt -0.393701 0.512441
vt -39.370098 -3.689120
vt -0.000000 -3.689120
vt -38.976398 4.201560
vt -0.393701 4.201560
vt -39.370098 8.329330
vt -0.393701 4.127770
vt -0.000000 8.329330
vt -0.000000 0.000000
vt 39.370098 39.370098
vt -0.000000 39.370098
vt 39.370098 8.329330
vt 0.393701 4.127770
vt 38.976398 4.127770
vt 38.976398 7.816890
vt -0.000000 12.018400
vt 0.393701 7.816890
vt -38.976398 38.976398
vt -0.393701 38.976398
vt -0.393701 0.393701
vt -0.393701 7.816890
vt -39.370098 12.018400
vt -38.976398 7.816890
vt 0.000000 39.370098
vt 0.393701 4.201560
vt 38.976398 0.512441
vt -38.976398 0.512441
vt -39.370098 -0.000000
vt -38.976398 4.127770
vt 39.370098 0.000000
vt 39.370098 12.018400
vt -38.976398 0.393701
vt -0.000000 12.018400
vn 0.0000 -1.0000 -0.0000
vn 0.0000 0.0937 0.9956
vn 0.9956 0.0937 0.0000
vn 0.0000 0.0937 -0.9956
vn -0.9956 0.0937 0.0000
vn -0.9956 -0.0937 -0.0000
vn 0.0000 1.0000 0.0000
vn 0.0000 -0.0937 0.9956
vn 0.9956 -0.0937 -0.0000
vn 0.0000 -0.0937 -0.9956
usemtl Dark_brick.002
s 1
f 2/1/1 4/2/1 1/3/1
f 5/4/2 2/1/2 1/5/2
f 4/6/3 5/7/3 1/8/3
f 8/9/4 4/10/4 3/11/4
f 8/12/5 2/1/5 6/13/5
f 10/14/6 6/15/6 9/16/6
f 9/17/7 12/18/7 10/19/7
f 11/20/8 6/21/8 5/22/8
f 7/23/9 11/24/9 5/25/9
f 7/26/7 8/27/7 6/28/7
f 8/29/10 12/30/10 7/31/10
f 2/1/1 3/32/1 4/2/1
f 5/4/2 6/33/2 2/1/2
f 4/6/3 7/34/3 5/7/3
f 8/9/4 7/35/4 4/10/4
f 8/12/5 3/36/5 2/1/5
f 10/14/6 8/37/6 6/15/6
f 9/17/7 11/38/7 12/18/7
f 11/20/8 9/16/8 6/21/8
f 7/23/9 12/39/9 11/24/9
f 7/26/7 6/28/7 5/40/7
f 8/29/10 10/41/10 12/30/10
