# Blender v2.92.0 OBJ File: ''
# www.blender.org
mtllib Mesh1 Group1 Model.165.mtl
o Mesh1_Group1_Model.165
v 0.500000 0.000000 -0.500000
v 0.500000 0.625000 -0.500000
v 0.500000 0.625000 0.500000
v 0.500000 0.000000 0.500000
v -0.500000 0.000000 -0.500000
v -0.500000 0.625000 -0.500000
v -0.500000 0.060000 0.062500
v -0.500000 0.060000 0.375000
v -0.500000 0.000000 0.500000
v -0.500000 0.500000 0.375000
v -0.500000 0.625000 0.500000
v -0.500000 0.500000 0.062500
v -0.500000 0.120000 0.062500
v -0.400000 0.120000 0.062500
v -0.400000 0.060000 0.062500
v -0.400000 0.500000 0.062500
v -0.400000 0.120000 0.375000
v -0.550000 0.120000 0.062500
v -0.550000 0.120000 0.375000
v -0.500000 0.120000 0.375000
v -0.400000 0.500000 0.375000
v -0.400000 0.060000 0.375000
v -0.550000 0.060000 0.375000
v -0.550000 0.060000 0.062500
vt 39.370098 0.000000
vt 39.370098 24.606300
vt 0.000000 24.606300
vt -39.370098 0.000000
vt -17.224400 2.362200
vt -39.370098 24.606300
vt -4.921260 2.362200
vt 0.000000 0.000000
vt -4.921260 19.684999
vt 0.000000 24.606300
vt 0.000000 4.724410
vt 0.000000 2.362200
vt 1.968500 2.362200
vt -4.921260 4.724410
vt -17.224400 4.724410
vt -17.224400 2.362200
vt 0.000000 2.362200
vt 0.000000 4.724410
vt -1.968500 4.724410
vt -17.224400 19.684999
vt -17.224400 4.724410
vt 0.000000 17.224400
vt 0.000000 4.921260
vt 1.968500 4.921260
vt -3.937010 19.684999
vt -3.937010 4.724410
vt 0.000000 4.921260
vt 0.000000 17.224400
vt -3.937010 17.224400
vt 0.000000 4.921260
vt 0.000000 17.224400
vt -1.968500 17.224400
vt 3.937010 4.921260
vt 0.000000 19.684999
vt 3.937010 4.724410
vt 0.000000 39.370098
vt -39.370098 39.370098
vt -4.921260 4.724410
vt 39.370098 0.000000
vt 39.370098 24.606300
vt 0.000000 39.370098
vt 0.000000 0.000000
vt 39.370098 0.000000
vt 0.000000 0.000000
vt -39.370098 24.606300
vt -39.370098 0.000000
vt 39.370098 39.370098
vt -39.370098 0.000000
vt 3.937010 19.684999
vt 3.937010 17.224400
vt -1.968500 4.921260
vt -3.937010 4.921260
vt 0.000000 19.684999
vt 1.968500 17.224400
vt -1.968500 2.362200
vt -4.921260 2.362200
vt 1.968500 4.724410
vt 0.000000 24.606300
vt 0.000000 0.000000
vt 17.224400 4.724410
vt 4.921260 4.724410
vt 4.921260 2.362200
vt 3.937010 2.362200
vt 3.937010 4.724410
vt -3.937010 4.724410
vt -3.937010 2.362200
vt -3.937010 17.224400
vt -3.937010 4.921260
vt 17.224400 2.362200
vt -4.921260 19.684999
vt -17.224400 19.684999
vt -17.224400 4.724410
vt -4.921260 4.724410
vn 1.0000 0.0000 0.0000
vn -1.0000 0.0000 0.0000
vn 0.0000 0.0000 -1.0000
vn 0.0000 0.0000 1.0000
vn 0.0000 -1.0000 -0.0000
vn 0.0000 1.0000 0.0000
usemtl Brick.128
s 1
f 1/1/1 2/2/1 3/3/1
f 5/4/2 7/5/2 6/6/2
f 5/4/2 8/7/2 7/5/2
f 9/8/2 8/7/2 5/4/2
f 8/7/2 9/8/2 10/9/2
f 11/10/2 10/9/2 9/8/2
f 10/9/2 11/10/2 6/6/2
f 13/11/3 7/12/3 24/13/3
f 19/14/2 18/15/2 24/16/2
f 8/17/4 20/18/4 19/19/4
f 10/9/2 6/6/2 12/20/2
f 12/20/2 6/6/2 13/21/2
f 13/21/2 6/6/2 7/5/2
f 7/22/5 8/23/5 23/24/5
f 21/25/3 17/26/3 20/18/3
f 10/27/5 12/28/5 16/29/5
f 20/30/6 13/31/6 18/32/6
f 13/31/6 20/30/6 17/33/6
f 12/34/4 13/11/4 14/35/4
f 9/8/5 5/36/5 1/37/5
f 8/7/2 10/9/2 20/38/6
f 4/39/4 3/40/4 11/10/4
f 6/41/6 11/42/6 3/43/6
f 5/44/3 2/45/3 1/46/3
f 6/41/6 3/43/6 2/47/6
f 4/39/4 11/10/4 9/8/4
f 9/8/5 1/37/5 4/48/5
f 12/34/4 14/35/4 16/49/4
f 13/31/6 17/33/6 14/50/6
f 20/30/6 18/32/6 19/51/6
f 10/27/5 16/29/5 21/52/5
f 21/25/3 20/18/3 10/53/3
f 7/22/5 23/24/5 24/54/5
f 8/17/4 19/19/4 23/55/4
f 19/14/2 24/16/2 23/56/2
f 13/11/3 24/13/3 18/57/3
f 5/44/3 6/58/3 2/45/3
f 1/1/1 3/3/1 4/59/1
usemtl FrontColor.012
f 14/60/1 17/61/1 22/62/1
f 8/17/4 22/63/4 17/64/4
f 13/11/3 14/65/3 15/66/3
f 13/11/3 15/66/3 7/12/3
f 15/67/5 22/68/5 8/23/5
f 8/17/4 17/64/4 20/18/4
f 15/67/5 8/23/5 7/22/5
f 14/60/1 22/62/1 15/69/1
usemtl Glass.076
f 21/70/2 16/71/2 14/72/2
f 21/70/2 14/72/2 17/73/2
