# Blender v2.92.0 OBJ File: ''
# www.blender.org
mtllib Mesh1 Group1 Model.082.mtl
o Mesh1_Group1_Model.082
v 0.050000 0.166129 -0.264758
v 0.050000 0.213871 -0.264758
v 0.050000 0.452258 -0.264758
v 0.000000 0.452258 -0.264758
v 0.000000 0.047742 -0.264758
v 0.050000 0.047742 -0.264758
v 0.050000 0.000000 -0.312500
v 0.050000 0.047742 -0.047742
v 0.050000 0.000000 0.000000
v 0.050000 0.500000 0.000000
v 0.050000 0.452258 -0.047742
v 0.050000 0.500000 -0.312500
v 0.000000 0.452258 -0.047742
v 0.000000 0.500000 -0.312500
v 0.000000 0.500000 0.000000
v 0.000000 0.000000 0.000000
v 0.000000 0.047742 -0.047742
v 0.000000 0.000000 -0.312500
v 0.050000 0.213871 -0.047742
v 0.050000 0.166129 -0.047742
vt 1.968500 8.420110
vt 1.968500 17.805401
vt 0.000000 17.805401
vt 10.423600 6.540520
vt 12.303100 -0.000000
vt 10.423600 8.420110
vt 10.423600 1.879590
vt 1.879590 1.879590
vt 0.000000 -0.000000
vt 0.000000 19.684999
vt 1.879590 17.805401
vt 12.303100 19.684999
vt 10.423600 17.805401
vt 0.000000 10.423600
vt -1.968500 1.879590
vt 0.000000 1.879590
vt -1.879590 17.805401
vt -12.303100 19.684999
vt -10.423600 17.805401
vt 0.000000 19.684999
vt 0.000000 0.000000
vt -1.879590 1.879590
vt -12.303100 0.000000
vt -10.423600 1.879590
vt 0.000000 1.879590
vt 1.968500 10.423600
vt 0.000000 10.423600
vt 0.000000 17.805401
vt -1.968500 8.420110
vt 1.879590 6.540520
vt 1.879590 8.420110
vt -1.968500 0.000000
vt 0.000000 19.684999
vt -1.968500 19.684999
vt -1.968500 0.000000
vt 0.000000 12.303100
vt -1.968500 12.303100
vt 1.968500 19.684999
vt 1.968500 0.000000
vt 1.968500 12.303100
vt 0.000000 0.000000
vt 1.968500 0.000000
vt 1.968500 1.879590
vt 1.968500 6.540520
vt 0.000000 1.879590
vt -1.968500 10.423600
vt 1.968500 1.879590
vt -1.968500 17.805401
vt -1.968500 6.540520
vt -1.968500 1.879590
vt 0.000000 0.000000
vt 0.000000 12.303100
vn 0.0000 -0.0000 1.0000
vn 1.0000 0.0000 0.0000
vn 0.0000 -1.0000 0.0000
vn -1.0000 0.0000 0.0000
vn 0.0000 1.0000 0.0000
vn -0.0000 0.0000 -1.0000
usemtl Metal.007
s 1
f 2/1/1 3/2/1 4/3/1
f 1/4/2 7/5/2 2/6/2
f 6/7/2 7/5/2 1/4/2
f 8/8/2 7/5/2 6/7/2
f 8/8/2 9/9/2 7/5/2
f 9/9/2 8/8/2 10/10/2
f 11/11/2 10/10/2 8/8/2
f 10/10/2 11/11/2 12/12/2
f 12/12/2 11/11/2 3/13/2
f 4/14/3 11/15/3 13/16/3
f 13/17/4 14/18/4 4/19/4
f 13/17/4 15/20/4 14/18/4
f 15/20/4 13/17/4 16/21/4
f 17/22/4 16/21/4 13/17/4
f 16/21/4 17/22/4 18/23/4
f 18/23/4 17/22/4 5/24/4
f 17/25/5 6/26/5 5/27/5
f 17/25/6 13/28/6 19/29/6
f 11/11/2 20/30/2 19/31/4
f 11/11/2 8/8/2 20/30/2
f 18/23/4 5/24/4 14/18/4
f 4/19/4 14/18/4 5/24/4
f 7/32/6 14/33/6 12/34/6
f 12/12/2 3/13/2 7/5/2
f 2/6/2 7/5/2 3/13/2
f 9/35/3 18/36/3 7/37/3
f 10/38/1 16/21/1 9/39/1
f 12/40/5 15/41/5 10/42/5
f 6/43/1 1/44/1 5/45/1
f 1/44/1 2/1/1 5/45/1
f 5/45/1 2/1/1 4/3/1
f 4/14/3 3/46/3 11/15/3
f 17/25/5 8/47/5 6/26/5
f 11/48/6 19/29/6 13/28/6
f 19/29/6 20/49/6 17/25/6
f 20/49/6 8/50/6 17/25/6
f 7/32/6 18/51/6 14/33/6
f 9/35/3 16/21/3 18/36/3
f 10/38/1 15/20/1 16/21/1
f 12/40/5 14/52/5 15/41/5
