# Blender v2.92.0 OBJ File: ''
# www.blender.org
mtllib Mesh1 Group1 Model.163.mtl
o Mesh1_Group1_Model.163
v 0.500000 0.000000 0.500000
v 0.500000 0.000000 -0.500000
v 0.500000 0.427056 0.000000
v -0.500000 0.000000 0.500000
v -0.500000 0.000000 -0.500000
v -0.500000 0.427056 0.000000
v -0.500000 0.052710 0.545643
v -0.500000 0.518750 0.000000
v -0.500000 0.052710 -0.545640
v 0.500000 0.052710 0.545643
v 0.500000 0.518750 0.000000
v 0.500000 0.052710 -0.545640
vt 0.000000 -0.000000
vt 39.370098 -0.000000
vt 19.684999 16.813200
vt -39.370098 0.000000
vt 0.000000 0.000000
vt -19.684999 16.813200
vt 0.000001 39.370098
vt -39.370098 39.370098
vt -39.370098 -4.048820
vt -39.370098 -29.936800
vt 0.000000 -29.936800
vt -0.000000 25.887899
vt 39.370098 0.000000
vt 39.370098 25.887899
vt 0.000000 -4.048820
vt -39.370098 0.000001
vt -41.167000 2.075180
vt 39.370098 2.745080
vt 41.167000 2.075180
vt 19.684999 20.423201
vt 0.000000 -29.955400
vt -0.000000 -1.704270
vt -39.370098 -1.704270
vt -39.370098 25.772100
vt 0.000000 25.772100
vt 0.000000 28.517200
vt 39.370098 -0.018644
vt 39.370098 28.232500
vt 0.000000 28.232500
vt 0.000000 -0.018644
vt 1.796960 2.075180
vt -19.684999 20.423201
vt -1.796960 2.075180
vt -39.370098 28.517200
vt -39.370098 -29.955400
vt 0.000000 2.745080
vn 1.0000 0.0000 0.0000
vn -1.0000 0.0000 0.0000
vn 0.0000 -1.0000 -0.0000
vn 0.0000 0.7604 -0.6495
vn -0.0000 0.7604 0.6495
vn 0.0000 -0.6546 0.7560
vn 0.0000 -0.6546 -0.7560
usemtl Brick.126
s 1
f 1/1/1 2/2/1 3/3/1
f 5/4/2 4/5/2 6/6/2
f 4/5/3 5/7/3 2/8/3
f 3/9/4 2/10/4 5/11/4
f 6/12/5 1/13/5 3/14/5
f 3/9/4 5/11/4 6/15/4
f 6/12/5 4/5/5 1/13/5
f 4/5/3 2/8/3 1/16/3
usemtl Roof.025
f 9/17/2 5/4/2 6/6/2
f 4/5/6 1/13/6 10/18/6
f 3/3/1 12/19/1 11/20/1
f 9/21/4 8/22/4 11/23/4
f 2/24/7 5/25/7 9/26/7
f 10/27/5 11/28/5 8/29/5
f 10/27/5 8/29/5 7/30/5
f 4/5/2 7/31/2 6/6/2
f 7/31/2 8/32/2 6/6/2
f 8/32/2 9/17/2 6/6/2
f 10/33/1 1/1/1 3/3/1
f 3/3/1 2/2/1 12/19/1
f 11/20/1 10/33/1 3/3/1
f 2/24/7 9/26/7 12/34/7
f 9/21/4 11/23/4 12/35/4
f 4/5/6 10/18/6 7/36/6
