# Blender v2.92.0 OBJ File: ''
# www.blender.org
mtllib Mesh1 Group1 Model.103.mtl
o Mesh1_Group1_Model.103
v 0.500000 0.000000 0.500000
v -0.500000 0.000000 0.500000
v -0.500000 0.000000 -0.500000
v 0.500000 0.000000 -0.500000
v 0.490000 0.106250 0.490000
v -0.490000 0.106250 0.490000
v 0.490000 0.106250 -0.490000
v -0.490000 0.106250 -0.490000
v -0.500000 0.212500 0.500000
v -0.500000 0.212500 -0.500000
v 0.500000 0.212500 0.500000
v 0.500000 0.212500 -0.500000
vt -0.393701 7.816890
vt -0.000000 12.018400
vt -39.370098 12.018400
vt -0.000000 12.018400
vt 0.393701 7.816890
vt 38.976398 7.816890
vt -0.393701 38.976398
vt -38.976398 0.393701
vt -38.976398 38.976398
vt 38.976398 4.127770
vt 39.370098 8.329330
vt 0.000000 8.329330
vt -39.370098 8.329330
vt -38.976398 4.127770
vt -39.370098 0.000000
vt 0.000000 0.000000
vt 0.000000 39.370098
vt -0.393701 4.201560
vt -38.976398 4.201560
vt -39.370098 -3.689120
vt -0.000000 -3.689120
vt -0.393701 0.512441
vt 39.370098 -0.000000
vt 38.976398 4.201560
vt 0.000000 -3.689120
vt 39.370098 -3.689120
vt 38.976398 0.512441
vt -0.000000 39.370098
vt 39.370098 0.000000
vt 39.370098 39.370098
vt 0.393701 0.512441
vt -38.976398 0.512441
vt -39.370098 -0.000000
vt -0.393701 4.127770
vt 0.393701 4.127770
vt -0.393701 0.393701
vt 39.370098 12.018400
vt -38.976398 7.816890
vt 0.393701 4.201560
vt -0.000000 0.000000
vt -39.370098 39.370098
vn 0.0000 -0.0937 -0.9956
vn 0.9956 -0.0937 -0.0000
vn 0.0000 1.0000 0.0000
vn 0.0000 -0.0937 0.9956
vn -0.9956 -0.0937 -0.0000
vn 0.0000 -1.0000 -0.0000
vn -0.9956 0.0937 0.0000
vn 0.0000 0.0937 -0.9956
vn 0.0000 0.0937 0.9956
vn 0.9956 0.0937 0.0000
usemtl Dark_brick.015
s 1
f 8/1/1 10/2/1 12/3/1
f 11/4/2 5/5/2 7/6/2
f 8/7/3 5/8/3 7/9/3
f 5/10/4 11/11/4 9/12/4
f 9/12/5 10/13/5 8/14/5
f 1/15/6 2/16/6 3/17/6
f 2/16/7 6/18/7 8/19/7
f 4/20/8 3/21/8 8/22/8
f 2/16/9 1/23/9 5/24/9
f 1/25/10 4/26/10 7/27/10
f 10/28/3 11/29/3 12/30/3
f 1/25/10 7/27/10 5/31/10
f 4/20/8 8/22/8 7/32/8
f 2/16/7 8/19/7 3/33/7
f 9/12/5 8/14/5 6/34/5
f 5/10/4 9/12/4 6/35/4
f 8/7/3 6/36/3 5/8/3
f 11/4/2 7/6/2 12/37/2
f 8/1/1 12/3/1 7/38/1
f 2/16/9 5/24/9 6/39/9
f 10/28/3 9/40/3 11/29/3
f 1/15/6 3/17/6 4/41/6
