# Blender v2.92.0 OBJ File: ''
# www.blender.org
mtllib modularBuildings_063.002.mtl
o modularBuildings_063.002
v -0.388225 0.190805 0.180412
v -0.338225 0.190805 -0.180412
v -0.388225 0.190805 -0.180412
v -0.388225 0.125832 -0.245385
v -0.388225 0.125832 0.245385
v -0.388225 0.268743 0.180412
v -0.388225 0.312772 0.245385
v -0.388225 0.410683 0.000000
v -0.388225 0.312772 -0.245385
v 0.010580 0.312772 -0.245385
v 0.010580 0.312772 0.245385
v -0.388225 0.340728 0.000000
v -0.338225 0.268743 0.180412
v -0.388225 0.268743 -0.180412
v -0.338225 0.340728 0.000000
v -0.338225 0.268743 -0.180412
v -0.338225 0.190805 0.180412
v 0.500000 0.000000 -0.500000
v -0.500000 0.000000 -0.500000
v 0.500000 0.468750 -0.500000
v -0.500000 0.000000 0.500000
v 0.500000 0.000000 0.500000
v 0.500000 0.468750 0.500000
v 0.500000 0.518750 0.500000
v 0.500000 0.518750 -0.500000
v 0.450000 0.518750 0.500000
v 0.219457 0.410683 0.000000
v -0.618770 0.017765 0.500000
v -0.618770 0.017765 -0.500000
v 0.450000 0.518750 -0.500000
v -0.438225 0.362772 -0.245385
v -0.438225 0.362772 0.245385
v -0.438225 0.312772 0.245385
v 0.117247 0.362772 0.245385
v -0.438225 0.460683 0.000000
v 0.117247 0.362772 -0.245385
v 0.326123 0.460683 0.000000
v -0.438225 0.312772 -0.245385
v -0.438225 0.410683 0.000000
v -0.590550 -0.042443 -0.500000
v -0.590550 -0.042443 0.500000
vt -33.000999 7.512010
vt -34.969501 10.580400
vt -34.969501 7.512010
vt -29.345900 4.954010
vt -12.582200 7.512010
vt -26.787901 7.512010
vt -10.024200 4.954010
vt -12.582200 10.580400
vt -10.024200 12.313900
vt -26.787901 10.580400
vt -19.684999 16.168600
vt -29.345900 12.313900
vt 34.969501 12.313900
vt 19.268499 12.313900
vt 34.969501 4.954010
vt -19.268499 12.313900
vt -34.969501 12.313900
vt -34.969501 4.954010
vt -33.000999 10.580400
vt -33.000999 -20.959299
vt -33.000999 -13.312000
vt -34.969501 -13.312000
vt -34.969501 -20.959299
vt 33.000999 10.580400
vt 34.969501 7.512010
vt 34.969501 10.580400
vt -19.684999 13.414500
vt 39.370098 39.370098
vt 0.000000 0.000000
vt 39.370098 0.000000
vt 0.000000 -0.000000
vt 39.370098 -0.000000
vt 0.000000 18.454700
vt 39.370098 20.423201
vt 0.000000 18.454700
vt 39.370098 18.454700
vt -39.370098 0.000000
vt 33.000999 23.254700
vt 33.000999 15.607300
vt 34.969501 15.607300
vt -33.000999 12.582200
vt -33.000999 26.787901
vt -34.969501 26.787901
vt 39.370098 0.000000
vt 34.969501 23.254700
vt 0.000000 20.423201
vt 0.000000 39.370098
vt 33.000999 7.512010
vt -34.969501 12.582200
vt 0.000000 -39.584999
vt 39.370098 -35.647999
vt 0.000000 -35.647999
vt -36.938000 -12.291300
vt -34.969501 -22.692801
vt -34.969501 -12.291300
vt -10.024200 -12.220400
vt -29.345900 -12.220400
vt -29.345900 -29.560801
vt -39.370098 19.327900
vt -39.370098 16.709999
vt 0.000000 16.709999
vt -10.024200 14.282400
vt -19.684999 18.137100
vt -19.684999 16.168600
vt 36.938000 13.873900
vt 34.969501 24.275400
vt 34.969501 13.873900
vt -19.268499 13.873900
vt -11.045000 24.275400
vt -34.969501 24.275400
vt 19.268499 -22.692801
vt 34.969501 -12.291300
vt 11.045000 -12.291300
vt -0.000000 6.885910
vt -19.684999 -3.138290
vt -10.024200 -29.560801
vt -0.000000 -39.584999
vt -39.370098 -39.584999
vt -39.370098 6.885910
vt 36.938000 14.282400
vt -29.345900 14.282400
vt -15.069000 14.603400
vt -36.938000 25.004900
vt -36.938000 14.603400
vt -36.938000 14.282400
vt -36.938000 12.313900
vt 15.069000 -21.963301
vt 36.938000 -11.561800
vt 6.845530 -11.561800
vt -34.969501 13.873900
vt -10.024200 12.313900
vt 0.000000 19.327900
vt -1.968500 20.423201
vt 0.000000 0.000000
vt -1.968500 39.370098
vt -1.968500 0.000000
vt 44.046001 0.699401
vt 1.968500 20.423201
vt 15.069000 14.282400
vt 36.938000 12.313900
vt 34.969501 -22.692801
vt -15.069000 14.282400
vt 36.938000 24.275400
vt -36.938000 -22.692801
vt 39.370098 -39.584999
vt 36.938000 -21.963301
vt 0.000000 39.370098
vt -29.345900 12.313900
vt -44.046001 0.699401
vt -42.934898 -1.671000
vt -6.845530 25.004900
vt 0.000000 20.423201
vt 42.934898 -1.671000
vt -19.684999 13.414500
vt -26.787901 7.512010
vt -12.582200 7.512010
vt -12.582200 10.580400
vt -26.787901 10.580400
vn 0.0000 0.0000 1.0000
vn -1.0000 0.0000 0.0000
vn 0.0000 0.0000 -1.0000
vn 0.0000 -0.9288 0.3706
vn 0.0000 -1.0000 -0.0000
vn 1.0000 0.0000 0.0000
vn 0.0000 -0.9288 -0.3706
vn 0.0000 1.0000 0.0000
vn 0.4244 -0.9055 -0.0000
vn -0.4244 0.9055 0.0000
vn -0.9055 -0.4244 -0.0000
vn 0.0000 0.9288 0.3706
vn 0.0000 0.9288 -0.3706
usemtl Brick.124
s 1
f 2/1/1 14/2/1 3/3/1
f 4/4/2 1/5/2 3/6/2
f 5/7/2 1/5/2 4/4/2
f 1/5/2 5/7/2 6/8/2
f 7/9/2 6/8/2 5/7/2
f 14/10/2 8/11/2 9/12/2
f 9/13/3 10/14/3 4/15/3
f 11/16/1 7/17/1 5/18/1
f 2/1/1 16/19/1 14/2/1
f 16/20/4 15/21/4 12/22/4
f 16/20/4 12/22/4 14/23/4
f 13/24/3 1/25/3 6/26/3
f 14/10/2 12/27/2 8/11/2
f 14/10/2 9/12/2 3/6/2
f 4/4/2 3/6/2 9/12/2
f 19/28/5 22/29/5 21/30/5
f 18/31/3 19/32/3 20/33/3
f 25/34/6 23/35/6 20/36/6
f 22/29/1 23/35/1 21/37/1
f 15/38/7 13/39/7 6/40/7
f 17/41/8 2/42/8 3/43/8
f 22/29/6 18/44/6 20/36/6
f 15/38/7 6/40/7 12/45/7
f 22/29/6 20/36/6 23/35/6
f 25/34/6 24/46/6 23/35/6
f 19/28/5 18/47/5 22/29/5
f 8/11/2 6/8/2 7/9/2
f 13/24/3 17/48/3 1/25/3
f 8/11/2 12/27/2 6/8/2
f 17/41/8 3/43/8 1/49/8
usemtl Roof.023
f 41/50/9 19/51/9 21/52/9
f 39/53/4 9/54/4 8/55/4
f 11/56/10 10/57/10 4/58/10
f 29/59/11 40/60/11 41/61/11
f 32/62/2 35/63/2 39/64/2
f 33/65/7 8/66/7 7/67/7
f 11/68/12 27/69/12 8/70/12
f 10/71/13 8/72/13 27/73/13
f 11/56/10 26/74/10 27/75/10
f 5/76/10 26/74/10 11/56/10
f 5/76/10 28/77/10 26/74/10
f 28/77/10 5/76/10 29/78/10
f 4/58/10 29/78/10 5/76/10
f 29/78/10 4/58/10 30/79/10
f 30/79/10 4/58/10 10/57/10
f 10/14/3 9/13/3 31/80/3
f 31/81/2 39/64/2 35/63/2
f 30/79/10 10/57/10 27/75/10
f 34/82/12 35/83/12 32/84/12
f 32/85/1 33/86/1 7/17/1
f 36/87/13 35/88/13 37/89/13
f 11/68/12 8/70/12 7/90/12
f 32/62/2 39/64/2 33/91/2
f 29/59/11 41/61/11 28/92/11
f 30/79/10 27/75/10 26/74/10
f 11/56/10 4/58/10 5/76/10
f 21/37/1 23/35/1 26/93/1
f 24/94/8 30/95/8 26/96/8
f 29/97/3 30/98/3 19/32/3
f 31/80/3 36/99/3 10/14/3
f 9/13/3 38/100/3 31/80/3
f 10/71/13 9/101/13 8/72/13
f 11/56/10 27/75/10 10/57/10
f 7/17/1 11/16/1 32/85/1
f 11/16/1 34/102/1 32/85/1
f 33/65/7 39/103/7 8/66/7
f 39/53/4 38/104/4 9/54/4
f 41/50/9 40/105/9 19/51/9
f 36/87/13 31/106/13 35/88/13
f 24/94/8 25/107/8 30/95/8
f 31/81/2 38/108/2 39/64/2
f 24/46/1 26/93/1 23/35/1
f 26/93/1 28/109/1 21/37/1
f 28/109/1 41/110/1 21/37/1
f 34/82/12 37/111/12 35/83/12
f 25/112/3 20/33/3 30/98/3
f 20/33/3 19/32/3 30/98/3
f 19/32/3 40/113/3 29/97/3
usemtl Glass.075
f 15/114/2 2/115/2 17/116/2
f 17/116/2 13/117/2 15/114/2
f 15/114/2 16/118/2 2/115/2
