# Blender v2.92.0 OBJ File: ''
# www.blender.org
mtllib terrain_sideCorner.mtl
o terrain_sideCorner
v -0.250000 -0.000000 0.250000
v -0.500000 -0.000000 0.500000
v 0.500000 -0.000000 0.500000
v -0.500000 0.000000 -0.500000
v 0.250000 0.500000 -0.500000
v 0.500000 0.500000 -0.250000
v 0.500000 0.500000 -0.500000
v 0.312500 0.500000 -0.312500
v 0.125000 0.500000 -0.125000
v 0.500000 0.500000 0.000000
v 0.000000 0.500000 -0.500000
vt 29.527559 29.527559
vt 39.370079 39.370079
vt 0.000000 39.370079
vt 39.370079 0.000000
vt 9.842521 -0.000000
vt 0.000000 9.842520
vt 0.000000 0.000000
vt 7.381890 7.381889
vt 14.763780 14.763780
vt 0.000000 19.685040
vt 19.685040 0.000000
vt -9.337434 1.428103
vt 12.449910 -25.705851
vt 6.224956 1.428103
vt -18.674870 -25.705851
vt -6.224956 1.428103
vt 18.674870 -25.705851
vt 9.337434 1.428103
vt -12.449910 -25.705851
vn -0.0000 1.0000 0.0000
vn -0.2294 0.6882 0.6882
vn -0.6882 0.6882 0.2294
usemtl rock.013
s 1
f 1/1/1 2/2/1 3/3/1
f 2/2/1 1/1/1 4/4/1
f 5/5/1 6/6/1 7/7/1
f 6/6/1 5/5/1 8/8/1
usemtl rockDark.008
f 6/6/1 9/9/1 10/10/1
f 9/9/1 6/6/1 8/8/1
f 9/9/1 8/8/1 5/5/1
f 9/9/1 5/5/1 11/11/1
f 9/12/2 3/13/2 10/14/2
f 3/13/2 9/12/2 1/15/2
f 11/16/3 1/17/3 9/18/3
f 1/17/3 11/16/3 4/19/3
