# Blender v2.92.0 OBJ File: ''
# www.blender.org
mtllib terrain_roadCross.mtl
o terrain_roadCross
v -0.500000 0.000000 -0.250000
v -0.250000 0.000000 -0.125000
v -0.250000 0.000000 -0.250000
v -0.500000 0.000000 -0.125000
v -0.250000 -0.000000 0.500000
v -0.250000 0.000000 -0.500000
v -0.125000 -0.000000 0.500000
v -0.125000 -0.000000 0.250000
v -0.125000 -0.000000 0.125000
v -0.125000 0.000000 -0.125000
v -0.125000 0.000000 -0.250000
v -0.125000 0.000000 -0.500000
v -0.250000 -0.000000 0.125000
v -0.250000 -0.000000 0.250000
v -0.500000 -0.000000 0.125000
v -0.500000 -0.000000 0.250000
v 0.125000 -0.000000 0.250000
v 0.125000 -0.000000 0.125000
v 0.125000 0.000000 -0.125000
v 0.125000 0.000000 -0.250000
v 0.125000 -0.000000 0.500000
v 0.125000 0.000000 -0.500000
v 0.250000 -0.000000 0.500000
v 0.250000 -0.000000 0.250000
v 0.250000 -0.000000 0.125000
v 0.250000 0.000000 -0.125000
v 0.250000 0.000000 -0.250000
v 0.250000 0.000000 -0.500000
v 0.500000 -0.000000 0.125000
v 0.500000 -0.000000 0.250000
v 0.500000 0.000000 -0.250000
v 0.500000 0.000000 -0.125000
v -0.500000 -0.000000 0.500000
v 0.500000 0.000000 -0.500000
v 0.500000 -0.000000 0.500000
v -0.500000 0.000000 -0.500000
vt 19.685040 -9.842520
vt 9.842520 -4.921260
vt 9.842520 -9.842520
vt 19.685040 -4.921260
vt 9.842520 19.685040
vt 9.842520 -19.685040
vt 4.921260 19.685040
vt 4.921260 9.842520
vt 4.921260 4.921260
vt 4.921260 -4.921260
vt 4.921260 -9.842520
vt 4.921260 -19.685040
vt 9.842520 4.921260
vt 9.842520 9.842520
vt 19.685040 4.921260
vt 19.685040 9.842520
vt -4.921260 9.842520
vt -4.921260 4.921260
vt -4.921260 -4.921260
vt -4.921260 -9.842520
vt -4.921260 19.685040
vt -4.921260 -19.685040
vt -9.842520 19.685040
vt -9.842520 9.842520
vt -9.842520 4.921260
vt -9.842520 -4.921260
vt -9.842520 -9.842520
vt -9.842520 -19.685040
vt -19.685040 4.921260
vt -19.685040 9.842520
vt -19.685040 -9.842520
vt -19.685040 -4.921260
vt 19.685040 19.685040
vt -19.685040 -19.685040
vt -19.685040 19.685040
vt 19.685040 -19.685040
vn 0.0000 1.0000 0.0000
vn 0.3875 0.3875 -0.8365
vn -0.5509 0.5513 -0.6265
vn 0.4276 0.4270 -0.7968
vn 0.5806 0.2740 -0.7667
vn -0.5511 0.5512 -0.6265
vn 0.5484 0.2265 -0.8050
usemtl rockTrack.001
s 1
f 1/1/1 2/2/2 3/3/1
f 2/2/2 1/1/1 4/4/1
f 5/5/1 3/3/1 2/2/2
f 5/5/1 6/6/1 3/3/1
f 7/7/1 6/6/1 5/5/1
f 8/8/1 6/6/1 7/7/1
f 9/9/1 6/6/1 8/8/1
f 10/10/1 6/6/1 9/9/1
f 11/11/1 6/6/1 10/10/1
f 6/6/1 11/11/1 12/12/1
f 5/5/1 2/2/2 13/13/3
f 5/5/1 13/13/3 14/14/4
f 15/15/1 14/14/4 13/13/3
f 14/14/4 15/15/1 16/16/1
f 17/17/5 9/9/1 8/8/1
f 9/9/1 17/17/5 18/18/6
f 19/19/7 11/11/1 10/10/1
f 11/11/1 19/19/7 20/20/1
f 21/21/1 20/20/1 19/19/7
f 21/21/1 19/19/7 18/18/6
f 21/21/1 18/18/6 17/17/5
f 21/21/1 22/22/1 20/20/1
f 23/23/1 22/22/1 21/21/1
f 24/24/1 22/22/1 23/23/1
f 25/25/1 22/22/1 24/24/1
f 26/26/1 22/22/1 25/25/1
f 27/27/1 22/22/1 26/26/1
f 22/22/1 27/27/1 28/28/1
f 24/24/1 29/29/1 25/25/1
f 29/29/1 24/24/1 30/30/1
f 26/26/1 31/31/1 27/27/1
f 31/31/1 26/26/1 32/32/1
usemtl rock.007
f 16/16/1 5/5/1 14/14/4
f 5/5/1 16/16/1 33/33/1
f 4/4/1 13/13/3 2/2/2
f 13/13/3 4/4/1 15/15/1
f 28/28/1 31/31/1 34/34/1
f 31/31/1 28/28/1 27/27/1
f 30/30/1 23/23/1 35/35/1
f 23/23/1 30/30/1 24/24/1
f 36/36/1 3/3/1 6/6/1
f 3/3/1 36/36/1 1/1/1
f 8/8/1 21/21/1 17/17/5
f 21/21/1 8/8/1 7/7/1
f 32/32/1 25/25/1 29/29/1
f 25/25/1 32/32/1 26/26/1
f 10/10/1 18/18/6 19/19/7
f 18/18/6 10/10/1 9/9/1
f 12/12/1 20/20/1 22/22/1
f 20/20/1 12/12/1 11/11/1
