# Blender v2.92.0 OBJ File: ''
# www.blender.org
mtllib terrain_roadSplit.mtl
o terrain_roadSplit
v 0.500000 0.000000 -0.500000
v 0.467368 -0.000000 -0.252139
v 0.500000 -0.000000 -0.250000
v 0.250000 0.000000 -0.500000
v 0.435295 -0.000000 -0.258519
v 0.404329 -0.000000 -0.269030
v 0.375000 -0.000000 -0.283494
v 0.347810 -0.000000 -0.301662
v 0.323223 -0.000000 -0.323223
v 0.301662 -0.000000 -0.347810
v 0.283494 -0.000000 -0.375000
v 0.269030 -0.000000 -0.404329
v 0.258519 -0.000000 -0.435295
v 0.252139 -0.000000 -0.467368
v 0.451053 -0.000000 -0.128208
v 0.500000 -0.000000 0.125000
v 0.500000 -0.000000 -0.125000
v 0.418421 -0.000000 0.119653
v 0.402943 -0.000000 -0.137778
v 0.338238 -0.000000 0.103704
v 0.356494 -0.000000 -0.153545
v 0.312500 -0.000000 -0.175240
v 0.260823 -0.000000 0.077425
v 0.271714 -0.000000 -0.202493
v 0.234835 -0.000000 -0.234835
v 0.187500 -0.000000 0.041266
v 0.209956 -0.000000 -0.263204
v 0.192910 -0.000000 -0.212987
v 0.149519 -0.000000 -0.125000
v 0.119524 -0.000000 -0.004154
v 0.095015 -0.000000 -0.043429
v 0.086201 -0.000000 -0.033378
v 0.402105 -0.000000 0.243584
v 0.500000 -0.000000 0.500000
v 0.500000 -0.000000 0.250000
v -0.500000 -0.000000 0.500000
v 0.305886 -0.000000 0.224444
v 0.212987 -0.000000 0.192910
v 0.125000 -0.000000 0.149519
v 0.043429 -0.000000 0.095015
v 0.000000 -0.000000 0.056929
v -0.043429 -0.000000 0.095015
v -0.125000 -0.000000 0.149519
v -0.212987 -0.000000 0.192910
v -0.305886 -0.000000 0.224444
v -0.402105 -0.000000 0.243584
v -0.500000 -0.000000 0.250000
v -0.125000 0.000000 -0.500000
v 0.119653 -0.000000 -0.418421
v 0.125000 0.000000 -0.500000
v 0.103704 -0.000000 -0.338238
v 0.077425 -0.000000 -0.260823
v 0.041266 -0.000000 -0.187500
v 0.000000 -0.000000 -0.125741
v -0.041266 -0.000000 -0.187500
v -0.077425 -0.000000 -0.260823
v -0.103703 -0.000000 -0.338238
v -0.119653 -0.000000 -0.418421
v -0.095015 -0.000000 -0.043429
v -0.119524 -0.000000 -0.004154
v -0.086201 -0.000000 -0.033378
v -0.149519 -0.000000 -0.125000
v -0.187500 -0.000000 0.041266
v -0.192910 -0.000000 -0.212987
v -0.260823 -0.000000 0.077425
v -0.209956 -0.000000 -0.263204
v -0.234835 -0.000000 -0.234835
v -0.271714 -0.000000 -0.202493
v -0.338238 -0.000000 0.103704
v -0.312500 -0.000000 -0.175240
v -0.356494 -0.000000 -0.153545
v -0.418421 -0.000000 0.119653
v -0.402943 -0.000000 -0.137778
v -0.451053 -0.000000 -0.128208
v -0.500000 -0.000000 0.125000
v -0.500000 -0.000000 -0.125000
v -0.500000 0.000000 -0.500000
v -0.252139 -0.000000 -0.467368
v -0.250000 0.000000 -0.500000
v -0.258519 -0.000000 -0.435295
v -0.269030 -0.000000 -0.404329
v -0.283494 -0.000000 -0.375000
v -0.301661 -0.000000 -0.347810
v -0.323223 -0.000000 -0.323223
v -0.347810 -0.000000 -0.301662
v -0.375000 -0.000000 -0.283494
v -0.404329 -0.000000 -0.269030
v -0.435295 -0.000000 -0.258519
v -0.467369 -0.000000 -0.252139
v -0.500000 -0.000000 -0.250000
vt 0.000000 0.000000
vt 1.284706 9.758315
vt -0.000000 9.842520
vt 9.842520 -0.000001
vt 2.547431 9.507144
vt 3.766569 9.093302
vt 4.921260 8.523871
vt 5.991746 7.808596
vt 6.959713 6.959712
vt 7.808596 5.991746
vt 8.523872 4.921259
vt 9.093303 3.766568
vt 9.507144 2.547431
vt 9.758315 1.284706
vt 1.927060 14.637470
vt -0.000000 24.606300
vt -0.000000 14.763780
vt 3.211766 24.395790
vt 3.821147 14.260720
vt 6.368579 23.767860
vt 5.649854 13.639950
vt 7.381890 12.785810
vt 9.416423 22.733259
vt 8.987619 11.712890
vt 10.439570 10.439570
vt 12.303150 21.309681
vt 11.419060 9.322674
vt 12.090170 11.299710
vt 13.798460 14.763780
vt 14.979370 19.521490
vt 15.944290 17.975241
vt 16.291309 18.370939
vt 3.854120 29.274950
vt 0.000000 39.370079
vt -0.000000 29.527559
vt 39.370079 39.370079
vt 7.642294 28.521429
vt 11.299710 27.279909
vt 14.763780 25.571621
vt 17.975241 23.425791
vt 19.685040 21.926331
vt 21.394840 23.425791
vt 24.606300 25.571621
vt 28.070370 27.279909
vt 31.727791 28.521429
vt 35.515961 29.274950
vt 39.370079 29.527559
vt 24.606300 -0.000001
vt 14.974290 3.211765
vt 14.763780 -0.000001
vt 15.602220 6.368578
vt 16.636820 9.416422
vt 18.060400 12.303150
vt 19.685040 14.734600
vt 21.309681 12.303150
vt 22.733259 9.416422
vt 23.767860 6.368578
vt 24.395790 3.211766
vt 23.425791 17.975241
vt 24.390711 19.521490
vt 23.078760 18.370939
vt 25.571621 14.763780
vt 27.066931 21.309681
vt 27.279909 11.299710
vt 29.953659 22.733259
vt 27.951019 9.322673
vt 28.930510 10.439570
vt 30.382460 11.712890
vt 33.001499 23.767860
vt 31.988190 12.785810
vt 33.720230 13.639950
vt 36.158310 24.395790
vt 35.548931 14.260710
vt 37.443020 14.637470
vt 39.370079 24.606300
vt 39.370079 14.763780
vt 39.370079 0.000000
vt 29.611759 1.284706
vt 29.527559 -0.000001
vt 29.862930 2.547431
vt 30.276779 3.766568
vt 30.846210 4.921259
vt 31.561480 5.991746
vt 32.410370 6.959712
vt 33.378330 7.808596
vt 34.448818 8.523872
vt 35.603512 9.093303
vt 36.822651 9.507144
vt 38.085369 9.758316
vt 39.370079 9.842520
vn -0.0000 1.0000 0.0000
usemtl rock.008
s 1
f 1/1/1 2/2/1 3/3/1
f 2/2/1 1/1/1 4/4/1
f 2/2/1 4/4/1 5/5/1
f 5/5/1 4/4/1 6/6/1
f 6/6/1 4/4/1 7/7/1
f 7/7/1 4/4/1 8/8/1
f 8/8/1 4/4/1 9/9/1
f 9/9/1 4/4/1 10/10/1
f 10/10/1 4/4/1 11/11/1
f 11/11/1 4/4/1 12/12/1
f 12/12/1 4/4/1 13/13/1
f 13/13/1 4/4/1 14/14/1
f 15/15/1 16/16/1 17/17/1
f 16/16/1 15/15/1 18/18/1
f 18/18/1 15/15/1 19/19/1
f 18/18/1 19/19/1 20/20/1
f 20/20/1 19/19/1 21/21/1
f 20/20/1 21/21/1 22/22/1
f 20/20/1 22/22/1 23/23/1
f 23/23/1 22/22/1 24/24/1
f 23/23/1 24/24/1 25/25/1
f 23/23/1 25/25/1 26/26/1
f 26/26/1 25/25/1 27/27/1
f 26/26/1 27/27/1 28/28/1
f 26/26/1 28/28/1 29/29/1
f 26/26/1 29/29/1 30/30/1
f 30/30/1 29/29/1 31/31/1
f 30/30/1 31/31/1 32/32/1
f 33/33/1 34/34/1 35/35/1
f 34/34/1 33/33/1 36/36/1
f 36/36/1 33/33/1 37/37/1
f 36/36/1 37/37/1 38/38/1
f 36/36/1 38/38/1 39/39/1
f 36/36/1 39/39/1 40/40/1
f 36/36/1 40/40/1 41/41/1
f 36/36/1 41/41/1 42/42/1
f 36/36/1 42/42/1 43/43/1
f 36/36/1 43/43/1 44/44/1
f 36/36/1 44/44/1 45/45/1
f 36/36/1 45/45/1 46/46/1
f 36/36/1 46/46/1 47/47/1
f 48/48/1 49/49/1 50/50/1
f 49/49/1 48/48/1 51/51/1
f 51/51/1 48/48/1 52/52/1
f 52/52/1 48/48/1 53/53/1
f 53/53/1 48/48/1 54/54/1
f 54/54/1 48/48/1 55/55/1
f 55/55/1 48/48/1 56/56/1
f 56/56/1 48/48/1 57/57/1
f 57/57/1 48/48/1 58/58/1
f 59/59/1 60/60/1 61/61/1
f 60/60/1 59/59/1 62/62/1
f 60/60/1 62/62/1 63/63/1
f 63/63/1 62/62/1 64/64/1
f 63/63/1 64/64/1 65/65/1
f 65/65/1 64/64/1 66/66/1
f 65/65/1 66/66/1 67/67/1
f 65/65/1 67/67/1 68/68/1
f 65/65/1 68/68/1 69/69/1
f 69/69/1 68/68/1 70/70/1
f 69/69/1 70/70/1 71/71/1
f 69/69/1 71/71/1 72/72/1
f 72/72/1 71/71/1 73/73/1
f 72/72/1 73/73/1 74/74/1
f 72/72/1 74/74/1 75/75/1
f 75/75/1 74/74/1 76/76/1
f 77/77/1 78/78/1 79/79/1
f 78/78/1 77/77/1 80/80/1
f 80/80/1 77/77/1 81/81/1
f 81/81/1 77/77/1 82/82/1
f 82/82/1 77/77/1 83/83/1
f 83/83/1 77/77/1 84/84/1
f 84/84/1 77/77/1 85/85/1
f 85/85/1 77/77/1 86/86/1
f 86/86/1 77/77/1 87/87/1
f 87/87/1 77/77/1 88/88/1
f 88/88/1 77/77/1 89/89/1
f 89/89/1 77/77/1 90/90/1
usemtl rockTrack.002
f 2/2/1 17/17/1 3/3/1
f 17/17/1 2/2/1 15/15/1
f 15/15/1 2/2/1 5/5/1
f 15/15/1 5/5/1 19/19/1
f 19/19/1 5/5/1 6/6/1
f 19/19/1 6/6/1 7/7/1
f 19/19/1 7/7/1 21/21/1
f 21/21/1 7/7/1 8/8/1
f 21/21/1 8/8/1 22/22/1
f 22/22/1 8/8/1 9/9/1
f 22/22/1 9/9/1 10/10/1
f 22/22/1 10/10/1 24/24/1
f 24/24/1 10/10/1 11/11/1
f 24/24/1 11/11/1 12/12/1
f 24/24/1 12/12/1 25/25/1
f 25/25/1 12/12/1 13/13/1
f 25/25/1 13/13/1 14/14/1
f 25/25/1 14/14/1 4/4/1
f 25/25/1 4/4/1 50/50/1
f 25/25/1 50/50/1 27/27/1
f 27/27/1 50/50/1 28/28/1
f 28/28/1 50/50/1 29/29/1
f 29/29/1 50/50/1 49/49/1
f 29/29/1 49/49/1 31/31/1
f 31/31/1 49/49/1 51/51/1
f 31/31/1 51/51/1 52/52/1
f 31/31/1 52/52/1 32/32/1
f 40/40/1 32/32/1 52/52/1
f 40/40/1 30/30/1 32/32/1
f 39/39/1 30/30/1 40/40/1
f 39/39/1 26/26/1 30/30/1
f 38/38/1 26/26/1 39/39/1
f 38/38/1 23/23/1 26/26/1
f 37/37/1 23/23/1 38/38/1
f 37/37/1 20/20/1 23/23/1
f 33/33/1 20/20/1 37/37/1
f 33/33/1 18/18/1 20/20/1
f 35/35/1 18/18/1 33/33/1
f 18/18/1 35/35/1 16/16/1
f 40/40/1 52/52/1 53/53/1
f 40/40/1 53/53/1 41/41/1
f 41/41/1 53/53/1 54/54/1
f 41/41/1 54/54/1 42/42/1
f 42/42/1 54/54/1 55/55/1
f 42/42/1 55/55/1 56/56/1
f 42/42/1 56/56/1 61/61/1
f 57/57/1 61/61/1 56/56/1
f 61/61/1 57/57/1 59/59/1
f 59/59/1 57/57/1 62/62/1
f 62/62/1 57/57/1 58/58/1
f 62/62/1 58/58/1 48/48/1
f 62/62/1 48/48/1 79/79/1
f 62/62/1 79/79/1 64/64/1
f 64/64/1 79/79/1 66/66/1
f 66/66/1 79/79/1 67/67/1
f 67/67/1 79/79/1 78/78/1
f 67/67/1 78/78/1 68/68/1
f 68/68/1 78/78/1 80/80/1
f 68/68/1 80/80/1 81/81/1
f 68/68/1 81/81/1 82/82/1
f 68/68/1 82/82/1 70/70/1
f 70/70/1 82/82/1 83/83/1
f 70/70/1 83/83/1 84/84/1
f 70/70/1 84/84/1 71/71/1
f 71/71/1 84/84/1 85/85/1
f 71/71/1 85/85/1 86/86/1
f 71/71/1 86/86/1 73/73/1
f 73/73/1 86/86/1 87/87/1
f 73/73/1 87/87/1 74/74/1
f 74/74/1 87/87/1 88/88/1
f 74/74/1 88/88/1 89/89/1
f 74/74/1 89/89/1 76/76/1
f 76/76/1 89/89/1 90/90/1
f 42/42/1 61/61/1 43/43/1
f 43/43/1 61/61/1 60/60/1
f 43/43/1 60/60/1 63/63/1
f 43/43/1 63/63/1 44/44/1
f 44/44/1 63/63/1 65/65/1
f 44/44/1 65/65/1 45/45/1
f 45/45/1 65/65/1 69/69/1
f 45/45/1 69/69/1 46/46/1
f 46/46/1 69/69/1 72/72/1
f 46/46/1 72/72/1 47/47/1
f 47/47/1 72/72/1 75/75/1
