# Blender v2.92.0 OBJ File: ''
# www.blender.org
mtllib terrain_sideCornerInner.mtl
o terrain_sideCornerInner
v 0.000000 0.500000 0.500000
v -0.500000 0.500000 0.000000
v -0.500000 -0.000000 0.500000
v 0.188436 0.500000 0.376136
v 0.250000 0.500000 0.500000
v -0.374506 0.500000 -0.187253
v -0.500000 0.500000 -0.250000
v -0.500000 0.500000 -0.500000
v 0.500000 0.500000 0.500000
v 0.500000 0.500000 -0.500000
vt 13.919430 -8.036384
vt -13.919430 -8.036384
vt 0.000000 -32.145531
vt 12.266310 34.493549
vt 19.685040 39.370079
vt 9.842521 39.370079
vt 34.429379 12.312870
vt 39.370079 19.685040
vt 39.370079 9.842520
vt 39.370079 0.000000
vt 0.000000 39.370079
vt 0.000000 0.000000
vn -0.5774 0.5774 0.5774
vn -0.0000 1.0000 0.0000
usemtl rockDark.006
s 1
f 1/1/1 2/2/1 3/3/1
f 4/4/2 1/5/2 5/6/2
f 1/5/2 4/4/2 6/7/2
f 1/5/2 6/7/2 2/8/2
f 2/8/2 6/7/2 7/9/2
usemtl rock.011
f 8/10/2 9/11/2 10/12/2
f 9/11/2 8/10/2 4/4/2
f 9/11/2 4/4/2 5/6/2
f 4/4/2 8/10/2 6/7/2
f 6/7/2 8/10/2 7/9/2
